<?xml version="1.0" encoding="utf-8"?>
<svg xmlns="http://www.w3.org/2000/svg" xmlns:xlink="http://www.w3.org/1999/xlink" xml:space="preserve" width="990" height="990" viewBox="0 0 990 990"><defs><radialGradient id="pattern-gradient" cx="50%" cy="50%" r="50%" fx="50%" fy="50%" gradientUnits="userSpaceOnUse"><stop offset="0%" stop-color="#ff0000"/><stop offset="100%" stop-color="#000000"/></radialGradient>
<mask id="qrmask"><g fill="#ffffff"><g>
<g transform="translate(220,44) scale(3.7766666666667)"><circle cx="3" cy="3" r="2.5"/></g>
<g transform="translate(286,44) scale(3.7766666666667)"><circle cx="3" cy="3" r="2.5"/></g>
<g transform="translate(396,44) scale(3.7766666666667)"><path d="M5.5,6h-5V3c0-1.4,1.1-2.5,2.5-2.5h0c1.4,0,2.5,1.1,2.5,2.5V6z"/></g>
<g transform="translate(440,44) scale(3.7766666666667)"><circle cx="3" cy="3" r="2.5"/></g>
<g transform="translate(462,44) scale(3.7766666666667)"><path d="M5.5,6h-5V3c0-1.4,1.1-2.5,2.5-2.5h0c1.4,0,2.5,1.1,2.5,2.5V6z"/></g>
<g transform="translate(550,44) scale(3.7766666666667)"><circle cx="3" cy="3" r="2.5"/></g>
<g transform="translate(572,44) scale(3.7766666666667)"><path d="M5.5,6h-5V3c0-1.4,1.1-2.5,2.5-2.5h0c1.4,0,2.5,1.1,2.5,2.5V6z"/></g>
<g transform="translate(616,44) scale(3.7766666666667)"><circle cx="3" cy="3" r="2.5"/></g>
<g transform="translate(638,44) scale(3.7766666666667)"><path d="M5.5,6h-5V3c0-1.4,1.1-2.5,2.5-2.5h0c1.4,0,2.5,1.1,2.5,2.5V6z"/></g>
<g transform="translate(660,44) scale(3.7766666666667)"><path d="M5.5,6h-5V3c0-1.4,1.1-2.5,2.5-2.5h0c1.4,0,2.5,1.1,2.5,2.5V6z"/></g>
<g transform="translate(682,44) scale(3.7766666666667)"><path d="M5.5,6h-5V3c0-1.4,1.1-2.5,2.5-2.5h0c1.4,0,2.5,1.1,2.5,2.5V6z"/></g>
<g transform="translate(704,44) scale(3.7766666666667)"><circle cx="3" cy="3" r="2.5"/></g>
<g transform="translate(726,44) scale(3.7766666666667)"><circle cx="3" cy="3" r="2.5"/></g>
<g transform="translate(748,44) scale(3.7766666666667)"><path d="M5.5,6h-5V3c0-1.4,1.1-2.5,2.5-2.5h0c1.4,0,2.5,1.1,2.5,2.5V6z"/></g>
<g transform="translate(330,66) scale(3.7766666666667)"><circle cx="3" cy="3" r="2.5"/></g>
<g transform="translate(352,66) scale(3.7766666666667)"><circle cx="3" cy="3" r="2.5"/></g>
<g transform="translate(396,66) scale(3.7766666666667)"><rect x="0.5" width="5" height="6"/></g>
<g transform="translate(418,66) scale(3.7766666666667)"><circle cx="3" cy="3" r="2.5"/></g>
<g transform="translate(462,66) scale(3.7766666666667)"><path d="M3,5.5L3,5.5C1.6,5.5,0.5,4.4,0.5,3V0h5v3C5.5,4.4,4.4,5.5,3,5.5z"/></g>
<g transform="translate(572,66) scale(3.7766666666667)"><path d="M3,5.5L3,5.5C1.6,5.5,0.5,4.4,0.5,3V0h5v3C5.5,4.4,4.4,5.5,3,5.5z"/></g>
<g transform="translate(638,66) scale(3.7766666666667)"><path d="M3,5.5L3,5.5C1.6,5.5,0.5,4.4,0.5,3V0h5v3C5.5,4.4,4.4,5.5,3,5.5z"/></g>
<g transform="translate(660,66) scale(3.7766666666667)"><rect x="0.5" width="5" height="6"/></g>
<g transform="translate(682,66) scale(3.7766666666667)"><rect x="0.5" width="5" height="6"/></g>
<g transform="translate(748,66) scale(3.7766666666667)"><rect x="0.5" width="5" height="6"/></g>
<g transform="translate(242,88) scale(3.7766666666667)"><circle cx="3" cy="3" r="2.5"/></g>
<g transform="translate(264,88) scale(3.7766666666667)"><path d="M5.5,6h-5V3c0-1.4,1.1-2.5,2.5-2.5h0c1.4,0,2.5,1.1,2.5,2.5V6z"/></g>
<g transform="translate(286,88) scale(3.7766666666667)"><circle cx="3" cy="3" r="2.5"/></g>
<g transform="translate(374,88) scale(3.7766666666667)"><circle cx="3" cy="3" r="2.5"/></g>
<g transform="translate(396,88) scale(3.7766666666667)"><path d="M3,5.5L3,5.5C1.6,5.5,0.5,4.4,0.5,3V0h5v3C5.5,4.4,4.4,5.5,3,5.5z"/></g>
<g transform="translate(440,88) scale(3.7766666666667)"><path d="M5.5,6h-5V3c0-1.4,1.1-2.5,2.5-2.5h0c1.4,0,2.5,1.1,2.5,2.5V6z"/></g>
<g transform="translate(506,88) scale(3.7766666666667)"><circle cx="3" cy="3" r="2.5"/></g>
<g transform="translate(550,88) scale(3.7766666666667)"><circle cx="3" cy="3" r="2.5"/></g>
<g transform="translate(616,88) scale(3.7766666666667)"><circle cx="3" cy="3" r="2.5"/></g>
<g transform="translate(660,88) scale(3.7766666666667)"><path d="M3,5.5L3,5.5C1.6,5.5,0.5,4.4,0.5,3V0h5v3C5.5,4.4,4.4,5.5,3,5.5z"/></g>
<g transform="translate(682,88) scale(3.7766666666667)"><path d="M3,5.5L3,5.5C1.6,5.5,0.5,4.4,0.5,3V0h5v3C5.5,4.4,4.4,5.5,3,5.5z"/></g>
<g transform="translate(704,88) scale(3.7766666666667)"><circle cx="3" cy="3" r="2.5"/></g>
<g transform="translate(748,88) scale(3.7766666666667)"><rect x="0.5" width="5" height="6"/></g>
<g transform="translate(264,110) scale(3.7766666666667)"><rect x="0.5" width="5" height="6"/></g>
<g transform="translate(330,110) scale(3.7766666666667)"><circle cx="3" cy="3" r="2.5"/></g>
<g transform="translate(352,110) scale(3.7766666666667)"><circle cx="3" cy="3" r="2.5"/></g>
<g transform="translate(418,110) scale(3.7766666666667)"><path d="M5.5,6h-5V3c0-1.4,1.1-2.5,2.5-2.5h0c1.4,0,2.5,1.1,2.5,2.5V6z"/></g>
<g transform="translate(440,110) scale(3.7766666666667)"><path d="M3,5.5L3,5.5C1.6,5.5,0.5,4.4,0.5,3V0h5v3C5.5,4.4,4.4,5.5,3,5.5z"/></g>
<g transform="translate(462,110) scale(3.7766666666667)"><circle cx="3" cy="3" r="2.5"/></g>
<g transform="translate(484,110) scale(3.7766666666667)"><path d="M5.5,6h-5V3c0-1.4,1.1-2.5,2.5-2.5h0c1.4,0,2.5,1.1,2.5,2.5V6z"/></g>
<g transform="translate(572,110) scale(3.7766666666667)"><path d="M5.5,6h-5V3c0-1.4,1.1-2.5,2.5-2.5h0c1.4,0,2.5,1.1,2.5,2.5V6z"/></g>
<g transform="translate(748,110) scale(3.7766666666667)"><rect x="0.5" width="5" height="6"/></g>
<g transform="translate(220,132) scale(3.7766666666667)"><path d="M5.5,6h-5V3c0-1.4,1.1-2.5,2.5-2.5h0c1.4,0,2.5,1.1,2.5,2.5V6z"/></g>
<g transform="translate(242,132) scale(3.7766666666667)"><path d="M5.5,6h-5V3c0-1.4,1.1-2.5,2.5-2.5h0c1.4,0,2.5,1.1,2.5,2.5V6z"/></g>
<g transform="translate(264,132) scale(3.7766666666667)"><rect x="0.5" width="5" height="6"/></g>
<g transform="translate(308,132) scale(3.7766666666667)"><path d="M5.5,6h-5V3c0-1.4,1.1-2.5,2.5-2.5h0c1.4,0,2.5,1.1,2.5,2.5V6z"/></g>
<g transform="translate(374,132) scale(3.7766666666667)"><circle cx="3" cy="3" r="2.5"/></g>
<g transform="translate(396,132) scale(3.7766666666667)"><path d="M5.5,6h-5V3c0-1.4,1.1-2.5,2.5-2.5h0c1.4,0,2.5,1.1,2.5,2.5V6z"/></g>
<g transform="translate(418,132) scale(3.7766666666667)"><rect x="0.5" width="5" height="6"/></g>
<g transform="translate(484,132) scale(3.7766666666667)"><rect x="0.5" width="5" height="6"/></g>
<g transform="translate(506,132) scale(3.7766666666667)"><path d="M5.5,6h-5V3c0-1.4,1.1-2.5,2.5-2.5h0c1.4,0,2.5,1.1,2.5,2.5V6z"/></g>
<g transform="translate(528,132) scale(3.7766666666667)"><circle cx="3" cy="3" r="2.5"/></g>
<g transform="translate(550,132) scale(3.7766666666667)"><path d="M5.5,6h-5V3c0-1.4,1.1-2.5,2.5-2.5h0c1.4,0,2.5,1.1,2.5,2.5V6z"/></g>
<g transform="translate(572,132) scale(3.7766666666667)"><path d="M3,5.5L3,5.5C1.6,5.5,0.5,4.4,0.5,3V0h5v3C5.5,4.4,4.4,5.5,3,5.5z"/></g>
<g transform="translate(594,132) scale(3.7766666666667)"><path d="M5.5,6h-5V3c0-1.4,1.1-2.5,2.5-2.5h0c1.4,0,2.5,1.1,2.5,2.5V6z"/></g>
<g transform="translate(616,132) scale(3.7766666666667)"><path d="M5.5,6h-5V3c0-1.4,1.1-2.5,2.5-2.5h0c1.4,0,2.5,1.1,2.5,2.5V6z"/></g>
<g transform="translate(660,132) scale(3.7766666666667)"><circle cx="3" cy="3" r="2.5"/></g>
<g transform="translate(704,132) scale(3.7766666666667)"><path d="M5.5,6h-5V3c0-1.4,1.1-2.5,2.5-2.5h0c1.4,0,2.5,1.1,2.5,2.5V6z"/></g>
<g transform="translate(726,132) scale(3.7766666666667)"><circle cx="3" cy="3" r="2.5"/></g>
<g transform="translate(748,132) scale(3.7766666666667)"><path d="M3,5.5L3,5.5C1.6,5.5,0.5,4.4,0.5,3V0h5v3C5.5,4.4,4.4,5.5,3,5.5z"/></g>
<g transform="translate(220,154) scale(3.7766666666667)"><rect x="0.5" width="5" height="6"/></g>
<g transform="translate(242,154) scale(3.7766666666667)"><path d="M3,5.5L3,5.5C1.6,5.5,0.5,4.4,0.5,3V0h5v3C5.5,4.4,4.4,5.5,3,5.5z"/></g>
<g transform="translate(264,154) scale(3.7766666666667)"><rect x="0.5" width="5" height="6"/></g>
<g transform="translate(286,154) scale(3.7766666666667)"><circle cx="3" cy="3" r="2.5"/></g>
<g transform="translate(308,154) scale(3.7766666666667)"><rect x="0.5" width="5" height="6"/></g>
<g transform="translate(352,154) scale(3.7766666666667)"><path d="M5.5,6h-5V3c0-1.4,1.1-2.5,2.5-2.5h0c1.4,0,2.5,1.1,2.5,2.5V6z"/></g>
<g transform="translate(396,154) scale(3.7766666666667)"><rect x="0.5" width="5" height="6"/></g>
<g transform="translate(418,154) scale(3.7766666666667)"><path d="M3,5.5L3,5.5C1.6,5.5,0.5,4.4,0.5,3V0h5v3C5.5,4.4,4.4,5.5,3,5.5z"/></g>
<g transform="translate(462,154) scale(3.7766666666667)"><circle cx="3" cy="3" r="2.5"/></g>
<g transform="translate(484,154) scale(3.7766666666667)"><rect x="0.5" width="5" height="6"/></g>
<g transform="translate(506,154) scale(3.7766666666667)"><path d="M3,5.5L3,5.5C1.6,5.5,0.5,4.4,0.5,3V0h5v3C5.5,4.4,4.4,5.5,3,5.5z"/></g>
<g transform="translate(550,154) scale(3.7766666666667)"><path d="M3,5.5L3,5.5C1.6,5.5,0.5,4.4,0.5,3V0h5v3C5.5,4.4,4.4,5.5,3,5.5z"/></g>
<g transform="translate(594,154) scale(3.7766666666667)"><path d="M3,5.5L3,5.5C1.6,5.5,0.5,4.4,0.5,3V0h5v3C5.5,4.4,4.4,5.5,3,5.5z"/></g>
<g transform="translate(616,154) scale(3.7766666666667)"><rect x="0.5" width="5" height="6"/></g>
<g transform="translate(638,154) scale(3.7766666666667)"><circle cx="3" cy="3" r="2.5"/></g>
<g transform="translate(704,154) scale(3.7766666666667)"><rect x="0.5" width="5" height="6"/></g>
<g transform="translate(220,176) scale(3.7766666666667)"><path d="M3,5.5L3,5.5C1.6,5.5,0.5,4.4,0.5,3V0h5v3C5.5,4.4,4.4,5.5,3,5.5z"/></g>
<g transform="translate(264,176) scale(3.7766666666667)"><path d="M3,5.5L3,5.5C1.6,5.5,0.5,4.4,0.5,3V0h5v3C5.5,4.4,4.4,5.5,3,5.5z"/></g>
<g transform="translate(308,176) scale(3.7766666666667)"><rect x="0.5" width="5" height="6"/></g>
<g transform="translate(352,176) scale(3.7766666666667)"><rect x="0.5" width="5" height="6"/></g>
<g transform="translate(396,176) scale(3.7766666666667)"><path d="M3,5.5L3,5.5C1.6,5.5,0.5,4.4,0.5,3V0h5v3C5.5,4.4,4.4,5.5,3,5.5z"/></g>
<g transform="translate(440,176) scale(3.7766666666667)"><path d="M5.5,6h-5V3c0-1.4,1.1-2.5,2.5-2.5h0c1.4,0,2.5,1.1,2.5,2.5V6z"/></g>
<g transform="translate(484,176) scale(3.7766666666667)"><path d="M3,5.5L3,5.5C1.6,5.5,0.5,4.4,0.5,3V0h5v3C5.5,4.4,4.4,5.5,3,5.5z"/></g>
<g transform="translate(528,176) scale(3.7766666666667)"><circle cx="3" cy="3" r="2.5"/></g>
<g transform="translate(572,176) scale(3.7766666666667)"><circle cx="3" cy="3" r="2.5"/></g>
<g transform="translate(616,176) scale(3.7766666666667)"><path d="M3,5.5L3,5.5C1.6,5.5,0.5,4.4,0.5,3V0h5v3C5.5,4.4,4.4,5.5,3,5.5z"/></g>
<g transform="translate(660,176) scale(3.7766666666667)"><path d="M5.5,6h-5V3c0-1.4,1.1-2.5,2.5-2.5h0c1.4,0,2.5,1.1,2.5,2.5V6z"/></g>
<g transform="translate(704,176) scale(3.7766666666667)"><rect x="0.5" width="5" height="6"/></g>
<g transform="translate(748,176) scale(3.7766666666667)"><path d="M5.5,6h-5V3c0-1.4,1.1-2.5,2.5-2.5h0c1.4,0,2.5,1.1,2.5,2.5V6z"/></g>
<g transform="translate(286,198) scale(3.7766666666667)"><circle cx="3" cy="3" r="2.5"/></g>
<g transform="translate(308,198) scale(3.7766666666667)"><path d="M3,5.5L3,5.5C1.6,5.5,0.5,4.4,0.5,3V0h5v3C5.5,4.4,4.4,5.5,3,5.5z"/></g>
<g transform="translate(330,198) scale(3.7766666666667)"><circle cx="3" cy="3" r="2.5"/></g>
<g transform="translate(352,198) scale(3.7766666666667)"><rect x="0.5" width="5" height="6"/></g>
<g transform="translate(374,198) scale(3.7766666666667)"><path d="M5.5,6h-5V3c0-1.4,1.1-2.5,2.5-2.5h0c1.4,0,2.5,1.1,2.5,2.5V6z"/></g>
<g transform="translate(418,198) scale(3.7766666666667)"><path d="M5.5,6h-5V3c0-1.4,1.1-2.5,2.5-2.5h0c1.4,0,2.5,1.1,2.5,2.5V6z"/></g>
<g transform="translate(440,198) scale(3.7766666666667)"><rect x="0.5" width="5" height="6"/></g>
<g transform="translate(462,198) scale(3.7766666666667)"><circle cx="3" cy="3" r="2.5"/></g>
<g transform="translate(550,198) scale(3.7766666666667)"><circle cx="3" cy="3" r="2.5"/></g>
<g transform="translate(638,198) scale(3.7766666666667)"><path d="M5.5,6h-5V3c0-1.4,1.1-2.5,2.5-2.5h0c1.4,0,2.5,1.1,2.5,2.5V6z"/></g>
<g transform="translate(660,198) scale(3.7766666666667)"><path d="M3,5.5L3,5.5C1.6,5.5,0.5,4.4,0.5,3V0h5v3C5.5,4.4,4.4,5.5,3,5.5z"/></g>
<g transform="translate(704,198) scale(3.7766666666667)"><path d="M3,5.5L3,5.5C1.6,5.5,0.5,4.4,0.5,3V0h5v3C5.5,4.4,4.4,5.5,3,5.5z"/></g>
<g transform="translate(748,198) scale(3.7766666666667)"><rect x="0.5" width="5" height="6"/></g>
<g transform="translate(66,220) scale(3.7766666666667)"><path d="M5.5,6h-5V3c0-1.4,1.1-2.5,2.5-2.5h0c1.4,0,2.5,1.1,2.5,2.5V6z"/></g>
<g transform="translate(88,220) scale(3.7766666666667)"><path d="M5.5,6h-5V3c0-1.4,1.1-2.5,2.5-2.5h0c1.4,0,2.5,1.1,2.5,2.5V6z"/></g>
<g transform="translate(110,220) scale(3.7766666666667)"><circle cx="3" cy="3" r="2.5"/></g>
<g transform="translate(132,220) scale(3.7766666666667)"><path d="M5.5,6h-5V3c0-1.4,1.1-2.5,2.5-2.5h0c1.4,0,2.5,1.1,2.5,2.5V6z"/></g>
<g transform="translate(154,220) scale(3.7766666666667)"><path d="M5.5,6h-5V3c0-1.4,1.1-2.5,2.5-2.5h0c1.4,0,2.5,1.1,2.5,2.5V6z"/></g>
<g transform="translate(176,220) scale(3.7766666666667)"><circle cx="3" cy="3" r="2.5"/></g>
<g transform="translate(198,220) scale(3.7766666666667)"><path d="M5.5,6h-5V3c0-1.4,1.1-2.5,2.5-2.5h0c1.4,0,2.5,1.1,2.5,2.5V6z"/></g>
<g transform="translate(242,220) scale(3.7766666666667)"><circle cx="3" cy="3" r="2.5"/></g>
<g transform="translate(352,220) scale(3.7766666666667)"><path d="M3,5.5L3,5.5C1.6,5.5,0.5,4.4,0.5,3V0h5v3C5.5,4.4,4.4,5.5,3,5.5z"/></g>
<g transform="translate(374,220) scale(3.7766666666667)"><rect x="0.5" width="5" height="6"/></g>
<g transform="translate(396,220) scale(3.7766666666667)"><path d="M5.5,6h-5V3c0-1.4,1.1-2.5,2.5-2.5h0c1.4,0,2.5,1.1,2.5,2.5V6z"/></g>
<g transform="translate(418,220) scale(3.7766666666667)"><path d="M3,5.5L3,5.5C1.6,5.5,0.5,4.4,0.5,3V0h5v3C5.5,4.4,4.4,5.5,3,5.5z"/></g>
<g transform="translate(440,220) scale(3.7766666666667)"><path d="M3,5.5L3,5.5C1.6,5.5,0.5,4.4,0.5,3V0h5v3C5.5,4.4,4.4,5.5,3,5.5z"/></g>
<g transform="translate(484,220) scale(3.7766666666667)"><circle cx="3" cy="3" r="2.5"/></g>
<g transform="translate(528,220) scale(3.7766666666667)"><path d="M5.5,6h-5V3c0-1.4,1.1-2.5,2.5-2.5h0c1.4,0,2.5,1.1,2.5,2.5V6z"/></g>
<g transform="translate(572,220) scale(3.7766666666667)"><circle cx="3" cy="3" r="2.5"/></g>
<g transform="translate(594,220) scale(3.7766666666667)"><circle cx="3" cy="3" r="2.5"/></g>
<g transform="translate(638,220) scale(3.7766666666667)"><path d="M3,5.5L3,5.5C1.6,5.5,0.5,4.4,0.5,3V0h5v3C5.5,4.4,4.4,5.5,3,5.5z"/></g>
<g transform="translate(682,220) scale(3.7766666666667)"><path d="M5.5,6h-5V3c0-1.4,1.1-2.5,2.5-2.5h0c1.4,0,2.5,1.1,2.5,2.5V6z"/></g>
<g transform="translate(726,220) scale(3.7766666666667)"><path d="M5.5,6h-5V3c0-1.4,1.1-2.5,2.5-2.5h0c1.4,0,2.5,1.1,2.5,2.5V6z"/></g>
<g transform="translate(748,220) scale(3.7766666666667)"><rect x="0.5" width="5" height="6"/></g>
<g transform="translate(814,220) scale(3.7766666666667)"><path d="M5.5,6h-5V3c0-1.4,1.1-2.5,2.5-2.5h0c1.4,0,2.5,1.1,2.5,2.5V6z"/></g>
<g transform="translate(836,220) scale(3.7766666666667)"><path d="M5.5,6h-5V3c0-1.4,1.1-2.5,2.5-2.5h0c1.4,0,2.5,1.1,2.5,2.5V6z"/></g>
<g transform="translate(924,220) scale(3.7766666666667)"><path d="M5.5,6h-5V3c0-1.4,1.1-2.5,2.5-2.5h0c1.4,0,2.5,1.1,2.5,2.5V6z"/></g>
<g transform="translate(44,242) scale(3.7766666666667)"><path d="M5.5,6h-5V3c0-1.4,1.1-2.5,2.5-2.5h0c1.4,0,2.5,1.1,2.5,2.5V6z"/></g>
<g transform="translate(66,242) scale(3.7766666666667)"><rect x="0.5" width="5" height="6"/></g>
<g transform="translate(88,242) scale(3.7766666666667)"><path d="M3,5.5L3,5.5C1.6,5.5,0.5,4.4,0.5,3V0h5v3C5.5,4.4,4.4,5.5,3,5.5z"/></g>
<g transform="translate(132,242) scale(3.7766666666667)"><path d="M3,5.5L3,5.5C1.6,5.5,0.5,4.4,0.5,3V0h5v3C5.5,4.4,4.4,5.5,3,5.5z"/></g>
<g transform="translate(154,242) scale(3.7766666666667)"><rect x="0.5" width="5" height="6"/></g>
<g transform="translate(198,242) scale(3.7766666666667)"><path d="M3,5.5L3,5.5C1.6,5.5,0.5,4.4,0.5,3V0h5v3C5.5,4.4,4.4,5.5,3,5.5z"/></g>
<g transform="translate(220,242) scale(3.7766666666667)"><path d="M5.5,6h-5V3c0-1.4,1.1-2.5,2.5-2.5h0c1.4,0,2.5,1.1,2.5,2.5V6z"/></g>
<g transform="translate(264,242) scale(3.7766666666667)"><path d="M5.5,6h-5V3c0-1.4,1.1-2.5,2.5-2.5h0c1.4,0,2.5,1.1,2.5,2.5V6z"/></g>
<g transform="translate(286,242) scale(3.7766666666667)"><path d="M5.5,6h-5V3c0-1.4,1.1-2.5,2.5-2.5h0c1.4,0,2.5,1.1,2.5,2.5V6z"/></g>
<g transform="translate(330,242) scale(3.7766666666667)"><circle cx="3" cy="3" r="2.5"/></g>
<g transform="translate(374,242) scale(3.7766666666667)"><rect x="0.5" width="5" height="6"/></g>
<g transform="translate(396,242) scale(3.7766666666667)"><rect x="0.5" width="5" height="6"/></g>
<g transform="translate(528,242) scale(3.7766666666667)"><path d="M3,5.5L3,5.5C1.6,5.5,0.5,4.4,0.5,3V0h5v3C5.5,4.4,4.4,5.5,3,5.5z"/></g>
<g transform="translate(550,242) scale(3.7766666666667)"><circle cx="3" cy="3" r="2.5"/></g>
<g transform="translate(660,242) scale(3.7766666666667)"><path d="M5.5,6h-5V3c0-1.4,1.1-2.5,2.5-2.5h0c1.4,0,2.5,1.1,2.5,2.5V6z"/></g>
<g transform="translate(682,242) scale(3.7766666666667)"><path d="M3,5.5L3,5.5C1.6,5.5,0.5,4.4,0.5,3V0h5v3C5.5,4.4,4.4,5.5,3,5.5z"/></g>
<g transform="translate(704,242) scale(3.7766666666667)"><path d="M5.5,6h-5V3c0-1.4,1.1-2.5,2.5-2.5h0c1.4,0,2.5,1.1,2.5,2.5V6z"/></g>
<g transform="translate(726,242) scale(3.7766666666667)"><path d="M3,5.5L3,5.5C1.6,5.5,0.5,4.4,0.5,3V0h5v3C5.5,4.4,4.4,5.5,3,5.5z"/></g>
<g transform="translate(748,242) scale(3.7766666666667)"><rect x="0.5" width="5" height="6"/></g>
<g transform="translate(770,242) scale(3.7766666666667)"><path d="M5.5,6h-5V3c0-1.4,1.1-2.5,2.5-2.5h0c1.4,0,2.5,1.1,2.5,2.5V6z"/></g>
<g transform="translate(792,242) scale(3.7766666666667)"><path d="M5.5,6h-5V3c0-1.4,1.1-2.5,2.5-2.5h0c1.4,0,2.5,1.1,2.5,2.5V6z"/></g>
<g transform="translate(814,242) scale(3.7766666666667)"><rect x="0.5" width="5" height="6"/></g>
<g transform="translate(836,242) scale(3.7766666666667)"><path d="M3,5.5L3,5.5C1.6,5.5,0.5,4.4,0.5,3V0h5v3C5.5,4.4,4.4,5.5,3,5.5z"/></g>
<g transform="translate(880,242) scale(3.7766666666667)"><circle cx="3" cy="3" r="2.5"/></g>
<g transform="translate(902,242) scale(3.7766666666667)"><circle cx="3" cy="3" r="2.5"/></g>
<g transform="translate(924,242) scale(3.7766666666667)"><path d="M3,5.5L3,5.5C1.6,5.5,0.5,4.4,0.5,3V0h5v3C5.5,4.4,4.4,5.5,3,5.5z"/></g>
<g transform="translate(44,264) scale(3.7766666666667)"><rect x="0.5" width="5" height="6"/></g>
<g transform="translate(66,264) scale(3.7766666666667)"><path d="M3,5.5L3,5.5C1.6,5.5,0.5,4.4,0.5,3V0h5v3C5.5,4.4,4.4,5.5,3,5.5z"/></g>
<g transform="translate(110,264) scale(3.7766666666667)"><path d="M5.5,6h-5V3c0-1.4,1.1-2.5,2.5-2.5h0c1.4,0,2.5,1.1,2.5,2.5V6z"/></g>
<g transform="translate(154,264) scale(3.7766666666667)"><path d="M3,5.5L3,5.5C1.6,5.5,0.5,4.4,0.5,3V0h5v3C5.5,4.4,4.4,5.5,3,5.5z"/></g>
<g transform="translate(176,264) scale(3.7766666666667)"><circle cx="3" cy="3" r="2.5"/></g>
<g transform="translate(220,264) scale(3.7766666666667)"><rect x="0.5" width="5" height="6"/></g>
<g transform="translate(242,264) scale(3.7766666666667)"><circle cx="3" cy="3" r="2.5"/></g>
<g transform="translate(264,264) scale(3.7766666666667)"><rect x="0.5" width="5" height="6"/></g>
<g transform="translate(286,264) scale(3.7766666666667)"><path d="M3,5.5L3,5.5C1.6,5.5,0.5,4.4,0.5,3V0h5v3C5.5,4.4,4.4,5.5,3,5.5z"/></g>
<g transform="translate(352,264) scale(3.7766666666667)"><circle cx="3" cy="3" r="2.5"/></g>
<g transform="translate(374,264) scale(3.7766666666667)"><path d="M3,5.5L3,5.5C1.6,5.5,0.5,4.4,0.5,3V0h5v3C5.5,4.4,4.4,5.5,3,5.5z"/></g>
<g transform="translate(396,264) scale(3.7766666666667)"><rect x="0.5" width="5" height="6"/></g>
<g transform="translate(462,264) scale(3.7766666666667)"><path d="M5.5,6h-5V3c0-1.4,1.1-2.5,2.5-2.5h0c1.4,0,2.5,1.1,2.5,2.5V6z"/></g>
<g transform="translate(616,264) scale(3.7766666666667)"><path d="M5.5,6h-5V3c0-1.4,1.1-2.5,2.5-2.5h0c1.4,0,2.5,1.1,2.5,2.5V6z"/></g>
<g transform="translate(638,264) scale(3.7766666666667)"><circle cx="3" cy="3" r="2.5"/></g>
<g transform="translate(660,264) scale(3.7766666666667)"><rect x="0.5" width="5" height="6"/></g>
<g transform="translate(704,264) scale(3.7766666666667)"><path d="M3,5.5L3,5.5C1.6,5.5,0.5,4.4,0.5,3V0h5v3C5.5,4.4,4.4,5.5,3,5.5z"/></g>
<g transform="translate(748,264) scale(3.7766666666667)"><path d="M3,5.5L3,5.5C1.6,5.5,0.5,4.4,0.5,3V0h5v3C5.5,4.4,4.4,5.5,3,5.5z"/></g>
<g transform="translate(770,264) scale(3.7766666666667)"><rect x="0.5" width="5" height="6"/></g>
<g transform="translate(792,264) scale(3.7766666666667)"><path d="M3,5.5L3,5.5C1.6,5.5,0.5,4.4,0.5,3V0h5v3C5.5,4.4,4.4,5.5,3,5.5z"/></g>
<g transform="translate(814,264) scale(3.7766666666667)"><path d="M3,5.5L3,5.5C1.6,5.5,0.5,4.4,0.5,3V0h5v3C5.5,4.4,4.4,5.5,3,5.5z"/></g>
<g transform="translate(44,286) scale(3.7766666666667)"><path d="M3,5.5L3,5.5C1.6,5.5,0.5,4.4,0.5,3V0h5v3C5.5,4.4,4.4,5.5,3,5.5z"/></g>
<g transform="translate(110,286) scale(3.7766666666667)"><path d="M3,5.5L3,5.5C1.6,5.5,0.5,4.4,0.5,3V0h5v3C5.5,4.4,4.4,5.5,3,5.5z"/></g>
<g transform="translate(220,286) scale(3.7766666666667)"><rect x="0.5" width="5" height="6"/></g>
<g transform="translate(264,286) scale(3.7766666666667)"><rect x="0.5" width="5" height="6"/></g>
<g transform="translate(330,286) scale(3.7766666666667)"><circle cx="3" cy="3" r="2.5"/></g>
<g transform="translate(396,286) scale(3.7766666666667)"><rect x="0.5" width="5" height="6"/></g>
<g transform="translate(462,286) scale(3.7766666666667)"><path d="M3,5.5L3,5.5C1.6,5.5,0.5,4.4,0.5,3V0h5v3C5.5,4.4,4.4,5.5,3,5.5z"/></g>
<g transform="translate(572,286) scale(3.7766666666667)"><circle cx="3" cy="3" r="2.5"/></g>
<g transform="translate(616,286) scale(3.7766666666667)"><rect x="0.5" width="5" height="6"/></g>
<g transform="translate(660,286) scale(3.7766666666667)"><path d="M3,5.5L3,5.5C1.6,5.5,0.5,4.4,0.5,3V0h5v3C5.5,4.4,4.4,5.5,3,5.5z"/></g>
<g transform="translate(770,286) scale(3.7766666666667)"><path d="M3,5.5L3,5.5C1.6,5.5,0.5,4.4,0.5,3V0h5v3C5.5,4.4,4.4,5.5,3,5.5z"/></g>
<g transform="translate(836,286) scale(3.7766666666667)"><circle cx="3" cy="3" r="2.5"/></g>
<g transform="translate(858,286) scale(3.7766666666667)"><path d="M5.5,6h-5V3c0-1.4,1.1-2.5,2.5-2.5h0c1.4,0,2.5,1.1,2.5,2.5V6z"/></g>
<g transform="translate(176,308) scale(3.7766666666667)"><circle cx="3" cy="3" r="2.5"/></g>
<g transform="translate(198,308) scale(3.7766666666667)"><circle cx="3" cy="3" r="2.5"/></g>
<g transform="translate(220,308) scale(3.7766666666667)"><path d="M3,5.5L3,5.5C1.6,5.5,0.5,4.4,0.5,3V0h5v3C5.5,4.4,4.4,5.5,3,5.5z"/></g>
<g transform="translate(264,308) scale(3.7766666666667)"><rect x="0.5" width="5" height="6"/></g>
<g transform="translate(286,308) scale(3.7766666666667)"><circle cx="3" cy="3" r="2.5"/></g>
<g transform="translate(308,308) scale(3.7766666666667)"><path d="M5.5,6h-5V3c0-1.4,1.1-2.5,2.5-2.5h0c1.4,0,2.5,1.1,2.5,2.5V6z"/></g>
<g transform="translate(374,308) scale(3.7766666666667)"><path d="M5.5,6h-5V3c0-1.4,1.1-2.5,2.5-2.5h0c1.4,0,2.5,1.1,2.5,2.5V6z"/></g>
<g transform="translate(396,308) scale(3.7766666666667)"><path d="M3,5.5L3,5.5C1.6,5.5,0.5,4.4,0.5,3V0h5v3C5.5,4.4,4.4,5.5,3,5.5z"/></g>
<g transform="translate(440,308) scale(3.7766666666667)"><circle cx="3" cy="3" r="2.5"/></g>
<g transform="translate(484,308) scale(3.7766666666667)"><circle cx="3" cy="3" r="2.5"/></g>
<g transform="translate(528,308) scale(3.7766666666667)"><path d="M5.5,6h-5V3c0-1.4,1.1-2.5,2.5-2.5h0c1.4,0,2.5,1.1,2.5,2.5V6z"/></g>
<g transform="translate(550,308) scale(3.7766666666667)"><circle cx="3" cy="3" r="2.5"/></g>
<g transform="translate(594,308) scale(3.7766666666667)"><circle cx="3" cy="3" r="2.5"/></g>
<g transform="translate(616,308) scale(3.7766666666667)"><rect x="0.5" width="5" height="6"/></g>
<g transform="translate(682,308) scale(3.7766666666667)"><path d="M5.5,6h-5V3c0-1.4,1.1-2.5,2.5-2.5h0c1.4,0,2.5,1.1,2.5,2.5V6z"/></g>
<g transform="translate(704,308) scale(3.7766666666667)"><path d="M5.5,6h-5V3c0-1.4,1.1-2.5,2.5-2.5h0c1.4,0,2.5,1.1,2.5,2.5V6z"/></g>
<g transform="translate(858,308) scale(3.7766666666667)"><rect x="0.5" width="5" height="6"/></g>
<g transform="translate(880,308) scale(3.7766666666667)"><circle cx="3" cy="3" r="2.5"/></g>
<g transform="translate(902,308) scale(3.7766666666667)"><path d="M5.5,6h-5V3c0-1.4,1.1-2.5,2.5-2.5h0c1.4,0,2.5,1.1,2.5,2.5V6z"/></g>
<g transform="translate(924,308) scale(3.7766666666667)"><path d="M5.5,6h-5V3c0-1.4,1.1-2.5,2.5-2.5h0c1.4,0,2.5,1.1,2.5,2.5V6z"/></g>
<g transform="translate(44,330) scale(3.7766666666667)"><path d="M5.5,6h-5V3c0-1.4,1.1-2.5,2.5-2.5h0c1.4,0,2.5,1.1,2.5,2.5V6z"/></g>
<g transform="translate(66,330) scale(3.7766666666667)"><circle cx="3" cy="3" r="2.5"/></g>
<g transform="translate(88,330) scale(3.7766666666667)"><path d="M5.5,6h-5V3c0-1.4,1.1-2.5,2.5-2.5h0c1.4,0,2.5,1.1,2.5,2.5V6z"/></g>
<g transform="translate(110,330) scale(3.7766666666667)"><path d="M5.5,6h-5V3c0-1.4,1.1-2.5,2.5-2.5h0c1.4,0,2.5,1.1,2.5,2.5V6z"/></g>
<g transform="translate(132,330) scale(3.7766666666667)"><circle cx="3" cy="3" r="2.5"/></g>
<g transform="translate(154,330) scale(3.7766666666667)"><circle cx="3" cy="3" r="2.5"/></g>
<g transform="translate(264,330) scale(3.7766666666667)"><rect x="0.5" width="5" height="6"/></g>
<g transform="translate(308,330) scale(3.7766666666667)"><rect x="0.5" width="5" height="6"/></g>
<g transform="translate(352,330) scale(3.7766666666667)"><path d="M5.5,6h-5V3c0-1.4,1.1-2.5,2.5-2.5h0c1.4,0,2.5,1.1,2.5,2.5V6z"/></g>
<g transform="translate(374,330) scale(3.7766666666667)"><path d="M3,5.5L3,5.5C1.6,5.5,0.5,4.4,0.5,3V0h5v3C5.5,4.4,4.4,5.5,3,5.5z"/></g>
<g transform="translate(506,330) scale(3.7766666666667)"><circle cx="3" cy="3" r="2.5"/></g>
<g transform="translate(528,330) scale(3.7766666666667)"><rect x="0.5" width="5" height="6"/></g>
<g transform="translate(572,330) scale(3.7766666666667)"><circle cx="3" cy="3" r="2.5"/></g>
<g transform="translate(616,330) scale(3.7766666666667)"><path d="M3,5.5L3,5.5C1.6,5.5,0.5,4.4,0.5,3V0h5v3C5.5,4.4,4.4,5.5,3,5.5z"/></g>
<g transform="translate(638,330) scale(3.7766666666667)"><circle cx="3" cy="3" r="2.5"/></g>
<g transform="translate(660,330) scale(3.7766666666667)"><circle cx="3" cy="3" r="2.5"/></g>
<g transform="translate(682,330) scale(3.7766666666667)"><path d="M3,5.5L3,5.5C1.6,5.5,0.5,4.4,0.5,3V0h5v3C5.5,4.4,4.4,5.5,3,5.5z"/></g>
<g transform="translate(704,330) scale(3.7766666666667)"><path d="M3,5.5L3,5.5C1.6,5.5,0.5,4.4,0.5,3V0h5v3C5.5,4.4,4.4,5.5,3,5.5z"/></g>
<g transform="translate(792,330) scale(3.7766666666667)"><path d="M5.5,6h-5V3c0-1.4,1.1-2.5,2.5-2.5h0c1.4,0,2.5,1.1,2.5,2.5V6z"/></g>
<g transform="translate(814,330) scale(3.7766666666667)"><circle cx="3" cy="3" r="2.5"/></g>
<g transform="translate(836,330) scale(3.7766666666667)"><circle cx="3" cy="3" r="2.5"/></g>
<g transform="translate(858,330) scale(3.7766666666667)"><path d="M3,5.5L3,5.5C1.6,5.5,0.5,4.4,0.5,3V0h5v3C5.5,4.4,4.4,5.5,3,5.5z"/></g>
<g transform="translate(902,330) scale(3.7766666666667)"><path d="M3,5.5L3,5.5C1.6,5.5,0.5,4.4,0.5,3V0h5v3C5.5,4.4,4.4,5.5,3,5.5z"/></g>
<g transform="translate(924,330) scale(3.7766666666667)"><path d="M3,5.5L3,5.5C1.6,5.5,0.5,4.4,0.5,3V0h5v3C5.5,4.4,4.4,5.5,3,5.5z"/></g>
<g transform="translate(44,352) scale(3.7766666666667)"><path d="M3,5.5L3,5.5C1.6,5.5,0.5,4.4,0.5,3V0h5v3C5.5,4.4,4.4,5.5,3,5.5z"/></g>
<g transform="translate(88,352) scale(3.7766666666667)"><path d="M3,5.5L3,5.5C1.6,5.5,0.5,4.4,0.5,3V0h5v3C5.5,4.4,4.4,5.5,3,5.5z"/></g>
<g transform="translate(110,352) scale(3.7766666666667)"><path d="M3,5.5L3,5.5C1.6,5.5,0.5,4.4,0.5,3V0h5v3C5.5,4.4,4.4,5.5,3,5.5z"/></g>
<g transform="translate(176,352) scale(3.7766666666667)"><circle cx="3" cy="3" r="2.5"/></g>
<g transform="translate(242,352) scale(3.7766666666667)"><circle cx="3" cy="3" r="2.5"/></g>
<g transform="translate(264,352) scale(3.7766666666667)"><rect x="0.5" width="5" height="6"/></g>
<g transform="translate(308,352) scale(3.7766666666667)"><rect x="0.5" width="5" height="6"/></g>
<g transform="translate(330,352) scale(3.7766666666667)"><circle cx="3" cy="3" r="2.5"/></g>
<g transform="translate(352,352) scale(3.7766666666667)"><rect x="0.5" width="5" height="6"/></g>
<g transform="translate(396,352) scale(3.7766666666667)"><circle cx="3" cy="3" r="2.5"/></g>
<g transform="translate(528,352) scale(3.7766666666667)"><rect x="0.5" width="5" height="6"/></g>
<g transform="translate(770,352) scale(3.7766666666667)"><path d="M5.5,6h-5V3c0-1.4,1.1-2.5,2.5-2.5h0c1.4,0,2.5,1.1,2.5,2.5V6z"/></g>
<g transform="translate(792,352) scale(3.7766666666667)"><rect x="0.5" width="5" height="6"/></g>
<g transform="translate(132,374) scale(3.7766666666667)"><circle cx="3" cy="3" r="2.5"/></g>
<g transform="translate(154,374) scale(3.7766666666667)"><circle cx="3" cy="3" r="2.5"/></g>
<g transform="translate(264,374) scale(3.7766666666667)"><path d="M3,5.5L3,5.5C1.6,5.5,0.5,4.4,0.5,3V0h5v3C5.5,4.4,4.4,5.5,3,5.5z"/></g>
<g transform="translate(308,374) scale(3.7766666666667)"><rect x="0.5" width="5" height="6"/></g>
<g transform="translate(352,374) scale(3.7766666666667)"><path d="M3,5.5L3,5.5C1.6,5.5,0.5,4.4,0.5,3V0h5v3C5.5,4.4,4.4,5.5,3,5.5z"/></g>
<g transform="translate(440,374) scale(3.7766666666667)"><circle cx="3" cy="3" r="2.5"/></g>
<g transform="translate(462,374) scale(3.7766666666667)"><circle cx="3" cy="3" r="2.5"/></g>
<g transform="translate(528,374) scale(3.7766666666667)"><path d="M3,5.5L3,5.5C1.6,5.5,0.5,4.4,0.5,3V0h5v3C5.5,4.4,4.4,5.5,3,5.5z"/></g>
<g transform="translate(572,374) scale(3.7766666666667)"><circle cx="3" cy="3" r="2.5"/></g>
<g transform="translate(616,374) scale(3.7766666666667)"><path d="M5.5,6h-5V3c0-1.4,1.1-2.5,2.5-2.5h0c1.4,0,2.5,1.1,2.5,2.5V6z"/></g>
<g transform="translate(660,374) scale(3.7766666666667)"><circle cx="3" cy="3" r="2.5"/></g>
<g transform="translate(748,374) scale(3.7766666666667)"><path d="M5.5,6h-5V3c0-1.4,1.1-2.5,2.5-2.5h0c1.4,0,2.5,1.1,2.5,2.5V6z"/></g>
<g transform="translate(770,374) scale(3.7766666666667)"><rect x="0.5" width="5" height="6"/></g>
<g transform="translate(792,374) scale(3.7766666666667)"><path d="M3,5.5L3,5.5C1.6,5.5,0.5,4.4,0.5,3V0h5v3C5.5,4.4,4.4,5.5,3,5.5z"/></g>
<g transform="translate(814,374) scale(3.7766666666667)"><path d="M5.5,6h-5V3c0-1.4,1.1-2.5,2.5-2.5h0c1.4,0,2.5,1.1,2.5,2.5V6z"/></g>
<g transform="translate(836,374) scale(3.7766666666667)"><circle cx="3" cy="3" r="2.5"/></g>
<g transform="translate(858,374) scale(3.7766666666667)"><circle cx="3" cy="3" r="2.5"/></g>
<g transform="translate(902,374) scale(3.7766666666667)"><path d="M5.5,6h-5V3c0-1.4,1.1-2.5,2.5-2.5h0c1.4,0,2.5,1.1,2.5,2.5V6z"/></g>
<g transform="translate(924,374) scale(3.7766666666667)"><circle cx="3" cy="3" r="2.5"/></g>
<g transform="translate(44,396) scale(3.7766666666667)"><circle cx="3" cy="3" r="2.5"/></g>
<g transform="translate(110,396) scale(3.7766666666667)"><path d="M5.5,6h-5V3c0-1.4,1.1-2.5,2.5-2.5h0c1.4,0,2.5,1.1,2.5,2.5V6z"/></g>
<g transform="translate(176,396) scale(3.7766666666667)"><circle cx="3" cy="3" r="2.5"/></g>
<g transform="translate(198,396) scale(3.7766666666667)"><circle cx="3" cy="3" r="2.5"/></g>
<g transform="translate(220,396) scale(3.7766666666667)"><circle cx="3" cy="3" r="2.5"/></g>
<g transform="translate(242,396) scale(3.7766666666667)"><path d="M5.5,6h-5V3c0-1.4,1.1-2.5,2.5-2.5h0c1.4,0,2.5,1.1,2.5,2.5V6z"/></g>
<g transform="translate(308,396) scale(3.7766666666667)"><rect x="0.5" width="5" height="6"/></g>
<g transform="translate(330,396) scale(3.7766666666667)"><circle cx="3" cy="3" r="2.5"/></g>
<g transform="translate(374,396) scale(3.7766666666667)"><path d="M5.5,6h-5V3c0-1.4,1.1-2.5,2.5-2.5h0c1.4,0,2.5,1.1,2.5,2.5V6z"/></g>
<g transform="translate(418,396) scale(3.7766666666667)"><path d="M5.5,6h-5V3c0-1.4,1.1-2.5,2.5-2.5h0c1.4,0,2.5,1.1,2.5,2.5V6z"/></g>
<g transform="translate(594,396) scale(3.7766666666667)"><path d="M5.5,6h-5V3c0-1.4,1.1-2.5,2.5-2.5h0c1.4,0,2.5,1.1,2.5,2.5V6z"/></g>
<g transform="translate(616,396) scale(3.7766666666667)"><rect x="0.5" width="5" height="6"/></g>
<g transform="translate(682,396) scale(3.7766666666667)"><circle cx="3" cy="3" r="2.5"/></g>
<g transform="translate(726,396) scale(3.7766666666667)"><path d="M5.5,6h-5V3c0-1.4,1.1-2.5,2.5-2.5h0c1.4,0,2.5,1.1,2.5,2.5V6z"/></g>
<g transform="translate(748,396) scale(3.7766666666667)"><rect x="0.5" width="5" height="6"/></g>
<g transform="translate(770,396) scale(3.7766666666667)"><rect x="0.5" width="5" height="6"/></g>
<g transform="translate(814,396) scale(3.7766666666667)"><path d="M3,5.5L3,5.5C1.6,5.5,0.5,4.4,0.5,3V0h5v3C5.5,4.4,4.4,5.5,3,5.5z"/></g>
<g transform="translate(880,396) scale(3.7766666666667)"><path d="M5.5,6h-5V3c0-1.4,1.1-2.5,2.5-2.5h0c1.4,0,2.5,1.1,2.5,2.5V6z"/></g>
<g transform="translate(902,396) scale(3.7766666666667)"><rect x="0.5" width="5" height="6"/></g>
<g transform="translate(66,418) scale(3.7766666666667)"><path d="M5.5,6h-5V3c0-1.4,1.1-2.5,2.5-2.5h0c1.4,0,2.5,1.1,2.5,2.5V6z"/></g>
<g transform="translate(88,418) scale(3.7766666666667)"><path d="M5.5,6h-5V3c0-1.4,1.1-2.5,2.5-2.5h0c1.4,0,2.5,1.1,2.5,2.5V6z"/></g>
<g transform="translate(110,418) scale(3.7766666666667)"><path d="M3,5.5L3,5.5C1.6,5.5,0.5,4.4,0.5,3V0h5v3C5.5,4.4,4.4,5.5,3,5.5z"/></g>
<g transform="translate(154,418) scale(3.7766666666667)"><circle cx="3" cy="3" r="2.5"/></g>
<g transform="translate(242,418) scale(3.7766666666667)"><path d="M3,5.5L3,5.5C1.6,5.5,0.5,4.4,0.5,3V0h5v3C5.5,4.4,4.4,5.5,3,5.5z"/></g>
<g transform="translate(286,418) scale(3.7766666666667)"><circle cx="3" cy="3" r="2.5"/></g>
<g transform="translate(308,418) scale(3.7766666666667)"><rect x="0.5" width="5" height="6"/></g>
<g transform="translate(374,418) scale(3.7766666666667)"><rect x="0.5" width="5" height="6"/></g>
<g transform="translate(396,418) scale(3.7766666666667)"><circle cx="3" cy="3" r="2.5"/></g>
<g transform="translate(418,418) scale(3.7766666666667)"><path d="M3,5.5L3,5.5C1.6,5.5,0.5,4.4,0.5,3V0h5v3C5.5,4.4,4.4,5.5,3,5.5z"/></g>
<g transform="translate(484,418) scale(3.7766666666667)"><path d="M5.5,6h-5V3c0-1.4,1.1-2.5,2.5-2.5h0c1.4,0,2.5,1.1,2.5,2.5V6z"/></g>
<g transform="translate(506,418) scale(3.7766666666667)"><path d="M5.5,6h-5V3c0-1.4,1.1-2.5,2.5-2.5h0c1.4,0,2.5,1.1,2.5,2.5V6z"/></g>
<g transform="translate(528,418) scale(3.7766666666667)"><path d="M5.5,6h-5V3c0-1.4,1.1-2.5,2.5-2.5h0c1.4,0,2.5,1.1,2.5,2.5V6z"/></g>
<g transform="translate(550,418) scale(3.7766666666667)"><circle cx="3" cy="3" r="2.5"/></g>
<g transform="translate(594,418) scale(3.7766666666667)"><rect x="0.5" width="5" height="6"/></g>
<g transform="translate(616,418) scale(3.7766666666667)"><rect x="0.5" width="5" height="6"/></g>
<g transform="translate(726,418) scale(3.7766666666667)"><path d="M3,5.5L3,5.5C1.6,5.5,0.5,4.4,0.5,3V0h5v3C5.5,4.4,4.4,5.5,3,5.5z"/></g>
<g transform="translate(748,418) scale(3.7766666666667)"><rect x="0.5" width="5" height="6"/></g>
<g transform="translate(770,418) scale(3.7766666666667)"><rect x="0.5" width="5" height="6"/></g>
<g transform="translate(792,418) scale(3.7766666666667)"><circle cx="3" cy="3" r="2.5"/></g>
<g transform="translate(836,418) scale(3.7766666666667)"><path d="M5.5,6h-5V3c0-1.4,1.1-2.5,2.5-2.5h0c1.4,0,2.5,1.1,2.5,2.5V6z"/></g>
<g transform="translate(858,418) scale(3.7766666666667)"><circle cx="3" cy="3" r="2.5"/></g>
<g transform="translate(880,418) scale(3.7766666666667)"><rect x="0.5" width="5" height="6"/></g>
<g transform="translate(902,418) scale(3.7766666666667)"><path d="M3,5.5L3,5.5C1.6,5.5,0.5,4.4,0.5,3V0h5v3C5.5,4.4,4.4,5.5,3,5.5z"/></g>
<g transform="translate(924,418) scale(3.7766666666667)"><circle cx="3" cy="3" r="2.5"/></g>
<g transform="translate(66,440) scale(3.7766666666667)"><rect x="0.5" width="5" height="6"/></g>
<g transform="translate(88,440) scale(3.7766666666667)"><rect x="0.5" width="5" height="6"/></g>
<g transform="translate(132,440) scale(3.7766666666667)"><path d="M5.5,6h-5V3c0-1.4,1.1-2.5,2.5-2.5h0c1.4,0,2.5,1.1,2.5,2.5V6z"/></g>
<g transform="translate(176,440) scale(3.7766666666667)"><circle cx="3" cy="3" r="2.5"/></g>
<g transform="translate(264,440) scale(3.7766666666667)"><path d="M5.5,6h-5V3c0-1.4,1.1-2.5,2.5-2.5h0c1.4,0,2.5,1.1,2.5,2.5V6z"/></g>
<g transform="translate(308,440) scale(3.7766666666667)"><path d="M3,5.5L3,5.5C1.6,5.5,0.5,4.4,0.5,3V0h5v3C5.5,4.4,4.4,5.5,3,5.5z"/></g>
<g transform="translate(330,440) scale(3.7766666666667)"><circle cx="3" cy="3" r="2.5"/></g>
<g transform="translate(352,440) scale(3.7766666666667)"><path d="M5.5,6h-5V3c0-1.4,1.1-2.5,2.5-2.5h0c1.4,0,2.5,1.1,2.5,2.5V6z"/></g>
<g transform="translate(374,440) scale(3.7766666666667)"><path d="M3,5.5L3,5.5C1.6,5.5,0.5,4.4,0.5,3V0h5v3C5.5,4.4,4.4,5.5,3,5.5z"/></g>
<g transform="translate(484,440) scale(3.7766666666667)"><path d="M3,5.5L3,5.5C1.6,5.5,0.5,4.4,0.5,3V0h5v3C5.5,4.4,4.4,5.5,3,5.5z"/></g>
<g transform="translate(506,440) scale(3.7766666666667)"><path d="M3,5.5L3,5.5C1.6,5.5,0.5,4.4,0.5,3V0h5v3C5.5,4.4,4.4,5.5,3,5.5z"/></g>
<g transform="translate(528,440) scale(3.7766666666667)"><rect x="0.5" width="5" height="6"/></g>
<g transform="translate(594,440) scale(3.7766666666667)"><rect x="0.5" width="5" height="6"/></g>
<g transform="translate(616,440) scale(3.7766666666667)"><path d="M3,5.5L3,5.5C1.6,5.5,0.5,4.4,0.5,3V0h5v3C5.5,4.4,4.4,5.5,3,5.5z"/></g>
<g transform="translate(638,440) scale(3.7766666666667)"><circle cx="3" cy="3" r="2.5"/></g>
<g transform="translate(660,440) scale(3.7766666666667)"><path d="M5.5,6h-5V3c0-1.4,1.1-2.5,2.5-2.5h0c1.4,0,2.5,1.1,2.5,2.5V6z"/></g>
<g transform="translate(704,440) scale(3.7766666666667)"><circle cx="3" cy="3" r="2.5"/></g>
<g transform="translate(748,440) scale(3.7766666666667)"><path d="M3,5.5L3,5.5C1.6,5.5,0.5,4.4,0.5,3V0h5v3C5.5,4.4,4.4,5.5,3,5.5z"/></g>
<g transform="translate(770,440) scale(3.7766666666667)"><path d="M3,5.5L3,5.5C1.6,5.5,0.5,4.4,0.5,3V0h5v3C5.5,4.4,4.4,5.5,3,5.5z"/></g>
<g transform="translate(836,440) scale(3.7766666666667)"><rect x="0.5" width="5" height="6"/></g>
<g transform="translate(880,440) scale(3.7766666666667)"><path d="M3,5.5L3,5.5C1.6,5.5,0.5,4.4,0.5,3V0h5v3C5.5,4.4,4.4,5.5,3,5.5z"/></g>
<g transform="translate(44,462) scale(3.7766666666667)"><circle cx="3" cy="3" r="2.5"/></g>
<g transform="translate(66,462) scale(3.7766666666667)"><rect x="0.5" width="5" height="6"/></g>
<g transform="translate(88,462) scale(3.7766666666667)"><rect x="0.5" width="5" height="6"/></g>
<g transform="translate(132,462) scale(3.7766666666667)"><path d="M3,5.5L3,5.5C1.6,5.5,0.5,4.4,0.5,3V0h5v3C5.5,4.4,4.4,5.5,3,5.5z"/></g>
<g transform="translate(154,462) scale(3.7766666666667)"><path d="M5.5,6h-5V3c0-1.4,1.1-2.5,2.5-2.5h0c1.4,0,2.5,1.1,2.5,2.5V6z"/></g>
<g transform="translate(220,462) scale(3.7766666666667)"><path d="M5.5,6h-5V3c0-1.4,1.1-2.5,2.5-2.5h0c1.4,0,2.5,1.1,2.5,2.5V6z"/></g>
<g transform="translate(264,462) scale(3.7766666666667)"><rect x="0.5" width="5" height="6"/></g>
<g transform="translate(286,462) scale(3.7766666666667)"><path d="M5.5,6h-5V3c0-1.4,1.1-2.5,2.5-2.5h0c1.4,0,2.5,1.1,2.5,2.5V6z"/></g>
<g transform="translate(352,462) scale(3.7766666666667)"><rect x="0.5" width="5" height="6"/></g>
<g transform="translate(396,462) scale(3.7766666666667)"><path d="M5.5,6h-5V3c0-1.4,1.1-2.5,2.5-2.5h0c1.4,0,2.5,1.1,2.5,2.5V6z"/></g>
<g transform="translate(440,462) scale(3.7766666666667)"><circle cx="3" cy="3" r="2.5"/></g>
<g transform="translate(528,462) scale(3.7766666666667)"><rect x="0.5" width="5" height="6"/></g>
<g transform="translate(550,462) scale(3.7766666666667)"><circle cx="3" cy="3" r="2.5"/></g>
<g transform="translate(572,462) scale(3.7766666666667)"><path d="M5.5,6h-5V3c0-1.4,1.1-2.5,2.5-2.5h0c1.4,0,2.5,1.1,2.5,2.5V6z"/></g>
<g transform="translate(594,462) scale(3.7766666666667)"><path d="M3,5.5L3,5.5C1.6,5.5,0.5,4.4,0.5,3V0h5v3C5.5,4.4,4.4,5.5,3,5.5z"/></g>
<g transform="translate(660,462) scale(3.7766666666667)"><rect x="0.5" width="5" height="6"/></g>
<g transform="translate(836,462) scale(3.7766666666667)"><path d="M3,5.5L3,5.5C1.6,5.5,0.5,4.4,0.5,3V0h5v3C5.5,4.4,4.4,5.5,3,5.5z"/></g>
<g transform="translate(858,462) scale(3.7766666666667)"><circle cx="3" cy="3" r="2.5"/></g>
<g transform="translate(902,462) scale(3.7766666666667)"><circle cx="3" cy="3" r="2.5"/></g>
<g transform="translate(66,484) scale(3.7766666666667)"><rect x="0.5" width="5" height="6"/></g>
<g transform="translate(88,484) scale(3.7766666666667)"><path d="M3,5.5L3,5.5C1.6,5.5,0.5,4.4,0.5,3V0h5v3C5.5,4.4,4.4,5.5,3,5.5z"/></g>
<g transform="translate(154,484) scale(3.7766666666667)"><path d="M3,5.5L3,5.5C1.6,5.5,0.5,4.4,0.5,3V0h5v3C5.5,4.4,4.4,5.5,3,5.5z"/></g>
<g transform="translate(176,484) scale(3.7766666666667)"><circle cx="3" cy="3" r="2.5"/></g>
<g transform="translate(220,484) scale(3.7766666666667)"><rect x="0.5" width="5" height="6"/></g>
<g transform="translate(242,484) scale(3.7766666666667)"><circle cx="3" cy="3" r="2.5"/></g>
<g transform="translate(264,484) scale(3.7766666666667)"><path d="M3,5.5L3,5.5C1.6,5.5,0.5,4.4,0.5,3V0h5v3C5.5,4.4,4.4,5.5,3,5.5z"/></g>
<g transform="translate(286,484) scale(3.7766666666667)"><path d="M3,5.5L3,5.5C1.6,5.5,0.5,4.4,0.5,3V0h5v3C5.5,4.4,4.4,5.5,3,5.5z"/></g>
<g transform="translate(308,484) scale(3.7766666666667)"><circle cx="3" cy="3" r="2.5"/></g>
<g transform="translate(352,484) scale(3.7766666666667)"><rect x="0.5" width="5" height="6"/></g>
<g transform="translate(396,484) scale(3.7766666666667)"><path d="M3,5.5L3,5.5C1.6,5.5,0.5,4.4,0.5,3V0h5v3C5.5,4.4,4.4,5.5,3,5.5z"/></g>
<g transform="translate(462,484) scale(3.7766666666667)"><circle cx="3" cy="3" r="2.5"/></g>
<g transform="translate(506,484) scale(3.7766666666667)"><path d="M5.5,6h-5V3c0-1.4,1.1-2.5,2.5-2.5h0c1.4,0,2.5,1.1,2.5,2.5V6z"/></g>
<g transform="translate(528,484) scale(3.7766666666667)"><path d="M3,5.5L3,5.5C1.6,5.5,0.5,4.4,0.5,3V0h5v3C5.5,4.4,4.4,5.5,3,5.5z"/></g>
<g transform="translate(572,484) scale(3.7766666666667)"><path d="M3,5.5L3,5.5C1.6,5.5,0.5,4.4,0.5,3V0h5v3C5.5,4.4,4.4,5.5,3,5.5z"/></g>
<g transform="translate(616,484) scale(3.7766666666667)"><circle cx="3" cy="3" r="2.5"/></g>
<g transform="translate(638,484) scale(3.7766666666667)"><circle cx="3" cy="3" r="2.5"/></g>
<g transform="translate(660,484) scale(3.7766666666667)"><rect x="0.5" width="5" height="6"/></g>
<g transform="translate(704,484) scale(3.7766666666667)"><circle cx="3" cy="3" r="2.5"/></g>
<g transform="translate(880,484) scale(3.7766666666667)"><path d="M5.5,6h-5V3c0-1.4,1.1-2.5,2.5-2.5h0c1.4,0,2.5,1.1,2.5,2.5V6z"/></g>
<g transform="translate(924,484) scale(3.7766666666667)"><path d="M5.5,6h-5V3c0-1.4,1.1-2.5,2.5-2.5h0c1.4,0,2.5,1.1,2.5,2.5V6z"/></g>
<g transform="translate(66,506) scale(3.7766666666667)"><path d="M3,5.5L3,5.5C1.6,5.5,0.5,4.4,0.5,3V0h5v3C5.5,4.4,4.4,5.5,3,5.5z"/></g>
<g transform="translate(110,506) scale(3.7766666666667)"><path d="M5.5,6h-5V3c0-1.4,1.1-2.5,2.5-2.5h0c1.4,0,2.5,1.1,2.5,2.5V6z"/></g>
<g transform="translate(198,506) scale(3.7766666666667)"><circle cx="3" cy="3" r="2.5"/></g>
<g transform="translate(220,506) scale(3.7766666666667)"><rect x="0.5" width="5" height="6"/></g>
<g transform="translate(330,506) scale(3.7766666666667)"><path d="M5.5,6h-5V3c0-1.4,1.1-2.5,2.5-2.5h0c1.4,0,2.5,1.1,2.5,2.5V6z"/></g>
<g transform="translate(352,506) scale(3.7766666666667)"><rect x="0.5" width="5" height="6"/></g>
<g transform="translate(418,506) scale(3.7766666666667)"><circle cx="3" cy="3" r="2.5"/></g>
<g transform="translate(506,506) scale(3.7766666666667)"><rect x="0.5" width="5" height="6"/></g>
<g transform="translate(550,506) scale(3.7766666666667)"><circle cx="3" cy="3" r="2.5"/></g>
<g transform="translate(594,506) scale(3.7766666666667)"><path d="M5.5,6h-5V3c0-1.4,1.1-2.5,2.5-2.5h0c1.4,0,2.5,1.1,2.5,2.5V6z"/></g>
<g transform="translate(660,506) scale(3.7766666666667)"><rect x="0.5" width="5" height="6"/></g>
<g transform="translate(682,506) scale(3.7766666666667)"><circle cx="3" cy="3" r="2.5"/></g>
<g transform="translate(726,506) scale(3.7766666666667)"><circle cx="3" cy="3" r="2.5"/></g>
<g transform="translate(748,506) scale(3.7766666666667)"><path d="M5.5,6h-5V3c0-1.4,1.1-2.5,2.5-2.5h0c1.4,0,2.5,1.1,2.5,2.5V6z"/></g>
<g transform="translate(770,506) scale(3.7766666666667)"><path d="M5.5,6h-5V3c0-1.4,1.1-2.5,2.5-2.5h0c1.4,0,2.5,1.1,2.5,2.5V6z"/></g>
<g transform="translate(792,506) scale(3.7766666666667)"><path d="M5.5,6h-5V3c0-1.4,1.1-2.5,2.5-2.5h0c1.4,0,2.5,1.1,2.5,2.5V6z"/></g>
<g transform="translate(814,506) scale(3.7766666666667)"><circle cx="3" cy="3" r="2.5"/></g>
<g transform="translate(836,506) scale(3.7766666666667)"><circle cx="3" cy="3" r="2.5"/></g>
<g transform="translate(858,506) scale(3.7766666666667)"><path d="M5.5,6h-5V3c0-1.4,1.1-2.5,2.5-2.5h0c1.4,0,2.5,1.1,2.5,2.5V6z"/></g>
<g transform="translate(880,506) scale(3.7766666666667)"><rect x="0.5" width="5" height="6"/></g>
<g transform="translate(902,506) scale(3.7766666666667)"><circle cx="3" cy="3" r="2.5"/></g>
<g transform="translate(924,506) scale(3.7766666666667)"><path d="M3,5.5L3,5.5C1.6,5.5,0.5,4.4,0.5,3V0h5v3C5.5,4.4,4.4,5.5,3,5.5z"/></g>
<g transform="translate(44,528) scale(3.7766666666667)"><path d="M5.5,6h-5V3c0-1.4,1.1-2.5,2.5-2.5h0c1.4,0,2.5,1.1,2.5,2.5V6z"/></g>
<g transform="translate(88,528) scale(3.7766666666667)"><circle cx="3" cy="3" r="2.5"/></g>
<g transform="translate(110,528) scale(3.7766666666667)"><path d="M3,5.5L3,5.5C1.6,5.5,0.5,4.4,0.5,3V0h5v3C5.5,4.4,4.4,5.5,3,5.5z"/></g>
<g transform="translate(154,528) scale(3.7766666666667)"><path d="M5.5,6h-5V3c0-1.4,1.1-2.5,2.5-2.5h0c1.4,0,2.5,1.1,2.5,2.5V6z"/></g>
<g transform="translate(176,528) scale(3.7766666666667)"><circle cx="3" cy="3" r="2.5"/></g>
<g transform="translate(220,528) scale(3.7766666666667)"><path d="M3,5.5L3,5.5C1.6,5.5,0.5,4.4,0.5,3V0h5v3C5.5,4.4,4.4,5.5,3,5.5z"/></g>
<g transform="translate(264,528) scale(3.7766666666667)"><path d="M5.5,6h-5V3c0-1.4,1.1-2.5,2.5-2.5h0c1.4,0,2.5,1.1,2.5,2.5V6z"/></g>
<g transform="translate(286,528) scale(3.7766666666667)"><path d="M5.5,6h-5V3c0-1.4,1.1-2.5,2.5-2.5h0c1.4,0,2.5,1.1,2.5,2.5V6z"/></g>
<g transform="translate(330,528) scale(3.7766666666667)"><rect x="0.5" width="5" height="6"/></g>
<g transform="translate(352,528) scale(3.7766666666667)"><rect x="0.5" width="5" height="6"/></g>
<g transform="translate(374,528) scale(3.7766666666667)"><path d="M5.5,6h-5V3c0-1.4,1.1-2.5,2.5-2.5h0c1.4,0,2.5,1.1,2.5,2.5V6z"/></g>
<g transform="translate(396,528) scale(3.7766666666667)"><path d="M5.5,6h-5V3c0-1.4,1.1-2.5,2.5-2.5h0c1.4,0,2.5,1.1,2.5,2.5V6z"/></g>
<g transform="translate(462,528) scale(3.7766666666667)"><path d="M5.5,6h-5V3c0-1.4,1.1-2.5,2.5-2.5h0c1.4,0,2.5,1.1,2.5,2.5V6z"/></g>
<g transform="translate(506,528) scale(3.7766666666667)"><path d="M3,5.5L3,5.5C1.6,5.5,0.5,4.4,0.5,3V0h5v3C5.5,4.4,4.4,5.5,3,5.5z"/></g>
<g transform="translate(528,528) scale(3.7766666666667)"><path d="M5.5,6h-5V3c0-1.4,1.1-2.5,2.5-2.5h0c1.4,0,2.5,1.1,2.5,2.5V6z"/></g>
<g transform="translate(572,528) scale(3.7766666666667)"><path d="M5.5,6h-5V3c0-1.4,1.1-2.5,2.5-2.5h0c1.4,0,2.5,1.1,2.5,2.5V6z"/></g>
<g transform="translate(594,528) scale(3.7766666666667)"><path d="M3,5.5L3,5.5C1.6,5.5,0.5,4.4,0.5,3V0h5v3C5.5,4.4,4.4,5.5,3,5.5z"/></g>
<g transform="translate(616,528) scale(3.7766666666667)"><circle cx="3" cy="3" r="2.5"/></g>
<g transform="translate(638,528) scale(3.7766666666667)"><path d="M5.5,6h-5V3c0-1.4,1.1-2.5,2.5-2.5h0c1.4,0,2.5,1.1,2.5,2.5V6z"/></g>
<g transform="translate(660,528) scale(3.7766666666667)"><path d="M3,5.5L3,5.5C1.6,5.5,0.5,4.4,0.5,3V0h5v3C5.5,4.4,4.4,5.5,3,5.5z"/></g>
<g transform="translate(704,528) scale(3.7766666666667)"><path d="M5.5,6h-5V3c0-1.4,1.1-2.5,2.5-2.5h0c1.4,0,2.5,1.1,2.5,2.5V6z"/></g>
<g transform="translate(748,528) scale(3.7766666666667)"><path d="M3,5.5L3,5.5C1.6,5.5,0.5,4.4,0.5,3V0h5v3C5.5,4.4,4.4,5.5,3,5.5z"/></g>
<g transform="translate(770,528) scale(3.7766666666667)"><rect x="0.5" width="5" height="6"/></g>
<g transform="translate(792,528) scale(3.7766666666667)"><path d="M3,5.5L3,5.5C1.6,5.5,0.5,4.4,0.5,3V0h5v3C5.5,4.4,4.4,5.5,3,5.5z"/></g>
<g transform="translate(858,528) scale(3.7766666666667)"><rect x="0.5" width="5" height="6"/></g>
<g transform="translate(880,528) scale(3.7766666666667)"><path d="M3,5.5L3,5.5C1.6,5.5,0.5,4.4,0.5,3V0h5v3C5.5,4.4,4.4,5.5,3,5.5z"/></g>
<g transform="translate(44,550) scale(3.7766666666667)"><rect x="0.5" width="5" height="6"/></g>
<g transform="translate(132,550) scale(3.7766666666667)"><path d="M5.5,6h-5V3c0-1.4,1.1-2.5,2.5-2.5h0c1.4,0,2.5,1.1,2.5,2.5V6z"/></g>
<g transform="translate(154,550) scale(3.7766666666667)"><rect x="0.5" width="5" height="6"/></g>
<g transform="translate(242,550) scale(3.7766666666667)"><circle cx="3" cy="3" r="2.5"/></g>
<g transform="translate(264,550) scale(3.7766666666667)"><rect x="0.5" width="5" height="6"/></g>
<g transform="translate(286,550) scale(3.7766666666667)"><rect x="0.5" width="5" height="6"/></g>
<g transform="translate(330,550) scale(3.7766666666667)"><path d="M3,5.5L3,5.5C1.6,5.5,0.5,4.4,0.5,3V0h5v3C5.5,4.4,4.4,5.5,3,5.5z"/></g>
<g transform="translate(352,550) scale(3.7766666666667)"><path d="M3,5.5L3,5.5C1.6,5.5,0.5,4.4,0.5,3V0h5v3C5.5,4.4,4.4,5.5,3,5.5z"/></g>
<g transform="translate(374,550) scale(3.7766666666667)"><path d="M3,5.5L3,5.5C1.6,5.5,0.5,4.4,0.5,3V0h5v3C5.5,4.4,4.4,5.5,3,5.5z"/></g>
<g transform="translate(396,550) scale(3.7766666666667)"><rect x="0.5" width="5" height="6"/></g>
<g transform="translate(462,550) scale(3.7766666666667)"><rect x="0.5" width="5" height="6"/></g>
<g transform="translate(528,550) scale(3.7766666666667)"><rect x="0.5" width="5" height="6"/></g>
<g transform="translate(572,550) scale(3.7766666666667)"><rect x="0.5" width="5" height="6"/></g>
<g transform="translate(638,550) scale(3.7766666666667)"><path d="M3,5.5L3,5.5C1.6,5.5,0.5,4.4,0.5,3V0h5v3C5.5,4.4,4.4,5.5,3,5.5z"/></g>
<g transform="translate(704,550) scale(3.7766666666667)"><path d="M3,5.5L3,5.5C1.6,5.5,0.5,4.4,0.5,3V0h5v3C5.5,4.4,4.4,5.5,3,5.5z"/></g>
<g transform="translate(770,550) scale(3.7766666666667)"><path d="M3,5.5L3,5.5C1.6,5.5,0.5,4.4,0.5,3V0h5v3C5.5,4.4,4.4,5.5,3,5.5z"/></g>
<g transform="translate(814,550) scale(3.7766666666667)"><circle cx="3" cy="3" r="2.5"/></g>
<g transform="translate(858,550) scale(3.7766666666667)"><path d="M3,5.5L3,5.5C1.6,5.5,0.5,4.4,0.5,3V0h5v3C5.5,4.4,4.4,5.5,3,5.5z"/></g>
<g transform="translate(902,550) scale(3.7766666666667)"><path d="M5.5,6h-5V3c0-1.4,1.1-2.5,2.5-2.5h0c1.4,0,2.5,1.1,2.5,2.5V6z"/></g>
<g transform="translate(44,572) scale(3.7766666666667)"><rect x="0.5" width="5" height="6"/></g>
<g transform="translate(66,572) scale(3.7766666666667)"><path d="M5.5,6h-5V3c0-1.4,1.1-2.5,2.5-2.5h0c1.4,0,2.5,1.1,2.5,2.5V6z"/></g>
<g transform="translate(88,572) scale(3.7766666666667)"><circle cx="3" cy="3" r="2.5"/></g>
<g transform="translate(110,572) scale(3.7766666666667)"><circle cx="3" cy="3" r="2.5"/></g>
<g transform="translate(132,572) scale(3.7766666666667)"><rect x="0.5" width="5" height="6"/></g>
<g transform="translate(154,572) scale(3.7766666666667)"><path d="M3,5.5L3,5.5C1.6,5.5,0.5,4.4,0.5,3V0h5v3C5.5,4.4,4.4,5.5,3,5.5z"/></g>
<g transform="translate(176,572) scale(3.7766666666667)"><circle cx="3" cy="3" r="2.5"/></g>
<g transform="translate(198,572) scale(3.7766666666667)"><circle cx="3" cy="3" r="2.5"/></g>
<g transform="translate(264,572) scale(3.7766666666667)"><path d="M3,5.5L3,5.5C1.6,5.5,0.5,4.4,0.5,3V0h5v3C5.5,4.4,4.4,5.5,3,5.5z"/></g>
<g transform="translate(286,572) scale(3.7766666666667)"><rect x="0.5" width="5" height="6"/></g>
<g transform="translate(308,572) scale(3.7766666666667)"><path d="M5.5,6h-5V3c0-1.4,1.1-2.5,2.5-2.5h0c1.4,0,2.5,1.1,2.5,2.5V6z"/></g>
<g transform="translate(396,572) scale(3.7766666666667)"><path d="M3,5.5L3,5.5C1.6,5.5,0.5,4.4,0.5,3V0h5v3C5.5,4.4,4.4,5.5,3,5.5z"/></g>
<g transform="translate(440,572) scale(3.7766666666667)"><circle cx="3" cy="3" r="2.5"/></g>
<g transform="translate(462,572) scale(3.7766666666667)"><path d="M3,5.5L3,5.5C1.6,5.5,0.5,4.4,0.5,3V0h5v3C5.5,4.4,4.4,5.5,3,5.5z"/></g>
<g transform="translate(506,572) scale(3.7766666666667)"><path d="M5.5,6h-5V3c0-1.4,1.1-2.5,2.5-2.5h0c1.4,0,2.5,1.1,2.5,2.5V6z"/></g>
<g transform="translate(528,572) scale(3.7766666666667)"><path d="M3,5.5L3,5.5C1.6,5.5,0.5,4.4,0.5,3V0h5v3C5.5,4.4,4.4,5.5,3,5.5z"/></g>
<g transform="translate(550,572) scale(3.7766666666667)"><path d="M5.5,6h-5V3c0-1.4,1.1-2.5,2.5-2.5h0c1.4,0,2.5,1.1,2.5,2.5V6z"/></g>
<g transform="translate(572,572) scale(3.7766666666667)"><path d="M3,5.5L3,5.5C1.6,5.5,0.5,4.4,0.5,3V0h5v3C5.5,4.4,4.4,5.5,3,5.5z"/></g>
<g transform="translate(594,572) scale(3.7766666666667)"><circle cx="3" cy="3" r="2.5"/></g>
<g transform="translate(616,572) scale(3.7766666666667)"><circle cx="3" cy="3" r="2.5"/></g>
<g transform="translate(682,572) scale(3.7766666666667)"><path d="M5.5,6h-5V3c0-1.4,1.1-2.5,2.5-2.5h0c1.4,0,2.5,1.1,2.5,2.5V6z"/></g>
<g transform="translate(726,572) scale(3.7766666666667)"><path d="M5.5,6h-5V3c0-1.4,1.1-2.5,2.5-2.5h0c1.4,0,2.5,1.1,2.5,2.5V6z"/></g>
<g transform="translate(880,572) scale(3.7766666666667)"><circle cx="3" cy="3" r="2.5"/></g>
<g transform="translate(902,572) scale(3.7766666666667)"><rect x="0.5" width="5" height="6"/></g>
<g transform="translate(44,594) scale(3.7766666666667)"><path d="M3,5.5L3,5.5C1.6,5.5,0.5,4.4,0.5,3V0h5v3C5.5,4.4,4.4,5.5,3,5.5z"/></g>
<g transform="translate(66,594) scale(3.7766666666667)"><path d="M3,5.5L3,5.5C1.6,5.5,0.5,4.4,0.5,3V0h5v3C5.5,4.4,4.4,5.5,3,5.5z"/></g>
<g transform="translate(132,594) scale(3.7766666666667)"><path d="M3,5.5L3,5.5C1.6,5.5,0.5,4.4,0.5,3V0h5v3C5.5,4.4,4.4,5.5,3,5.5z"/></g>
<g transform="translate(220,594) scale(3.7766666666667)"><circle cx="3" cy="3" r="2.5"/></g>
<g transform="translate(286,594) scale(3.7766666666667)"><rect x="0.5" width="5" height="6"/></g>
<g transform="translate(308,594) scale(3.7766666666667)"><path d="M3,5.5L3,5.5C1.6,5.5,0.5,4.4,0.5,3V0h5v3C5.5,4.4,4.4,5.5,3,5.5z"/></g>
<g transform="translate(330,594) scale(3.7766666666667)"><circle cx="3" cy="3" r="2.5"/></g>
<g transform="translate(506,594) scale(3.7766666666667)"><rect x="0.5" width="5" height="6"/></g>
<g transform="translate(550,594) scale(3.7766666666667)"><path d="M3,5.5L3,5.5C1.6,5.5,0.5,4.4,0.5,3V0h5v3C5.5,4.4,4.4,5.5,3,5.5z"/></g>
<g transform="translate(660,594) scale(3.7766666666667)"><circle cx="3" cy="3" r="2.5"/></g>
<g transform="translate(682,594) scale(3.7766666666667)"><rect x="0.5" width="5" height="6"/></g>
<g transform="translate(704,594) scale(3.7766666666667)"><circle cx="3" cy="3" r="2.5"/></g>
<g transform="translate(726,594) scale(3.7766666666667)"><path d="M3,5.5L3,5.5C1.6,5.5,0.5,4.4,0.5,3V0h5v3C5.5,4.4,4.4,5.5,3,5.5z"/></g>
<g transform="translate(748,594) scale(3.7766666666667)"><path d="M5.5,6h-5V3c0-1.4,1.1-2.5,2.5-2.5h0c1.4,0,2.5,1.1,2.5,2.5V6z"/></g>
<g transform="translate(770,594) scale(3.7766666666667)"><circle cx="3" cy="3" r="2.5"/></g>
<g transform="translate(792,594) scale(3.7766666666667)"><circle cx="3" cy="3" r="2.5"/></g>
<g transform="translate(814,594) scale(3.7766666666667)"><path d="M5.5,6h-5V3c0-1.4,1.1-2.5,2.5-2.5h0c1.4,0,2.5,1.1,2.5,2.5V6z"/></g>
<g transform="translate(836,594) scale(3.7766666666667)"><circle cx="3" cy="3" r="2.5"/></g>
<g transform="translate(858,594) scale(3.7766666666667)"><circle cx="3" cy="3" r="2.5"/></g>
<g transform="translate(902,594) scale(3.7766666666667)"><path d="M3,5.5L3,5.5C1.6,5.5,0.5,4.4,0.5,3V0h5v3C5.5,4.4,4.4,5.5,3,5.5z"/></g>
<g transform="translate(924,594) scale(3.7766666666667)"><circle cx="3" cy="3" r="2.5"/></g>
<g transform="translate(154,616) scale(3.7766666666667)"><path d="M5.5,6h-5V3c0-1.4,1.1-2.5,2.5-2.5h0c1.4,0,2.5,1.1,2.5,2.5V6z"/></g>
<g transform="translate(176,616) scale(3.7766666666667)"><circle cx="3" cy="3" r="2.5"/></g>
<g transform="translate(198,616) scale(3.7766666666667)"><circle cx="3" cy="3" r="2.5"/></g>
<g transform="translate(242,616) scale(3.7766666666667)"><circle cx="3" cy="3" r="2.5"/></g>
<g transform="translate(286,616) scale(3.7766666666667)"><rect x="0.5" width="5" height="6"/></g>
<g transform="translate(374,616) scale(3.7766666666667)"><circle cx="3" cy="3" r="2.5"/></g>
<g transform="translate(396,616) scale(3.7766666666667)"><path d="M5.5,6h-5V3c0-1.4,1.1-2.5,2.5-2.5h0c1.4,0,2.5,1.1,2.5,2.5V6z"/></g>
<g transform="translate(440,616) scale(3.7766666666667)"><path d="M5.5,6h-5V3c0-1.4,1.1-2.5,2.5-2.5h0c1.4,0,2.5,1.1,2.5,2.5V6z"/></g>
<g transform="translate(462,616) scale(3.7766666666667)"><circle cx="3" cy="3" r="2.5"/></g>
<g transform="translate(484,616) scale(3.7766666666667)"><circle cx="3" cy="3" r="2.5"/></g>
<g transform="translate(506,616) scale(3.7766666666667)"><path d="M3,5.5L3,5.5C1.6,5.5,0.5,4.4,0.5,3V0h5v3C5.5,4.4,4.4,5.5,3,5.5z"/></g>
<g transform="translate(528,616) scale(3.7766666666667)"><path d="M5.5,6h-5V3c0-1.4,1.1-2.5,2.5-2.5h0c1.4,0,2.5,1.1,2.5,2.5V6z"/></g>
<g transform="translate(594,616) scale(3.7766666666667)"><circle cx="3" cy="3" r="2.5"/></g>
<g transform="translate(638,616) scale(3.7766666666667)"><path d="M5.5,6h-5V3c0-1.4,1.1-2.5,2.5-2.5h0c1.4,0,2.5,1.1,2.5,2.5V6z"/></g>
<g transform="translate(682,616) scale(3.7766666666667)"><path d="M3,5.5L3,5.5C1.6,5.5,0.5,4.4,0.5,3V0h5v3C5.5,4.4,4.4,5.5,3,5.5z"/></g>
<g transform="translate(748,616) scale(3.7766666666667)"><rect x="0.5" width="5" height="6"/></g>
<g transform="translate(814,616) scale(3.7766666666667)"><path d="M3,5.5L3,5.5C1.6,5.5,0.5,4.4,0.5,3V0h5v3C5.5,4.4,4.4,5.5,3,5.5z"/></g>
<g transform="translate(88,638) scale(3.7766666666667)"><path d="M5.5,6h-5V3c0-1.4,1.1-2.5,2.5-2.5h0c1.4,0,2.5,1.1,2.5,2.5V6z"/></g>
<g transform="translate(110,638) scale(3.7766666666667)"><circle cx="3" cy="3" r="2.5"/></g>
<g transform="translate(154,638) scale(3.7766666666667)"><path d="M3,5.5L3,5.5C1.6,5.5,0.5,4.4,0.5,3V0h5v3C5.5,4.4,4.4,5.5,3,5.5z"/></g>
<g transform="translate(220,638) scale(3.7766666666667)"><path d="M5.5,6h-5V3c0-1.4,1.1-2.5,2.5-2.5h0c1.4,0,2.5,1.1,2.5,2.5V6z"/></g>
<g transform="translate(286,638) scale(3.7766666666667)"><rect x="0.5" width="5" height="6"/></g>
<g transform="translate(352,638) scale(3.7766666666667)"><path d="M5.5,6h-5V3c0-1.4,1.1-2.5,2.5-2.5h0c1.4,0,2.5,1.1,2.5,2.5V6z"/></g>
<g transform="translate(396,638) scale(3.7766666666667)"><path d="M3,5.5L3,5.5C1.6,5.5,0.5,4.4,0.5,3V0h5v3C5.5,4.4,4.4,5.5,3,5.5z"/></g>
<g transform="translate(440,638) scale(3.7766666666667)"><rect x="0.5" width="5" height="6"/></g>
<g transform="translate(528,638) scale(3.7766666666667)"><path d="M3,5.5L3,5.5C1.6,5.5,0.5,4.4,0.5,3V0h5v3C5.5,4.4,4.4,5.5,3,5.5z"/></g>
<g transform="translate(550,638) scale(3.7766666666667)"><path d="M5.5,6h-5V3c0-1.4,1.1-2.5,2.5-2.5h0c1.4,0,2.5,1.1,2.5,2.5V6z"/></g>
<g transform="translate(616,638) scale(3.7766666666667)"><circle cx="3" cy="3" r="2.5"/></g>
<g transform="translate(638,638) scale(3.7766666666667)"><rect x="0.5" width="5" height="6"/></g>
<g transform="translate(660,638) scale(3.7766666666667)"><path d="M5.5,6h-5V3c0-1.4,1.1-2.5,2.5-2.5h0c1.4,0,2.5,1.1,2.5,2.5V6z"/></g>
<g transform="translate(726,638) scale(3.7766666666667)"><path d="M5.5,6h-5V3c0-1.4,1.1-2.5,2.5-2.5h0c1.4,0,2.5,1.1,2.5,2.5V6z"/></g>
<g transform="translate(748,638) scale(3.7766666666667)"><path d="M3,5.5L3,5.5C1.6,5.5,0.5,4.4,0.5,3V0h5v3C5.5,4.4,4.4,5.5,3,5.5z"/></g>
<g transform="translate(770,638) scale(3.7766666666667)"><circle cx="3" cy="3" r="2.5"/></g>
<g transform="translate(836,638) scale(3.7766666666667)"><circle cx="3" cy="3" r="2.5"/></g>
<g transform="translate(858,638) scale(3.7766666666667)"><path d="M5.5,6h-5V3c0-1.4,1.1-2.5,2.5-2.5h0c1.4,0,2.5,1.1,2.5,2.5V6z"/></g>
<g transform="translate(902,638) scale(3.7766666666667)"><circle cx="3" cy="3" r="2.5"/></g>
<g transform="translate(66,660) scale(3.7766666666667)"><circle cx="3" cy="3" r="2.5"/></g>
<g transform="translate(88,660) scale(3.7766666666667)"><rect x="0.5" width="5" height="6"/></g>
<g transform="translate(176,660) scale(3.7766666666667)"><circle cx="3" cy="3" r="2.5"/></g>
<g transform="translate(220,660) scale(3.7766666666667)"><path d="M3,5.5L3,5.5C1.6,5.5,0.5,4.4,0.5,3V0h5v3C5.5,4.4,4.4,5.5,3,5.5z"/></g>
<g transform="translate(264,660) scale(3.7766666666667)"><circle cx="3" cy="3" r="2.5"/></g>
<g transform="translate(286,660) scale(3.7766666666667)"><rect x="0.5" width="5" height="6"/></g>
<g transform="translate(308,660) scale(3.7766666666667)"><circle cx="3" cy="3" r="2.5"/></g>
<g transform="translate(352,660) scale(3.7766666666667)"><rect x="0.5" width="5" height="6"/></g>
<g transform="translate(374,660) scale(3.7766666666667)"><path d="M5.5,6h-5V3c0-1.4,1.1-2.5,2.5-2.5h0c1.4,0,2.5,1.1,2.5,2.5V6z"/></g>
<g transform="translate(418,660) scale(3.7766666666667)"><path d="M5.5,6h-5V3c0-1.4,1.1-2.5,2.5-2.5h0c1.4,0,2.5,1.1,2.5,2.5V6z"/></g>
<g transform="translate(440,660) scale(3.7766666666667)"><rect x="0.5" width="5" height="6"/></g>
<g transform="translate(462,660) scale(3.7766666666667)"><path d="M5.5,6h-5V3c0-1.4,1.1-2.5,2.5-2.5h0c1.4,0,2.5,1.1,2.5,2.5V6z"/></g>
<g transform="translate(550,660) scale(3.7766666666667)"><path d="M3,5.5L3,5.5C1.6,5.5,0.5,4.4,0.5,3V0h5v3C5.5,4.4,4.4,5.5,3,5.5z"/></g>
<g transform="translate(572,660) scale(3.7766666666667)"><circle cx="3" cy="3" r="2.5"/></g>
<g transform="translate(594,660) scale(3.7766666666667)"><circle cx="3" cy="3" r="2.5"/></g>
<g transform="translate(638,660) scale(3.7766666666667)"><rect x="0.5" width="5" height="6"/></g>
<g transform="translate(660,660) scale(3.7766666666667)"><path d="M3,5.5L3,5.5C1.6,5.5,0.5,4.4,0.5,3V0h5v3C5.5,4.4,4.4,5.5,3,5.5z"/></g>
<g transform="translate(682,660) scale(3.7766666666667)"><circle cx="3" cy="3" r="2.5"/></g>
<g transform="translate(726,660) scale(3.7766666666667)"><rect x="0.5" width="5" height="6"/></g>
<g transform="translate(858,660) scale(3.7766666666667)"><path d="M3,5.5L3,5.5C1.6,5.5,0.5,4.4,0.5,3V0h5v3C5.5,4.4,4.4,5.5,3,5.5z"/></g>
<g transform="translate(880,660) scale(3.7766666666667)"><path d="M5.5,6h-5V3c0-1.4,1.1-2.5,2.5-2.5h0c1.4,0,2.5,1.1,2.5,2.5V6z"/></g>
<g transform="translate(44,682) scale(3.7766666666667)"><path d="M5.5,6h-5V3c0-1.4,1.1-2.5,2.5-2.5h0c1.4,0,2.5,1.1,2.5,2.5V6z"/></g>
<g transform="translate(88,682) scale(3.7766666666667)"><path d="M3,5.5L3,5.5C1.6,5.5,0.5,4.4,0.5,3V0h5v3C5.5,4.4,4.4,5.5,3,5.5z"/></g>
<g transform="translate(242,682) scale(3.7766666666667)"><path d="M5.5,6h-5V3c0-1.4,1.1-2.5,2.5-2.5h0c1.4,0,2.5,1.1,2.5,2.5V6z"/></g>
<g transform="translate(286,682) scale(3.7766666666667)"><rect x="0.5" width="5" height="6"/></g>
<g transform="translate(330,682) scale(3.7766666666667)"><path d="M5.5,6h-5V3c0-1.4,1.1-2.5,2.5-2.5h0c1.4,0,2.5,1.1,2.5,2.5V6z"/></g>
<g transform="translate(352,682) scale(3.7766666666667)"><rect x="0.5" width="5" height="6"/></g>
<g transform="translate(374,682) scale(3.7766666666667)"><path d="M3,5.5L3,5.5C1.6,5.5,0.5,4.4,0.5,3V0h5v3C5.5,4.4,4.4,5.5,3,5.5z"/></g>
<g transform="translate(418,682) scale(3.7766666666667)"><path d="M3,5.5L3,5.5C1.6,5.5,0.5,4.4,0.5,3V0h5v3C5.5,4.4,4.4,5.5,3,5.5z"/></g>
<g transform="translate(440,682) scale(3.7766666666667)"><rect x="0.5" width="5" height="6"/></g>
<g transform="translate(462,682) scale(3.7766666666667)"><rect x="0.5" width="5" height="6"/></g>
<g transform="translate(484,682) scale(3.7766666666667)"><path d="M5.5,6h-5V3c0-1.4,1.1-2.5,2.5-2.5h0c1.4,0,2.5,1.1,2.5,2.5V6z"/></g>
<g transform="translate(506,682) scale(3.7766666666667)"><circle cx="3" cy="3" r="2.5"/></g>
<g transform="translate(528,682) scale(3.7766666666667)"><path d="M5.5,6h-5V3c0-1.4,1.1-2.5,2.5-2.5h0c1.4,0,2.5,1.1,2.5,2.5V6z"/></g>
<g transform="translate(638,682) scale(3.7766666666667)"><rect x="0.5" width="5" height="6"/></g>
<g transform="translate(726,682) scale(3.7766666666667)"><path d="M3,5.5L3,5.5C1.6,5.5,0.5,4.4,0.5,3V0h5v3C5.5,4.4,4.4,5.5,3,5.5z"/></g>
<g transform="translate(748,682) scale(3.7766666666667)"><path d="M5.5,6h-5V3c0-1.4,1.1-2.5,2.5-2.5h0c1.4,0,2.5,1.1,2.5,2.5V6z"/></g>
<g transform="translate(770,682) scale(3.7766666666667)"><circle cx="3" cy="3" r="2.5"/></g>
<g transform="translate(792,682) scale(3.7766666666667)"><path d="M5.5,6h-5V3c0-1.4,1.1-2.5,2.5-2.5h0c1.4,0,2.5,1.1,2.5,2.5V6z"/></g>
<g transform="translate(814,682) scale(3.7766666666667)"><circle cx="3" cy="3" r="2.5"/></g>
<g transform="translate(836,682) scale(3.7766666666667)"><circle cx="3" cy="3" r="2.5"/></g>
<g transform="translate(880,682) scale(3.7766666666667)"><path d="M3,5.5L3,5.5C1.6,5.5,0.5,4.4,0.5,3V0h5v3C5.5,4.4,4.4,5.5,3,5.5z"/></g>
<g transform="translate(924,682) scale(3.7766666666667)"><circle cx="3" cy="3" r="2.5"/></g>
<g transform="translate(44,704) scale(3.7766666666667)"><rect x="0.5" width="5" height="6"/></g>
<g transform="translate(132,704) scale(3.7766666666667)"><circle cx="3" cy="3" r="2.5"/></g>
<g transform="translate(154,704) scale(3.7766666666667)"><path d="M5.5,6h-5V3c0-1.4,1.1-2.5,2.5-2.5h0c1.4,0,2.5,1.1,2.5,2.5V6z"/></g>
<g transform="translate(176,704) scale(3.7766666666667)"><circle cx="3" cy="3" r="2.5"/></g>
<g transform="translate(198,704) scale(3.7766666666667)"><path d="M5.5,6h-5V3c0-1.4,1.1-2.5,2.5-2.5h0c1.4,0,2.5,1.1,2.5,2.5V6z"/></g>
<g transform="translate(242,704) scale(3.7766666666667)"><rect x="0.5" width="5" height="6"/></g>
<g transform="translate(286,704) scale(3.7766666666667)"><rect x="0.5" width="5" height="6"/></g>
<g transform="translate(308,704) scale(3.7766666666667)"><circle cx="3" cy="3" r="2.5"/></g>
<g transform="translate(330,704) scale(3.7766666666667)"><path d="M3,5.5L3,5.5C1.6,5.5,0.5,4.4,0.5,3V0h5v3C5.5,4.4,4.4,5.5,3,5.5z"/></g>
<g transform="translate(352,704) scale(3.7766666666667)"><path d="M3,5.5L3,5.5C1.6,5.5,0.5,4.4,0.5,3V0h5v3C5.5,4.4,4.4,5.5,3,5.5z"/></g>
<g transform="translate(396,704) scale(3.7766666666667)"><circle cx="3" cy="3" r="2.5"/></g>
<g transform="translate(440,704) scale(3.7766666666667)"><path d="M3,5.5L3,5.5C1.6,5.5,0.5,4.4,0.5,3V0h5v3C5.5,4.4,4.4,5.5,3,5.5z"/></g>
<g transform="translate(462,704) scale(3.7766666666667)"><rect x="0.5" width="5" height="6"/></g>
<g transform="translate(484,704) scale(3.7766666666667)"><path d="M3,5.5L3,5.5C1.6,5.5,0.5,4.4,0.5,3V0h5v3C5.5,4.4,4.4,5.5,3,5.5z"/></g>
<g transform="translate(528,704) scale(3.7766666666667)"><rect x="0.5" width="5" height="6"/></g>
<g transform="translate(550,704) scale(3.7766666666667)"><path d="M5.5,6h-5V3c0-1.4,1.1-2.5,2.5-2.5h0c1.4,0,2.5,1.1,2.5,2.5V6z"/></g>
<g transform="translate(572,704) scale(3.7766666666667)"><circle cx="3" cy="3" r="2.5"/></g>
<g transform="translate(616,704) scale(3.7766666666667)"><path d="M5.5,6h-5V3c0-1.4,1.1-2.5,2.5-2.5h0c1.4,0,2.5,1.1,2.5,2.5V6z"/></g>
<g transform="translate(638,704) scale(3.7766666666667)"><rect x="0.5" width="5" height="6"/></g>
<g transform="translate(660,704) scale(3.7766666666667)"><circle cx="3" cy="3" r="2.5"/></g>
<g transform="translate(682,704) scale(3.7766666666667)"><circle cx="3" cy="3" r="2.5"/></g>
<g transform="translate(748,704) scale(3.7766666666667)"><rect x="0.5" width="5" height="6"/></g>
<g transform="translate(792,704) scale(3.7766666666667)"><rect x="0.5" width="5" height="6"/></g>
<g transform="translate(858,704) scale(3.7766666666667)"><circle cx="3" cy="3" r="2.5"/></g>
<g transform="translate(44,726) scale(3.7766666666667)"><rect x="0.5" width="5" height="6"/></g>
<g transform="translate(110,726) scale(3.7766666666667)"><path d="M5.5,6h-5V3c0-1.4,1.1-2.5,2.5-2.5h0c1.4,0,2.5,1.1,2.5,2.5V6z"/></g>
<g transform="translate(154,726) scale(3.7766666666667)"><rect x="0.5" width="5" height="6"/></g>
<g transform="translate(198,726) scale(3.7766666666667)"><path d="M3,5.5L3,5.5C1.6,5.5,0.5,4.4,0.5,3V0h5v3C5.5,4.4,4.4,5.5,3,5.5z"/></g>
<g transform="translate(242,726) scale(3.7766666666667)"><path d="M3,5.5L3,5.5C1.6,5.5,0.5,4.4,0.5,3V0h5v3C5.5,4.4,4.4,5.5,3,5.5z"/></g>
<g transform="translate(286,726) scale(3.7766666666667)"><path d="M3,5.5L3,5.5C1.6,5.5,0.5,4.4,0.5,3V0h5v3C5.5,4.4,4.4,5.5,3,5.5z"/></g>
<g transform="translate(374,726) scale(3.7766666666667)"><path d="M5.5,6h-5V3c0-1.4,1.1-2.5,2.5-2.5h0c1.4,0,2.5,1.1,2.5,2.5V6z"/></g>
<g transform="translate(462,726) scale(3.7766666666667)"><rect x="0.5" width="5" height="6"/></g>
<g transform="translate(506,726) scale(3.7766666666667)"><path d="M5.5,6h-5V3c0-1.4,1.1-2.5,2.5-2.5h0c1.4,0,2.5,1.1,2.5,2.5V6z"/></g>
<g transform="translate(528,726) scale(3.7766666666667)"><rect x="0.5" width="5" height="6"/></g>
<g transform="translate(550,726) scale(3.7766666666667)"><rect x="0.5" width="5" height="6"/></g>
<g transform="translate(616,726) scale(3.7766666666667)"><rect x="0.5" width="5" height="6"/></g>
<g transform="translate(638,726) scale(3.7766666666667)"><rect x="0.5" width="5" height="6"/></g>
<g transform="translate(748,726) scale(3.7766666666667)"><rect x="0.5" width="5" height="6"/></g>
<g transform="translate(792,726) scale(3.7766666666667)"><rect x="0.5" width="5" height="6"/></g>
<g transform="translate(814,726) scale(3.7766666666667)"><path d="M5.5,6h-5V3c0-1.4,1.1-2.5,2.5-2.5h0c1.4,0,2.5,1.1,2.5,2.5V6z"/></g>
<g transform="translate(44,748) scale(3.7766666666667)"><path d="M3,5.5L3,5.5C1.6,5.5,0.5,4.4,0.5,3V0h5v3C5.5,4.4,4.4,5.5,3,5.5z"/></g>
<g transform="translate(88,748) scale(3.7766666666667)"><circle cx="3" cy="3" r="2.5"/></g>
<g transform="translate(110,748) scale(3.7766666666667)"><path d="M3,5.5L3,5.5C1.6,5.5,0.5,4.4,0.5,3V0h5v3C5.5,4.4,4.4,5.5,3,5.5z"/></g>
<g transform="translate(132,748) scale(3.7766666666667)"><circle cx="3" cy="3" r="2.5"/></g>
<g transform="translate(154,748) scale(3.7766666666667)"><path d="M3,5.5L3,5.5C1.6,5.5,0.5,4.4,0.5,3V0h5v3C5.5,4.4,4.4,5.5,3,5.5z"/></g>
<g transform="translate(176,748) scale(3.7766666666667)"><circle cx="3" cy="3" r="2.5"/></g>
<g transform="translate(220,748) scale(3.7766666666667)"><path d="M5.5,6h-5V3c0-1.4,1.1-2.5,2.5-2.5h0c1.4,0,2.5,1.1,2.5,2.5V6z"/></g>
<g transform="translate(352,748) scale(3.7766666666667)"><circle cx="3" cy="3" r="2.5"/></g>
<g transform="translate(374,748) scale(3.7766666666667)"><rect x="0.5" width="5" height="6"/></g>
<g transform="translate(396,748) scale(3.7766666666667)"><circle cx="3" cy="3" r="2.5"/></g>
<g transform="translate(418,748) scale(3.7766666666667)"><circle cx="3" cy="3" r="2.5"/></g>
<g transform="translate(440,748) scale(3.7766666666667)"><circle cx="3" cy="3" r="2.5"/></g>
<g transform="translate(462,748) scale(3.7766666666667)"><path d="M3,5.5L3,5.5C1.6,5.5,0.5,4.4,0.5,3V0h5v3C5.5,4.4,4.4,5.5,3,5.5z"/></g>
<g transform="translate(484,748) scale(3.7766666666667)"><circle cx="3" cy="3" r="2.5"/></g>
<g transform="translate(506,748) scale(3.7766666666667)"><path d="M3,5.5L3,5.5C1.6,5.5,0.5,4.4,0.5,3V0h5v3C5.5,4.4,4.4,5.5,3,5.5z"/></g>
<g transform="translate(528,748) scale(3.7766666666667)"><path d="M3,5.5L3,5.5C1.6,5.5,0.5,4.4,0.5,3V0h5v3C5.5,4.4,4.4,5.5,3,5.5z"/></g>
<g transform="translate(550,748) scale(3.7766666666667)"><rect x="0.5" width="5" height="6"/></g>
<g transform="translate(594,748) scale(3.7766666666667)"><circle cx="3" cy="3" r="2.5"/></g>
<g transform="translate(616,748) scale(3.7766666666667)"><path d="M3,5.5L3,5.5C1.6,5.5,0.5,4.4,0.5,3V0h5v3C5.5,4.4,4.4,5.5,3,5.5z"/></g>
<g transform="translate(638,748) scale(3.7766666666667)"><path d="M3,5.5L3,5.5C1.6,5.5,0.5,4.4,0.5,3V0h5v3C5.5,4.4,4.4,5.5,3,5.5z"/></g>
<g transform="translate(682,748) scale(3.7766666666667)"><path d="M5.5,6h-5V3c0-1.4,1.1-2.5,2.5-2.5h0c1.4,0,2.5,1.1,2.5,2.5V6z"/></g>
<g transform="translate(726,748) scale(3.7766666666667)"><circle cx="3" cy="3" r="2.5"/></g>
<g transform="translate(748,748) scale(3.7766666666667)"><rect x="0.5" width="5" height="6"/></g>
<g transform="translate(770,748) scale(3.7766666666667)"><circle cx="3" cy="3" r="2.5"/></g>
<g transform="translate(792,748) scale(3.7766666666667)"><path d="M3,5.5L3,5.5C1.6,5.5,0.5,4.4,0.5,3V0h5v3C5.5,4.4,4.4,5.5,3,5.5z"/></g>
<g transform="translate(814,748) scale(3.7766666666667)"><path d="M3,5.5L3,5.5C1.6,5.5,0.5,4.4,0.5,3V0h5v3C5.5,4.4,4.4,5.5,3,5.5z"/></g>
<g transform="translate(836,748) scale(3.7766666666667)"><path d="M5.5,6h-5V3c0-1.4,1.1-2.5,2.5-2.5h0c1.4,0,2.5,1.1,2.5,2.5V6z"/></g>
<g transform="translate(880,748) scale(3.7766666666667)"><path d="M5.5,6h-5V3c0-1.4,1.1-2.5,2.5-2.5h0c1.4,0,2.5,1.1,2.5,2.5V6z"/></g>
<g transform="translate(902,748) scale(3.7766666666667)"><path d="M5.5,6h-5V3c0-1.4,1.1-2.5,2.5-2.5h0c1.4,0,2.5,1.1,2.5,2.5V6z"/></g>
<g transform="translate(220,770) scale(3.7766666666667)"><rect x="0.5" width="5" height="6"/></g>
<g transform="translate(242,770) scale(3.7766666666667)"><path d="M5.5,6h-5V3c0-1.4,1.1-2.5,2.5-2.5h0c1.4,0,2.5,1.1,2.5,2.5V6z"/></g>
<g transform="translate(264,770) scale(3.7766666666667)"><path d="M5.5,6h-5V3c0-1.4,1.1-2.5,2.5-2.5h0c1.4,0,2.5,1.1,2.5,2.5V6z"/></g>
<g transform="translate(286,770) scale(3.7766666666667)"><path d="M5.5,6h-5V3c0-1.4,1.1-2.5,2.5-2.5h0c1.4,0,2.5,1.1,2.5,2.5V6z"/></g>
<g transform="translate(330,770) scale(3.7766666666667)"><path d="M5.5,6h-5V3c0-1.4,1.1-2.5,2.5-2.5h0c1.4,0,2.5,1.1,2.5,2.5V6z"/></g>
<g transform="translate(374,770) scale(3.7766666666667)"><path d="M3,5.5L3,5.5C1.6,5.5,0.5,4.4,0.5,3V0h5v3C5.5,4.4,4.4,5.5,3,5.5z"/></g>
<g transform="translate(550,770) scale(3.7766666666667)"><path d="M3,5.5L3,5.5C1.6,5.5,0.5,4.4,0.5,3V0h5v3C5.5,4.4,4.4,5.5,3,5.5z"/></g>
<g transform="translate(660,770) scale(3.7766666666667)"><path d="M5.5,6h-5V3c0-1.4,1.1-2.5,2.5-2.5h0c1.4,0,2.5,1.1,2.5,2.5V6z"/></g>
<g transform="translate(682,770) scale(3.7766666666667)"><rect x="0.5" width="5" height="6"/></g>
<g transform="translate(704,770) scale(3.7766666666667)"><circle cx="3" cy="3" r="2.5"/></g>
<g transform="translate(748,770) scale(3.7766666666667)"><rect x="0.5" width="5" height="6"/></g>
<g transform="translate(836,770) scale(3.7766666666667)"><rect x="0.5" width="5" height="6"/></g>
<g transform="translate(880,770) scale(3.7766666666667)"><path d="M3,5.5L3,5.5C1.6,5.5,0.5,4.4,0.5,3V0h5v3C5.5,4.4,4.4,5.5,3,5.5z"/></g>
<g transform="translate(902,770) scale(3.7766666666667)"><path d="M3,5.5L3,5.5C1.6,5.5,0.5,4.4,0.5,3V0h5v3C5.5,4.4,4.4,5.5,3,5.5z"/></g>
<g transform="translate(924,770) scale(3.7766666666667)"><circle cx="3" cy="3" r="2.5"/></g>
<g transform="translate(220,792) scale(3.7766666666667)"><rect x="0.5" width="5" height="6"/></g>
<g transform="translate(242,792) scale(3.7766666666667)"><path d="M3,5.5L3,5.5C1.6,5.5,0.5,4.4,0.5,3V0h5v3C5.5,4.4,4.4,5.5,3,5.5z"/></g>
<g transform="translate(264,792) scale(3.7766666666667)"><rect x="0.5" width="5" height="6"/></g>
<g transform="translate(286,792) scale(3.7766666666667)"><rect x="0.5" width="5" height="6"/></g>
<g transform="translate(308,792) scale(3.7766666666667)"><path d="M5.5,6h-5V3c0-1.4,1.1-2.5,2.5-2.5h0c1.4,0,2.5,1.1,2.5,2.5V6z"/></g>
<g transform="translate(330,792) scale(3.7766666666667)"><rect x="0.5" width="5" height="6"/></g>
<g transform="translate(352,792) scale(3.7766666666667)"><circle cx="3" cy="3" r="2.5"/></g>
<g transform="translate(418,792) scale(3.7766666666667)"><path d="M5.5,6h-5V3c0-1.4,1.1-2.5,2.5-2.5h0c1.4,0,2.5,1.1,2.5,2.5V6z"/></g>
<g transform="translate(638,792) scale(3.7766666666667)"><path d="M5.5,6h-5V3c0-1.4,1.1-2.5,2.5-2.5h0c1.4,0,2.5,1.1,2.5,2.5V6z"/></g>
<g transform="translate(660,792) scale(3.7766666666667)"><rect x="0.5" width="5" height="6"/></g>
<g transform="translate(682,792) scale(3.7766666666667)"><rect x="0.5" width="5" height="6"/></g>
<g transform="translate(726,792) scale(3.7766666666667)"><path d="M5.5,6h-5V3c0-1.4,1.1-2.5,2.5-2.5h0c1.4,0,2.5,1.1,2.5,2.5V6z"/></g>
<g transform="translate(748,792) scale(3.7766666666667)"><rect x="0.5" width="5" height="6"/></g>
<g transform="translate(792,792) scale(3.7766666666667)"><circle cx="3" cy="3" r="2.5"/></g>
<g transform="translate(836,792) scale(3.7766666666667)"><rect x="0.5" width="5" height="6"/></g>
<g transform="translate(858,792) scale(3.7766666666667)"><path d="M5.5,6h-5V3c0-1.4,1.1-2.5,2.5-2.5h0c1.4,0,2.5,1.1,2.5,2.5V6z"/></g>
<g transform="translate(220,814) scale(3.7766666666667)"><rect x="0.5" width="5" height="6"/></g>
<g transform="translate(264,814) scale(3.7766666666667)"><rect x="0.5" width="5" height="6"/></g>
<g transform="translate(286,814) scale(3.7766666666667)"><path d="M3,5.5L3,5.5C1.6,5.5,0.5,4.4,0.5,3V0h5v3C5.5,4.4,4.4,5.5,3,5.5z"/></g>
<g transform="translate(308,814) scale(3.7766666666667)"><path d="M3,5.5L3,5.5C1.6,5.5,0.5,4.4,0.5,3V0h5v3C5.5,4.4,4.4,5.5,3,5.5z"/></g>
<g transform="translate(330,814) scale(3.7766666666667)"><path d="M3,5.5L3,5.5C1.6,5.5,0.5,4.4,0.5,3V0h5v3C5.5,4.4,4.4,5.5,3,5.5z"/></g>
<g transform="translate(418,814) scale(3.7766666666667)"><path d="M3,5.5L3,5.5C1.6,5.5,0.5,4.4,0.5,3V0h5v3C5.5,4.4,4.4,5.5,3,5.5z"/></g>
<g transform="translate(484,814) scale(3.7766666666667)"><path d="M5.5,6h-5V3c0-1.4,1.1-2.5,2.5-2.5h0c1.4,0,2.5,1.1,2.5,2.5V6z"/></g>
<g transform="translate(506,814) scale(3.7766666666667)"><path d="M5.5,6h-5V3c0-1.4,1.1-2.5,2.5-2.5h0c1.4,0,2.5,1.1,2.5,2.5V6z"/></g>
<g transform="translate(528,814) scale(3.7766666666667)"><circle cx="3" cy="3" r="2.5"/></g>
<g transform="translate(616,814) scale(3.7766666666667)"><circle cx="3" cy="3" r="2.5"/></g>
<g transform="translate(638,814) scale(3.7766666666667)"><rect x="0.5" width="5" height="6"/></g>
<g transform="translate(660,814) scale(3.7766666666667)"><path d="M3,5.5L3,5.5C1.6,5.5,0.5,4.4,0.5,3V0h5v3C5.5,4.4,4.4,5.5,3,5.5z"/></g>
<g transform="translate(682,814) scale(3.7766666666667)"><path d="M3,5.5L3,5.5C1.6,5.5,0.5,4.4,0.5,3V0h5v3C5.5,4.4,4.4,5.5,3,5.5z"/></g>
<g transform="translate(704,814) scale(3.7766666666667)"><circle cx="3" cy="3" r="2.5"/></g>
<g transform="translate(726,814) scale(3.7766666666667)"><path d="M3,5.5L3,5.5C1.6,5.5,0.5,4.4,0.5,3V0h5v3C5.5,4.4,4.4,5.5,3,5.5z"/></g>
<g transform="translate(748,814) scale(3.7766666666667)"><rect x="0.5" width="5" height="6"/></g>
<g transform="translate(836,814) scale(3.7766666666667)"><rect x="0.5" width="5" height="6"/></g>
<g transform="translate(858,814) scale(3.7766666666667)"><rect x="0.5" width="5" height="6"/></g>
<g transform="translate(220,836) scale(3.7766666666667)"><rect x="0.5" width="5" height="6"/></g>
<g transform="translate(264,836) scale(3.7766666666667)"><path d="M3,5.5L3,5.5C1.6,5.5,0.5,4.4,0.5,3V0h5v3C5.5,4.4,4.4,5.5,3,5.5z"/></g>
<g transform="translate(352,836) scale(3.7766666666667)"><circle cx="3" cy="3" r="2.5"/></g>
<g transform="translate(440,836) scale(3.7766666666667)"><path d="M5.5,6h-5V3c0-1.4,1.1-2.5,2.5-2.5h0c1.4,0,2.5,1.1,2.5,2.5V6z"/></g>
<g transform="translate(462,836) scale(3.7766666666667)"><circle cx="3" cy="3" r="2.5"/></g>
<g transform="translate(484,836) scale(3.7766666666667)"><rect x="0.5" width="5" height="6"/></g>
<g transform="translate(506,836) scale(3.7766666666667)"><path d="M3,5.5L3,5.5C1.6,5.5,0.5,4.4,0.5,3V0h5v3C5.5,4.4,4.4,5.5,3,5.5z"/></g>
<g transform="translate(572,836) scale(3.7766666666667)"><circle cx="3" cy="3" r="2.5"/></g>
<g transform="translate(638,836) scale(3.7766666666667)"><path d="M3,5.5L3,5.5C1.6,5.5,0.5,4.4,0.5,3V0h5v3C5.5,4.4,4.4,5.5,3,5.5z"/></g>
<g transform="translate(748,836) scale(3.7766666666667)"><rect x="0.5" width="5" height="6"/></g>
<g transform="translate(770,836) scale(3.7766666666667)"><path d="M5.5,6h-5V3c0-1.4,1.1-2.5,2.5-2.5h0c1.4,0,2.5,1.1,2.5,2.5V6z"/></g>
<g transform="translate(792,836) scale(3.7766666666667)"><circle cx="3" cy="3" r="2.5"/></g>
<g transform="translate(814,836) scale(3.7766666666667)"><path d="M5.5,6h-5V3c0-1.4,1.1-2.5,2.5-2.5h0c1.4,0,2.5,1.1,2.5,2.5V6z"/></g>
<g transform="translate(836,836) scale(3.7766666666667)"><path d="M3,5.5L3,5.5C1.6,5.5,0.5,4.4,0.5,3V0h5v3C5.5,4.4,4.4,5.5,3,5.5z"/></g>
<g transform="translate(858,836) scale(3.7766666666667)"><rect x="0.5" width="5" height="6"/></g>
<g transform="translate(880,836) scale(3.7766666666667)"><path d="M5.5,6h-5V3c0-1.4,1.1-2.5,2.5-2.5h0c1.4,0,2.5,1.1,2.5,2.5V6z"/></g>
<g transform="translate(220,858) scale(3.7766666666667)"><rect x="0.5" width="5" height="6"/></g>
<g transform="translate(242,858) scale(3.7766666666667)"><path d="M5.5,6h-5V3c0-1.4,1.1-2.5,2.5-2.5h0c1.4,0,2.5,1.1,2.5,2.5V6z"/></g>
<g transform="translate(308,858) scale(3.7766666666667)"><circle cx="3" cy="3" r="2.5"/></g>
<g transform="translate(330,858) scale(3.7766666666667)"><circle cx="3" cy="3" r="2.5"/></g>
<g transform="translate(374,858) scale(3.7766666666667)"><circle cx="3" cy="3" r="2.5"/></g>
<g transform="translate(396,858) scale(3.7766666666667)"><circle cx="3" cy="3" r="2.5"/></g>
<g transform="translate(418,858) scale(3.7766666666667)"><circle cx="3" cy="3" r="2.5"/></g>
<g transform="translate(440,858) scale(3.7766666666667)"><path d="M3,5.5L3,5.5C1.6,5.5,0.5,4.4,0.5,3V0h5v3C5.5,4.4,4.4,5.5,3,5.5z"/></g>
<g transform="translate(484,858) scale(3.7766666666667)"><rect x="0.5" width="5" height="6"/></g>
<g transform="translate(528,858) scale(3.7766666666667)"><circle cx="3" cy="3" r="2.5"/></g>
<g transform="translate(616,858) scale(3.7766666666667)"><path d="M5.5,6h-5V3c0-1.4,1.1-2.5,2.5-2.5h0c1.4,0,2.5,1.1,2.5,2.5V6z"/></g>
<g transform="translate(660,858) scale(3.7766666666667)"><path d="M5.5,6h-5V3c0-1.4,1.1-2.5,2.5-2.5h0c1.4,0,2.5,1.1,2.5,2.5V6z"/></g>
<g transform="translate(704,858) scale(3.7766666666667)"><path d="M5.5,6h-5V3c0-1.4,1.1-2.5,2.5-2.5h0c1.4,0,2.5,1.1,2.5,2.5V6z"/></g>
<g transform="translate(748,858) scale(3.7766666666667)"><path d="M3,5.5L3,5.5C1.6,5.5,0.5,4.4,0.5,3V0h5v3C5.5,4.4,4.4,5.5,3,5.5z"/></g>
<g transform="translate(770,858) scale(3.7766666666667)"><rect x="0.5" width="5" height="6"/></g>
<g transform="translate(814,858) scale(3.7766666666667)"><rect x="0.5" width="5" height="6"/></g>
<g transform="translate(858,858) scale(3.7766666666667)"><path d="M3,5.5L3,5.5C1.6,5.5,0.5,4.4,0.5,3V0h5v3C5.5,4.4,4.4,5.5,3,5.5z"/></g>
<g transform="translate(880,858) scale(3.7766666666667)"><rect x="0.5" width="5" height="6"/></g>
<g transform="translate(902,858) scale(3.7766666666667)"><circle cx="3" cy="3" r="2.5"/></g>
<g transform="translate(220,880) scale(3.7766666666667)"><rect x="0.5" width="5" height="6"/></g>
<g transform="translate(242,880) scale(3.7766666666667)"><path d="M3,5.5L3,5.5C1.6,5.5,0.5,4.4,0.5,3V0h5v3C5.5,4.4,4.4,5.5,3,5.5z"/></g>
<g transform="translate(264,880) scale(3.7766666666667)"><path d="M5.5,6h-5V3c0-1.4,1.1-2.5,2.5-2.5h0c1.4,0,2.5,1.1,2.5,2.5V6z"/></g>
<g transform="translate(352,880) scale(3.7766666666667)"><circle cx="3" cy="3" r="2.5"/></g>
<g transform="translate(462,880) scale(3.7766666666667)"><path d="M5.5,6h-5V3c0-1.4,1.1-2.5,2.5-2.5h0c1.4,0,2.5,1.1,2.5,2.5V6z"/></g>
<g transform="translate(484,880) scale(3.7766666666667)"><rect x="0.5" width="5" height="6"/></g>
<g transform="translate(594,880) scale(3.7766666666667)"><circle cx="3" cy="3" r="2.5"/></g>
<g transform="translate(616,880) scale(3.7766666666667)"><rect x="0.5" width="5" height="6"/></g>
<g transform="translate(638,880) scale(3.7766666666667)"><circle cx="3" cy="3" r="2.5"/></g>
<g transform="translate(660,880) scale(3.7766666666667)"><path d="M3,5.5L3,5.5C1.6,5.5,0.5,4.4,0.5,3V0h5v3C5.5,4.4,4.4,5.5,3,5.5z"/></g>
<g transform="translate(704,880) scale(3.7766666666667)"><path d="M3,5.5L3,5.5C1.6,5.5,0.5,4.4,0.5,3V0h5v3C5.5,4.4,4.4,5.5,3,5.5z"/></g>
<g transform="translate(770,880) scale(3.7766666666667)"><path d="M3,5.5L3,5.5C1.6,5.5,0.5,4.4,0.5,3V0h5v3C5.5,4.4,4.4,5.5,3,5.5z"/></g>
<g transform="translate(792,880) scale(3.7766666666667)"><path d="M5.5,6h-5V3c0-1.4,1.1-2.5,2.5-2.5h0c1.4,0,2.5,1.1,2.5,2.5V6z"/></g>
<g transform="translate(814,880) scale(3.7766666666667)"><path d="M3,5.5L3,5.5C1.6,5.5,0.5,4.4,0.5,3V0h5v3C5.5,4.4,4.4,5.5,3,5.5z"/></g>
<g transform="translate(836,880) scale(3.7766666666667)"><path d="M5.5,6h-5V3c0-1.4,1.1-2.5,2.5-2.5h0c1.4,0,2.5,1.1,2.5,2.5V6z"/></g>
<g transform="translate(880,880) scale(3.7766666666667)"><path d="M3,5.5L3,5.5C1.6,5.5,0.5,4.4,0.5,3V0h5v3C5.5,4.4,4.4,5.5,3,5.5z"/></g>
<g transform="translate(220,902) scale(3.7766666666667)"><path d="M3,5.5L3,5.5C1.6,5.5,0.5,4.4,0.5,3V0h5v3C5.5,4.4,4.4,5.5,3,5.5z"/></g>
<g transform="translate(264,902) scale(3.7766666666667)"><path d="M3,5.5L3,5.5C1.6,5.5,0.5,4.4,0.5,3V0h5v3C5.5,4.4,4.4,5.5,3,5.5z"/></g>
<g transform="translate(308,902) scale(3.7766666666667)"><path d="M5.5,6h-5V3c0-1.4,1.1-2.5,2.5-2.5h0c1.4,0,2.5,1.1,2.5,2.5V6z"/></g>
<g transform="translate(330,902) scale(3.7766666666667)"><path d="M5.5,6h-5V3c0-1.4,1.1-2.5,2.5-2.5h0c1.4,0,2.5,1.1,2.5,2.5V6z"/></g>
<g transform="translate(374,902) scale(3.7766666666667)"><path d="M5.5,6h-5V3c0-1.4,1.1-2.5,2.5-2.5h0c1.4,0,2.5,1.1,2.5,2.5V6z"/></g>
<g transform="translate(396,902) scale(3.7766666666667)"><circle cx="3" cy="3" r="2.5"/></g>
<g transform="translate(462,902) scale(3.7766666666667)"><rect x="0.5" width="5" height="6"/></g>
<g transform="translate(484,902) scale(3.7766666666667)"><rect x="0.5" width="5" height="6"/></g>
<g transform="translate(528,902) scale(3.7766666666667)"><circle cx="3" cy="3" r="2.5"/></g>
<g transform="translate(550,902) scale(3.7766666666667)"><path d="M5.5,6h-5V3c0-1.4,1.1-2.5,2.5-2.5h0c1.4,0,2.5,1.1,2.5,2.5V6z"/></g>
<g transform="translate(616,902) scale(3.7766666666667)"><rect x="0.5" width="5" height="6"/></g>
<g transform="translate(748,902) scale(3.7766666666667)"><circle cx="3" cy="3" r="2.5"/></g>
<g transform="translate(792,902) scale(3.7766666666667)"><path d="M3,5.5L3,5.5C1.6,5.5,0.5,4.4,0.5,3V0h5v3C5.5,4.4,4.4,5.5,3,5.5z"/></g>
<g transform="translate(836,902) scale(3.7766666666667)"><rect x="0.5" width="5" height="6"/></g>
<g transform="translate(902,902) scale(3.7766666666667)"><circle cx="3" cy="3" r="2.5"/></g>
<g transform="translate(286,924) scale(3.7766666666667)"><circle cx="3" cy="3" r="2.5"/></g>
<g transform="translate(308,924) scale(3.7766666666667)"><path d="M3,5.5L3,5.5C1.6,5.5,0.5,4.4,0.5,3V0h5v3C5.5,4.4,4.4,5.5,3,5.5z"/></g>
<g transform="translate(330,924) scale(3.7766666666667)"><path d="M3,5.5L3,5.5C1.6,5.5,0.5,4.4,0.5,3V0h5v3C5.5,4.4,4.4,5.5,3,5.5z"/></g>
<g transform="translate(374,924) scale(3.7766666666667)"><path d="M3,5.5L3,5.5C1.6,5.5,0.5,4.4,0.5,3V0h5v3C5.5,4.4,4.4,5.5,3,5.5z"/></g>
<g transform="translate(418,924) scale(3.7766666666667)"><circle cx="3" cy="3" r="2.5"/></g>
<g transform="translate(462,924) scale(3.7766666666667)"><path d="M3,5.5L3,5.5C1.6,5.5,0.5,4.4,0.5,3V0h5v3C5.5,4.4,4.4,5.5,3,5.5z"/></g>
<g transform="translate(484,924) scale(3.7766666666667)"><path d="M3,5.5L3,5.5C1.6,5.5,0.5,4.4,0.5,3V0h5v3C5.5,4.4,4.4,5.5,3,5.5z"/></g>
<g transform="translate(506,924) scale(3.7766666666667)"><circle cx="3" cy="3" r="2.5"/></g>
<g transform="translate(550,924) scale(3.7766666666667)"><path d="M3,5.5L3,5.5C1.6,5.5,0.5,4.4,0.5,3V0h5v3C5.5,4.4,4.4,5.5,3,5.5z"/></g>
<g transform="translate(572,924) scale(3.7766666666667)"><circle cx="3" cy="3" r="2.5"/></g>
<g transform="translate(594,924) scale(3.7766666666667)"><circle cx="3" cy="3" r="2.5"/></g>
<g transform="translate(616,924) scale(3.7766666666667)"><path d="M3,5.5L3,5.5C1.6,5.5,0.5,4.4,0.5,3V0h5v3C5.5,4.4,4.4,5.5,3,5.5z"/></g>
<g transform="translate(638,924) scale(3.7766666666667)"><circle cx="3" cy="3" r="2.5"/></g>
<g transform="translate(682,924) scale(3.7766666666667)"><circle cx="3" cy="3" r="2.5"/></g>
<g transform="translate(726,924) scale(3.7766666666667)"><circle cx="3" cy="3" r="2.5"/></g>
<g transform="translate(814,924) scale(3.7766666666667)"><circle cx="3" cy="3" r="2.5"/></g>
<g transform="translate(836,924) scale(3.7766666666667)"><path d="M3,5.5L3,5.5C1.6,5.5,0.5,4.4,0.5,3V0h5v3C5.5,4.4,4.4,5.5,3,5.5z"/></g>
<g transform="translate(880,924) scale(3.7766666666667)"><circle cx="3" cy="3" r="2.5"/></g>
<g transform="translate(44,44)"><g transform="scale(11)"><path d="M0,0l0,14h14V0H0z M7,12L7,12c-2.8,0-5-2.2-5-5v0c0-2.8,2.2-5,5-5h0c2.8,0,5,2.2,5,5v0C12,9.8,9.8,12,7,12z"/></g></g>
<g transform="translate(792,44)"><g transform="scale(11)"><path d="M0,0l0,14h14V0H0z M7,12L7,12c-2.8,0-5-2.2-5-5v0c0-2.8,2.2-5,5-5h0c2.8,0,5,2.2,5,5v0C12,9.8,9.8,12,7,12z"/></g></g>
<g transform="translate(44,792)"><g transform="scale(11)"><path d="M0,0l0,14h14V0H0z M7,12L7,12c-2.8,0-5-2.2-5-5v0c0-2.8,2.2-5,5-5h0c2.8,0,5,2.2,5,5v0C12,9.8,9.8,12,7,12z"/></g></g>
<g transform="translate(88,88)"><g transform="scale(11)"><path d="M6,1.8C5.9,1,5.3,0.4,4.5,0.3C3.9,0.2,3.4,0.5,3,0.9C2.6,0.5,2.1,0.3,1.6,0.3C0.8,0.4,0.1,1,0,1.8 C0,2.3,0.1,2.7,0.3,3l0,0l0,0c0.1,0.1,0.2,0.2,0.3,0.3l1.9,2.2c0.3,0.3,0.7,0.3,0.9,0l1.8-1.9c0.1-0.1,0.3-0.3,0.4-0.5 C5.9,2.8,6.1,2.3,6,1.8z"/></g></g>
<g transform="translate(836,88)"><g transform="scale(11)"><path d="M6,1.8C5.9,1,5.3,0.4,4.5,0.3C3.9,0.2,3.4,0.5,3,0.9C2.6,0.5,2.1,0.3,1.6,0.3C0.8,0.4,0.1,1,0,1.8 C0,2.3,0.1,2.7,0.3,3l0,0l0,0c0.1,0.1,0.2,0.2,0.3,0.3l1.9,2.2c0.3,0.3,0.7,0.3,0.9,0l1.8-1.9c0.1-0.1,0.3-0.3,0.4-0.5 C5.9,2.8,6.1,2.3,6,1.8z"/></g></g>
<g transform="translate(88,836)"><g transform="scale(11)"><path d="M6,1.8C5.9,1,5.3,0.4,4.5,0.3C3.9,0.2,3.4,0.5,3,0.9C2.6,0.5,2.1,0.3,1.6,0.3C0.8,0.4,0.1,1,0,1.8 C0,2.3,0.1,2.7,0.3,3l0,0l0,0c0.1,0.1,0.2,0.2,0.3,0.3l1.9,2.2c0.3,0.3,0.7,0.3,0.9,0l1.8-1.9c0.1-0.1,0.3-0.3,0.4-0.5 C5.9,2.8,6.1,2.3,6,1.8z"/></g></g>
</g></g></mask></defs><rect width="990" height="990" fill="#ffffff" x="0" y="0"/><rect x="0" y="0" width="990" height="990" mask="url(#qrmask)" fill="url(#pattern-gradient)"/></svg>
