<?xml version="1.0" encoding="utf-8"?>
<svg xmlns="http://www.w3.org/2000/svg" xmlns:xlink="http://www.w3.org/1999/xlink" xml:space="preserve" width="990" height="990" viewBox="0 0 990 990"><defs><radialGradient id="pattern-gradient" cx="50%" cy="50%" r="50%" fx="50%" fy="50%" gradientUnits="userSpaceOnUse"><stop offset="0%" stop-color="#ff0000"/><stop offset="100%" stop-color="#000000"/></radialGradient>
<mask id="qrmask"><g fill="#ffffff"><g>
<g transform="translate(220,44) scale(3.7766666666667)"><circle cx="3" cy="3" r="2.5"/></g>
<g transform="translate(242,44) scale(3.7766666666667)"><circle cx="3" cy="3" r="2.5"/></g>
<g transform="translate(308,44) scale(3.7766666666667)"><path d="M5.5,6h-5V3c0-1.4,1.1-2.5,2.5-2.5h0c1.4,0,2.5,1.1,2.5,2.5V6z"/></g>
<g transform="translate(330,44) scale(3.7766666666667)"><path d="M5.5,6h-5V3c0-1.4,1.1-2.5,2.5-2.5h0c1.4,0,2.5,1.1,2.5,2.5V6z"/></g>
<g transform="translate(396,44) scale(3.7766666666667)"><path d="M5.5,6h-5V3c0-1.4,1.1-2.5,2.5-2.5h0c1.4,0,2.5,1.1,2.5,2.5V6z"/></g>
<g transform="translate(418,44) scale(3.7766666666667)"><path d="M5.5,6h-5V3c0-1.4,1.1-2.5,2.5-2.5h0c1.4,0,2.5,1.1,2.5,2.5V6z"/></g>
<g transform="translate(462,44) scale(3.7766666666667)"><circle cx="3" cy="3" r="2.5"/></g>
<g transform="translate(484,44) scale(3.7766666666667)"><circle cx="3" cy="3" r="2.5"/></g>
<g transform="translate(506,44) scale(3.7766666666667)"><circle cx="3" cy="3" r="2.5"/></g>
<g transform="translate(528,44) scale(3.7766666666667)"><circle cx="3" cy="3" r="2.5"/></g>
<g transform="translate(550,44) scale(3.7766666666667)"><circle cx="3" cy="3" r="2.5"/></g>
<g transform="translate(572,44) scale(3.7766666666667)"><path d="M5.5,6h-5V3c0-1.4,1.1-2.5,2.5-2.5h0c1.4,0,2.5,1.1,2.5,2.5V6z"/></g>
<g transform="translate(616,44) scale(3.7766666666667)"><circle cx="3" cy="3" r="2.5"/></g>
<g transform="translate(638,44) scale(3.7766666666667)"><circle cx="3" cy="3" r="2.5"/></g>
<g transform="translate(726,44) scale(3.7766666666667)"><circle cx="3" cy="3" r="2.5"/></g>
<g transform="translate(748,44) scale(3.7766666666667)"><path d="M5.5,6h-5V3c0-1.4,1.1-2.5,2.5-2.5h0c1.4,0,2.5,1.1,2.5,2.5V6z"/></g>
<g transform="translate(264,66) scale(3.7766666666667)"><path d="M5.5,6h-5V3c0-1.4,1.1-2.5,2.5-2.5h0c1.4,0,2.5,1.1,2.5,2.5V6z"/></g>
<g transform="translate(308,66) scale(3.7766666666667)"><rect x="0.5" width="5" height="6"/></g>
<g transform="translate(330,66) scale(3.7766666666667)"><path d="M3,5.5L3,5.5C1.6,5.5,0.5,4.4,0.5,3V0h5v3C5.5,4.4,4.4,5.5,3,5.5z"/></g>
<g transform="translate(374,66) scale(3.7766666666667)"><circle cx="3" cy="3" r="2.5"/></g>
<g transform="translate(396,66) scale(3.7766666666667)"><rect x="0.5" width="5" height="6"/></g>
<g transform="translate(418,66) scale(3.7766666666667)"><rect x="0.5" width="5" height="6"/></g>
<g transform="translate(572,66) scale(3.7766666666667)"><path d="M3,5.5L3,5.5C1.6,5.5,0.5,4.4,0.5,3V0h5v3C5.5,4.4,4.4,5.5,3,5.5z"/></g>
<g transform="translate(660,66) scale(3.7766666666667)"><circle cx="3" cy="3" r="2.5"/></g>
<g transform="translate(682,66) scale(3.7766666666667)"><path d="M5.5,6h-5V3c0-1.4,1.1-2.5,2.5-2.5h0c1.4,0,2.5,1.1,2.5,2.5V6z"/></g>
<g transform="translate(704,66) scale(3.7766666666667)"><circle cx="3" cy="3" r="2.5"/></g>
<g transform="translate(748,66) scale(3.7766666666667)"><path d="M3,5.5L3,5.5C1.6,5.5,0.5,4.4,0.5,3V0h5v3C5.5,4.4,4.4,5.5,3,5.5z"/></g>
<g transform="translate(242,88) scale(3.7766666666667)"><circle cx="3" cy="3" r="2.5"/></g>
<g transform="translate(264,88) scale(3.7766666666667)"><path d="M3,5.5L3,5.5C1.6,5.5,0.5,4.4,0.5,3V0h5v3C5.5,4.4,4.4,5.5,3,5.5z"/></g>
<g transform="translate(286,88) scale(3.7766666666667)"><circle cx="3" cy="3" r="2.5"/></g>
<g transform="translate(308,88) scale(3.7766666666667)"><path d="M3,5.5L3,5.5C1.6,5.5,0.5,4.4,0.5,3V0h5v3C5.5,4.4,4.4,5.5,3,5.5z"/></g>
<g transform="translate(352,88) scale(3.7766666666667)"><circle cx="3" cy="3" r="2.5"/></g>
<g transform="translate(396,88) scale(3.7766666666667)"><path d="M3,5.5L3,5.5C1.6,5.5,0.5,4.4,0.5,3V0h5v3C5.5,4.4,4.4,5.5,3,5.5z"/></g>
<g transform="translate(418,88) scale(3.7766666666667)"><path d="M3,5.5L3,5.5C1.6,5.5,0.5,4.4,0.5,3V0h5v3C5.5,4.4,4.4,5.5,3,5.5z"/></g>
<g transform="translate(462,88) scale(3.7766666666667)"><path d="M5.5,6h-5V3c0-1.4,1.1-2.5,2.5-2.5h0c1.4,0,2.5,1.1,2.5,2.5V6z"/></g>
<g transform="translate(484,88) scale(3.7766666666667)"><path d="M5.5,6h-5V3c0-1.4,1.1-2.5,2.5-2.5h0c1.4,0,2.5,1.1,2.5,2.5V6z"/></g>
<g transform="translate(528,88) scale(3.7766666666667)"><circle cx="3" cy="3" r="2.5"/></g>
<g transform="translate(616,88) scale(3.7766666666667)"><circle cx="3" cy="3" r="2.5"/></g>
<g transform="translate(682,88) scale(3.7766666666667)"><rect x="0.5" width="5" height="6"/></g>
<g transform="translate(726,88) scale(3.7766666666667)"><path d="M5.5,6h-5V3c0-1.4,1.1-2.5,2.5-2.5h0c1.4,0,2.5,1.1,2.5,2.5V6z"/></g>
<g transform="translate(330,110) scale(3.7766666666667)"><path d="M5.5,6h-5V3c0-1.4,1.1-2.5,2.5-2.5h0c1.4,0,2.5,1.1,2.5,2.5V6z"/></g>
<g transform="translate(440,110) scale(3.7766666666667)"><path d="M5.5,6h-5V3c0-1.4,1.1-2.5,2.5-2.5h0c1.4,0,2.5,1.1,2.5,2.5V6z"/></g>
<g transform="translate(462,110) scale(3.7766666666667)"><path d="M3,5.5L3,5.5C1.6,5.5,0.5,4.4,0.5,3V0h5v3C5.5,4.4,4.4,5.5,3,5.5z"/></g>
<g transform="translate(484,110) scale(3.7766666666667)"><rect x="0.5" width="5" height="6"/></g>
<g transform="translate(550,110) scale(3.7766666666667)"><circle cx="3" cy="3" r="2.5"/></g>
<g transform="translate(572,110) scale(3.7766666666667)"><path d="M5.5,6h-5V3c0-1.4,1.1-2.5,2.5-2.5h0c1.4,0,2.5,1.1,2.5,2.5V6z"/></g>
<g transform="translate(682,110) scale(3.7766666666667)"><path d="M3,5.5L3,5.5C1.6,5.5,0.5,4.4,0.5,3V0h5v3C5.5,4.4,4.4,5.5,3,5.5z"/></g>
<g transform="translate(704,110) scale(3.7766666666667)"><path d="M5.5,6h-5V3c0-1.4,1.1-2.5,2.5-2.5h0c1.4,0,2.5,1.1,2.5,2.5V6z"/></g>
<g transform="translate(726,110) scale(3.7766666666667)"><rect x="0.5" width="5" height="6"/></g>
<g transform="translate(748,110) scale(3.7766666666667)"><path d="M5.5,6h-5V3c0-1.4,1.1-2.5,2.5-2.5h0c1.4,0,2.5,1.1,2.5,2.5V6z"/></g>
<g transform="translate(220,132) scale(3.7766666666667)"><path d="M5.5,6h-5V3c0-1.4,1.1-2.5,2.5-2.5h0c1.4,0,2.5,1.1,2.5,2.5V6z"/></g>
<g transform="translate(286,132) scale(3.7766666666667)"><circle cx="3" cy="3" r="2.5"/></g>
<g transform="translate(330,132) scale(3.7766666666667)"><path d="M3,5.5L3,5.5C1.6,5.5,0.5,4.4,0.5,3V0h5v3C5.5,4.4,4.4,5.5,3,5.5z"/></g>
<g transform="translate(374,132) scale(3.7766666666667)"><path d="M5.5,6h-5V3c0-1.4,1.1-2.5,2.5-2.5h0c1.4,0,2.5,1.1,2.5,2.5V6z"/></g>
<g transform="translate(418,132) scale(3.7766666666667)"><circle cx="3" cy="3" r="2.5"/></g>
<g transform="translate(440,132) scale(3.7766666666667)"><path d="M3,5.5L3,5.5C1.6,5.5,0.5,4.4,0.5,3V0h5v3C5.5,4.4,4.4,5.5,3,5.5z"/></g>
<g transform="translate(484,132) scale(3.7766666666667)"><path d="M3,5.5L3,5.5C1.6,5.5,0.5,4.4,0.5,3V0h5v3C5.5,4.4,4.4,5.5,3,5.5z"/></g>
<g transform="translate(506,132) scale(3.7766666666667)"><path d="M5.5,6h-5V3c0-1.4,1.1-2.5,2.5-2.5h0c1.4,0,2.5,1.1,2.5,2.5V6z"/></g>
<g transform="translate(528,132) scale(3.7766666666667)"><circle cx="3" cy="3" r="2.5"/></g>
<g transform="translate(572,132) scale(3.7766666666667)"><rect x="0.5" width="5" height="6"/></g>
<g transform="translate(594,132) scale(3.7766666666667)"><path d="M5.5,6h-5V3c0-1.4,1.1-2.5,2.5-2.5h0c1.4,0,2.5,1.1,2.5,2.5V6z"/></g>
<g transform="translate(616,132) scale(3.7766666666667)"><path d="M5.5,6h-5V3c0-1.4,1.1-2.5,2.5-2.5h0c1.4,0,2.5,1.1,2.5,2.5V6z"/></g>
<g transform="translate(660,132) scale(3.7766666666667)"><circle cx="3" cy="3" r="2.5"/></g>
<g transform="translate(704,132) scale(3.7766666666667)"><rect x="0.5" width="5" height="6"/></g>
<g transform="translate(726,132) scale(3.7766666666667)"><path d="M3,5.5L3,5.5C1.6,5.5,0.5,4.4,0.5,3V0h5v3C5.5,4.4,4.4,5.5,3,5.5z"/></g>
<g transform="translate(748,132) scale(3.7766666666667)"><path d="M3,5.5L3,5.5C1.6,5.5,0.5,4.4,0.5,3V0h5v3C5.5,4.4,4.4,5.5,3,5.5z"/></g>
<g transform="translate(220,154) scale(3.7766666666667)"><rect x="0.5" width="5" height="6"/></g>
<g transform="translate(242,154) scale(3.7766666666667)"><circle cx="3" cy="3" r="2.5"/></g>
<g transform="translate(374,154) scale(3.7766666666667)"><path d="M3,5.5L3,5.5C1.6,5.5,0.5,4.4,0.5,3V0h5v3C5.5,4.4,4.4,5.5,3,5.5z"/></g>
<g transform="translate(396,154) scale(3.7766666666667)"><path d="M5.5,6h-5V3c0-1.4,1.1-2.5,2.5-2.5h0c1.4,0,2.5,1.1,2.5,2.5V6z"/></g>
<g transform="translate(506,154) scale(3.7766666666667)"><path d="M3,5.5L3,5.5C1.6,5.5,0.5,4.4,0.5,3V0h5v3C5.5,4.4,4.4,5.5,3,5.5z"/></g>
<g transform="translate(572,154) scale(3.7766666666667)"><rect x="0.5" width="5" height="6"/></g>
<g transform="translate(594,154) scale(3.7766666666667)"><path d="M3,5.5L3,5.5C1.6,5.5,0.5,4.4,0.5,3V0h5v3C5.5,4.4,4.4,5.5,3,5.5z"/></g>
<g transform="translate(616,154) scale(3.7766666666667)"><rect x="0.5" width="5" height="6"/></g>
<g transform="translate(638,154) scale(3.7766666666667)"><circle cx="3" cy="3" r="2.5"/></g>
<g transform="translate(704,154) scale(3.7766666666667)"><rect x="0.5" width="5" height="6"/></g>
<g transform="translate(220,176) scale(3.7766666666667)"><path d="M3,5.5L3,5.5C1.6,5.5,0.5,4.4,0.5,3V0h5v3C5.5,4.4,4.4,5.5,3,5.5z"/></g>
<g transform="translate(264,176) scale(3.7766666666667)"><path d="M5.5,6h-5V3c0-1.4,1.1-2.5,2.5-2.5h0c1.4,0,2.5,1.1,2.5,2.5V6z"/></g>
<g transform="translate(308,176) scale(3.7766666666667)"><path d="M5.5,6h-5V3c0-1.4,1.1-2.5,2.5-2.5h0c1.4,0,2.5,1.1,2.5,2.5V6z"/></g>
<g transform="translate(352,176) scale(3.7766666666667)"><circle cx="3" cy="3" r="2.5"/></g>
<g transform="translate(396,176) scale(3.7766666666667)"><path d="M3,5.5L3,5.5C1.6,5.5,0.5,4.4,0.5,3V0h5v3C5.5,4.4,4.4,5.5,3,5.5z"/></g>
<g transform="translate(440,176) scale(3.7766666666667)"><path d="M5.5,6h-5V3c0-1.4,1.1-2.5,2.5-2.5h0c1.4,0,2.5,1.1,2.5,2.5V6z"/></g>
<g transform="translate(484,176) scale(3.7766666666667)"><circle cx="3" cy="3" r="2.5"/></g>
<g transform="translate(528,176) scale(3.7766666666667)"><circle cx="3" cy="3" r="2.5"/></g>
<g transform="translate(572,176) scale(3.7766666666667)"><path d="M3,5.5L3,5.5C1.6,5.5,0.5,4.4,0.5,3V0h5v3C5.5,4.4,4.4,5.5,3,5.5z"/></g>
<g transform="translate(616,176) scale(3.7766666666667)"><path d="M3,5.5L3,5.5C1.6,5.5,0.5,4.4,0.5,3V0h5v3C5.5,4.4,4.4,5.5,3,5.5z"/></g>
<g transform="translate(660,176) scale(3.7766666666667)"><path d="M5.5,6h-5V3c0-1.4,1.1-2.5,2.5-2.5h0c1.4,0,2.5,1.1,2.5,2.5V6z"/></g>
<g transform="translate(704,176) scale(3.7766666666667)"><rect x="0.5" width="5" height="6"/></g>
<g transform="translate(748,176) scale(3.7766666666667)"><path d="M5.5,6h-5V3c0-1.4,1.1-2.5,2.5-2.5h0c1.4,0,2.5,1.1,2.5,2.5V6z"/></g>
<g transform="translate(242,198) scale(3.7766666666667)"><path d="M5.5,6h-5V3c0-1.4,1.1-2.5,2.5-2.5h0c1.4,0,2.5,1.1,2.5,2.5V6z"/></g>
<g transform="translate(264,198) scale(3.7766666666667)"><rect x="0.5" width="5" height="6"/></g>
<g transform="translate(308,198) scale(3.7766666666667)"><path d="M3,5.5L3,5.5C1.6,5.5,0.5,4.4,0.5,3V0h5v3C5.5,4.4,4.4,5.5,3,5.5z"/></g>
<g transform="translate(440,198) scale(3.7766666666667)"><rect x="0.5" width="5" height="6"/></g>
<g transform="translate(638,198) scale(3.7766666666667)"><path d="M5.5,6h-5V3c0-1.4,1.1-2.5,2.5-2.5h0c1.4,0,2.5,1.1,2.5,2.5V6z"/></g>
<g transform="translate(660,198) scale(3.7766666666667)"><path d="M3,5.5L3,5.5C1.6,5.5,0.5,4.4,0.5,3V0h5v3C5.5,4.4,4.4,5.5,3,5.5z"/></g>
<g transform="translate(704,198) scale(3.7766666666667)"><path d="M3,5.5L3,5.5C1.6,5.5,0.5,4.4,0.5,3V0h5v3C5.5,4.4,4.4,5.5,3,5.5z"/></g>
<g transform="translate(748,198) scale(3.7766666666667)"><rect x="0.5" width="5" height="6"/></g>
<g transform="translate(66,220) scale(3.7766666666667)"><circle cx="3" cy="3" r="2.5"/></g>
<g transform="translate(88,220) scale(3.7766666666667)"><path d="M5.5,6h-5V3c0-1.4,1.1-2.5,2.5-2.5h0c1.4,0,2.5,1.1,2.5,2.5V6z"/></g>
<g transform="translate(110,220) scale(3.7766666666667)"><path d="M5.5,6h-5V3c0-1.4,1.1-2.5,2.5-2.5h0c1.4,0,2.5,1.1,2.5,2.5V6z"/></g>
<g transform="translate(132,220) scale(3.7766666666667)"><path d="M5.5,6h-5V3c0-1.4,1.1-2.5,2.5-2.5h0c1.4,0,2.5,1.1,2.5,2.5V6z"/></g>
<g transform="translate(154,220) scale(3.7766666666667)"><circle cx="3" cy="3" r="2.5"/></g>
<g transform="translate(176,220) scale(3.7766666666667)"><circle cx="3" cy="3" r="2.5"/></g>
<g transform="translate(198,220) scale(3.7766666666667)"><path d="M5.5,6h-5V3c0-1.4,1.1-2.5,2.5-2.5h0c1.4,0,2.5,1.1,2.5,2.5V6z"/></g>
<g transform="translate(242,220) scale(3.7766666666667)"><rect x="0.5" width="5" height="6"/></g>
<g transform="translate(264,220) scale(3.7766666666667)"><path d="M3,5.5L3,5.5C1.6,5.5,0.5,4.4,0.5,3V0h5v3C5.5,4.4,4.4,5.5,3,5.5z"/></g>
<g transform="translate(286,220) scale(3.7766666666667)"><circle cx="3" cy="3" r="2.5"/></g>
<g transform="translate(330,220) scale(3.7766666666667)"><path d="M5.5,6h-5V3c0-1.4,1.1-2.5,2.5-2.5h0c1.4,0,2.5,1.1,2.5,2.5V6z"/></g>
<g transform="translate(352,220) scale(3.7766666666667)"><circle cx="3" cy="3" r="2.5"/></g>
<g transform="translate(440,220) scale(3.7766666666667)"><path d="M3,5.5L3,5.5C1.6,5.5,0.5,4.4,0.5,3V0h5v3C5.5,4.4,4.4,5.5,3,5.5z"/></g>
<g transform="translate(462,220) scale(3.7766666666667)"><circle cx="3" cy="3" r="2.5"/></g>
<g transform="translate(484,220) scale(3.7766666666667)"><path d="M5.5,6h-5V3c0-1.4,1.1-2.5,2.5-2.5h0c1.4,0,2.5,1.1,2.5,2.5V6z"/></g>
<g transform="translate(506,220) scale(3.7766666666667)"><circle cx="3" cy="3" r="2.5"/></g>
<g transform="translate(572,220) scale(3.7766666666667)"><path d="M5.5,6h-5V3c0-1.4,1.1-2.5,2.5-2.5h0c1.4,0,2.5,1.1,2.5,2.5V6z"/></g>
<g transform="translate(594,220) scale(3.7766666666667)"><circle cx="3" cy="3" r="2.5"/></g>
<g transform="translate(638,220) scale(3.7766666666667)"><path d="M3,5.5L3,5.5C1.6,5.5,0.5,4.4,0.5,3V0h5v3C5.5,4.4,4.4,5.5,3,5.5z"/></g>
<g transform="translate(682,220) scale(3.7766666666667)"><path d="M5.5,6h-5V3c0-1.4,1.1-2.5,2.5-2.5h0c1.4,0,2.5,1.1,2.5,2.5V6z"/></g>
<g transform="translate(726,220) scale(3.7766666666667)"><path d="M5.5,6h-5V3c0-1.4,1.1-2.5,2.5-2.5h0c1.4,0,2.5,1.1,2.5,2.5V6z"/></g>
<g transform="translate(748,220) scale(3.7766666666667)"><rect x="0.5" width="5" height="6"/></g>
<g transform="translate(814,220) scale(3.7766666666667)"><path d="M5.5,6h-5V3c0-1.4,1.1-2.5,2.5-2.5h0c1.4,0,2.5,1.1,2.5,2.5V6z"/></g>
<g transform="translate(836,220) scale(3.7766666666667)"><circle cx="3" cy="3" r="2.5"/></g>
<g transform="translate(924,220) scale(3.7766666666667)"><path d="M5.5,6h-5V3c0-1.4,1.1-2.5,2.5-2.5h0c1.4,0,2.5,1.1,2.5,2.5V6z"/></g>
<g transform="translate(88,242) scale(3.7766666666667)"><path d="M3,5.5L3,5.5C1.6,5.5,0.5,4.4,0.5,3V0h5v3C5.5,4.4,4.4,5.5,3,5.5z"/></g>
<g transform="translate(110,242) scale(3.7766666666667)"><path d="M3,5.5L3,5.5C1.6,5.5,0.5,4.4,0.5,3V0h5v3C5.5,4.4,4.4,5.5,3,5.5z"/></g>
<g transform="translate(132,242) scale(3.7766666666667)"><rect x="0.5" width="5" height="6"/></g>
<g transform="translate(198,242) scale(3.7766666666667)"><path d="M3,5.5L3,5.5C1.6,5.5,0.5,4.4,0.5,3V0h5v3C5.5,4.4,4.4,5.5,3,5.5z"/></g>
<g transform="translate(242,242) scale(3.7766666666667)"><path d="M3,5.5L3,5.5C1.6,5.5,0.5,4.4,0.5,3V0h5v3C5.5,4.4,4.4,5.5,3,5.5z"/></g>
<g transform="translate(308,242) scale(3.7766666666667)"><circle cx="3" cy="3" r="2.5"/></g>
<g transform="translate(330,242) scale(3.7766666666667)"><path d="M3,5.5L3,5.5C1.6,5.5,0.5,4.4,0.5,3V0h5v3C5.5,4.4,4.4,5.5,3,5.5z"/></g>
<g transform="translate(374,242) scale(3.7766666666667)"><path d="M5.5,6h-5V3c0-1.4,1.1-2.5,2.5-2.5h0c1.4,0,2.5,1.1,2.5,2.5V6z"/></g>
<g transform="translate(396,242) scale(3.7766666666667)"><path d="M5.5,6h-5V3c0-1.4,1.1-2.5,2.5-2.5h0c1.4,0,2.5,1.1,2.5,2.5V6z"/></g>
<g transform="translate(418,242) scale(3.7766666666667)"><path d="M5.5,6h-5V3c0-1.4,1.1-2.5,2.5-2.5h0c1.4,0,2.5,1.1,2.5,2.5V6z"/></g>
<g transform="translate(484,242) scale(3.7766666666667)"><path d="M3,5.5L3,5.5C1.6,5.5,0.5,4.4,0.5,3V0h5v3C5.5,4.4,4.4,5.5,3,5.5z"/></g>
<g transform="translate(572,242) scale(3.7766666666667)"><path d="M3,5.5L3,5.5C1.6,5.5,0.5,4.4,0.5,3V0h5v3C5.5,4.4,4.4,5.5,3,5.5z"/></g>
<g transform="translate(660,242) scale(3.7766666666667)"><path d="M5.5,6h-5V3c0-1.4,1.1-2.5,2.5-2.5h0c1.4,0,2.5,1.1,2.5,2.5V6z"/></g>
<g transform="translate(682,242) scale(3.7766666666667)"><path d="M3,5.5L3,5.5C1.6,5.5,0.5,4.4,0.5,3V0h5v3C5.5,4.4,4.4,5.5,3,5.5z"/></g>
<g transform="translate(704,242) scale(3.7766666666667)"><path d="M5.5,6h-5V3c0-1.4,1.1-2.5,2.5-2.5h0c1.4,0,2.5,1.1,2.5,2.5V6z"/></g>
<g transform="translate(726,242) scale(3.7766666666667)"><path d="M3,5.5L3,5.5C1.6,5.5,0.5,4.4,0.5,3V0h5v3C5.5,4.4,4.4,5.5,3,5.5z"/></g>
<g transform="translate(748,242) scale(3.7766666666667)"><rect x="0.5" width="5" height="6"/></g>
<g transform="translate(770,242) scale(3.7766666666667)"><path d="M5.5,6h-5V3c0-1.4,1.1-2.5,2.5-2.5h0c1.4,0,2.5,1.1,2.5,2.5V6z"/></g>
<g transform="translate(814,242) scale(3.7766666666667)"><path d="M3,5.5L3,5.5C1.6,5.5,0.5,4.4,0.5,3V0h5v3C5.5,4.4,4.4,5.5,3,5.5z"/></g>
<g transform="translate(880,242) scale(3.7766666666667)"><circle cx="3" cy="3" r="2.5"/></g>
<g transform="translate(902,242) scale(3.7766666666667)"><path d="M5.5,6h-5V3c0-1.4,1.1-2.5,2.5-2.5h0c1.4,0,2.5,1.1,2.5,2.5V6z"/></g>
<g transform="translate(924,242) scale(3.7766666666667)"><path d="M3,5.5L3,5.5C1.6,5.5,0.5,4.4,0.5,3V0h5v3C5.5,4.4,4.4,5.5,3,5.5z"/></g>
<g transform="translate(44,264) scale(3.7766666666667)"><path d="M5.5,6h-5V3c0-1.4,1.1-2.5,2.5-2.5h0c1.4,0,2.5,1.1,2.5,2.5V6z"/></g>
<g transform="translate(132,264) scale(3.7766666666667)"><path d="M3,5.5L3,5.5C1.6,5.5,0.5,4.4,0.5,3V0h5v3C5.5,4.4,4.4,5.5,3,5.5z"/></g>
<g transform="translate(176,264) scale(3.7766666666667)"><circle cx="3" cy="3" r="2.5"/></g>
<g transform="translate(220,264) scale(3.7766666666667)"><path d="M5.5,6h-5V3c0-1.4,1.1-2.5,2.5-2.5h0c1.4,0,2.5,1.1,2.5,2.5V6z"/></g>
<g transform="translate(264,264) scale(3.7766666666667)"><circle cx="3" cy="3" r="2.5"/></g>
<g transform="translate(286,264) scale(3.7766666666667)"><path d="M5.5,6h-5V3c0-1.4,1.1-2.5,2.5-2.5h0c1.4,0,2.5,1.1,2.5,2.5V6z"/></g>
<g transform="translate(374,264) scale(3.7766666666667)"><rect x="0.5" width="5" height="6"/></g>
<g transform="translate(396,264) scale(3.7766666666667)"><rect x="0.5" width="5" height="6"/></g>
<g transform="translate(418,264) scale(3.7766666666667)"><rect x="0.5" width="5" height="6"/></g>
<g transform="translate(440,264) scale(3.7766666666667)"><circle cx="3" cy="3" r="2.5"/></g>
<g transform="translate(528,264) scale(3.7766666666667)"><circle cx="3" cy="3" r="2.5"/></g>
<g transform="translate(616,264) scale(3.7766666666667)"><path d="M5.5,6h-5V3c0-1.4,1.1-2.5,2.5-2.5h0c1.4,0,2.5,1.1,2.5,2.5V6z"/></g>
<g transform="translate(638,264) scale(3.7766666666667)"><circle cx="3" cy="3" r="2.5"/></g>
<g transform="translate(660,264) scale(3.7766666666667)"><rect x="0.5" width="5" height="6"/></g>
<g transform="translate(704,264) scale(3.7766666666667)"><path d="M3,5.5L3,5.5C1.6,5.5,0.5,4.4,0.5,3V0h5v3C5.5,4.4,4.4,5.5,3,5.5z"/></g>
<g transform="translate(748,264) scale(3.7766666666667)"><path d="M3,5.5L3,5.5C1.6,5.5,0.5,4.4,0.5,3V0h5v3C5.5,4.4,4.4,5.5,3,5.5z"/></g>
<g transform="translate(770,264) scale(3.7766666666667)"><path d="M3,5.5L3,5.5C1.6,5.5,0.5,4.4,0.5,3V0h5v3C5.5,4.4,4.4,5.5,3,5.5z"/></g>
<g transform="translate(792,264) scale(3.7766666666667)"><path d="M5.5,6h-5V3c0-1.4,1.1-2.5,2.5-2.5h0c1.4,0,2.5,1.1,2.5,2.5V6z"/></g>
<g transform="translate(836,264) scale(3.7766666666667)"><path d="M5.5,6h-5V3c0-1.4,1.1-2.5,2.5-2.5h0c1.4,0,2.5,1.1,2.5,2.5V6z"/></g>
<g transform="translate(902,264) scale(3.7766666666667)"><path d="M3,5.5L3,5.5C1.6,5.5,0.5,4.4,0.5,3V0h5v3C5.5,4.4,4.4,5.5,3,5.5z"/></g>
<g transform="translate(44,286) scale(3.7766666666667)"><path d="M3,5.5L3,5.5C1.6,5.5,0.5,4.4,0.5,3V0h5v3C5.5,4.4,4.4,5.5,3,5.5z"/></g>
<g transform="translate(88,286) scale(3.7766666666667)"><path d="M5.5,6h-5V3c0-1.4,1.1-2.5,2.5-2.5h0c1.4,0,2.5,1.1,2.5,2.5V6z"/></g>
<g transform="translate(154,286) scale(3.7766666666667)"><path d="M5.5,6h-5V3c0-1.4,1.1-2.5,2.5-2.5h0c1.4,0,2.5,1.1,2.5,2.5V6z"/></g>
<g transform="translate(198,286) scale(3.7766666666667)"><circle cx="3" cy="3" r="2.5"/></g>
<g transform="translate(220,286) scale(3.7766666666667)"><rect x="0.5" width="5" height="6"/></g>
<g transform="translate(242,286) scale(3.7766666666667)"><circle cx="3" cy="3" r="2.5"/></g>
<g transform="translate(286,286) scale(3.7766666666667)"><rect x="0.5" width="5" height="6"/></g>
<g transform="translate(330,286) scale(3.7766666666667)"><circle cx="3" cy="3" r="2.5"/></g>
<g transform="translate(352,286) scale(3.7766666666667)"><path d="M5.5,6h-5V3c0-1.4,1.1-2.5,2.5-2.5h0c1.4,0,2.5,1.1,2.5,2.5V6z"/></g>
<g transform="translate(374,286) scale(3.7766666666667)"><path d="M3,5.5L3,5.5C1.6,5.5,0.5,4.4,0.5,3V0h5v3C5.5,4.4,4.4,5.5,3,5.5z"/></g>
<g transform="translate(396,286) scale(3.7766666666667)"><rect x="0.5" width="5" height="6"/></g>
<g transform="translate(418,286) scale(3.7766666666667)"><path d="M3,5.5L3,5.5C1.6,5.5,0.5,4.4,0.5,3V0h5v3C5.5,4.4,4.4,5.5,3,5.5z"/></g>
<g transform="translate(572,286) scale(3.7766666666667)"><circle cx="3" cy="3" r="2.5"/></g>
<g transform="translate(616,286) scale(3.7766666666667)"><rect x="0.5" width="5" height="6"/></g>
<g transform="translate(660,286) scale(3.7766666666667)"><path d="M3,5.5L3,5.5C1.6,5.5,0.5,4.4,0.5,3V0h5v3C5.5,4.4,4.4,5.5,3,5.5z"/></g>
<g transform="translate(792,286) scale(3.7766666666667)"><path d="M3,5.5L3,5.5C1.6,5.5,0.5,4.4,0.5,3V0h5v3C5.5,4.4,4.4,5.5,3,5.5z"/></g>
<g transform="translate(836,286) scale(3.7766666666667)"><path d="M3,5.5L3,5.5C1.6,5.5,0.5,4.4,0.5,3V0h5v3C5.5,4.4,4.4,5.5,3,5.5z"/></g>
<g transform="translate(858,286) scale(3.7766666666667)"><path d="M5.5,6h-5V3c0-1.4,1.1-2.5,2.5-2.5h0c1.4,0,2.5,1.1,2.5,2.5V6z"/></g>
<g transform="translate(924,286) scale(3.7766666666667)"><path d="M5.5,6h-5V3c0-1.4,1.1-2.5,2.5-2.5h0c1.4,0,2.5,1.1,2.5,2.5V6z"/></g>
<g transform="translate(88,308) scale(3.7766666666667)"><path d="M3,5.5L3,5.5C1.6,5.5,0.5,4.4,0.5,3V0h5v3C5.5,4.4,4.4,5.5,3,5.5z"/></g>
<g transform="translate(132,308) scale(3.7766666666667)"><circle cx="3" cy="3" r="2.5"/></g>
<g transform="translate(154,308) scale(3.7766666666667)"><path d="M3,5.5L3,5.5C1.6,5.5,0.5,4.4,0.5,3V0h5v3C5.5,4.4,4.4,5.5,3,5.5z"/></g>
<g transform="translate(176,308) scale(3.7766666666667)"><circle cx="3" cy="3" r="2.5"/></g>
<g transform="translate(220,308) scale(3.7766666666667)"><path d="M3,5.5L3,5.5C1.6,5.5,0.5,4.4,0.5,3V0h5v3C5.5,4.4,4.4,5.5,3,5.5z"/></g>
<g transform="translate(264,308) scale(3.7766666666667)"><circle cx="3" cy="3" r="2.5"/></g>
<g transform="translate(286,308) scale(3.7766666666667)"><path d="M3,5.5L3,5.5C1.6,5.5,0.5,4.4,0.5,3V0h5v3C5.5,4.4,4.4,5.5,3,5.5z"/></g>
<g transform="translate(352,308) scale(3.7766666666667)"><path d="M3,5.5L3,5.5C1.6,5.5,0.5,4.4,0.5,3V0h5v3C5.5,4.4,4.4,5.5,3,5.5z"/></g>
<g transform="translate(396,308) scale(3.7766666666667)"><rect x="0.5" width="5" height="6"/></g>
<g transform="translate(484,308) scale(3.7766666666667)"><circle cx="3" cy="3" r="2.5"/></g>
<g transform="translate(506,308) scale(3.7766666666667)"><circle cx="3" cy="3" r="2.5"/></g>
<g transform="translate(550,308) scale(3.7766666666667)"><circle cx="3" cy="3" r="2.5"/></g>
<g transform="translate(594,308) scale(3.7766666666667)"><path d="M5.5,6h-5V3c0-1.4,1.1-2.5,2.5-2.5h0c1.4,0,2.5,1.1,2.5,2.5V6z"/></g>
<g transform="translate(616,308) scale(3.7766666666667)"><rect x="0.5" width="5" height="6"/></g>
<g transform="translate(682,308) scale(3.7766666666667)"><circle cx="3" cy="3" r="2.5"/></g>
<g transform="translate(704,308) scale(3.7766666666667)"><path d="M5.5,6h-5V3c0-1.4,1.1-2.5,2.5-2.5h0c1.4,0,2.5,1.1,2.5,2.5V6z"/></g>
<g transform="translate(858,308) scale(3.7766666666667)"><rect x="0.5" width="5" height="6"/></g>
<g transform="translate(880,308) scale(3.7766666666667)"><circle cx="3" cy="3" r="2.5"/></g>
<g transform="translate(902,308) scale(3.7766666666667)"><path d="M5.5,6h-5V3c0-1.4,1.1-2.5,2.5-2.5h0c1.4,0,2.5,1.1,2.5,2.5V6z"/></g>
<g transform="translate(924,308) scale(3.7766666666667)"><path d="M3,5.5L3,5.5C1.6,5.5,0.5,4.4,0.5,3V0h5v3C5.5,4.4,4.4,5.5,3,5.5z"/></g>
<g transform="translate(44,330) scale(3.7766666666667)"><path d="M5.5,6h-5V3c0-1.4,1.1-2.5,2.5-2.5h0c1.4,0,2.5,1.1,2.5,2.5V6z"/></g>
<g transform="translate(66,330) scale(3.7766666666667)"><path d="M5.5,6h-5V3c0-1.4,1.1-2.5,2.5-2.5h0c1.4,0,2.5,1.1,2.5,2.5V6z"/></g>
<g transform="translate(198,330) scale(3.7766666666667)"><circle cx="3" cy="3" r="2.5"/></g>
<g transform="translate(242,330) scale(3.7766666666667)"><path d="M5.5,6h-5V3c0-1.4,1.1-2.5,2.5-2.5h0c1.4,0,2.5,1.1,2.5,2.5V6z"/></g>
<g transform="translate(330,330) scale(3.7766666666667)"><circle cx="3" cy="3" r="2.5"/></g>
<g transform="translate(374,330) scale(3.7766666666667)"><circle cx="3" cy="3" r="2.5"/></g>
<g transform="translate(396,330) scale(3.7766666666667)"><path d="M3,5.5L3,5.5C1.6,5.5,0.5,4.4,0.5,3V0h5v3C5.5,4.4,4.4,5.5,3,5.5z"/></g>
<g transform="translate(418,330) scale(3.7766666666667)"><path d="M5.5,6h-5V3c0-1.4,1.1-2.5,2.5-2.5h0c1.4,0,2.5,1.1,2.5,2.5V6z"/></g>
<g transform="translate(440,330) scale(3.7766666666667)"><circle cx="3" cy="3" r="2.5"/></g>
<g transform="translate(462,330) scale(3.7766666666667)"><circle cx="3" cy="3" r="2.5"/></g>
<g transform="translate(528,330) scale(3.7766666666667)"><path d="M5.5,6h-5V3c0-1.4,1.1-2.5,2.5-2.5h0c1.4,0,2.5,1.1,2.5,2.5V6z"/></g>
<g transform="translate(572,330) scale(3.7766666666667)"><circle cx="3" cy="3" r="2.5"/></g>
<g transform="translate(594,330) scale(3.7766666666667)"><rect x="0.5" width="5" height="6"/></g>
<g transform="translate(616,330) scale(3.7766666666667)"><path d="M3,5.5L3,5.5C1.6,5.5,0.5,4.4,0.5,3V0h5v3C5.5,4.4,4.4,5.5,3,5.5z"/></g>
<g transform="translate(638,330) scale(3.7766666666667)"><circle cx="3" cy="3" r="2.5"/></g>
<g transform="translate(660,330) scale(3.7766666666667)"><circle cx="3" cy="3" r="2.5"/></g>
<g transform="translate(704,330) scale(3.7766666666667)"><rect x="0.5" width="5" height="6"/></g>
<g transform="translate(748,330) scale(3.7766666666667)"><path d="M5.5,6h-5V3c0-1.4,1.1-2.5,2.5-2.5h0c1.4,0,2.5,1.1,2.5,2.5V6z"/></g>
<g transform="translate(792,330) scale(3.7766666666667)"><path d="M5.5,6h-5V3c0-1.4,1.1-2.5,2.5-2.5h0c1.4,0,2.5,1.1,2.5,2.5V6z"/></g>
<g transform="translate(814,330) scale(3.7766666666667)"><circle cx="3" cy="3" r="2.5"/></g>
<g transform="translate(836,330) scale(3.7766666666667)"><circle cx="3" cy="3" r="2.5"/></g>
<g transform="translate(858,330) scale(3.7766666666667)"><path d="M3,5.5L3,5.5C1.6,5.5,0.5,4.4,0.5,3V0h5v3C5.5,4.4,4.4,5.5,3,5.5z"/></g>
<g transform="translate(902,330) scale(3.7766666666667)"><path d="M3,5.5L3,5.5C1.6,5.5,0.5,4.4,0.5,3V0h5v3C5.5,4.4,4.4,5.5,3,5.5z"/></g>
<g transform="translate(44,352) scale(3.7766666666667)"><rect x="0.5" width="5" height="6"/></g>
<g transform="translate(66,352) scale(3.7766666666667)"><path d="M3,5.5L3,5.5C1.6,5.5,0.5,4.4,0.5,3V0h5v3C5.5,4.4,4.4,5.5,3,5.5z"/></g>
<g transform="translate(88,352) scale(3.7766666666667)"><circle cx="3" cy="3" r="2.5"/></g>
<g transform="translate(154,352) scale(3.7766666666667)"><circle cx="3" cy="3" r="2.5"/></g>
<g transform="translate(176,352) scale(3.7766666666667)"><circle cx="3" cy="3" r="2.5"/></g>
<g transform="translate(220,352) scale(3.7766666666667)"><circle cx="3" cy="3" r="2.5"/></g>
<g transform="translate(242,352) scale(3.7766666666667)"><rect x="0.5" width="5" height="6"/></g>
<g transform="translate(286,352) scale(3.7766666666667)"><path d="M5.5,6h-5V3c0-1.4,1.1-2.5,2.5-2.5h0c1.4,0,2.5,1.1,2.5,2.5V6z"/></g>
<g transform="translate(308,352) scale(3.7766666666667)"><circle cx="3" cy="3" r="2.5"/></g>
<g transform="translate(352,352) scale(3.7766666666667)"><circle cx="3" cy="3" r="2.5"/></g>
<g transform="translate(418,352) scale(3.7766666666667)"><rect x="0.5" width="5" height="6"/></g>
<g transform="translate(484,352) scale(3.7766666666667)"><path d="M5.5,6h-5V3c0-1.4,1.1-2.5,2.5-2.5h0c1.4,0,2.5,1.1,2.5,2.5V6z"/></g>
<g transform="translate(506,352) scale(3.7766666666667)"><path d="M5.5,6h-5V3c0-1.4,1.1-2.5,2.5-2.5h0c1.4,0,2.5,1.1,2.5,2.5V6z"/></g>
<g transform="translate(528,352) scale(3.7766666666667)"><path d="M3,5.5L3,5.5C1.6,5.5,0.5,4.4,0.5,3V0h5v3C5.5,4.4,4.4,5.5,3,5.5z"/></g>
<g transform="translate(594,352) scale(3.7766666666667)"><rect x="0.5" width="5" height="6"/></g>
<g transform="translate(682,352) scale(3.7766666666667)"><path d="M5.5,6h-5V3c0-1.4,1.1-2.5,2.5-2.5h0c1.4,0,2.5,1.1,2.5,2.5V6z"/></g>
<g transform="translate(704,352) scale(3.7766666666667)"><path d="M3,5.5L3,5.5C1.6,5.5,0.5,4.4,0.5,3V0h5v3C5.5,4.4,4.4,5.5,3,5.5z"/></g>
<g transform="translate(748,352) scale(3.7766666666667)"><path d="M3,5.5L3,5.5C1.6,5.5,0.5,4.4,0.5,3V0h5v3C5.5,4.4,4.4,5.5,3,5.5z"/></g>
<g transform="translate(770,352) scale(3.7766666666667)"><path d="M5.5,6h-5V3c0-1.4,1.1-2.5,2.5-2.5h0c1.4,0,2.5,1.1,2.5,2.5V6z"/></g>
<g transform="translate(792,352) scale(3.7766666666667)"><rect x="0.5" width="5" height="6"/></g>
<g transform="translate(44,374) scale(3.7766666666667)"><rect x="0.5" width="5" height="6"/></g>
<g transform="translate(132,374) scale(3.7766666666667)"><path d="M5.5,6h-5V3c0-1.4,1.1-2.5,2.5-2.5h0c1.4,0,2.5,1.1,2.5,2.5V6z"/></g>
<g transform="translate(242,374) scale(3.7766666666667)"><path d="M3,5.5L3,5.5C1.6,5.5,0.5,4.4,0.5,3V0h5v3C5.5,4.4,4.4,5.5,3,5.5z"/></g>
<g transform="translate(286,374) scale(3.7766666666667)"><path d="M3,5.5L3,5.5C1.6,5.5,0.5,4.4,0.5,3V0h5v3C5.5,4.4,4.4,5.5,3,5.5z"/></g>
<g transform="translate(330,374) scale(3.7766666666667)"><circle cx="3" cy="3" r="2.5"/></g>
<g transform="translate(396,374) scale(3.7766666666667)"><path d="M5.5,6h-5V3c0-1.4,1.1-2.5,2.5-2.5h0c1.4,0,2.5,1.1,2.5,2.5V6z"/></g>
<g transform="translate(418,374) scale(3.7766666666667)"><rect x="0.5" width="5" height="6"/></g>
<g transform="translate(440,374) scale(3.7766666666667)"><path d="M5.5,6h-5V3c0-1.4,1.1-2.5,2.5-2.5h0c1.4,0,2.5,1.1,2.5,2.5V6z"/></g>
<g transform="translate(484,374) scale(3.7766666666667)"><rect x="0.5" width="5" height="6"/></g>
<g transform="translate(506,374) scale(3.7766666666667)"><path d="M3,5.5L3,5.5C1.6,5.5,0.5,4.4,0.5,3V0h5v3C5.5,4.4,4.4,5.5,3,5.5z"/></g>
<g transform="translate(572,374) scale(3.7766666666667)"><path d="M5.5,6h-5V3c0-1.4,1.1-2.5,2.5-2.5h0c1.4,0,2.5,1.1,2.5,2.5V6z"/></g>
<g transform="translate(594,374) scale(3.7766666666667)"><path d="M3,5.5L3,5.5C1.6,5.5,0.5,4.4,0.5,3V0h5v3C5.5,4.4,4.4,5.5,3,5.5z"/></g>
<g transform="translate(616,374) scale(3.7766666666667)"><circle cx="3" cy="3" r="2.5"/></g>
<g transform="translate(660,374) scale(3.7766666666667)"><circle cx="3" cy="3" r="2.5"/></g>
<g transform="translate(682,374) scale(3.7766666666667)"><path d="M3,5.5L3,5.5C1.6,5.5,0.5,4.4,0.5,3V0h5v3C5.5,4.4,4.4,5.5,3,5.5z"/></g>
<g transform="translate(726,374) scale(3.7766666666667)"><circle cx="3" cy="3" r="2.5"/></g>
<g transform="translate(770,374) scale(3.7766666666667)"><rect x="0.5" width="5" height="6"/></g>
<g transform="translate(792,374) scale(3.7766666666667)"><path d="M3,5.5L3,5.5C1.6,5.5,0.5,4.4,0.5,3V0h5v3C5.5,4.4,4.4,5.5,3,5.5z"/></g>
<g transform="translate(814,374) scale(3.7766666666667)"><path d="M5.5,6h-5V3c0-1.4,1.1-2.5,2.5-2.5h0c1.4,0,2.5,1.1,2.5,2.5V6z"/></g>
<g transform="translate(836,374) scale(3.7766666666667)"><circle cx="3" cy="3" r="2.5"/></g>
<g transform="translate(858,374) scale(3.7766666666667)"><circle cx="3" cy="3" r="2.5"/></g>
<g transform="translate(924,374) scale(3.7766666666667)"><circle cx="3" cy="3" r="2.5"/></g>
<g transform="translate(44,396) scale(3.7766666666667)"><rect x="0.5" width="5" height="6"/></g>
<g transform="translate(88,396) scale(3.7766666666667)"><circle cx="3" cy="3" r="2.5"/></g>
<g transform="translate(132,396) scale(3.7766666666667)"><path d="M3,5.5L3,5.5C1.6,5.5,0.5,4.4,0.5,3V0h5v3C5.5,4.4,4.4,5.5,3,5.5z"/></g>
<g transform="translate(154,396) scale(3.7766666666667)"><circle cx="3" cy="3" r="2.5"/></g>
<g transform="translate(176,396) scale(3.7766666666667)"><circle cx="3" cy="3" r="2.5"/></g>
<g transform="translate(198,396) scale(3.7766666666667)"><path d="M5.5,6h-5V3c0-1.4,1.1-2.5,2.5-2.5h0c1.4,0,2.5,1.1,2.5,2.5V6z"/></g>
<g transform="translate(264,396) scale(3.7766666666667)"><path d="M5.5,6h-5V3c0-1.4,1.1-2.5,2.5-2.5h0c1.4,0,2.5,1.1,2.5,2.5V6z"/></g>
<g transform="translate(374,396) scale(3.7766666666667)"><path d="M5.5,6h-5V3c0-1.4,1.1-2.5,2.5-2.5h0c1.4,0,2.5,1.1,2.5,2.5V6z"/></g>
<g transform="translate(396,396) scale(3.7766666666667)"><rect x="0.5" width="5" height="6"/></g>
<g transform="translate(418,396) scale(3.7766666666667)"><rect x="0.5" width="5" height="6"/></g>
<g transform="translate(440,396) scale(3.7766666666667)"><path d="M3,5.5L3,5.5C1.6,5.5,0.5,4.4,0.5,3V0h5v3C5.5,4.4,4.4,5.5,3,5.5z"/></g>
<g transform="translate(484,396) scale(3.7766666666667)"><path d="M3,5.5L3,5.5C1.6,5.5,0.5,4.4,0.5,3V0h5v3C5.5,4.4,4.4,5.5,3,5.5z"/></g>
<g transform="translate(572,396) scale(3.7766666666667)"><rect x="0.5" width="5" height="6"/></g>
<g transform="translate(704,396) scale(3.7766666666667)"><circle cx="3" cy="3" r="2.5"/></g>
<g transform="translate(770,396) scale(3.7766666666667)"><rect x="0.5" width="5" height="6"/></g>
<g transform="translate(814,396) scale(3.7766666666667)"><path d="M3,5.5L3,5.5C1.6,5.5,0.5,4.4,0.5,3V0h5v3C5.5,4.4,4.4,5.5,3,5.5z"/></g>
<g transform="translate(880,396) scale(3.7766666666667)"><circle cx="3" cy="3" r="2.5"/></g>
<g transform="translate(44,418) scale(3.7766666666667)"><path d="M3,5.5L3,5.5C1.6,5.5,0.5,4.4,0.5,3V0h5v3C5.5,4.4,4.4,5.5,3,5.5z"/></g>
<g transform="translate(66,418) scale(3.7766666666667)"><circle cx="3" cy="3" r="2.5"/></g>
<g transform="translate(198,418) scale(3.7766666666667)"><path d="M3,5.5L3,5.5C1.6,5.5,0.5,4.4,0.5,3V0h5v3C5.5,4.4,4.4,5.5,3,5.5z"/></g>
<g transform="translate(220,418) scale(3.7766666666667)"><path d="M5.5,6h-5V3c0-1.4,1.1-2.5,2.5-2.5h0c1.4,0,2.5,1.1,2.5,2.5V6z"/></g>
<g transform="translate(242,418) scale(3.7766666666667)"><circle cx="3" cy="3" r="2.5"/></g>
<g transform="translate(264,418) scale(3.7766666666667)"><path d="M3,5.5L3,5.5C1.6,5.5,0.5,4.4,0.5,3V0h5v3C5.5,4.4,4.4,5.5,3,5.5z"/></g>
<g transform="translate(352,418) scale(3.7766666666667)"><path d="M5.5,6h-5V3c0-1.4,1.1-2.5,2.5-2.5h0c1.4,0,2.5,1.1,2.5,2.5V6z"/></g>
<g transform="translate(374,418) scale(3.7766666666667)"><path d="M3,5.5L3,5.5C1.6,5.5,0.5,4.4,0.5,3V0h5v3C5.5,4.4,4.4,5.5,3,5.5z"/></g>
<g transform="translate(396,418) scale(3.7766666666667)"><path d="M3,5.5L3,5.5C1.6,5.5,0.5,4.4,0.5,3V0h5v3C5.5,4.4,4.4,5.5,3,5.5z"/></g>
<g transform="translate(418,418) scale(3.7766666666667)"><path d="M3,5.5L3,5.5C1.6,5.5,0.5,4.4,0.5,3V0h5v3C5.5,4.4,4.4,5.5,3,5.5z"/></g>
<g transform="translate(462,418) scale(3.7766666666667)"><path d="M5.5,6h-5V3c0-1.4,1.1-2.5,2.5-2.5h0c1.4,0,2.5,1.1,2.5,2.5V6z"/></g>
<g transform="translate(528,418) scale(3.7766666666667)"><path d="M5.5,6h-5V3c0-1.4,1.1-2.5,2.5-2.5h0c1.4,0,2.5,1.1,2.5,2.5V6z"/></g>
<g transform="translate(572,418) scale(3.7766666666667)"><rect x="0.5" width="5" height="6"/></g>
<g transform="translate(594,418) scale(3.7766666666667)"><path d="M5.5,6h-5V3c0-1.4,1.1-2.5,2.5-2.5h0c1.4,0,2.5,1.1,2.5,2.5V6z"/></g>
<g transform="translate(616,418) scale(3.7766666666667)"><path d="M5.5,6h-5V3c0-1.4,1.1-2.5,2.5-2.5h0c1.4,0,2.5,1.1,2.5,2.5V6z"/></g>
<g transform="translate(638,418) scale(3.7766666666667)"><path d="M5.5,6h-5V3c0-1.4,1.1-2.5,2.5-2.5h0c1.4,0,2.5,1.1,2.5,2.5V6z"/></g>
<g transform="translate(726,418) scale(3.7766666666667)"><circle cx="3" cy="3" r="2.5"/></g>
<g transform="translate(770,418) scale(3.7766666666667)"><rect x="0.5" width="5" height="6"/></g>
<g transform="translate(792,418) scale(3.7766666666667)"><circle cx="3" cy="3" r="2.5"/></g>
<g transform="translate(836,418) scale(3.7766666666667)"><path d="M5.5,6h-5V3c0-1.4,1.1-2.5,2.5-2.5h0c1.4,0,2.5,1.1,2.5,2.5V6z"/></g>
<g transform="translate(902,418) scale(3.7766666666667)"><circle cx="3" cy="3" r="2.5"/></g>
<g transform="translate(924,418) scale(3.7766666666667)"><circle cx="3" cy="3" r="2.5"/></g>
<g transform="translate(154,440) scale(3.7766666666667)"><circle cx="3" cy="3" r="2.5"/></g>
<g transform="translate(176,440) scale(3.7766666666667)"><circle cx="3" cy="3" r="2.5"/></g>
<g transform="translate(220,440) scale(3.7766666666667)"><rect x="0.5" width="5" height="6"/></g>
<g transform="translate(286,440) scale(3.7766666666667)"><path d="M5.5,6h-5V3c0-1.4,1.1-2.5,2.5-2.5h0c1.4,0,2.5,1.1,2.5,2.5V6z"/></g>
<g transform="translate(330,440) scale(3.7766666666667)"><circle cx="3" cy="3" r="2.5"/></g>
<g transform="translate(352,440) scale(3.7766666666667)"><path d="M3,5.5L3,5.5C1.6,5.5,0.5,4.4,0.5,3V0h5v3C5.5,4.4,4.4,5.5,3,5.5z"/></g>
<g transform="translate(440,440) scale(3.7766666666667)"><path d="M5.5,6h-5V3c0-1.4,1.1-2.5,2.5-2.5h0c1.4,0,2.5,1.1,2.5,2.5V6z"/></g>
<g transform="translate(462,440) scale(3.7766666666667)"><path d="M3,5.5L3,5.5C1.6,5.5,0.5,4.4,0.5,3V0h5v3C5.5,4.4,4.4,5.5,3,5.5z"/></g>
<g transform="translate(506,440) scale(3.7766666666667)"><circle cx="3" cy="3" r="2.5"/></g>
<g transform="translate(528,440) scale(3.7766666666667)"><rect x="0.5" width="5" height="6"/></g>
<g transform="translate(550,440) scale(3.7766666666667)"><path d="M5.5,6h-5V3c0-1.4,1.1-2.5,2.5-2.5h0c1.4,0,2.5,1.1,2.5,2.5V6z"/></g>
<g transform="translate(572,440) scale(3.7766666666667)"><rect x="0.5" width="5" height="6"/></g>
<g transform="translate(594,440) scale(3.7766666666667)"><rect x="0.5" width="5" height="6"/></g>
<g transform="translate(616,440) scale(3.7766666666667)"><path d="M3,5.5L3,5.5C1.6,5.5,0.5,4.4,0.5,3V0h5v3C5.5,4.4,4.4,5.5,3,5.5z"/></g>
<g transform="translate(638,440) scale(3.7766666666667)"><path d="M3,5.5L3,5.5C1.6,5.5,0.5,4.4,0.5,3V0h5v3C5.5,4.4,4.4,5.5,3,5.5z"/></g>
<g transform="translate(660,440) scale(3.7766666666667)"><circle cx="3" cy="3" r="2.5"/></g>
<g transform="translate(682,440) scale(3.7766666666667)"><circle cx="3" cy="3" r="2.5"/></g>
<g transform="translate(704,440) scale(3.7766666666667)"><circle cx="3" cy="3" r="2.5"/></g>
<g transform="translate(748,440) scale(3.7766666666667)"><circle cx="3" cy="3" r="2.5"/></g>
<g transform="translate(770,440) scale(3.7766666666667)"><path d="M3,5.5L3,5.5C1.6,5.5,0.5,4.4,0.5,3V0h5v3C5.5,4.4,4.4,5.5,3,5.5z"/></g>
<g transform="translate(836,440) scale(3.7766666666667)"><rect x="0.5" width="5" height="6"/></g>
<g transform="translate(880,440) scale(3.7766666666667)"><path d="M5.5,6h-5V3c0-1.4,1.1-2.5,2.5-2.5h0c1.4,0,2.5,1.1,2.5,2.5V6z"/></g>
<g transform="translate(110,462) scale(3.7766666666667)"><path d="M5.5,6h-5V3c0-1.4,1.1-2.5,2.5-2.5h0c1.4,0,2.5,1.1,2.5,2.5V6z"/></g>
<g transform="translate(198,462) scale(3.7766666666667)"><path d="M5.5,6h-5V3c0-1.4,1.1-2.5,2.5-2.5h0c1.4,0,2.5,1.1,2.5,2.5V6z"/></g>
<g transform="translate(220,462) scale(3.7766666666667)"><path d="M3,5.5L3,5.5C1.6,5.5,0.5,4.4,0.5,3V0h5v3C5.5,4.4,4.4,5.5,3,5.5z"/></g>
<g transform="translate(242,462) scale(3.7766666666667)"><circle cx="3" cy="3" r="2.5"/></g>
<g transform="translate(264,462) scale(3.7766666666667)"><circle cx="3" cy="3" r="2.5"/></g>
<g transform="translate(286,462) scale(3.7766666666667)"><rect x="0.5" width="5" height="6"/></g>
<g transform="translate(308,462) scale(3.7766666666667)"><path d="M5.5,6h-5V3c0-1.4,1.1-2.5,2.5-2.5h0c1.4,0,2.5,1.1,2.5,2.5V6z"/></g>
<g transform="translate(418,462) scale(3.7766666666667)"><circle cx="3" cy="3" r="2.5"/></g>
<g transform="translate(440,462) scale(3.7766666666667)"><path d="M3,5.5L3,5.5C1.6,5.5,0.5,4.4,0.5,3V0h5v3C5.5,4.4,4.4,5.5,3,5.5z"/></g>
<g transform="translate(484,462) scale(3.7766666666667)"><path d="M5.5,6h-5V3c0-1.4,1.1-2.5,2.5-2.5h0c1.4,0,2.5,1.1,2.5,2.5V6z"/></g>
<g transform="translate(528,462) scale(3.7766666666667)"><rect x="0.5" width="5" height="6"/></g>
<g transform="translate(550,462) scale(3.7766666666667)"><rect x="0.5" width="5" height="6"/></g>
<g transform="translate(572,462) scale(3.7766666666667)"><rect x="0.5" width="5" height="6"/></g>
<g transform="translate(594,462) scale(3.7766666666667)"><path d="M3,5.5L3,5.5C1.6,5.5,0.5,4.4,0.5,3V0h5v3C5.5,4.4,4.4,5.5,3,5.5z"/></g>
<g transform="translate(726,462) scale(3.7766666666667)"><circle cx="3" cy="3" r="2.5"/></g>
<g transform="translate(836,462) scale(3.7766666666667)"><rect x="0.5" width="5" height="6"/></g>
<g transform="translate(880,462) scale(3.7766666666667)"><rect x="0.5" width="5" height="6"/></g>
<g transform="translate(902,462) scale(3.7766666666667)"><circle cx="3" cy="3" r="2.5"/></g>
<g transform="translate(44,484) scale(3.7766666666667)"><path d="M5.5,6h-5V3c0-1.4,1.1-2.5,2.5-2.5h0c1.4,0,2.5,1.1,2.5,2.5V6z"/></g>
<g transform="translate(110,484) scale(3.7766666666667)"><rect x="0.5" width="5" height="6"/></g>
<g transform="translate(132,484) scale(3.7766666666667)"><path d="M5.5,6h-5V3c0-1.4,1.1-2.5,2.5-2.5h0c1.4,0,2.5,1.1,2.5,2.5V6z"/></g>
<g transform="translate(154,484) scale(3.7766666666667)"><circle cx="3" cy="3" r="2.5"/></g>
<g transform="translate(176,484) scale(3.7766666666667)"><circle cx="3" cy="3" r="2.5"/></g>
<g transform="translate(198,484) scale(3.7766666666667)"><rect x="0.5" width="5" height="6"/></g>
<g transform="translate(286,484) scale(3.7766666666667)"><rect x="0.5" width="5" height="6"/></g>
<g transform="translate(308,484) scale(3.7766666666667)"><rect x="0.5" width="5" height="6"/></g>
<g transform="translate(396,484) scale(3.7766666666667)"><path d="M5.5,6h-5V3c0-1.4,1.1-2.5,2.5-2.5h0c1.4,0,2.5,1.1,2.5,2.5V6z"/></g>
<g transform="translate(484,484) scale(3.7766666666667)"><rect x="0.5" width="5" height="6"/></g>
<g transform="translate(506,484) scale(3.7766666666667)"><path d="M5.5,6h-5V3c0-1.4,1.1-2.5,2.5-2.5h0c1.4,0,2.5,1.1,2.5,2.5V6z"/></g>
<g transform="translate(528,484) scale(3.7766666666667)"><rect x="0.5" width="5" height="6"/></g>
<g transform="translate(550,484) scale(3.7766666666667)"><rect x="0.5" width="5" height="6"/></g>
<g transform="translate(572,484) scale(3.7766666666667)"><rect x="0.5" width="5" height="6"/></g>
<g transform="translate(616,484) scale(3.7766666666667)"><circle cx="3" cy="3" r="2.5"/></g>
<g transform="translate(638,484) scale(3.7766666666667)"><circle cx="3" cy="3" r="2.5"/></g>
<g transform="translate(660,484) scale(3.7766666666667)"><path d="M5.5,6h-5V3c0-1.4,1.1-2.5,2.5-2.5h0c1.4,0,2.5,1.1,2.5,2.5V6z"/></g>
<g transform="translate(682,484) scale(3.7766666666667)"><path d="M5.5,6h-5V3c0-1.4,1.1-2.5,2.5-2.5h0c1.4,0,2.5,1.1,2.5,2.5V6z"/></g>
<g transform="translate(836,484) scale(3.7766666666667)"><rect x="0.5" width="5" height="6"/></g>
<g transform="translate(858,484) scale(3.7766666666667)"><circle cx="3" cy="3" r="2.5"/></g>
<g transform="translate(880,484) scale(3.7766666666667)"><rect x="0.5" width="5" height="6"/></g>
<g transform="translate(924,484) scale(3.7766666666667)"><path d="M5.5,6h-5V3c0-1.4,1.1-2.5,2.5-2.5h0c1.4,0,2.5,1.1,2.5,2.5V6z"/></g>
<g transform="translate(44,506) scale(3.7766666666667)"><rect x="0.5" width="5" height="6"/></g>
<g transform="translate(66,506) scale(3.7766666666667)"><circle cx="3" cy="3" r="2.5"/></g>
<g transform="translate(88,506) scale(3.7766666666667)"><path d="M5.5,6h-5V3c0-1.4,1.1-2.5,2.5-2.5h0c1.4,0,2.5,1.1,2.5,2.5V6z"/></g>
<g transform="translate(110,506) scale(3.7766666666667)"><path d="M3,5.5L3,5.5C1.6,5.5,0.5,4.4,0.5,3V0h5v3C5.5,4.4,4.4,5.5,3,5.5z"/></g>
<g transform="translate(132,506) scale(3.7766666666667)"><rect x="0.5" width="5" height="6"/></g>
<g transform="translate(198,506) scale(3.7766666666667)"><rect x="0.5" width="5" height="6"/></g>
<g transform="translate(220,506) scale(3.7766666666667)"><circle cx="3" cy="3" r="2.5"/></g>
<g transform="translate(242,506) scale(3.7766666666667)"><circle cx="3" cy="3" r="2.5"/></g>
<g transform="translate(264,506) scale(3.7766666666667)"><path d="M5.5,6h-5V3c0-1.4,1.1-2.5,2.5-2.5h0c1.4,0,2.5,1.1,2.5,2.5V6z"/></g>
<g transform="translate(286,506) scale(3.7766666666667)"><rect x="0.5" width="5" height="6"/></g>
<g transform="translate(308,506) scale(3.7766666666667)"><path d="M3,5.5L3,5.5C1.6,5.5,0.5,4.4,0.5,3V0h5v3C5.5,4.4,4.4,5.5,3,5.5z"/></g>
<g transform="translate(374,506) scale(3.7766666666667)"><circle cx="3" cy="3" r="2.5"/></g>
<g transform="translate(396,506) scale(3.7766666666667)"><path d="M3,5.5L3,5.5C1.6,5.5,0.5,4.4,0.5,3V0h5v3C5.5,4.4,4.4,5.5,3,5.5z"/></g>
<g transform="translate(418,506) scale(3.7766666666667)"><path d="M5.5,6h-5V3c0-1.4,1.1-2.5,2.5-2.5h0c1.4,0,2.5,1.1,2.5,2.5V6z"/></g>
<g transform="translate(484,506) scale(3.7766666666667)"><path d="M3,5.5L3,5.5C1.6,5.5,0.5,4.4,0.5,3V0h5v3C5.5,4.4,4.4,5.5,3,5.5z"/></g>
<g transform="translate(506,506) scale(3.7766666666667)"><path d="M3,5.5L3,5.5C1.6,5.5,0.5,4.4,0.5,3V0h5v3C5.5,4.4,4.4,5.5,3,5.5z"/></g>
<g transform="translate(528,506) scale(3.7766666666667)"><path d="M3,5.5L3,5.5C1.6,5.5,0.5,4.4,0.5,3V0h5v3C5.5,4.4,4.4,5.5,3,5.5z"/></g>
<g transform="translate(550,506) scale(3.7766666666667)"><rect x="0.5" width="5" height="6"/></g>
<g transform="translate(572,506) scale(3.7766666666667)"><path d="M3,5.5L3,5.5C1.6,5.5,0.5,4.4,0.5,3V0h5v3C5.5,4.4,4.4,5.5,3,5.5z"/></g>
<g transform="translate(594,506) scale(3.7766666666667)"><path d="M5.5,6h-5V3c0-1.4,1.1-2.5,2.5-2.5h0c1.4,0,2.5,1.1,2.5,2.5V6z"/></g>
<g transform="translate(660,506) scale(3.7766666666667)"><rect x="0.5" width="5" height="6"/></g>
<g transform="translate(682,506) scale(3.7766666666667)"><path d="M3,5.5L3,5.5C1.6,5.5,0.5,4.4,0.5,3V0h5v3C5.5,4.4,4.4,5.5,3,5.5z"/></g>
<g transform="translate(704,506) scale(3.7766666666667)"><path d="M5.5,6h-5V3c0-1.4,1.1-2.5,2.5-2.5h0c1.4,0,2.5,1.1,2.5,2.5V6z"/></g>
<g transform="translate(726,506) scale(3.7766666666667)"><circle cx="3" cy="3" r="2.5"/></g>
<g transform="translate(748,506) scale(3.7766666666667)"><path d="M5.5,6h-5V3c0-1.4,1.1-2.5,2.5-2.5h0c1.4,0,2.5,1.1,2.5,2.5V6z"/></g>
<g transform="translate(770,506) scale(3.7766666666667)"><path d="M5.5,6h-5V3c0-1.4,1.1-2.5,2.5-2.5h0c1.4,0,2.5,1.1,2.5,2.5V6z"/></g>
<g transform="translate(792,506) scale(3.7766666666667)"><path d="M5.5,6h-5V3c0-1.4,1.1-2.5,2.5-2.5h0c1.4,0,2.5,1.1,2.5,2.5V6z"/></g>
<g transform="translate(814,506) scale(3.7766666666667)"><path d="M5.5,6h-5V3c0-1.4,1.1-2.5,2.5-2.5h0c1.4,0,2.5,1.1,2.5,2.5V6z"/></g>
<g transform="translate(836,506) scale(3.7766666666667)"><path d="M3,5.5L3,5.5C1.6,5.5,0.5,4.4,0.5,3V0h5v3C5.5,4.4,4.4,5.5,3,5.5z"/></g>
<g transform="translate(880,506) scale(3.7766666666667)"><rect x="0.5" width="5" height="6"/></g>
<g transform="translate(902,506) scale(3.7766666666667)"><circle cx="3" cy="3" r="2.5"/></g>
<g transform="translate(924,506) scale(3.7766666666667)"><path d="M3,5.5L3,5.5C1.6,5.5,0.5,4.4,0.5,3V0h5v3C5.5,4.4,4.4,5.5,3,5.5z"/></g>
<g transform="translate(44,528) scale(3.7766666666667)"><rect x="0.5" width="5" height="6"/></g>
<g transform="translate(88,528) scale(3.7766666666667)"><rect x="0.5" width="5" height="6"/></g>
<g transform="translate(132,528) scale(3.7766666666667)"><rect x="0.5" width="5" height="6"/></g>
<g transform="translate(176,528) scale(3.7766666666667)"><circle cx="3" cy="3" r="2.5"/></g>
<g transform="translate(198,528) scale(3.7766666666667)"><path d="M3,5.5L3,5.5C1.6,5.5,0.5,4.4,0.5,3V0h5v3C5.5,4.4,4.4,5.5,3,5.5z"/></g>
<g transform="translate(264,528) scale(3.7766666666667)"><rect x="0.5" width="5" height="6"/></g>
<g transform="translate(286,528) scale(3.7766666666667)"><path d="M3,5.5L3,5.5C1.6,5.5,0.5,4.4,0.5,3V0h5v3C5.5,4.4,4.4,5.5,3,5.5z"/></g>
<g transform="translate(330,528) scale(3.7766666666667)"><circle cx="3" cy="3" r="2.5"/></g>
<g transform="translate(418,528) scale(3.7766666666667)"><rect x="0.5" width="5" height="6"/></g>
<g transform="translate(440,528) scale(3.7766666666667)"><circle cx="3" cy="3" r="2.5"/></g>
<g transform="translate(462,528) scale(3.7766666666667)"><circle cx="3" cy="3" r="2.5"/></g>
<g transform="translate(550,528) scale(3.7766666666667)"><rect x="0.5" width="5" height="6"/></g>
<g transform="translate(594,528) scale(3.7766666666667)"><path d="M3,5.5L3,5.5C1.6,5.5,0.5,4.4,0.5,3V0h5v3C5.5,4.4,4.4,5.5,3,5.5z"/></g>
<g transform="translate(616,528) scale(3.7766666666667)"><circle cx="3" cy="3" r="2.5"/></g>
<g transform="translate(638,528) scale(3.7766666666667)"><path d="M5.5,6h-5V3c0-1.4,1.1-2.5,2.5-2.5h0c1.4,0,2.5,1.1,2.5,2.5V6z"/></g>
<g transform="translate(660,528) scale(3.7766666666667)"><path d="M3,5.5L3,5.5C1.6,5.5,0.5,4.4,0.5,3V0h5v3C5.5,4.4,4.4,5.5,3,5.5z"/></g>
<g transform="translate(704,528) scale(3.7766666666667)"><rect x="0.5" width="5" height="6"/></g>
<g transform="translate(748,528) scale(3.7766666666667)"><path d="M3,5.5L3,5.5C1.6,5.5,0.5,4.4,0.5,3V0h5v3C5.5,4.4,4.4,5.5,3,5.5z"/></g>
<g transform="translate(770,528) scale(3.7766666666667)"><path d="M3,5.5L3,5.5C1.6,5.5,0.5,4.4,0.5,3V0h5v3C5.5,4.4,4.4,5.5,3,5.5z"/></g>
<g transform="translate(792,528) scale(3.7766666666667)"><rect x="0.5" width="5" height="6"/></g>
<g transform="translate(814,528) scale(3.7766666666667)"><path d="M3,5.5L3,5.5C1.6,5.5,0.5,4.4,0.5,3V0h5v3C5.5,4.4,4.4,5.5,3,5.5z"/></g>
<g transform="translate(858,528) scale(3.7766666666667)"><circle cx="3" cy="3" r="2.5"/></g>
<g transform="translate(880,528) scale(3.7766666666667)"><rect x="0.5" width="5" height="6"/></g>
<g transform="translate(44,550) scale(3.7766666666667)"><path d="M3,5.5L3,5.5C1.6,5.5,0.5,4.4,0.5,3V0h5v3C5.5,4.4,4.4,5.5,3,5.5z"/></g>
<g transform="translate(66,550) scale(3.7766666666667)"><path d="M5.5,6h-5V3c0-1.4,1.1-2.5,2.5-2.5h0c1.4,0,2.5,1.1,2.5,2.5V6z"/></g>
<g transform="translate(88,550) scale(3.7766666666667)"><path d="M3,5.5L3,5.5C1.6,5.5,0.5,4.4,0.5,3V0h5v3C5.5,4.4,4.4,5.5,3,5.5z"/></g>
<g transform="translate(110,550) scale(3.7766666666667)"><circle cx="3" cy="3" r="2.5"/></g>
<g transform="translate(132,550) scale(3.7766666666667)"><path d="M3,5.5L3,5.5C1.6,5.5,0.5,4.4,0.5,3V0h5v3C5.5,4.4,4.4,5.5,3,5.5z"/></g>
<g transform="translate(220,550) scale(3.7766666666667)"><path d="M5.5,6h-5V3c0-1.4,1.1-2.5,2.5-2.5h0c1.4,0,2.5,1.1,2.5,2.5V6z"/></g>
<g transform="translate(264,550) scale(3.7766666666667)"><path d="M3,5.5L3,5.5C1.6,5.5,0.5,4.4,0.5,3V0h5v3C5.5,4.4,4.4,5.5,3,5.5z"/></g>
<g transform="translate(352,550) scale(3.7766666666667)"><circle cx="3" cy="3" r="2.5"/></g>
<g transform="translate(374,550) scale(3.7766666666667)"><circle cx="3" cy="3" r="2.5"/></g>
<g transform="translate(418,550) scale(3.7766666666667)"><rect x="0.5" width="5" height="6"/></g>
<g transform="translate(484,550) scale(3.7766666666667)"><circle cx="3" cy="3" r="2.5"/></g>
<g transform="translate(506,550) scale(3.7766666666667)"><circle cx="3" cy="3" r="2.5"/></g>
<g transform="translate(528,550) scale(3.7766666666667)"><circle cx="3" cy="3" r="2.5"/></g>
<g transform="translate(550,550) scale(3.7766666666667)"><path d="M3,5.5L3,5.5C1.6,5.5,0.5,4.4,0.5,3V0h5v3C5.5,4.4,4.4,5.5,3,5.5z"/></g>
<g transform="translate(638,550) scale(3.7766666666667)"><path d="M3,5.5L3,5.5C1.6,5.5,0.5,4.4,0.5,3V0h5v3C5.5,4.4,4.4,5.5,3,5.5z"/></g>
<g transform="translate(704,550) scale(3.7766666666667)"><path d="M3,5.5L3,5.5C1.6,5.5,0.5,4.4,0.5,3V0h5v3C5.5,4.4,4.4,5.5,3,5.5z"/></g>
<g transform="translate(792,550) scale(3.7766666666667)"><rect x="0.5" width="5" height="6"/></g>
<g transform="translate(836,550) scale(3.7766666666667)"><circle cx="3" cy="3" r="2.5"/></g>
<g transform="translate(880,550) scale(3.7766666666667)"><path d="M3,5.5L3,5.5C1.6,5.5,0.5,4.4,0.5,3V0h5v3C5.5,4.4,4.4,5.5,3,5.5z"/></g>
<g transform="translate(902,550) scale(3.7766666666667)"><path d="M5.5,6h-5V3c0-1.4,1.1-2.5,2.5-2.5h0c1.4,0,2.5,1.1,2.5,2.5V6z"/></g>
<g transform="translate(924,550) scale(3.7766666666667)"><circle cx="3" cy="3" r="2.5"/></g>
<g transform="translate(66,572) scale(3.7766666666667)"><path d="M3,5.5L3,5.5C1.6,5.5,0.5,4.4,0.5,3V0h5v3C5.5,4.4,4.4,5.5,3,5.5z"/></g>
<g transform="translate(154,572) scale(3.7766666666667)"><circle cx="3" cy="3" r="2.5"/></g>
<g transform="translate(176,572) scale(3.7766666666667)"><circle cx="3" cy="3" r="2.5"/></g>
<g transform="translate(198,572) scale(3.7766666666667)"><path d="M5.5,6h-5V3c0-1.4,1.1-2.5,2.5-2.5h0c1.4,0,2.5,1.1,2.5,2.5V6z"/></g>
<g transform="translate(220,572) scale(3.7766666666667)"><path d="M3,5.5L3,5.5C1.6,5.5,0.5,4.4,0.5,3V0h5v3C5.5,4.4,4.4,5.5,3,5.5z"/></g>
<g transform="translate(308,572) scale(3.7766666666667)"><circle cx="3" cy="3" r="2.5"/></g>
<g transform="translate(418,572) scale(3.7766666666667)"><path d="M3,5.5L3,5.5C1.6,5.5,0.5,4.4,0.5,3V0h5v3C5.5,4.4,4.4,5.5,3,5.5z"/></g>
<g transform="translate(462,572) scale(3.7766666666667)"><circle cx="3" cy="3" r="2.5"/></g>
<g transform="translate(572,572) scale(3.7766666666667)"><circle cx="3" cy="3" r="2.5"/></g>
<g transform="translate(594,572) scale(3.7766666666667)"><circle cx="3" cy="3" r="2.5"/></g>
<g transform="translate(616,572) scale(3.7766666666667)"><circle cx="3" cy="3" r="2.5"/></g>
<g transform="translate(682,572) scale(3.7766666666667)"><path d="M5.5,6h-5V3c0-1.4,1.1-2.5,2.5-2.5h0c1.4,0,2.5,1.1,2.5,2.5V6z"/></g>
<g transform="translate(726,572) scale(3.7766666666667)"><path d="M5.5,6h-5V3c0-1.4,1.1-2.5,2.5-2.5h0c1.4,0,2.5,1.1,2.5,2.5V6z"/></g>
<g transform="translate(770,572) scale(3.7766666666667)"><path d="M5.5,6h-5V3c0-1.4,1.1-2.5,2.5-2.5h0c1.4,0,2.5,1.1,2.5,2.5V6z"/></g>
<g transform="translate(792,572) scale(3.7766666666667)"><rect x="0.5" width="5" height="6"/></g>
<g transform="translate(858,572) scale(3.7766666666667)"><path d="M5.5,6h-5V3c0-1.4,1.1-2.5,2.5-2.5h0c1.4,0,2.5,1.1,2.5,2.5V6z"/></g>
<g transform="translate(902,572) scale(3.7766666666667)"><rect x="0.5" width="5" height="6"/></g>
<g transform="translate(44,594) scale(3.7766666666667)"><circle cx="3" cy="3" r="2.5"/></g>
<g transform="translate(88,594) scale(3.7766666666667)"><circle cx="3" cy="3" r="2.5"/></g>
<g transform="translate(198,594) scale(3.7766666666667)"><path d="M3,5.5L3,5.5C1.6,5.5,0.5,4.4,0.5,3V0h5v3C5.5,4.4,4.4,5.5,3,5.5z"/></g>
<g transform="translate(264,594) scale(3.7766666666667)"><circle cx="3" cy="3" r="2.5"/></g>
<g transform="translate(352,594) scale(3.7766666666667)"><path d="M5.5,6h-5V3c0-1.4,1.1-2.5,2.5-2.5h0c1.4,0,2.5,1.1,2.5,2.5V6z"/></g>
<g transform="translate(374,594) scale(3.7766666666667)"><path d="M5.5,6h-5V3c0-1.4,1.1-2.5,2.5-2.5h0c1.4,0,2.5,1.1,2.5,2.5V6z"/></g>
<g transform="translate(440,594) scale(3.7766666666667)"><circle cx="3" cy="3" r="2.5"/></g>
<g transform="translate(484,594) scale(3.7766666666667)"><circle cx="3" cy="3" r="2.5"/></g>
<g transform="translate(506,594) scale(3.7766666666667)"><circle cx="3" cy="3" r="2.5"/></g>
<g transform="translate(528,594) scale(3.7766666666667)"><path d="M5.5,6h-5V3c0-1.4,1.1-2.5,2.5-2.5h0c1.4,0,2.5,1.1,2.5,2.5V6z"/></g>
<g transform="translate(550,594) scale(3.7766666666667)"><circle cx="3" cy="3" r="2.5"/></g>
<g transform="translate(660,594) scale(3.7766666666667)"><circle cx="3" cy="3" r="2.5"/></g>
<g transform="translate(682,594) scale(3.7766666666667)"><rect x="0.5" width="5" height="6"/></g>
<g transform="translate(704,594) scale(3.7766666666667)"><circle cx="3" cy="3" r="2.5"/></g>
<g transform="translate(726,594) scale(3.7766666666667)"><path d="M3,5.5L3,5.5C1.6,5.5,0.5,4.4,0.5,3V0h5v3C5.5,4.4,4.4,5.5,3,5.5z"/></g>
<g transform="translate(748,594) scale(3.7766666666667)"><path d="M5.5,6h-5V3c0-1.4,1.1-2.5,2.5-2.5h0c1.4,0,2.5,1.1,2.5,2.5V6z"/></g>
<g transform="translate(770,594) scale(3.7766666666667)"><rect x="0.5" width="5" height="6"/></g>
<g transform="translate(792,594) scale(3.7766666666667)"><rect x="0.5" width="5" height="6"/></g>
<g transform="translate(858,594) scale(3.7766666666667)"><path d="M3,5.5L3,5.5C1.6,5.5,0.5,4.4,0.5,3V0h5v3C5.5,4.4,4.4,5.5,3,5.5z"/></g>
<g transform="translate(902,594) scale(3.7766666666667)"><rect x="0.5" width="5" height="6"/></g>
<g transform="translate(924,594) scale(3.7766666666667)"><path d="M5.5,6h-5V3c0-1.4,1.1-2.5,2.5-2.5h0c1.4,0,2.5,1.1,2.5,2.5V6z"/></g>
<g transform="translate(66,616) scale(3.7766666666667)"><circle cx="3" cy="3" r="2.5"/></g>
<g transform="translate(110,616) scale(3.7766666666667)"><path d="M5.5,6h-5V3c0-1.4,1.1-2.5,2.5-2.5h0c1.4,0,2.5,1.1,2.5,2.5V6z"/></g>
<g transform="translate(154,616) scale(3.7766666666667)"><path d="M5.5,6h-5V3c0-1.4,1.1-2.5,2.5-2.5h0c1.4,0,2.5,1.1,2.5,2.5V6z"/></g>
<g transform="translate(176,616) scale(3.7766666666667)"><circle cx="3" cy="3" r="2.5"/></g>
<g transform="translate(220,616) scale(3.7766666666667)"><path d="M5.5,6h-5V3c0-1.4,1.1-2.5,2.5-2.5h0c1.4,0,2.5,1.1,2.5,2.5V6z"/></g>
<g transform="translate(242,616) scale(3.7766666666667)"><path d="M5.5,6h-5V3c0-1.4,1.1-2.5,2.5-2.5h0c1.4,0,2.5,1.1,2.5,2.5V6z"/></g>
<g transform="translate(286,616) scale(3.7766666666667)"><path d="M5.5,6h-5V3c0-1.4,1.1-2.5,2.5-2.5h0c1.4,0,2.5,1.1,2.5,2.5V6z"/></g>
<g transform="translate(330,616) scale(3.7766666666667)"><circle cx="3" cy="3" r="2.5"/></g>
<g transform="translate(352,616) scale(3.7766666666667)"><path d="M3,5.5L3,5.5C1.6,5.5,0.5,4.4,0.5,3V0h5v3C5.5,4.4,4.4,5.5,3,5.5z"/></g>
<g transform="translate(374,616) scale(3.7766666666667)"><rect x="0.5" width="5" height="6"/></g>
<g transform="translate(418,616) scale(3.7766666666667)"><circle cx="3" cy="3" r="2.5"/></g>
<g transform="translate(528,616) scale(3.7766666666667)"><rect x="0.5" width="5" height="6"/></g>
<g transform="translate(594,616) scale(3.7766666666667)"><circle cx="3" cy="3" r="2.5"/></g>
<g transform="translate(638,616) scale(3.7766666666667)"><path d="M5.5,6h-5V3c0-1.4,1.1-2.5,2.5-2.5h0c1.4,0,2.5,1.1,2.5,2.5V6z"/></g>
<g transform="translate(682,616) scale(3.7766666666667)"><path d="M3,5.5L3,5.5C1.6,5.5,0.5,4.4,0.5,3V0h5v3C5.5,4.4,4.4,5.5,3,5.5z"/></g>
<g transform="translate(748,616) scale(3.7766666666667)"><rect x="0.5" width="5" height="6"/></g>
<g transform="translate(770,616) scale(3.7766666666667)"><path d="M3,5.5L3,5.5C1.6,5.5,0.5,4.4,0.5,3V0h5v3C5.5,4.4,4.4,5.5,3,5.5z"/></g>
<g transform="translate(792,616) scale(3.7766666666667)"><rect x="0.5" width="5" height="6"/></g>
<g transform="translate(814,616) scale(3.7766666666667)"><path d="M5.5,6h-5V3c0-1.4,1.1-2.5,2.5-2.5h0c1.4,0,2.5,1.1,2.5,2.5V6z"/></g>
<g transform="translate(836,616) scale(3.7766666666667)"><circle cx="3" cy="3" r="2.5"/></g>
<g transform="translate(902,616) scale(3.7766666666667)"><path d="M3,5.5L3,5.5C1.6,5.5,0.5,4.4,0.5,3V0h5v3C5.5,4.4,4.4,5.5,3,5.5z"/></g>
<g transform="translate(924,616) scale(3.7766666666667)"><rect x="0.5" width="5" height="6"/></g>
<g transform="translate(44,638) scale(3.7766666666667)"><circle cx="3" cy="3" r="2.5"/></g>
<g transform="translate(110,638) scale(3.7766666666667)"><path d="M3,5.5L3,5.5C1.6,5.5,0.5,4.4,0.5,3V0h5v3C5.5,4.4,4.4,5.5,3,5.5z"/></g>
<g transform="translate(154,638) scale(3.7766666666667)"><path d="M3,5.5L3,5.5C1.6,5.5,0.5,4.4,0.5,3V0h5v3C5.5,4.4,4.4,5.5,3,5.5z"/></g>
<g transform="translate(198,638) scale(3.7766666666667)"><circle cx="3" cy="3" r="2.5"/></g>
<g transform="translate(220,638) scale(3.7766666666667)"><rect x="0.5" width="5" height="6"/></g>
<g transform="translate(242,638) scale(3.7766666666667)"><path d="M3,5.5L3,5.5C1.6,5.5,0.5,4.4,0.5,3V0h5v3C5.5,4.4,4.4,5.5,3,5.5z"/></g>
<g transform="translate(264,638) scale(3.7766666666667)"><circle cx="3" cy="3" r="2.5"/></g>
<g transform="translate(286,638) scale(3.7766666666667)"><path d="M3,5.5L3,5.5C1.6,5.5,0.5,4.4,0.5,3V0h5v3C5.5,4.4,4.4,5.5,3,5.5z"/></g>
<g transform="translate(308,638) scale(3.7766666666667)"><circle cx="3" cy="3" r="2.5"/></g>
<g transform="translate(374,638) scale(3.7766666666667)"><rect x="0.5" width="5" height="6"/></g>
<g transform="translate(462,638) scale(3.7766666666667)"><path d="M5.5,6h-5V3c0-1.4,1.1-2.5,2.5-2.5h0c1.4,0,2.5,1.1,2.5,2.5V6z"/></g>
<g transform="translate(484,638) scale(3.7766666666667)"><circle cx="3" cy="3" r="2.5"/></g>
<g transform="translate(506,638) scale(3.7766666666667)"><path d="M5.5,6h-5V3c0-1.4,1.1-2.5,2.5-2.5h0c1.4,0,2.5,1.1,2.5,2.5V6z"/></g>
<g transform="translate(528,638) scale(3.7766666666667)"><rect x="0.5" width="5" height="6"/></g>
<g transform="translate(550,638) scale(3.7766666666667)"><path d="M5.5,6h-5V3c0-1.4,1.1-2.5,2.5-2.5h0c1.4,0,2.5,1.1,2.5,2.5V6z"/></g>
<g transform="translate(616,638) scale(3.7766666666667)"><circle cx="3" cy="3" r="2.5"/></g>
<g transform="translate(638,638) scale(3.7766666666667)"><rect x="0.5" width="5" height="6"/></g>
<g transform="translate(660,638) scale(3.7766666666667)"><circle cx="3" cy="3" r="2.5"/></g>
<g transform="translate(726,638) scale(3.7766666666667)"><path d="M5.5,6h-5V3c0-1.4,1.1-2.5,2.5-2.5h0c1.4,0,2.5,1.1,2.5,2.5V6z"/></g>
<g transform="translate(748,638) scale(3.7766666666667)"><rect x="0.5" width="5" height="6"/></g>
<g transform="translate(792,638) scale(3.7766666666667)"><path d="M3,5.5L3,5.5C1.6,5.5,0.5,4.4,0.5,3V0h5v3C5.5,4.4,4.4,5.5,3,5.5z"/></g>
<g transform="translate(814,638) scale(3.7766666666667)"><path d="M3,5.5L3,5.5C1.6,5.5,0.5,4.4,0.5,3V0h5v3C5.5,4.4,4.4,5.5,3,5.5z"/></g>
<g transform="translate(858,638) scale(3.7766666666667)"><path d="M5.5,6h-5V3c0-1.4,1.1-2.5,2.5-2.5h0c1.4,0,2.5,1.1,2.5,2.5V6z"/></g>
<g transform="translate(924,638) scale(3.7766666666667)"><rect x="0.5" width="5" height="6"/></g>
<g transform="translate(66,660) scale(3.7766666666667)"><path d="M5.5,6h-5V3c0-1.4,1.1-2.5,2.5-2.5h0c1.4,0,2.5,1.1,2.5,2.5V6z"/></g>
<g transform="translate(176,660) scale(3.7766666666667)"><circle cx="3" cy="3" r="2.5"/></g>
<g transform="translate(220,660) scale(3.7766666666667)"><path d="M3,5.5L3,5.5C1.6,5.5,0.5,4.4,0.5,3V0h5v3C5.5,4.4,4.4,5.5,3,5.5z"/></g>
<g transform="translate(330,660) scale(3.7766666666667)"><path d="M5.5,6h-5V3c0-1.4,1.1-2.5,2.5-2.5h0c1.4,0,2.5,1.1,2.5,2.5V6z"/></g>
<g transform="translate(374,660) scale(3.7766666666667)"><path d="M3,5.5L3,5.5C1.6,5.5,0.5,4.4,0.5,3V0h5v3C5.5,4.4,4.4,5.5,3,5.5z"/></g>
<g transform="translate(418,660) scale(3.7766666666667)"><circle cx="3" cy="3" r="2.5"/></g>
<g transform="translate(462,660) scale(3.7766666666667)"><path d="M3,5.5L3,5.5C1.6,5.5,0.5,4.4,0.5,3V0h5v3C5.5,4.4,4.4,5.5,3,5.5z"/></g>
<g transform="translate(506,660) scale(3.7766666666667)"><path d="M3,5.5L3,5.5C1.6,5.5,0.5,4.4,0.5,3V0h5v3C5.5,4.4,4.4,5.5,3,5.5z"/></g>
<g transform="translate(528,660) scale(3.7766666666667)"><path d="M3,5.5L3,5.5C1.6,5.5,0.5,4.4,0.5,3V0h5v3C5.5,4.4,4.4,5.5,3,5.5z"/></g>
<g transform="translate(550,660) scale(3.7766666666667)"><path d="M3,5.5L3,5.5C1.6,5.5,0.5,4.4,0.5,3V0h5v3C5.5,4.4,4.4,5.5,3,5.5z"/></g>
<g transform="translate(572,660) scale(3.7766666666667)"><circle cx="3" cy="3" r="2.5"/></g>
<g transform="translate(594,660) scale(3.7766666666667)"><path d="M5.5,6h-5V3c0-1.4,1.1-2.5,2.5-2.5h0c1.4,0,2.5,1.1,2.5,2.5V6z"/></g>
<g transform="translate(638,660) scale(3.7766666666667)"><rect x="0.5" width="5" height="6"/></g>
<g transform="translate(682,660) scale(3.7766666666667)"><path d="M5.5,6h-5V3c0-1.4,1.1-2.5,2.5-2.5h0c1.4,0,2.5,1.1,2.5,2.5V6z"/></g>
<g transform="translate(726,660) scale(3.7766666666667)"><rect x="0.5" width="5" height="6"/></g>
<g transform="translate(748,660) scale(3.7766666666667)"><rect x="0.5" width="5" height="6"/></g>
<g transform="translate(858,660) scale(3.7766666666667)"><path d="M3,5.5L3,5.5C1.6,5.5,0.5,4.4,0.5,3V0h5v3C5.5,4.4,4.4,5.5,3,5.5z"/></g>
<g transform="translate(880,660) scale(3.7766666666667)"><path d="M5.5,6h-5V3c0-1.4,1.1-2.5,2.5-2.5h0c1.4,0,2.5,1.1,2.5,2.5V6z"/></g>
<g transform="translate(902,660) scale(3.7766666666667)"><circle cx="3" cy="3" r="2.5"/></g>
<g transform="translate(924,660) scale(3.7766666666667)"><path d="M3,5.5L3,5.5C1.6,5.5,0.5,4.4,0.5,3V0h5v3C5.5,4.4,4.4,5.5,3,5.5z"/></g>
<g transform="translate(44,682) scale(3.7766666666667)"><path d="M5.5,6h-5V3c0-1.4,1.1-2.5,2.5-2.5h0c1.4,0,2.5,1.1,2.5,2.5V6z"/></g>
<g transform="translate(66,682) scale(3.7766666666667)"><path d="M3,5.5L3,5.5C1.6,5.5,0.5,4.4,0.5,3V0h5v3C5.5,4.4,4.4,5.5,3,5.5z"/></g>
<g transform="translate(88,682) scale(3.7766666666667)"><circle cx="3" cy="3" r="2.5"/></g>
<g transform="translate(110,682) scale(3.7766666666667)"><path d="M5.5,6h-5V3c0-1.4,1.1-2.5,2.5-2.5h0c1.4,0,2.5,1.1,2.5,2.5V6z"/></g>
<g transform="translate(132,682) scale(3.7766666666667)"><path d="M5.5,6h-5V3c0-1.4,1.1-2.5,2.5-2.5h0c1.4,0,2.5,1.1,2.5,2.5V6z"/></g>
<g transform="translate(198,682) scale(3.7766666666667)"><circle cx="3" cy="3" r="2.5"/></g>
<g transform="translate(286,682) scale(3.7766666666667)"><path d="M5.5,6h-5V3c0-1.4,1.1-2.5,2.5-2.5h0c1.4,0,2.5,1.1,2.5,2.5V6z"/></g>
<g transform="translate(308,682) scale(3.7766666666667)"><circle cx="3" cy="3" r="2.5"/></g>
<g transform="translate(330,682) scale(3.7766666666667)"><path d="M3,5.5L3,5.5C1.6,5.5,0.5,4.4,0.5,3V0h5v3C5.5,4.4,4.4,5.5,3,5.5z"/></g>
<g transform="translate(352,682) scale(3.7766666666667)"><path d="M5.5,6h-5V3c0-1.4,1.1-2.5,2.5-2.5h0c1.4,0,2.5,1.1,2.5,2.5V6z"/></g>
<g transform="translate(396,682) scale(3.7766666666667)"><path d="M5.5,6h-5V3c0-1.4,1.1-2.5,2.5-2.5h0c1.4,0,2.5,1.1,2.5,2.5V6z"/></g>
<g transform="translate(594,682) scale(3.7766666666667)"><rect x="0.5" width="5" height="6"/></g>
<g transform="translate(638,682) scale(3.7766666666667)"><rect x="0.5" width="5" height="6"/></g>
<g transform="translate(682,682) scale(3.7766666666667)"><rect x="0.5" width="5" height="6"/></g>
<g transform="translate(726,682) scale(3.7766666666667)"><path d="M3,5.5L3,5.5C1.6,5.5,0.5,4.4,0.5,3V0h5v3C5.5,4.4,4.4,5.5,3,5.5z"/></g>
<g transform="translate(748,682) scale(3.7766666666667)"><rect x="0.5" width="5" height="6"/></g>
<g transform="translate(792,682) scale(3.7766666666667)"><path d="M5.5,6h-5V3c0-1.4,1.1-2.5,2.5-2.5h0c1.4,0,2.5,1.1,2.5,2.5V6z"/></g>
<g transform="translate(814,682) scale(3.7766666666667)"><circle cx="3" cy="3" r="2.5"/></g>
<g transform="translate(836,682) scale(3.7766666666667)"><circle cx="3" cy="3" r="2.5"/></g>
<g transform="translate(880,682) scale(3.7766666666667)"><path d="M3,5.5L3,5.5C1.6,5.5,0.5,4.4,0.5,3V0h5v3C5.5,4.4,4.4,5.5,3,5.5z"/></g>
<g transform="translate(44,704) scale(3.7766666666667)"><rect x="0.5" width="5" height="6"/></g>
<g transform="translate(110,704) scale(3.7766666666667)"><rect x="0.5" width="5" height="6"/></g>
<g transform="translate(132,704) scale(3.7766666666667)"><path d="M3,5.5L3,5.5C1.6,5.5,0.5,4.4,0.5,3V0h5v3C5.5,4.4,4.4,5.5,3,5.5z"/></g>
<g transform="translate(154,704) scale(3.7766666666667)"><path d="M5.5,6h-5V3c0-1.4,1.1-2.5,2.5-2.5h0c1.4,0,2.5,1.1,2.5,2.5V6z"/></g>
<g transform="translate(176,704) scale(3.7766666666667)"><circle cx="3" cy="3" r="2.5"/></g>
<g transform="translate(242,704) scale(3.7766666666667)"><circle cx="3" cy="3" r="2.5"/></g>
<g transform="translate(264,704) scale(3.7766666666667)"><path d="M5.5,6h-5V3c0-1.4,1.1-2.5,2.5-2.5h0c1.4,0,2.5,1.1,2.5,2.5V6z"/></g>
<g transform="translate(286,704) scale(3.7766666666667)"><rect x="0.5" width="5" height="6"/></g>
<g transform="translate(352,704) scale(3.7766666666667)"><path d="M3,5.5L3,5.5C1.6,5.5,0.5,4.4,0.5,3V0h5v3C5.5,4.4,4.4,5.5,3,5.5z"/></g>
<g transform="translate(396,704) scale(3.7766666666667)"><path d="M3,5.5L3,5.5C1.6,5.5,0.5,4.4,0.5,3V0h5v3C5.5,4.4,4.4,5.5,3,5.5z"/></g>
<g transform="translate(418,704) scale(3.7766666666667)"><circle cx="3" cy="3" r="2.5"/></g>
<g transform="translate(462,704) scale(3.7766666666667)"><path d="M5.5,6h-5V3c0-1.4,1.1-2.5,2.5-2.5h0c1.4,0,2.5,1.1,2.5,2.5V6z"/></g>
<g transform="translate(506,704) scale(3.7766666666667)"><path d="M5.5,6h-5V3c0-1.4,1.1-2.5,2.5-2.5h0c1.4,0,2.5,1.1,2.5,2.5V6z"/></g>
<g transform="translate(550,704) scale(3.7766666666667)"><path d="M5.5,6h-5V3c0-1.4,1.1-2.5,2.5-2.5h0c1.4,0,2.5,1.1,2.5,2.5V6z"/></g>
<g transform="translate(572,704) scale(3.7766666666667)"><circle cx="3" cy="3" r="2.5"/></g>
<g transform="translate(594,704) scale(3.7766666666667)"><path d="M3,5.5L3,5.5C1.6,5.5,0.5,4.4,0.5,3V0h5v3C5.5,4.4,4.4,5.5,3,5.5z"/></g>
<g transform="translate(638,704) scale(3.7766666666667)"><rect x="0.5" width="5" height="6"/></g>
<g transform="translate(682,704) scale(3.7766666666667)"><rect x="0.5" width="5" height="6"/></g>
<g transform="translate(704,704) scale(3.7766666666667)"><circle cx="3" cy="3" r="2.5"/></g>
<g transform="translate(748,704) scale(3.7766666666667)"><path d="M3,5.5L3,5.5C1.6,5.5,0.5,4.4,0.5,3V0h5v3C5.5,4.4,4.4,5.5,3,5.5z"/></g>
<g transform="translate(792,704) scale(3.7766666666667)"><rect x="0.5" width="5" height="6"/></g>
<g transform="translate(858,704) scale(3.7766666666667)"><circle cx="3" cy="3" r="2.5"/></g>
<g transform="translate(924,704) scale(3.7766666666667)"><circle cx="3" cy="3" r="2.5"/></g>
<g transform="translate(44,726) scale(3.7766666666667)"><rect x="0.5" width="5" height="6"/></g>
<g transform="translate(110,726) scale(3.7766666666667)"><rect x="0.5" width="5" height="6"/></g>
<g transform="translate(154,726) scale(3.7766666666667)"><rect x="0.5" width="5" height="6"/></g>
<g transform="translate(220,726) scale(3.7766666666667)"><path d="M5.5,6h-5V3c0-1.4,1.1-2.5,2.5-2.5h0c1.4,0,2.5,1.1,2.5,2.5V6z"/></g>
<g transform="translate(264,726) scale(3.7766666666667)"><path d="M3,5.5L3,5.5C1.6,5.5,0.5,4.4,0.5,3V0h5v3C5.5,4.4,4.4,5.5,3,5.5z"/></g>
<g transform="translate(286,726) scale(3.7766666666667)"><rect x="0.5" width="5" height="6"/></g>
<g transform="translate(330,726) scale(3.7766666666667)"><circle cx="3" cy="3" r="2.5"/></g>
<g transform="translate(374,726) scale(3.7766666666667)"><path d="M5.5,6h-5V3c0-1.4,1.1-2.5,2.5-2.5h0c1.4,0,2.5,1.1,2.5,2.5V6z"/></g>
<g transform="translate(440,726) scale(3.7766666666667)"><circle cx="3" cy="3" r="2.5"/></g>
<g transform="translate(462,726) scale(3.7766666666667)"><path d="M3,5.5L3,5.5C1.6,5.5,0.5,4.4,0.5,3V0h5v3C5.5,4.4,4.4,5.5,3,5.5z"/></g>
<g transform="translate(506,726) scale(3.7766666666667)"><path d="M3,5.5L3,5.5C1.6,5.5,0.5,4.4,0.5,3V0h5v3C5.5,4.4,4.4,5.5,3,5.5z"/></g>
<g transform="translate(528,726) scale(3.7766666666667)"><circle cx="3" cy="3" r="2.5"/></g>
<g transform="translate(550,726) scale(3.7766666666667)"><rect x="0.5" width="5" height="6"/></g>
<g transform="translate(616,726) scale(3.7766666666667)"><circle cx="3" cy="3" r="2.5"/></g>
<g transform="translate(638,726) scale(3.7766666666667)"><rect x="0.5" width="5" height="6"/></g>
<g transform="translate(682,726) scale(3.7766666666667)"><rect x="0.5" width="5" height="6"/></g>
<g transform="translate(792,726) scale(3.7766666666667)"><rect x="0.5" width="5" height="6"/></g>
<g transform="translate(814,726) scale(3.7766666666667)"><path d="M5.5,6h-5V3c0-1.4,1.1-2.5,2.5-2.5h0c1.4,0,2.5,1.1,2.5,2.5V6z"/></g>
<g transform="translate(902,726) scale(3.7766666666667)"><path d="M5.5,6h-5V3c0-1.4,1.1-2.5,2.5-2.5h0c1.4,0,2.5,1.1,2.5,2.5V6z"/></g>
<g transform="translate(44,748) scale(3.7766666666667)"><path d="M3,5.5L3,5.5C1.6,5.5,0.5,4.4,0.5,3V0h5v3C5.5,4.4,4.4,5.5,3,5.5z"/></g>
<g transform="translate(110,748) scale(3.7766666666667)"><path d="M3,5.5L3,5.5C1.6,5.5,0.5,4.4,0.5,3V0h5v3C5.5,4.4,4.4,5.5,3,5.5z"/></g>
<g transform="translate(132,748) scale(3.7766666666667)"><circle cx="3" cy="3" r="2.5"/></g>
<g transform="translate(154,748) scale(3.7766666666667)"><path d="M3,5.5L3,5.5C1.6,5.5,0.5,4.4,0.5,3V0h5v3C5.5,4.4,4.4,5.5,3,5.5z"/></g>
<g transform="translate(176,748) scale(3.7766666666667)"><circle cx="3" cy="3" r="2.5"/></g>
<g transform="translate(198,748) scale(3.7766666666667)"><circle cx="3" cy="3" r="2.5"/></g>
<g transform="translate(220,748) scale(3.7766666666667)"><rect x="0.5" width="5" height="6"/></g>
<g transform="translate(242,748) scale(3.7766666666667)"><circle cx="3" cy="3" r="2.5"/></g>
<g transform="translate(286,748) scale(3.7766666666667)"><path d="M3,5.5L3,5.5C1.6,5.5,0.5,4.4,0.5,3V0h5v3C5.5,4.4,4.4,5.5,3,5.5z"/></g>
<g transform="translate(308,748) scale(3.7766666666667)"><circle cx="3" cy="3" r="2.5"/></g>
<g transform="translate(374,748) scale(3.7766666666667)"><path d="M3,5.5L3,5.5C1.6,5.5,0.5,4.4,0.5,3V0h5v3C5.5,4.4,4.4,5.5,3,5.5z"/></g>
<g transform="translate(418,748) scale(3.7766666666667)"><circle cx="3" cy="3" r="2.5"/></g>
<g transform="translate(484,748) scale(3.7766666666667)"><path d="M5.5,6h-5V3c0-1.4,1.1-2.5,2.5-2.5h0c1.4,0,2.5,1.1,2.5,2.5V6z"/></g>
<g transform="translate(550,748) scale(3.7766666666667)"><rect x="0.5" width="5" height="6"/></g>
<g transform="translate(594,748) scale(3.7766666666667)"><circle cx="3" cy="3" r="2.5"/></g>
<g transform="translate(638,748) scale(3.7766666666667)"><rect x="0.5" width="5" height="6"/></g>
<g transform="translate(660,748) scale(3.7766666666667)"><circle cx="3" cy="3" r="2.5"/></g>
<g transform="translate(682,748) scale(3.7766666666667)"><rect x="0.5" width="5" height="6"/></g>
<g transform="translate(704,748) scale(3.7766666666667)"><path d="M5.5,6h-5V3c0-1.4,1.1-2.5,2.5-2.5h0c1.4,0,2.5,1.1,2.5,2.5V6z"/></g>
<g transform="translate(748,748) scale(3.7766666666667)"><path d="M5.5,6h-5V3c0-1.4,1.1-2.5,2.5-2.5h0c1.4,0,2.5,1.1,2.5,2.5V6z"/></g>
<g transform="translate(770,748) scale(3.7766666666667)"><circle cx="3" cy="3" r="2.5"/></g>
<g transform="translate(792,748) scale(3.7766666666667)"><path d="M3,5.5L3,5.5C1.6,5.5,0.5,4.4,0.5,3V0h5v3C5.5,4.4,4.4,5.5,3,5.5z"/></g>
<g transform="translate(814,748) scale(3.7766666666667)"><path d="M3,5.5L3,5.5C1.6,5.5,0.5,4.4,0.5,3V0h5v3C5.5,4.4,4.4,5.5,3,5.5z"/></g>
<g transform="translate(836,748) scale(3.7766666666667)"><path d="M5.5,6h-5V3c0-1.4,1.1-2.5,2.5-2.5h0c1.4,0,2.5,1.1,2.5,2.5V6z"/></g>
<g transform="translate(880,748) scale(3.7766666666667)"><circle cx="3" cy="3" r="2.5"/></g>
<g transform="translate(902,748) scale(3.7766666666667)"><rect x="0.5" width="5" height="6"/></g>
<g transform="translate(220,770) scale(3.7766666666667)"><rect x="0.5" width="5" height="6"/></g>
<g transform="translate(264,770) scale(3.7766666666667)"><circle cx="3" cy="3" r="2.5"/></g>
<g transform="translate(330,770) scale(3.7766666666667)"><circle cx="3" cy="3" r="2.5"/></g>
<g transform="translate(396,770) scale(3.7766666666667)"><circle cx="3" cy="3" r="2.5"/></g>
<g transform="translate(462,770) scale(3.7766666666667)"><path d="M5.5,6h-5V3c0-1.4,1.1-2.5,2.5-2.5h0c1.4,0,2.5,1.1,2.5,2.5V6z"/></g>
<g transform="translate(484,770) scale(3.7766666666667)"><path d="M3,5.5L3,5.5C1.6,5.5,0.5,4.4,0.5,3V0h5v3C5.5,4.4,4.4,5.5,3,5.5z"/></g>
<g transform="translate(506,770) scale(3.7766666666667)"><circle cx="3" cy="3" r="2.5"/></g>
<g transform="translate(528,770) scale(3.7766666666667)"><path d="M5.5,6h-5V3c0-1.4,1.1-2.5,2.5-2.5h0c1.4,0,2.5,1.1,2.5,2.5V6z"/></g>
<g transform="translate(550,770) scale(3.7766666666667)"><path d="M3,5.5L3,5.5C1.6,5.5,0.5,4.4,0.5,3V0h5v3C5.5,4.4,4.4,5.5,3,5.5z"/></g>
<g transform="translate(638,770) scale(3.7766666666667)"><path d="M3,5.5L3,5.5C1.6,5.5,0.5,4.4,0.5,3V0h5v3C5.5,4.4,4.4,5.5,3,5.5z"/></g>
<g transform="translate(682,770) scale(3.7766666666667)"><rect x="0.5" width="5" height="6"/></g>
<g transform="translate(704,770) scale(3.7766666666667)"><rect x="0.5" width="5" height="6"/></g>
<g transform="translate(748,770) scale(3.7766666666667)"><rect x="0.5" width="5" height="6"/></g>
<g transform="translate(836,770) scale(3.7766666666667)"><rect x="0.5" width="5" height="6"/></g>
<g transform="translate(858,770) scale(3.7766666666667)"><circle cx="3" cy="3" r="2.5"/></g>
<g transform="translate(902,770) scale(3.7766666666667)"><path d="M3,5.5L3,5.5C1.6,5.5,0.5,4.4,0.5,3V0h5v3C5.5,4.4,4.4,5.5,3,5.5z"/></g>
<g transform="translate(924,770) scale(3.7766666666667)"><circle cx="3" cy="3" r="2.5"/></g>
<g transform="translate(220,792) scale(3.7766666666667)"><rect x="0.5" width="5" height="6"/></g>
<g transform="translate(308,792) scale(3.7766666666667)"><path d="M5.5,6h-5V3c0-1.4,1.1-2.5,2.5-2.5h0c1.4,0,2.5,1.1,2.5,2.5V6z"/></g>
<g transform="translate(352,792) scale(3.7766666666667)"><circle cx="3" cy="3" r="2.5"/></g>
<g transform="translate(374,792) scale(3.7766666666667)"><circle cx="3" cy="3" r="2.5"/></g>
<g transform="translate(418,792) scale(3.7766666666667)"><circle cx="3" cy="3" r="2.5"/></g>
<g transform="translate(440,792) scale(3.7766666666667)"><path d="M5.5,6h-5V3c0-1.4,1.1-2.5,2.5-2.5h0c1.4,0,2.5,1.1,2.5,2.5V6z"/></g>
<g transform="translate(462,792) scale(3.7766666666667)"><path d="M3,5.5L3,5.5C1.6,5.5,0.5,4.4,0.5,3V0h5v3C5.5,4.4,4.4,5.5,3,5.5z"/></g>
<g transform="translate(528,792) scale(3.7766666666667)"><path d="M3,5.5L3,5.5C1.6,5.5,0.5,4.4,0.5,3V0h5v3C5.5,4.4,4.4,5.5,3,5.5z"/></g>
<g transform="translate(660,792) scale(3.7766666666667)"><circle cx="3" cy="3" r="2.5"/></g>
<g transform="translate(682,792) scale(3.7766666666667)"><path d="M3,5.5L3,5.5C1.6,5.5,0.5,4.4,0.5,3V0h5v3C5.5,4.4,4.4,5.5,3,5.5z"/></g>
<g transform="translate(704,792) scale(3.7766666666667)"><path d="M3,5.5L3,5.5C1.6,5.5,0.5,4.4,0.5,3V0h5v3C5.5,4.4,4.4,5.5,3,5.5z"/></g>
<g transform="translate(726,792) scale(3.7766666666667)"><circle cx="3" cy="3" r="2.5"/></g>
<g transform="translate(748,792) scale(3.7766666666667)"><rect x="0.5" width="5" height="6"/></g>
<g transform="translate(792,792) scale(3.7766666666667)"><circle cx="3" cy="3" r="2.5"/></g>
<g transform="translate(836,792) scale(3.7766666666667)"><rect x="0.5" width="5" height="6"/></g>
<g transform="translate(220,814) scale(3.7766666666667)"><rect x="0.5" width="5" height="6"/></g>
<g transform="translate(242,814) scale(3.7766666666667)"><circle cx="3" cy="3" r="2.5"/></g>
<g transform="translate(264,814) scale(3.7766666666667)"><path d="M5.5,6h-5V3c0-1.4,1.1-2.5,2.5-2.5h0c1.4,0,2.5,1.1,2.5,2.5V6z"/></g>
<g transform="translate(308,814) scale(3.7766666666667)"><rect x="0.5" width="5" height="6"/></g>
<g transform="translate(330,814) scale(3.7766666666667)"><path d="M5.5,6h-5V3c0-1.4,1.1-2.5,2.5-2.5h0c1.4,0,2.5,1.1,2.5,2.5V6z"/></g>
<g transform="translate(396,814) scale(3.7766666666667)"><circle cx="3" cy="3" r="2.5"/></g>
<g transform="translate(440,814) scale(3.7766666666667)"><path d="M3,5.5L3,5.5C1.6,5.5,0.5,4.4,0.5,3V0h5v3C5.5,4.4,4.4,5.5,3,5.5z"/></g>
<g transform="translate(484,814) scale(3.7766666666667)"><circle cx="3" cy="3" r="2.5"/></g>
<g transform="translate(572,814) scale(3.7766666666667)"><path d="M5.5,6h-5V3c0-1.4,1.1-2.5,2.5-2.5h0c1.4,0,2.5,1.1,2.5,2.5V6z"/></g>
<g transform="translate(616,814) scale(3.7766666666667)"><circle cx="3" cy="3" r="2.5"/></g>
<g transform="translate(748,814) scale(3.7766666666667)"><rect x="0.5" width="5" height="6"/></g>
<g transform="translate(836,814) scale(3.7766666666667)"><rect x="0.5" width="5" height="6"/></g>
<g transform="translate(858,814) scale(3.7766666666667)"><path d="M5.5,6h-5V3c0-1.4,1.1-2.5,2.5-2.5h0c1.4,0,2.5,1.1,2.5,2.5V6z"/></g>
<g transform="translate(880,814) scale(3.7766666666667)"><path d="M5.5,6h-5V3c0-1.4,1.1-2.5,2.5-2.5h0c1.4,0,2.5,1.1,2.5,2.5V6z"/></g>
<g transform="translate(220,836) scale(3.7766666666667)"><rect x="0.5" width="5" height="6"/></g>
<g transform="translate(264,836) scale(3.7766666666667)"><rect x="0.5" width="5" height="6"/></g>
<g transform="translate(308,836) scale(3.7766666666667)"><rect x="0.5" width="5" height="6"/></g>
<g transform="translate(330,836) scale(3.7766666666667)"><rect x="0.5" width="5" height="6"/></g>
<g transform="translate(352,836) scale(3.7766666666667)"><circle cx="3" cy="3" r="2.5"/></g>
<g transform="translate(418,836) scale(3.7766666666667)"><circle cx="3" cy="3" r="2.5"/></g>
<g transform="translate(462,836) scale(3.7766666666667)"><circle cx="3" cy="3" r="2.5"/></g>
<g transform="translate(506,836) scale(3.7766666666667)"><path d="M5.5,6h-5V3c0-1.4,1.1-2.5,2.5-2.5h0c1.4,0,2.5,1.1,2.5,2.5V6z"/></g>
<g transform="translate(528,836) scale(3.7766666666667)"><circle cx="3" cy="3" r="2.5"/></g>
<g transform="translate(550,836) scale(3.7766666666667)"><circle cx="3" cy="3" r="2.5"/></g>
<g transform="translate(572,836) scale(3.7766666666667)"><path d="M3,5.5L3,5.5C1.6,5.5,0.5,4.4,0.5,3V0h5v3C5.5,4.4,4.4,5.5,3,5.5z"/></g>
<g transform="translate(638,836) scale(3.7766666666667)"><circle cx="3" cy="3" r="2.5"/></g>
<g transform="translate(682,836) scale(3.7766666666667)"><circle cx="3" cy="3" r="2.5"/></g>
<g transform="translate(726,836) scale(3.7766666666667)"><path d="M5.5,6h-5V3c0-1.4,1.1-2.5,2.5-2.5h0c1.4,0,2.5,1.1,2.5,2.5V6z"/></g>
<g transform="translate(748,836) scale(3.7766666666667)"><rect x="0.5" width="5" height="6"/></g>
<g transform="translate(770,836) scale(3.7766666666667)"><path d="M5.5,6h-5V3c0-1.4,1.1-2.5,2.5-2.5h0c1.4,0,2.5,1.1,2.5,2.5V6z"/></g>
<g transform="translate(792,836) scale(3.7766666666667)"><circle cx="3" cy="3" r="2.5"/></g>
<g transform="translate(814,836) scale(3.7766666666667)"><path d="M5.5,6h-5V3c0-1.4,1.1-2.5,2.5-2.5h0c1.4,0,2.5,1.1,2.5,2.5V6z"/></g>
<g transform="translate(836,836) scale(3.7766666666667)"><path d="M3,5.5L3,5.5C1.6,5.5,0.5,4.4,0.5,3V0h5v3C5.5,4.4,4.4,5.5,3,5.5z"/></g>
<g transform="translate(858,836) scale(3.7766666666667)"><path d="M3,5.5L3,5.5C1.6,5.5,0.5,4.4,0.5,3V0h5v3C5.5,4.4,4.4,5.5,3,5.5z"/></g>
<g transform="translate(880,836) scale(3.7766666666667)"><rect x="0.5" width="5" height="6"/></g>
<g transform="translate(220,858) scale(3.7766666666667)"><rect x="0.5" width="5" height="6"/></g>
<g transform="translate(242,858) scale(3.7766666666667)"><circle cx="3" cy="3" r="2.5"/></g>
<g transform="translate(264,858) scale(3.7766666666667)"><path d="M3,5.5L3,5.5C1.6,5.5,0.5,4.4,0.5,3V0h5v3C5.5,4.4,4.4,5.5,3,5.5z"/></g>
<g transform="translate(308,858) scale(3.7766666666667)"><rect x="0.5" width="5" height="6"/></g>
<g transform="translate(330,858) scale(3.7766666666667)"><rect x="0.5" width="5" height="6"/></g>
<g transform="translate(374,858) scale(3.7766666666667)"><path d="M5.5,6h-5V3c0-1.4,1.1-2.5,2.5-2.5h0c1.4,0,2.5,1.1,2.5,2.5V6z"/></g>
<g transform="translate(440,858) scale(3.7766666666667)"><circle cx="3" cy="3" r="2.5"/></g>
<g transform="translate(506,858) scale(3.7766666666667)"><rect x="0.5" width="5" height="6"/></g>
<g transform="translate(616,858) scale(3.7766666666667)"><path d="M5.5,6h-5V3c0-1.4,1.1-2.5,2.5-2.5h0c1.4,0,2.5,1.1,2.5,2.5V6z"/></g>
<g transform="translate(660,858) scale(3.7766666666667)"><path d="M5.5,6h-5V3c0-1.4,1.1-2.5,2.5-2.5h0c1.4,0,2.5,1.1,2.5,2.5V6z"/></g>
<g transform="translate(704,858) scale(3.7766666666667)"><path d="M5.5,6h-5V3c0-1.4,1.1-2.5,2.5-2.5h0c1.4,0,2.5,1.1,2.5,2.5V6z"/></g>
<g transform="translate(726,858) scale(3.7766666666667)"><path d="M3,5.5L3,5.5C1.6,5.5,0.5,4.4,0.5,3V0h5v3C5.5,4.4,4.4,5.5,3,5.5z"/></g>
<g transform="translate(748,858) scale(3.7766666666667)"><path d="M3,5.5L3,5.5C1.6,5.5,0.5,4.4,0.5,3V0h5v3C5.5,4.4,4.4,5.5,3,5.5z"/></g>
<g transform="translate(770,858) scale(3.7766666666667)"><rect x="0.5" width="5" height="6"/></g>
<g transform="translate(814,858) scale(3.7766666666667)"><rect x="0.5" width="5" height="6"/></g>
<g transform="translate(880,858) scale(3.7766666666667)"><rect x="0.5" width="5" height="6"/></g>
<g transform="translate(902,858) scale(3.7766666666667)"><path d="M5.5,6h-5V3c0-1.4,1.1-2.5,2.5-2.5h0c1.4,0,2.5,1.1,2.5,2.5V6z"/></g>
<g transform="translate(924,858) scale(3.7766666666667)"><circle cx="3" cy="3" r="2.5"/></g>
<g transform="translate(220,880) scale(3.7766666666667)"><rect x="0.5" width="5" height="6"/></g>
<g transform="translate(286,880) scale(3.7766666666667)"><circle cx="3" cy="3" r="2.5"/></g>
<g transform="translate(308,880) scale(3.7766666666667)"><path d="M3,5.5L3,5.5C1.6,5.5,0.5,4.4,0.5,3V0h5v3C5.5,4.4,4.4,5.5,3,5.5z"/></g>
<g transform="translate(330,880) scale(3.7766666666667)"><rect x="0.5" width="5" height="6"/></g>
<g transform="translate(352,880) scale(3.7766666666667)"><circle cx="3" cy="3" r="2.5"/></g>
<g transform="translate(374,880) scale(3.7766666666667)"><rect x="0.5" width="5" height="6"/></g>
<g transform="translate(506,880) scale(3.7766666666667)"><path d="M3,5.5L3,5.5C1.6,5.5,0.5,4.4,0.5,3V0h5v3C5.5,4.4,4.4,5.5,3,5.5z"/></g>
<g transform="translate(572,880) scale(3.7766666666667)"><path d="M5.5,6h-5V3c0-1.4,1.1-2.5,2.5-2.5h0c1.4,0,2.5,1.1,2.5,2.5V6z"/></g>
<g transform="translate(594,880) scale(3.7766666666667)"><circle cx="3" cy="3" r="2.5"/></g>
<g transform="translate(616,880) scale(3.7766666666667)"><rect x="0.5" width="5" height="6"/></g>
<g transform="translate(638,880) scale(3.7766666666667)"><circle cx="3" cy="3" r="2.5"/></g>
<g transform="translate(660,880) scale(3.7766666666667)"><path d="M3,5.5L3,5.5C1.6,5.5,0.5,4.4,0.5,3V0h5v3C5.5,4.4,4.4,5.5,3,5.5z"/></g>
<g transform="translate(704,880) scale(3.7766666666667)"><path d="M3,5.5L3,5.5C1.6,5.5,0.5,4.4,0.5,3V0h5v3C5.5,4.4,4.4,5.5,3,5.5z"/></g>
<g transform="translate(770,880) scale(3.7766666666667)"><path d="M3,5.5L3,5.5C1.6,5.5,0.5,4.4,0.5,3V0h5v3C5.5,4.4,4.4,5.5,3,5.5z"/></g>
<g transform="translate(792,880) scale(3.7766666666667)"><path d="M5.5,6h-5V3c0-1.4,1.1-2.5,2.5-2.5h0c1.4,0,2.5,1.1,2.5,2.5V6z"/></g>
<g transform="translate(814,880) scale(3.7766666666667)"><path d="M3,5.5L3,5.5C1.6,5.5,0.5,4.4,0.5,3V0h5v3C5.5,4.4,4.4,5.5,3,5.5z"/></g>
<g transform="translate(836,880) scale(3.7766666666667)"><path d="M5.5,6h-5V3c0-1.4,1.1-2.5,2.5-2.5h0c1.4,0,2.5,1.1,2.5,2.5V6z"/></g>
<g transform="translate(858,880) scale(3.7766666666667)"><circle cx="3" cy="3" r="2.5"/></g>
<g transform="translate(880,880) scale(3.7766666666667)"><rect x="0.5" width="5" height="6"/></g>
<g transform="translate(902,880) scale(3.7766666666667)"><rect x="0.5" width="5" height="6"/></g>
<g transform="translate(220,902) scale(3.7766666666667)"><path d="M3,5.5L3,5.5C1.6,5.5,0.5,4.4,0.5,3V0h5v3C5.5,4.4,4.4,5.5,3,5.5z"/></g>
<g transform="translate(264,902) scale(3.7766666666667)"><circle cx="3" cy="3" r="2.5"/></g>
<g transform="translate(330,902) scale(3.7766666666667)"><rect x="0.5" width="5" height="6"/></g>
<g transform="translate(374,902) scale(3.7766666666667)"><rect x="0.5" width="5" height="6"/></g>
<g transform="translate(396,902) scale(3.7766666666667)"><circle cx="3" cy="3" r="2.5"/></g>
<g transform="translate(418,902) scale(3.7766666666667)"><path d="M5.5,6h-5V3c0-1.4,1.1-2.5,2.5-2.5h0c1.4,0,2.5,1.1,2.5,2.5V6z"/></g>
<g transform="translate(528,902) scale(3.7766666666667)"><path d="M5.5,6h-5V3c0-1.4,1.1-2.5,2.5-2.5h0c1.4,0,2.5,1.1,2.5,2.5V6z"/></g>
<g transform="translate(572,902) scale(3.7766666666667)"><rect x="0.5" width="5" height="6"/></g>
<g transform="translate(616,902) scale(3.7766666666667)"><rect x="0.5" width="5" height="6"/></g>
<g transform="translate(748,902) scale(3.7766666666667)"><circle cx="3" cy="3" r="2.5"/></g>
<g transform="translate(792,902) scale(3.7766666666667)"><path d="M3,5.5L3,5.5C1.6,5.5,0.5,4.4,0.5,3V0h5v3C5.5,4.4,4.4,5.5,3,5.5z"/></g>
<g transform="translate(836,902) scale(3.7766666666667)"><rect x="0.5" width="5" height="6"/></g>
<g transform="translate(880,902) scale(3.7766666666667)"><rect x="0.5" width="5" height="6"/></g>
<g transform="translate(902,902) scale(3.7766666666667)"><path d="M3,5.5L3,5.5C1.6,5.5,0.5,4.4,0.5,3V0h5v3C5.5,4.4,4.4,5.5,3,5.5z"/></g>
<g transform="translate(308,924) scale(3.7766666666667)"><circle cx="3" cy="3" r="2.5"/></g>
<g transform="translate(330,924) scale(3.7766666666667)"><path d="M3,5.5L3,5.5C1.6,5.5,0.5,4.4,0.5,3V0h5v3C5.5,4.4,4.4,5.5,3,5.5z"/></g>
<g transform="translate(374,924) scale(3.7766666666667)"><path d="M3,5.5L3,5.5C1.6,5.5,0.5,4.4,0.5,3V0h5v3C5.5,4.4,4.4,5.5,3,5.5z"/></g>
<g transform="translate(418,924) scale(3.7766666666667)"><path d="M3,5.5L3,5.5C1.6,5.5,0.5,4.4,0.5,3V0h5v3C5.5,4.4,4.4,5.5,3,5.5z"/></g>
<g transform="translate(440,924) scale(3.7766666666667)"><circle cx="3" cy="3" r="2.5"/></g>
<g transform="translate(462,924) scale(3.7766666666667)"><circle cx="3" cy="3" r="2.5"/></g>
<g transform="translate(528,924) scale(3.7766666666667)"><path d="M3,5.5L3,5.5C1.6,5.5,0.5,4.4,0.5,3V0h5v3C5.5,4.4,4.4,5.5,3,5.5z"/></g>
<g transform="translate(572,924) scale(3.7766666666667)"><path d="M3,5.5L3,5.5C1.6,5.5,0.5,4.4,0.5,3V0h5v3C5.5,4.4,4.4,5.5,3,5.5z"/></g>
<g transform="translate(594,924) scale(3.7766666666667)"><circle cx="3" cy="3" r="2.5"/></g>
<g transform="translate(616,924) scale(3.7766666666667)"><path d="M3,5.5L3,5.5C1.6,5.5,0.5,4.4,0.5,3V0h5v3C5.5,4.4,4.4,5.5,3,5.5z"/></g>
<g transform="translate(638,924) scale(3.7766666666667)"><circle cx="3" cy="3" r="2.5"/></g>
<g transform="translate(682,924) scale(3.7766666666667)"><circle cx="3" cy="3" r="2.5"/></g>
<g transform="translate(726,924) scale(3.7766666666667)"><circle cx="3" cy="3" r="2.5"/></g>
<g transform="translate(814,924) scale(3.7766666666667)"><circle cx="3" cy="3" r="2.5"/></g>
<g transform="translate(836,924) scale(3.7766666666667)"><path d="M3,5.5L3,5.5C1.6,5.5,0.5,4.4,0.5,3V0h5v3C5.5,4.4,4.4,5.5,3,5.5z"/></g>
<g transform="translate(880,924) scale(3.7766666666667)"><path d="M3,5.5L3,5.5C1.6,5.5,0.5,4.4,0.5,3V0h5v3C5.5,4.4,4.4,5.5,3,5.5z"/></g>
<g transform="translate(44,44)"><g transform="scale(11)"><path d="M0,0l0,14h14V0H0z M7,12L7,12c-2.8,0-5-2.2-5-5v0c0-2.8,2.2-5,5-5h0c2.8,0,5,2.2,5,5v0C12,9.8,9.8,12,7,12z"/></g></g>
<g transform="translate(792,44)"><g transform="scale(11)"><path d="M0,0l0,14h14V0H0z M7,12L7,12c-2.8,0-5-2.2-5-5v0c0-2.8,2.2-5,5-5h0c2.8,0,5,2.2,5,5v0C12,9.8,9.8,12,7,12z"/></g></g>
<g transform="translate(44,792)"><g transform="scale(11)"><path d="M0,0l0,14h14V0H0z M7,12L7,12c-2.8,0-5-2.2-5-5v0c0-2.8,2.2-5,5-5h0c2.8,0,5,2.2,5,5v0C12,9.8,9.8,12,7,12z"/></g></g>
<g transform="translate(88,88)"><g transform="scale(11)"><path d="M6,1.8C5.9,1,5.3,0.4,4.5,0.3C3.9,0.2,3.4,0.5,3,0.9C2.6,0.5,2.1,0.3,1.6,0.3C0.8,0.4,0.1,1,0,1.8 C0,2.3,0.1,2.7,0.3,3l0,0l0,0c0.1,0.1,0.2,0.2,0.3,0.3l1.9,2.2c0.3,0.3,0.7,0.3,0.9,0l1.8-1.9c0.1-0.1,0.3-0.3,0.4-0.5 C5.9,2.8,6.1,2.3,6,1.8z"/></g></g>
<g transform="translate(836,88)"><g transform="scale(11)"><path d="M6,1.8C5.9,1,5.3,0.4,4.5,0.3C3.9,0.2,3.4,0.5,3,0.9C2.6,0.5,2.1,0.3,1.6,0.3C0.8,0.4,0.1,1,0,1.8 C0,2.3,0.1,2.7,0.3,3l0,0l0,0c0.1,0.1,0.2,0.2,0.3,0.3l1.9,2.2c0.3,0.3,0.7,0.3,0.9,0l1.8-1.9c0.1-0.1,0.3-0.3,0.4-0.5 C5.9,2.8,6.1,2.3,6,1.8z"/></g></g>
<g transform="translate(88,836)"><g transform="scale(11)"><path d="M6,1.8C5.9,1,5.3,0.4,4.5,0.3C3.9,0.2,3.4,0.5,3,0.9C2.6,0.5,2.1,0.3,1.6,0.3C0.8,0.4,0.1,1,0,1.8 C0,2.3,0.1,2.7,0.3,3l0,0l0,0c0.1,0.1,0.2,0.2,0.3,0.3l1.9,2.2c0.3,0.3,0.7,0.3,0.9,0l1.8-1.9c0.1-0.1,0.3-0.3,0.4-0.5 C5.9,2.8,6.1,2.3,6,1.8z"/></g></g>
</g></g></mask></defs><rect width="990" height="990" fill="#ffffff" x="0" y="0"/><rect x="0" y="0" width="990" height="990" mask="url(#qrmask)" fill="url(#pattern-gradient)"/></svg>
