<?xml version="1.0" encoding="utf-8"?>
<svg xmlns="http://www.w3.org/2000/svg" xmlns:xlink="http://www.w3.org/1999/xlink" xml:space="preserve" width="792" height="792" viewBox="0 0 792 792"><defs><radialGradient id="pattern-gradient" cx="50%" cy="50%" r="50%" fx="50%" fy="50%" gradientUnits="userSpaceOnUse"><stop offset="0%" stop-color="#ff0000"/><stop offset="100%" stop-color="#000000"/></radialGradient>
<mask id="qrmask"><g fill="#ffffff"><g>
<g transform="translate(240,48) scale(4.12)"><circle cx="3" cy="3" r="2.5"/></g>
<g transform="translate(288,48) scale(4.12)"><path d="M5.5,6h-5V3c0-1.4,1.1-2.5,2.5-2.5h0c1.4,0,2.5,1.1,2.5,2.5V6z"/></g>
<g transform="translate(504,48) scale(4.12)"><circle cx="3" cy="3" r="2.5"/></g>
<g transform="translate(528,48) scale(4.12)"><circle cx="3" cy="3" r="2.5"/></g>
<g transform="translate(264,72) scale(4.12)"><path d="M5.5,6h-5V3c0-1.4,1.1-2.5,2.5-2.5h0c1.4,0,2.5,1.1,2.5,2.5V6z"/></g>
<g transform="translate(288,72) scale(4.12)"><path d="M3,5.5L3,5.5C1.6,5.5,0.5,4.4,0.5,3V0h5v3C5.5,4.4,4.4,5.5,3,5.5z"/></g>
<g transform="translate(336,72) scale(4.12)"><path d="M5.5,6h-5V3c0-1.4,1.1-2.5,2.5-2.5h0c1.4,0,2.5,1.1,2.5,2.5V6z"/></g>
<g transform="translate(360,72) scale(4.12)"><circle cx="3" cy="3" r="2.5"/></g>
<g transform="translate(432,72) scale(4.12)"><path d="M5.5,6h-5V3c0-1.4,1.1-2.5,2.5-2.5h0c1.4,0,2.5,1.1,2.5,2.5V6z"/></g>
<g transform="translate(480,72) scale(4.12)"><circle cx="3" cy="3" r="2.5"/></g>
<g transform="translate(264,96) scale(4.12)"><rect x="0.5" width="5" height="6"/></g>
<g transform="translate(336,96) scale(4.12)"><path d="M3,5.5L3,5.5C1.6,5.5,0.5,4.4,0.5,3V0h5v3C5.5,4.4,4.4,5.5,3,5.5z"/></g>
<g transform="translate(432,96) scale(4.12)"><rect x="0.5" width="5" height="6"/></g>
<g transform="translate(528,96) scale(4.12)"><circle cx="3" cy="3" r="2.5"/></g>
<g transform="translate(264,120) scale(4.12)"><rect x="0.5" width="5" height="6"/></g>
<g transform="translate(288,120) scale(4.12)"><circle cx="3" cy="3" r="2.5"/></g>
<g transform="translate(408,120) scale(4.12)"><circle cx="3" cy="3" r="2.5"/></g>
<g transform="translate(432,120) scale(4.12)"><path d="M3,5.5L3,5.5C1.6,5.5,0.5,4.4,0.5,3V0h5v3C5.5,4.4,4.4,5.5,3,5.5z"/></g>
<g transform="translate(456,120) scale(4.12)"><path d="M5.5,6h-5V3c0-1.4,1.1-2.5,2.5-2.5h0c1.4,0,2.5,1.1,2.5,2.5V6z"/></g>
<g transform="translate(504,120) scale(4.12)"><path d="M5.5,6h-5V3c0-1.4,1.1-2.5,2.5-2.5h0c1.4,0,2.5,1.1,2.5,2.5V6z"/></g>
<g transform="translate(240,144) scale(4.12)"><path d="M5.5,6h-5V3c0-1.4,1.1-2.5,2.5-2.5h0c1.4,0,2.5,1.1,2.5,2.5V6z"/></g>
<g transform="translate(264,144) scale(4.12)"><path d="M3,5.5L3,5.5C1.6,5.5,0.5,4.4,0.5,3V0h5v3C5.5,4.4,4.4,5.5,3,5.5z"/></g>
<g transform="translate(336,144) scale(4.12)"><circle cx="3" cy="3" r="2.5"/></g>
<g transform="translate(360,144) scale(4.12)"><circle cx="3" cy="3" r="2.5"/></g>
<g transform="translate(456,144) scale(4.12)"><path d="M3,5.5L3,5.5C1.6,5.5,0.5,4.4,0.5,3V0h5v3C5.5,4.4,4.4,5.5,3,5.5z"/></g>
<g transform="translate(480,144) scale(4.12)"><path d="M5.5,6h-5V3c0-1.4,1.1-2.5,2.5-2.5h0c1.4,0,2.5,1.1,2.5,2.5V6z"/></g>
<g transform="translate(504,144) scale(4.12)"><path d="M3,5.5L3,5.5C1.6,5.5,0.5,4.4,0.5,3V0h5v3C5.5,4.4,4.4,5.5,3,5.5z"/></g>
<g transform="translate(528,144) scale(4.12)"><circle cx="3" cy="3" r="2.5"/></g>
<g transform="translate(240,168) scale(4.12)"><rect x="0.5" width="5" height="6"/></g>
<g transform="translate(408,168) scale(4.12)"><circle cx="3" cy="3" r="2.5"/></g>
<g transform="translate(432,168) scale(4.12)"><path d="M5.5,6h-5V3c0-1.4,1.1-2.5,2.5-2.5h0c1.4,0,2.5,1.1,2.5,2.5V6z"/></g>
<g transform="translate(480,168) scale(4.12)"><rect x="0.5" width="5" height="6"/></g>
<g transform="translate(240,192) scale(4.12)"><path d="M3,5.5L3,5.5C1.6,5.5,0.5,4.4,0.5,3V0h5v3C5.5,4.4,4.4,5.5,3,5.5z"/></g>
<g transform="translate(288,192) scale(4.12)"><path d="M5.5,6h-5V3c0-1.4,1.1-2.5,2.5-2.5h0c1.4,0,2.5,1.1,2.5,2.5V6z"/></g>
<g transform="translate(336,192) scale(4.12)"><path d="M5.5,6h-5V3c0-1.4,1.1-2.5,2.5-2.5h0c1.4,0,2.5,1.1,2.5,2.5V6z"/></g>
<g transform="translate(384,192) scale(4.12)"><path d="M5.5,6h-5V3c0-1.4,1.1-2.5,2.5-2.5h0c1.4,0,2.5,1.1,2.5,2.5V6z"/></g>
<g transform="translate(432,192) scale(4.12)"><path d="M3,5.5L3,5.5C1.6,5.5,0.5,4.4,0.5,3V0h5v3C5.5,4.4,4.4,5.5,3,5.5z"/></g>
<g transform="translate(480,192) scale(4.12)"><path d="M3,5.5L3,5.5C1.6,5.5,0.5,4.4,0.5,3V0h5v3C5.5,4.4,4.4,5.5,3,5.5z"/></g>
<g transform="translate(528,192) scale(4.12)"><circle cx="3" cy="3" r="2.5"/></g>
<g transform="translate(288,216) scale(4.12)"><rect x="0.5" width="5" height="6"/></g>
<g transform="translate(336,216) scale(4.12)"><rect x="0.5" width="5" height="6"/></g>
<g transform="translate(384,216) scale(4.12)"><path d="M3,5.5L3,5.5C1.6,5.5,0.5,4.4,0.5,3V0h5v3C5.5,4.4,4.4,5.5,3,5.5z"/></g>
<g transform="translate(72,240) scale(4.12)"><path d="M5.5,6h-5V3c0-1.4,1.1-2.5,2.5-2.5h0c1.4,0,2.5,1.1,2.5,2.5V6z"/></g>
<g transform="translate(96,240) scale(4.12)"><path d="M5.5,6h-5V3c0-1.4,1.1-2.5,2.5-2.5h0c1.4,0,2.5,1.1,2.5,2.5V6z"/></g>
<g transform="translate(120,240) scale(4.12)"><circle cx="3" cy="3" r="2.5"/></g>
<g transform="translate(144,240) scale(4.12)"><circle cx="3" cy="3" r="2.5"/></g>
<g transform="translate(168,240) scale(4.12)"><path d="M5.5,6h-5V3c0-1.4,1.1-2.5,2.5-2.5h0c1.4,0,2.5,1.1,2.5,2.5V6z"/></g>
<g transform="translate(192,240) scale(4.12)"><circle cx="3" cy="3" r="2.5"/></g>
<g transform="translate(216,240) scale(4.12)"><circle cx="3" cy="3" r="2.5"/></g>
<g transform="translate(264,240) scale(4.12)"><circle cx="3" cy="3" r="2.5"/></g>
<g transform="translate(288,240) scale(4.12)"><path d="M3,5.5L3,5.5C1.6,5.5,0.5,4.4,0.5,3V0h5v3C5.5,4.4,4.4,5.5,3,5.5z"/></g>
<g transform="translate(312,240) scale(4.12)"><path d="M5.5,6h-5V3c0-1.4,1.1-2.5,2.5-2.5h0c1.4,0,2.5,1.1,2.5,2.5V6z"/></g>
<g transform="translate(336,240) scale(4.12)"><path d="M3,5.5L3,5.5C1.6,5.5,0.5,4.4,0.5,3V0h5v3C5.5,4.4,4.4,5.5,3,5.5z"/></g>
<g transform="translate(360,240) scale(4.12)"><circle cx="3" cy="3" r="2.5"/></g>
<g transform="translate(408,240) scale(4.12)"><circle cx="3" cy="3" r="2.5"/></g>
<g transform="translate(456,240) scale(4.12)"><circle cx="3" cy="3" r="2.5"/></g>
<g transform="translate(480,240) scale(4.12)"><path d="M5.5,6h-5V3c0-1.4,1.1-2.5,2.5-2.5h0c1.4,0,2.5,1.1,2.5,2.5V6z"/></g>
<g transform="translate(504,240) scale(4.12)"><path d="M5.5,6h-5V3c0-1.4,1.1-2.5,2.5-2.5h0c1.4,0,2.5,1.1,2.5,2.5V6z"/></g>
<g transform="translate(600,240) scale(4.12)"><path d="M5.5,6h-5V3c0-1.4,1.1-2.5,2.5-2.5h0c1.4,0,2.5,1.1,2.5,2.5V6z"/></g>
<g transform="translate(624,240) scale(4.12)"><path d="M5.5,6h-5V3c0-1.4,1.1-2.5,2.5-2.5h0c1.4,0,2.5,1.1,2.5,2.5V6z"/></g>
<g transform="translate(720,240) scale(4.12)"><path d="M5.5,6h-5V3c0-1.4,1.1-2.5,2.5-2.5h0c1.4,0,2.5,1.1,2.5,2.5V6z"/></g>
<g transform="translate(72,264) scale(4.12)"><rect x="0.5" width="5" height="6"/></g>
<g transform="translate(96,264) scale(4.12)"><rect x="0.5" width="5" height="6"/></g>
<g transform="translate(168,264) scale(4.12)"><path d="M3,5.5L3,5.5C1.6,5.5,0.5,4.4,0.5,3V0h5v3C5.5,4.4,4.4,5.5,3,5.5z"/></g>
<g transform="translate(240,264) scale(4.12)"><circle cx="3" cy="3" r="2.5"/></g>
<g transform="translate(312,264) scale(4.12)"><path d="M3,5.5L3,5.5C1.6,5.5,0.5,4.4,0.5,3V0h5v3C5.5,4.4,4.4,5.5,3,5.5z"/></g>
<g transform="translate(480,264) scale(4.12)"><path d="M3,5.5L3,5.5C1.6,5.5,0.5,4.4,0.5,3V0h5v3C5.5,4.4,4.4,5.5,3,5.5z"/></g>
<g transform="translate(504,264) scale(4.12)"><path d="M3,5.5L3,5.5C1.6,5.5,0.5,4.4,0.5,3V0h5v3C5.5,4.4,4.4,5.5,3,5.5z"/></g>
<g transform="translate(528,264) scale(4.12)"><path d="M5.5,6h-5V3c0-1.4,1.1-2.5,2.5-2.5h0c1.4,0,2.5,1.1,2.5,2.5V6z"/></g>
<g transform="translate(552,264) scale(4.12)"><circle cx="3" cy="3" r="2.5"/></g>
<g transform="translate(576,264) scale(4.12)"><path d="M5.5,6h-5V3c0-1.4,1.1-2.5,2.5-2.5h0c1.4,0,2.5,1.1,2.5,2.5V6z"/></g>
<g transform="translate(600,264) scale(4.12)"><path d="M3,5.5L3,5.5C1.6,5.5,0.5,4.4,0.5,3V0h5v3C5.5,4.4,4.4,5.5,3,5.5z"/></g>
<g transform="translate(624,264) scale(4.12)"><path d="M3,5.5L3,5.5C1.6,5.5,0.5,4.4,0.5,3V0h5v3C5.5,4.4,4.4,5.5,3,5.5z"/></g>
<g transform="translate(648,264) scale(4.12)"><path d="M5.5,6h-5V3c0-1.4,1.1-2.5,2.5-2.5h0c1.4,0,2.5,1.1,2.5,2.5V6z"/></g>
<g transform="translate(720,264) scale(4.12)"><path d="M3,5.5L3,5.5C1.6,5.5,0.5,4.4,0.5,3V0h5v3C5.5,4.4,4.4,5.5,3,5.5z"/></g>
<g transform="translate(72,288) scale(4.12)"><rect x="0.5" width="5" height="6"/></g>
<g transform="translate(96,288) scale(4.12)"><rect x="0.5" width="5" height="6"/></g>
<g transform="translate(120,288) scale(4.12)"><circle cx="3" cy="3" r="2.5"/></g>
<g transform="translate(192,288) scale(4.12)"><circle cx="3" cy="3" r="2.5"/></g>
<g transform="translate(408,288) scale(4.12)"><path d="M5.5,6h-5V3c0-1.4,1.1-2.5,2.5-2.5h0c1.4,0,2.5,1.1,2.5,2.5V6z"/></g>
<g transform="translate(432,288) scale(4.12)"><circle cx="3" cy="3" r="2.5"/></g>
<g transform="translate(528,288) scale(4.12)"><path d="M3,5.5L3,5.5C1.6,5.5,0.5,4.4,0.5,3V0h5v3C5.5,4.4,4.4,5.5,3,5.5z"/></g>
<g transform="translate(576,288) scale(4.12)"><rect x="0.5" width="5" height="6"/></g>
<g transform="translate(648,288) scale(4.12)"><rect x="0.5" width="5" height="6"/></g>
<g transform="translate(48,312) scale(4.12)"><path d="M5.5,6h-5V3c0-1.4,1.1-2.5,2.5-2.5h0c1.4,0,2.5,1.1,2.5,2.5V6z"/></g>
<g transform="translate(72,312) scale(4.12)"><rect x="0.5" width="5" height="6"/></g>
<g transform="translate(96,312) scale(4.12)"><rect x="0.5" width="5" height="6"/></g>
<g transform="translate(144,312) scale(4.12)"><path d="M5.5,6h-5V3c0-1.4,1.1-2.5,2.5-2.5h0c1.4,0,2.5,1.1,2.5,2.5V6z"/></g>
<g transform="translate(168,312) scale(4.12)"><path d="M5.5,6h-5V3c0-1.4,1.1-2.5,2.5-2.5h0c1.4,0,2.5,1.1,2.5,2.5V6z"/></g>
<g transform="translate(216,312) scale(4.12)"><circle cx="3" cy="3" r="2.5"/></g>
<g transform="translate(240,312) scale(4.12)"><path d="M5.5,6h-5V3c0-1.4,1.1-2.5,2.5-2.5h0c1.4,0,2.5,1.1,2.5,2.5V6z"/></g>
<g transform="translate(288,312) scale(4.12)"><circle cx="3" cy="3" r="2.5"/></g>
<g transform="translate(312,312) scale(4.12)"><circle cx="3" cy="3" r="2.5"/></g>
<g transform="translate(336,312) scale(4.12)"><circle cx="3" cy="3" r="2.5"/></g>
<g transform="translate(360,312) scale(4.12)"><circle cx="3" cy="3" r="2.5"/></g>
<g transform="translate(408,312) scale(4.12)"><rect x="0.5" width="5" height="6"/></g>
<g transform="translate(480,312) scale(4.12)"><circle cx="3" cy="3" r="2.5"/></g>
<g transform="translate(576,312) scale(4.12)"><path d="M3,5.5L3,5.5C1.6,5.5,0.5,4.4,0.5,3V0h5v3C5.5,4.4,4.4,5.5,3,5.5z"/></g>
<g transform="translate(600,312) scale(4.12)"><circle cx="3" cy="3" r="2.5"/></g>
<g transform="translate(648,312) scale(4.12)"><path d="M3,5.5L3,5.5C1.6,5.5,0.5,4.4,0.5,3V0h5v3C5.5,4.4,4.4,5.5,3,5.5z"/></g>
<g transform="translate(696,312) scale(4.12)"><path d="M5.5,6h-5V3c0-1.4,1.1-2.5,2.5-2.5h0c1.4,0,2.5,1.1,2.5,2.5V6z"/></g>
<g transform="translate(48,336) scale(4.12)"><rect x="0.5" width="5" height="6"/></g>
<g transform="translate(72,336) scale(4.12)"><path d="M3,5.5L3,5.5C1.6,5.5,0.5,4.4,0.5,3V0h5v3C5.5,4.4,4.4,5.5,3,5.5z"/></g>
<g transform="translate(96,336) scale(4.12)"><rect x="0.5" width="5" height="6"/></g>
<g transform="translate(144,336) scale(4.12)"><path d="M3,5.5L3,5.5C1.6,5.5,0.5,4.4,0.5,3V0h5v3C5.5,4.4,4.4,5.5,3,5.5z"/></g>
<g transform="translate(168,336) scale(4.12)"><rect x="0.5" width="5" height="6"/></g>
<g transform="translate(192,336) scale(4.12)"><circle cx="3" cy="3" r="2.5"/></g>
<g transform="translate(240,336) scale(4.12)"><path d="M3,5.5L3,5.5C1.6,5.5,0.5,4.4,0.5,3V0h5v3C5.5,4.4,4.4,5.5,3,5.5z"/></g>
<g transform="translate(408,336) scale(4.12)"><rect x="0.5" width="5" height="6"/></g>
<g transform="translate(456,336) scale(4.12)"><path d="M5.5,6h-5V3c0-1.4,1.1-2.5,2.5-2.5h0c1.4,0,2.5,1.1,2.5,2.5V6z"/></g>
<g transform="translate(504,336) scale(4.12)"><path d="M5.5,6h-5V3c0-1.4,1.1-2.5,2.5-2.5h0c1.4,0,2.5,1.1,2.5,2.5V6z"/></g>
<g transform="translate(552,336) scale(4.12)"><path d="M5.5,6h-5V3c0-1.4,1.1-2.5,2.5-2.5h0c1.4,0,2.5,1.1,2.5,2.5V6z"/></g>
<g transform="translate(672,336) scale(4.12)"><circle cx="3" cy="3" r="2.5"/></g>
<g transform="translate(696,336) scale(4.12)"><rect x="0.5" width="5" height="6"/></g>
<g transform="translate(720,336) scale(4.12)"><path d="M5.5,6h-5V3c0-1.4,1.1-2.5,2.5-2.5h0c1.4,0,2.5,1.1,2.5,2.5V6z"/></g>
<g transform="translate(48,360) scale(4.12)"><rect x="0.5" width="5" height="6"/></g>
<g transform="translate(96,360) scale(4.12)"><rect x="0.5" width="5" height="6"/></g>
<g transform="translate(120,360) scale(4.12)"><circle cx="3" cy="3" r="2.5"/></g>
<g transform="translate(168,360) scale(4.12)"><rect x="0.5" width="5" height="6"/></g>
<g transform="translate(216,360) scale(4.12)"><path d="M5.5,6h-5V3c0-1.4,1.1-2.5,2.5-2.5h0c1.4,0,2.5,1.1,2.5,2.5V6z"/></g>
<g transform="translate(264,360) scale(4.12)"><circle cx="3" cy="3" r="2.5"/></g>
<g transform="translate(408,360) scale(4.12)"><rect x="0.5" width="5" height="6"/></g>
<g transform="translate(456,360) scale(4.12)"><rect x="0.5" width="5" height="6"/></g>
<g transform="translate(480,360) scale(4.12)"><circle cx="3" cy="3" r="2.5"/></g>
<g transform="translate(504,360) scale(4.12)"><path d="M3,5.5L3,5.5C1.6,5.5,0.5,4.4,0.5,3V0h5v3C5.5,4.4,4.4,5.5,3,5.5z"/></g>
<g transform="translate(528,360) scale(4.12)"><circle cx="3" cy="3" r="2.5"/></g>
<g transform="translate(552,360) scale(4.12)"><path d="M3,5.5L3,5.5C1.6,5.5,0.5,4.4,0.5,3V0h5v3C5.5,4.4,4.4,5.5,3,5.5z"/></g>
<g transform="translate(576,360) scale(4.12)"><circle cx="3" cy="3" r="2.5"/></g>
<g transform="translate(624,360) scale(4.12)"><circle cx="3" cy="3" r="2.5"/></g>
<g transform="translate(648,360) scale(4.12)"><circle cx="3" cy="3" r="2.5"/></g>
<g transform="translate(696,360) scale(4.12)"><path d="M3,5.5L3,5.5C1.6,5.5,0.5,4.4,0.5,3V0h5v3C5.5,4.4,4.4,5.5,3,5.5z"/></g>
<g transform="translate(720,360) scale(4.12)"><path d="M3,5.5L3,5.5C1.6,5.5,0.5,4.4,0.5,3V0h5v3C5.5,4.4,4.4,5.5,3,5.5z"/></g>
<g transform="translate(48,384) scale(4.12)"><rect x="0.5" width="5" height="6"/></g>
<g transform="translate(96,384) scale(4.12)"><rect x="0.5" width="5" height="6"/></g>
<g transform="translate(144,384) scale(4.12)"><circle cx="3" cy="3" r="2.5"/></g>
<g transform="translate(168,384) scale(4.12)"><rect x="0.5" width="5" height="6"/></g>
<g transform="translate(192,384) scale(4.12)"><circle cx="3" cy="3" r="2.5"/></g>
<g transform="translate(216,384) scale(4.12)"><path d="M3,5.5L3,5.5C1.6,5.5,0.5,4.4,0.5,3V0h5v3C5.5,4.4,4.4,5.5,3,5.5z"/></g>
<g transform="translate(240,384) scale(4.12)"><circle cx="3" cy="3" r="2.5"/></g>
<g transform="translate(288,384) scale(4.12)"><path d="M5.5,6h-5V3c0-1.4,1.1-2.5,2.5-2.5h0c1.4,0,2.5,1.1,2.5,2.5V6z"/></g>
<g transform="translate(408,384) scale(4.12)"><path d="M3,5.5L3,5.5C1.6,5.5,0.5,4.4,0.5,3V0h5v3C5.5,4.4,4.4,5.5,3,5.5z"/></g>
<g transform="translate(432,384) scale(4.12)"><path d="M5.5,6h-5V3c0-1.4,1.1-2.5,2.5-2.5h0c1.4,0,2.5,1.1,2.5,2.5V6z"/></g>
<g transform="translate(456,384) scale(4.12)"><path d="M3,5.5L3,5.5C1.6,5.5,0.5,4.4,0.5,3V0h5v3C5.5,4.4,4.4,5.5,3,5.5z"/></g>
<g transform="translate(48,408) scale(4.12)"><path d="M3,5.5L3,5.5C1.6,5.5,0.5,4.4,0.5,3V0h5v3C5.5,4.4,4.4,5.5,3,5.5z"/></g>
<g transform="translate(72,408) scale(4.12)"><path d="M5.5,6h-5V3c0-1.4,1.1-2.5,2.5-2.5h0c1.4,0,2.5,1.1,2.5,2.5V6z"/></g>
<g transform="translate(96,408) scale(4.12)"><path d="M3,5.5L3,5.5C1.6,5.5,0.5,4.4,0.5,3V0h5v3C5.5,4.4,4.4,5.5,3,5.5z"/></g>
<g transform="translate(120,408) scale(4.12)"><circle cx="3" cy="3" r="2.5"/></g>
<g transform="translate(168,408) scale(4.12)"><path d="M3,5.5L3,5.5C1.6,5.5,0.5,4.4,0.5,3V0h5v3C5.5,4.4,4.4,5.5,3,5.5z"/></g>
<g transform="translate(264,408) scale(4.12)"><circle cx="3" cy="3" r="2.5"/></g>
<g transform="translate(288,408) scale(4.12)"><rect x="0.5" width="5" height="6"/></g>
<g transform="translate(384,408) scale(4.12)"><path d="M5.5,6h-5V3c0-1.4,1.1-2.5,2.5-2.5h0c1.4,0,2.5,1.1,2.5,2.5V6z"/></g>
<g transform="translate(432,408) scale(4.12)"><path d="M3,5.5L3,5.5C1.6,5.5,0.5,4.4,0.5,3V0h5v3C5.5,4.4,4.4,5.5,3,5.5z"/></g>
<g transform="translate(552,408) scale(4.12)"><circle cx="3" cy="3" r="2.5"/></g>
<g transform="translate(576,408) scale(4.12)"><circle cx="3" cy="3" r="2.5"/></g>
<g transform="translate(648,408) scale(4.12)"><path d="M5.5,6h-5V3c0-1.4,1.1-2.5,2.5-2.5h0c1.4,0,2.5,1.1,2.5,2.5V6z"/></g>
<g transform="translate(720,408) scale(4.12)"><path d="M5.5,6h-5V3c0-1.4,1.1-2.5,2.5-2.5h0c1.4,0,2.5,1.1,2.5,2.5V6z"/></g>
<g transform="translate(72,432) scale(4.12)"><rect x="0.5" width="5" height="6"/></g>
<g transform="translate(192,432) scale(4.12)"><circle cx="3" cy="3" r="2.5"/></g>
<g transform="translate(216,432) scale(4.12)"><path d="M5.5,6h-5V3c0-1.4,1.1-2.5,2.5-2.5h0c1.4,0,2.5,1.1,2.5,2.5V6z"/></g>
<g transform="translate(240,432) scale(4.12)"><path d="M5.5,6h-5V3c0-1.4,1.1-2.5,2.5-2.5h0c1.4,0,2.5,1.1,2.5,2.5V6z"/></g>
<g transform="translate(288,432) scale(4.12)"><path d="M3,5.5L3,5.5C1.6,5.5,0.5,4.4,0.5,3V0h5v3C5.5,4.4,4.4,5.5,3,5.5z"/></g>
<g transform="translate(312,432) scale(4.12)"><circle cx="3" cy="3" r="2.5"/></g>
<g transform="translate(360,432) scale(4.12)"><circle cx="3" cy="3" r="2.5"/></g>
<g transform="translate(384,432) scale(4.12)"><rect x="0.5" width="5" height="6"/></g>
<g transform="translate(408,432) scale(4.12)"><path d="M5.5,6h-5V3c0-1.4,1.1-2.5,2.5-2.5h0c1.4,0,2.5,1.1,2.5,2.5V6z"/></g>
<g transform="translate(480,432) scale(4.12)"><path d="M5.5,6h-5V3c0-1.4,1.1-2.5,2.5-2.5h0c1.4,0,2.5,1.1,2.5,2.5V6z"/></g>
<g transform="translate(648,432) scale(4.12)"><rect x="0.5" width="5" height="6"/></g>
<g transform="translate(672,432) scale(4.12)"><path d="M5.5,6h-5V3c0-1.4,1.1-2.5,2.5-2.5h0c1.4,0,2.5,1.1,2.5,2.5V6z"/></g>
<g transform="translate(720,432) scale(4.12)"><rect x="0.5" width="5" height="6"/></g>
<g transform="translate(48,456) scale(4.12)"><path d="M5.5,6h-5V3c0-1.4,1.1-2.5,2.5-2.5h0c1.4,0,2.5,1.1,2.5,2.5V6z"/></g>
<g transform="translate(72,456) scale(4.12)"><path d="M3,5.5L3,5.5C1.6,5.5,0.5,4.4,0.5,3V0h5v3C5.5,4.4,4.4,5.5,3,5.5z"/></g>
<g transform="translate(96,456) scale(4.12)"><circle cx="3" cy="3" r="2.5"/></g>
<g transform="translate(216,456) scale(4.12)"><rect x="0.5" width="5" height="6"/></g>
<g transform="translate(240,456) scale(4.12)"><rect x="0.5" width="5" height="6"/></g>
<g transform="translate(384,456) scale(4.12)"><path d="M3,5.5L3,5.5C1.6,5.5,0.5,4.4,0.5,3V0h5v3C5.5,4.4,4.4,5.5,3,5.5z"/></g>
<g transform="translate(408,456) scale(4.12)"><path d="M3,5.5L3,5.5C1.6,5.5,0.5,4.4,0.5,3V0h5v3C5.5,4.4,4.4,5.5,3,5.5z"/></g>
<g transform="translate(432,456) scale(4.12)"><circle cx="3" cy="3" r="2.5"/></g>
<g transform="translate(456,456) scale(4.12)"><path d="M5.5,6h-5V3c0-1.4,1.1-2.5,2.5-2.5h0c1.4,0,2.5,1.1,2.5,2.5V6z"/></g>
<g transform="translate(480,456) scale(4.12)"><path d="M3,5.5L3,5.5C1.6,5.5,0.5,4.4,0.5,3V0h5v3C5.5,4.4,4.4,5.5,3,5.5z"/></g>
<g transform="translate(504,456) scale(4.12)"><circle cx="3" cy="3" r="2.5"/></g>
<g transform="translate(528,456) scale(4.12)"><path d="M5.5,6h-5V3c0-1.4,1.1-2.5,2.5-2.5h0c1.4,0,2.5,1.1,2.5,2.5V6z"/></g>
<g transform="translate(552,456) scale(4.12)"><circle cx="3" cy="3" r="2.5"/></g>
<g transform="translate(576,456) scale(4.12)"><path d="M5.5,6h-5V3c0-1.4,1.1-2.5,2.5-2.5h0c1.4,0,2.5,1.1,2.5,2.5V6z"/></g>
<g transform="translate(624,456) scale(4.12)"><path d="M5.5,6h-5V3c0-1.4,1.1-2.5,2.5-2.5h0c1.4,0,2.5,1.1,2.5,2.5V6z"/></g>
<g transform="translate(648,456) scale(4.12)"><path d="M3,5.5L3,5.5C1.6,5.5,0.5,4.4,0.5,3V0h5v3C5.5,4.4,4.4,5.5,3,5.5z"/></g>
<g transform="translate(672,456) scale(4.12)"><path d="M3,5.5L3,5.5C1.6,5.5,0.5,4.4,0.5,3V0h5v3C5.5,4.4,4.4,5.5,3,5.5z"/></g>
<g transform="translate(696,456) scale(4.12)"><circle cx="3" cy="3" r="2.5"/></g>
<g transform="translate(720,456) scale(4.12)"><path d="M3,5.5L3,5.5C1.6,5.5,0.5,4.4,0.5,3V0h5v3C5.5,4.4,4.4,5.5,3,5.5z"/></g>
<g transform="translate(48,480) scale(4.12)"><rect x="0.5" width="5" height="6"/></g>
<g transform="translate(192,480) scale(4.12)"><circle cx="3" cy="3" r="2.5"/></g>
<g transform="translate(216,480) scale(4.12)"><path d="M3,5.5L3,5.5C1.6,5.5,0.5,4.4,0.5,3V0h5v3C5.5,4.4,4.4,5.5,3,5.5z"/></g>
<g transform="translate(240,480) scale(4.12)"><rect x="0.5" width="5" height="6"/></g>
<g transform="translate(264,480) scale(4.12)"><circle cx="3" cy="3" r="2.5"/></g>
<g transform="translate(288,480) scale(4.12)"><path d="M5.5,6h-5V3c0-1.4,1.1-2.5,2.5-2.5h0c1.4,0,2.5,1.1,2.5,2.5V6z"/></g>
<g transform="translate(456,480) scale(4.12)"><path d="M3,5.5L3,5.5C1.6,5.5,0.5,4.4,0.5,3V0h5v3C5.5,4.4,4.4,5.5,3,5.5z"/></g>
<g transform="translate(528,480) scale(4.12)"><rect x="0.5" width="5" height="6"/></g>
<g transform="translate(576,480) scale(4.12)"><rect x="0.5" width="5" height="6"/></g>
<g transform="translate(600,480) scale(4.12)"><circle cx="3" cy="3" r="2.5"/></g>
<g transform="translate(624,480) scale(4.12)"><path d="M3,5.5L3,5.5C1.6,5.5,0.5,4.4,0.5,3V0h5v3C5.5,4.4,4.4,5.5,3,5.5z"/></g>
<g transform="translate(48,504) scale(4.12)"><rect x="0.5" width="5" height="6"/></g>
<g transform="translate(96,504) scale(4.12)"><circle cx="3" cy="3" r="2.5"/></g>
<g transform="translate(120,504) scale(4.12)"><path d="M5.5,6h-5V3c0-1.4,1.1-2.5,2.5-2.5h0c1.4,0,2.5,1.1,2.5,2.5V6z"/></g>
<g transform="translate(144,504) scale(4.12)"><path d="M5.5,6h-5V3c0-1.4,1.1-2.5,2.5-2.5h0c1.4,0,2.5,1.1,2.5,2.5V6z"/></g>
<g transform="translate(168,504) scale(4.12)"><path d="M5.5,6h-5V3c0-1.4,1.1-2.5,2.5-2.5h0c1.4,0,2.5,1.1,2.5,2.5V6z"/></g>
<g transform="translate(240,504) scale(4.12)"><path d="M3,5.5L3,5.5C1.6,5.5,0.5,4.4,0.5,3V0h5v3C5.5,4.4,4.4,5.5,3,5.5z"/></g>
<g transform="translate(288,504) scale(4.12)"><path d="M3,5.5L3,5.5C1.6,5.5,0.5,4.4,0.5,3V0h5v3C5.5,4.4,4.4,5.5,3,5.5z"/></g>
<g transform="translate(336,504) scale(4.12)"><circle cx="3" cy="3" r="2.5"/></g>
<g transform="translate(360,504) scale(4.12)"><circle cx="3" cy="3" r="2.5"/></g>
<g transform="translate(384,504) scale(4.12)"><circle cx="3" cy="3" r="2.5"/></g>
<g transform="translate(432,504) scale(4.12)"><circle cx="3" cy="3" r="2.5"/></g>
<g transform="translate(528,504) scale(4.12)"><rect x="0.5" width="5" height="6"/></g>
<g transform="translate(576,504) scale(4.12)"><rect x="0.5" width="5" height="6"/></g>
<g transform="translate(648,504) scale(4.12)"><circle cx="3" cy="3" r="2.5"/></g>
<g transform="translate(48,528) scale(4.12)"><path d="M3,5.5L3,5.5C1.6,5.5,0.5,4.4,0.5,3V0h5v3C5.5,4.4,4.4,5.5,3,5.5z"/></g>
<g transform="translate(120,528) scale(4.12)"><path d="M3,5.5L3,5.5C1.6,5.5,0.5,4.4,0.5,3V0h5v3C5.5,4.4,4.4,5.5,3,5.5z"/></g>
<g transform="translate(144,528) scale(4.12)"><path d="M3,5.5L3,5.5C1.6,5.5,0.5,4.4,0.5,3V0h5v3C5.5,4.4,4.4,5.5,3,5.5z"/></g>
<g transform="translate(168,528) scale(4.12)"><path d="M3,5.5L3,5.5C1.6,5.5,0.5,4.4,0.5,3V0h5v3C5.5,4.4,4.4,5.5,3,5.5z"/></g>
<g transform="translate(192,528) scale(4.12)"><circle cx="3" cy="3" r="2.5"/></g>
<g transform="translate(264,528) scale(4.12)"><path d="M5.5,6h-5V3c0-1.4,1.1-2.5,2.5-2.5h0c1.4,0,2.5,1.1,2.5,2.5V6z"/></g>
<g transform="translate(456,528) scale(4.12)"><path d="M5.5,6h-5V3c0-1.4,1.1-2.5,2.5-2.5h0c1.4,0,2.5,1.1,2.5,2.5V6z"/></g>
<g transform="translate(504,528) scale(4.12)"><path d="M5.5,6h-5V3c0-1.4,1.1-2.5,2.5-2.5h0c1.4,0,2.5,1.1,2.5,2.5V6z"/></g>
<g transform="translate(528,528) scale(4.12)"><rect x="0.5" width="5" height="6"/></g>
<g transform="translate(552,528) scale(4.12)"><circle cx="3" cy="3" r="2.5"/></g>
<g transform="translate(576,528) scale(4.12)"><path d="M3,5.5L3,5.5C1.6,5.5,0.5,4.4,0.5,3V0h5v3C5.5,4.4,4.4,5.5,3,5.5z"/></g>
<g transform="translate(600,528) scale(4.12)"><circle cx="3" cy="3" r="2.5"/></g>
<g transform="translate(624,528) scale(4.12)"><path d="M5.5,6h-5V3c0-1.4,1.1-2.5,2.5-2.5h0c1.4,0,2.5,1.1,2.5,2.5V6z"/></g>
<g transform="translate(672,528) scale(4.12)"><circle cx="3" cy="3" r="2.5"/></g>
<g transform="translate(720,528) scale(4.12)"><path d="M5.5,6h-5V3c0-1.4,1.1-2.5,2.5-2.5h0c1.4,0,2.5,1.1,2.5,2.5V6z"/></g>
<g transform="translate(240,552) scale(4.12)"><path d="M5.5,6h-5V3c0-1.4,1.1-2.5,2.5-2.5h0c1.4,0,2.5,1.1,2.5,2.5V6z"/></g>
<g transform="translate(264,552) scale(4.12)"><rect x="0.5" width="5" height="6"/></g>
<g transform="translate(336,552) scale(4.12)"><circle cx="3" cy="3" r="2.5"/></g>
<g transform="translate(360,552) scale(4.12)"><circle cx="3" cy="3" r="2.5"/></g>
<g transform="translate(432,552) scale(4.12)"><circle cx="3" cy="3" r="2.5"/></g>
<g transform="translate(456,552) scale(4.12)"><rect x="0.5" width="5" height="6"/></g>
<g transform="translate(480,552) scale(4.12)"><circle cx="3" cy="3" r="2.5"/></g>
<g transform="translate(504,552) scale(4.12)"><rect x="0.5" width="5" height="6"/></g>
<g transform="translate(528,552) scale(4.12)"><rect x="0.5" width="5" height="6"/></g>
<g transform="translate(624,552) scale(4.12)"><rect x="0.5" width="5" height="6"/></g>
<g transform="translate(648,552) scale(4.12)"><circle cx="3" cy="3" r="2.5"/></g>
<g transform="translate(696,552) scale(4.12)"><circle cx="3" cy="3" r="2.5"/></g>
<g transform="translate(720,552) scale(4.12)"><path d="M3,5.5L3,5.5C1.6,5.5,0.5,4.4,0.5,3V0h5v3C5.5,4.4,4.4,5.5,3,5.5z"/></g>
<g transform="translate(240,576) scale(4.12)"><rect x="0.5" width="5" height="6"/></g>
<g transform="translate(264,576) scale(4.12)"><rect x="0.5" width="5" height="6"/></g>
<g transform="translate(384,576) scale(4.12)"><path d="M5.5,6h-5V3c0-1.4,1.1-2.5,2.5-2.5h0c1.4,0,2.5,1.1,2.5,2.5V6z"/></g>
<g transform="translate(408,576) scale(4.12)"><circle cx="3" cy="3" r="2.5"/></g>
<g transform="translate(456,576) scale(4.12)"><rect x="0.5" width="5" height="6"/></g>
<g transform="translate(504,576) scale(4.12)"><rect x="0.5" width="5" height="6"/></g>
<g transform="translate(528,576) scale(4.12)"><rect x="0.5" width="5" height="6"/></g>
<g transform="translate(576,576) scale(4.12)"><circle cx="3" cy="3" r="2.5"/></g>
<g transform="translate(624,576) scale(4.12)"><rect x="0.5" width="5" height="6"/></g>
<g transform="translate(240,600) scale(4.12)"><rect x="0.5" width="5" height="6"/></g>
<g transform="translate(264,600) scale(4.12)"><path d="M3,5.5L3,5.5C1.6,5.5,0.5,4.4,0.5,3V0h5v3C5.5,4.4,4.4,5.5,3,5.5z"/></g>
<g transform="translate(288,600) scale(4.12)"><path d="M5.5,6h-5V3c0-1.4,1.1-2.5,2.5-2.5h0c1.4,0,2.5,1.1,2.5,2.5V6z"/></g>
<g transform="translate(312,600) scale(4.12)"><path d="M5.5,6h-5V3c0-1.4,1.1-2.5,2.5-2.5h0c1.4,0,2.5,1.1,2.5,2.5V6z"/></g>
<g transform="translate(336,600) scale(4.12)"><circle cx="3" cy="3" r="2.5"/></g>
<g transform="translate(384,600) scale(4.12)"><path d="M3,5.5L3,5.5C1.6,5.5,0.5,4.4,0.5,3V0h5v3C5.5,4.4,4.4,5.5,3,5.5z"/></g>
<g transform="translate(432,600) scale(4.12)"><path d="M5.5,6h-5V3c0-1.4,1.1-2.5,2.5-2.5h0c1.4,0,2.5,1.1,2.5,2.5V6z"/></g>
<g transform="translate(456,600) scale(4.12)"><path d="M3,5.5L3,5.5C1.6,5.5,0.5,4.4,0.5,3V0h5v3C5.5,4.4,4.4,5.5,3,5.5z"/></g>
<g transform="translate(480,600) scale(4.12)"><circle cx="3" cy="3" r="2.5"/></g>
<g transform="translate(504,600) scale(4.12)"><path d="M3,5.5L3,5.5C1.6,5.5,0.5,4.4,0.5,3V0h5v3C5.5,4.4,4.4,5.5,3,5.5z"/></g>
<g transform="translate(528,600) scale(4.12)"><rect x="0.5" width="5" height="6"/></g>
<g transform="translate(624,600) scale(4.12)"><rect x="0.5" width="5" height="6"/></g>
<g transform="translate(648,600) scale(4.12)"><path d="M5.5,6h-5V3c0-1.4,1.1-2.5,2.5-2.5h0c1.4,0,2.5,1.1,2.5,2.5V6z"/></g>
<g transform="translate(720,600) scale(4.12)"><circle cx="3" cy="3" r="2.5"/></g>
<g transform="translate(240,624) scale(4.12)"><rect x="0.5" width="5" height="6"/></g>
<g transform="translate(288,624) scale(4.12)"><path d="M3,5.5L3,5.5C1.6,5.5,0.5,4.4,0.5,3V0h5v3C5.5,4.4,4.4,5.5,3,5.5z"/></g>
<g transform="translate(312,624) scale(4.12)"><rect x="0.5" width="5" height="6"/></g>
<g transform="translate(360,624) scale(4.12)"><circle cx="3" cy="3" r="2.5"/></g>
<g transform="translate(432,624) scale(4.12)"><path d="M3,5.5L3,5.5C1.6,5.5,0.5,4.4,0.5,3V0h5v3C5.5,4.4,4.4,5.5,3,5.5z"/></g>
<g transform="translate(528,624) scale(4.12)"><path d="M3,5.5L3,5.5C1.6,5.5,0.5,4.4,0.5,3V0h5v3C5.5,4.4,4.4,5.5,3,5.5z"/></g>
<g transform="translate(552,624) scale(4.12)"><circle cx="3" cy="3" r="2.5"/></g>
<g transform="translate(576,624) scale(4.12)"><circle cx="3" cy="3" r="2.5"/></g>
<g transform="translate(600,624) scale(4.12)"><path d="M5.5,6h-5V3c0-1.4,1.1-2.5,2.5-2.5h0c1.4,0,2.5,1.1,2.5,2.5V6z"/></g>
<g transform="translate(624,624) scale(4.12)"><path d="M3,5.5L3,5.5C1.6,5.5,0.5,4.4,0.5,3V0h5v3C5.5,4.4,4.4,5.5,3,5.5z"/></g>
<g transform="translate(648,624) scale(4.12)"><rect x="0.5" width="5" height="6"/></g>
<g transform="translate(672,624) scale(4.12)"><circle cx="3" cy="3" r="2.5"/></g>
<g transform="translate(240,648) scale(4.12)"><rect x="0.5" width="5" height="6"/></g>
<g transform="translate(312,648) scale(4.12)"><path d="M3,5.5L3,5.5C1.6,5.5,0.5,4.4,0.5,3V0h5v3C5.5,4.4,4.4,5.5,3,5.5z"/></g>
<g transform="translate(384,648) scale(4.12)"><path d="M5.5,6h-5V3c0-1.4,1.1-2.5,2.5-2.5h0c1.4,0,2.5,1.1,2.5,2.5V6z"/></g>
<g transform="translate(408,648) scale(4.12)"><path d="M5.5,6h-5V3c0-1.4,1.1-2.5,2.5-2.5h0c1.4,0,2.5,1.1,2.5,2.5V6z"/></g>
<g transform="translate(456,648) scale(4.12)"><path d="M5.5,6h-5V3c0-1.4,1.1-2.5,2.5-2.5h0c1.4,0,2.5,1.1,2.5,2.5V6z"/></g>
<g transform="translate(480,648) scale(4.12)"><circle cx="3" cy="3" r="2.5"/></g>
<g transform="translate(504,648) scale(4.12)"><circle cx="3" cy="3" r="2.5"/></g>
<g transform="translate(600,648) scale(4.12)"><path d="M3,5.5L3,5.5C1.6,5.5,0.5,4.4,0.5,3V0h5v3C5.5,4.4,4.4,5.5,3,5.5z"/></g>
<g transform="translate(648,648) scale(4.12)"><path d="M3,5.5L3,5.5C1.6,5.5,0.5,4.4,0.5,3V0h5v3C5.5,4.4,4.4,5.5,3,5.5z"/></g>
<g transform="translate(240,672) scale(4.12)"><rect x="0.5" width="5" height="6"/></g>
<g transform="translate(336,672) scale(4.12)"><circle cx="3" cy="3" r="2.5"/></g>
<g transform="translate(384,672) scale(4.12)"><rect x="0.5" width="5" height="6"/></g>
<g transform="translate(408,672) scale(4.12)"><rect x="0.5" width="5" height="6"/></g>
<g transform="translate(432,672) scale(4.12)"><circle cx="3" cy="3" r="2.5"/></g>
<g transform="translate(456,672) scale(4.12)"><path d="M3,5.5L3,5.5C1.6,5.5,0.5,4.4,0.5,3V0h5v3C5.5,4.4,4.4,5.5,3,5.5z"/></g>
<g transform="translate(552,672) scale(4.12)"><path d="M5.5,6h-5V3c0-1.4,1.1-2.5,2.5-2.5h0c1.4,0,2.5,1.1,2.5,2.5V6z"/></g>
<g transform="translate(576,672) scale(4.12)"><circle cx="3" cy="3" r="2.5"/></g>
<g transform="translate(624,672) scale(4.12)"><path d="M5.5,6h-5V3c0-1.4,1.1-2.5,2.5-2.5h0c1.4,0,2.5,1.1,2.5,2.5V6z"/></g>
<g transform="translate(696,672) scale(4.12)"><path d="M5.5,6h-5V3c0-1.4,1.1-2.5,2.5-2.5h0c1.4,0,2.5,1.1,2.5,2.5V6z"/></g>
<g transform="translate(240,696) scale(4.12)"><path d="M3,5.5L3,5.5C1.6,5.5,0.5,4.4,0.5,3V0h5v3C5.5,4.4,4.4,5.5,3,5.5z"/></g>
<g transform="translate(264,696) scale(4.12)"><path d="M5.5,6h-5V3c0-1.4,1.1-2.5,2.5-2.5h0c1.4,0,2.5,1.1,2.5,2.5V6z"/></g>
<g transform="translate(312,696) scale(4.12)"><circle cx="3" cy="3" r="2.5"/></g>
<g transform="translate(384,696) scale(4.12)"><rect x="0.5" width="5" height="6"/></g>
<g transform="translate(408,696) scale(4.12)"><rect x="0.5" width="5" height="6"/></g>
<g transform="translate(480,696) scale(4.12)"><path d="M5.5,6h-5V3c0-1.4,1.1-2.5,2.5-2.5h0c1.4,0,2.5,1.1,2.5,2.5V6z"/></g>
<g transform="translate(528,696) scale(4.12)"><circle cx="3" cy="3" r="2.5"/></g>
<g transform="translate(552,696) scale(4.12)"><path d="M3,5.5L3,5.5C1.6,5.5,0.5,4.4,0.5,3V0h5v3C5.5,4.4,4.4,5.5,3,5.5z"/></g>
<g transform="translate(624,696) scale(4.12)"><rect x="0.5" width="5" height="6"/></g>
<g transform="translate(648,696) scale(4.12)"><circle cx="3" cy="3" r="2.5"/></g>
<g transform="translate(696,696) scale(4.12)"><path d="M3,5.5L3,5.5C1.6,5.5,0.5,4.4,0.5,3V0h5v3C5.5,4.4,4.4,5.5,3,5.5z"/></g>
<g transform="translate(264,720) scale(4.12)"><path d="M3,5.5L3,5.5C1.6,5.5,0.5,4.4,0.5,3V0h5v3C5.5,4.4,4.4,5.5,3,5.5z"/></g>
<g transform="translate(384,720) scale(4.12)"><path d="M3,5.5L3,5.5C1.6,5.5,0.5,4.4,0.5,3V0h5v3C5.5,4.4,4.4,5.5,3,5.5z"/></g>
<g transform="translate(408,720) scale(4.12)"><path d="M3,5.5L3,5.5C1.6,5.5,0.5,4.4,0.5,3V0h5v3C5.5,4.4,4.4,5.5,3,5.5z"/></g>
<g transform="translate(456,720) scale(4.12)"><circle cx="3" cy="3" r="2.5"/></g>
<g transform="translate(480,720) scale(4.12)"><path d="M3,5.5L3,5.5C1.6,5.5,0.5,4.4,0.5,3V0h5v3C5.5,4.4,4.4,5.5,3,5.5z"/></g>
<g transform="translate(504,720) scale(4.12)"><circle cx="3" cy="3" r="2.5"/></g>
<g transform="translate(624,720) scale(4.12)"><path d="M3,5.5L3,5.5C1.6,5.5,0.5,4.4,0.5,3V0h5v3C5.5,4.4,4.4,5.5,3,5.5z"/></g>
<g transform="translate(672,720) scale(4.12)"><circle cx="3" cy="3" r="2.5"/></g>
<g transform="translate(48,48)"><g transform="scale(12)"><path d="M0,0l0,14h14V0H0z M7,12L7,12c-2.8,0-5-2.2-5-5v0c0-2.8,2.2-5,5-5h0c2.8,0,5,2.2,5,5v0C12,9.8,9.8,12,7,12z"/></g></g>
<g transform="translate(576,48)"><g transform="scale(12)"><path d="M0,0l0,14h14V0H0z M7,12L7,12c-2.8,0-5-2.2-5-5v0c0-2.8,2.2-5,5-5h0c2.8,0,5,2.2,5,5v0C12,9.8,9.8,12,7,12z"/></g></g>
<g transform="translate(48,576)"><g transform="scale(12)"><path d="M0,0l0,14h14V0H0z M7,12L7,12c-2.8,0-5-2.2-5-5v0c0-2.8,2.2-5,5-5h0c2.8,0,5,2.2,5,5v0C12,9.8,9.8,12,7,12z"/></g></g>
<g transform="translate(96,96)"><g transform="scale(12)"><path d="M6,1.8C5.9,1,5.3,0.4,4.5,0.3C3.9,0.2,3.4,0.5,3,0.9C2.6,0.5,2.1,0.3,1.6,0.3C0.8,0.4,0.1,1,0,1.8 C0,2.3,0.1,2.7,0.3,3l0,0l0,0c0.1,0.1,0.2,0.2,0.3,0.3l1.9,2.2c0.3,0.3,0.7,0.3,0.9,0l1.8-1.9c0.1-0.1,0.3-0.3,0.4-0.5 C5.9,2.8,6.1,2.3,6,1.8z"/></g></g>
<g transform="translate(624,96)"><g transform="scale(12)"><path d="M6,1.8C5.9,1,5.3,0.4,4.5,0.3C3.9,0.2,3.4,0.5,3,0.9C2.6,0.5,2.1,0.3,1.6,0.3C0.8,0.4,0.1,1,0,1.8 C0,2.3,0.1,2.7,0.3,3l0,0l0,0c0.1,0.1,0.2,0.2,0.3,0.3l1.9,2.2c0.3,0.3,0.7,0.3,0.9,0l1.8-1.9c0.1-0.1,0.3-0.3,0.4-0.5 C5.9,2.8,6.1,2.3,6,1.8z"/></g></g>
<g transform="translate(96,624)"><g transform="scale(12)"><path d="M6,1.8C5.9,1,5.3,0.4,4.5,0.3C3.9,0.2,3.4,0.5,3,0.9C2.6,0.5,2.1,0.3,1.6,0.3C0.8,0.4,0.1,1,0,1.8 C0,2.3,0.1,2.7,0.3,3l0,0l0,0c0.1,0.1,0.2,0.2,0.3,0.3l1.9,2.2c0.3,0.3,0.7,0.3,0.9,0l1.8-1.9c0.1-0.1,0.3-0.3,0.4-0.5 C5.9,2.8,6.1,2.3,6,1.8z"/></g></g>
</g></g></mask></defs><rect width="792" height="792" fill="#ffffff" x="0" y="0"/><rect x="0" y="0" width="792" height="792" mask="url(#qrmask)" fill="url(#pattern-gradient)"/></svg>
