<?xml version="1.0" encoding="utf-8"?>
<svg xmlns="http://www.w3.org/2000/svg" xmlns:xlink="http://www.w3.org/1999/xlink" xml:space="preserve" width="984" height="984" viewBox="0 0 984 984"><defs><radialGradient id="pattern-gradient" cx="50%" cy="50%" r="50%" fx="50%" fy="50%" gradientUnits="userSpaceOnUse"><stop offset="0%" stop-color="#ff0000"/><stop offset="100%" stop-color="#000000"/></radialGradient>
<mask id="qrmask"><g fill="#ffffff"><g>
<g transform="translate(240,48) scale(4.12)"><circle cx="3" cy="3" r="2.5"/></g>
<g transform="translate(264,48) scale(4.12)"><path d="M5.5,6h-5V3c0-1.4,1.1-2.5,2.5-2.5h0c1.4,0,2.5,1.1,2.5,2.5V6z"/></g>
<g transform="translate(288,48) scale(4.12)"><circle cx="3" cy="3" r="2.5"/></g>
<g transform="translate(312,48) scale(4.12)"><path d="M5.5,6h-5V3c0-1.4,1.1-2.5,2.5-2.5h0c1.4,0,2.5,1.1,2.5,2.5V6z"/></g>
<g transform="translate(384,48) scale(4.12)"><circle cx="3" cy="3" r="2.5"/></g>
<g transform="translate(504,48) scale(4.12)"><circle cx="3" cy="3" r="2.5"/></g>
<g transform="translate(528,48) scale(4.12)"><path d="M5.5,6h-5V3c0-1.4,1.1-2.5,2.5-2.5h0c1.4,0,2.5,1.1,2.5,2.5V6z"/></g>
<g transform="translate(552,48) scale(4.12)"><path d="M5.5,6h-5V3c0-1.4,1.1-2.5,2.5-2.5h0c1.4,0,2.5,1.1,2.5,2.5V6z"/></g>
<g transform="translate(576,48) scale(4.12)"><path d="M5.5,6h-5V3c0-1.4,1.1-2.5,2.5-2.5h0c1.4,0,2.5,1.1,2.5,2.5V6z"/></g>
<g transform="translate(624,48) scale(4.12)"><circle cx="3" cy="3" r="2.5"/></g>
<g transform="translate(648,48) scale(4.12)"><circle cx="3" cy="3" r="2.5"/></g>
<g transform="translate(720,48) scale(4.12)"><circle cx="3" cy="3" r="2.5"/></g>
<g transform="translate(264,72) scale(4.12)"><path d="M3,5.5L3,5.5C1.6,5.5,0.5,4.4,0.5,3V0h5v3C5.5,4.4,4.4,5.5,3,5.5z"/></g>
<g transform="translate(312,72) scale(4.12)"><rect x="0.5" width="5" height="6"/></g>
<g transform="translate(408,72) scale(4.12)"><path d="M5.5,6h-5V3c0-1.4,1.1-2.5,2.5-2.5h0c1.4,0,2.5,1.1,2.5,2.5V6z"/></g>
<g transform="translate(456,72) scale(4.12)"><path d="M5.5,6h-5V3c0-1.4,1.1-2.5,2.5-2.5h0c1.4,0,2.5,1.1,2.5,2.5V6z"/></g>
<g transform="translate(480,72) scale(4.12)"><path d="M5.5,6h-5V3c0-1.4,1.1-2.5,2.5-2.5h0c1.4,0,2.5,1.1,2.5,2.5V6z"/></g>
<g transform="translate(528,72) scale(4.12)"><rect x="0.5" width="5" height="6"/></g>
<g transform="translate(552,72) scale(4.12)"><rect x="0.5" width="5" height="6"/></g>
<g transform="translate(576,72) scale(4.12)"><path d="M3,5.5L3,5.5C1.6,5.5,0.5,4.4,0.5,3V0h5v3C5.5,4.4,4.4,5.5,3,5.5z"/></g>
<g transform="translate(696,72) scale(4.12)"><circle cx="3" cy="3" r="2.5"/></g>
<g transform="translate(288,96) scale(4.12)"><circle cx="3" cy="3" r="2.5"/></g>
<g transform="translate(312,96) scale(4.12)"><rect x="0.5" width="5" height="6"/></g>
<g transform="translate(336,96) scale(4.12)"><circle cx="3" cy="3" r="2.5"/></g>
<g transform="translate(360,96) scale(4.12)"><path d="M5.5,6h-5V3c0-1.4,1.1-2.5,2.5-2.5h0c1.4,0,2.5,1.1,2.5,2.5V6z"/></g>
<g transform="translate(384,96) scale(4.12)"><path d="M5.5,6h-5V3c0-1.4,1.1-2.5,2.5-2.5h0c1.4,0,2.5,1.1,2.5,2.5V6z"/></g>
<g transform="translate(408,96) scale(4.12)"><path d="M3,5.5L3,5.5C1.6,5.5,0.5,4.4,0.5,3V0h5v3C5.5,4.4,4.4,5.5,3,5.5z"/></g>
<g transform="translate(432,96) scale(4.12)"><path d="M5.5,6h-5V3c0-1.4,1.1-2.5,2.5-2.5h0c1.4,0,2.5,1.1,2.5,2.5V6z"/></g>
<g transform="translate(456,96) scale(4.12)"><rect x="0.5" width="5" height="6"/></g>
<g transform="translate(480,96) scale(4.12)"><rect x="0.5" width="5" height="6"/></g>
<g transform="translate(504,96) scale(4.12)"><path d="M5.5,6h-5V3c0-1.4,1.1-2.5,2.5-2.5h0c1.4,0,2.5,1.1,2.5,2.5V6z"/></g>
<g transform="translate(528,96) scale(4.12)"><path d="M3,5.5L3,5.5C1.6,5.5,0.5,4.4,0.5,3V0h5v3C5.5,4.4,4.4,5.5,3,5.5z"/></g>
<g transform="translate(552,96) scale(4.12)"><path d="M3,5.5L3,5.5C1.6,5.5,0.5,4.4,0.5,3V0h5v3C5.5,4.4,4.4,5.5,3,5.5z"/></g>
<g transform="translate(624,96) scale(4.12)"><path d="M5.5,6h-5V3c0-1.4,1.1-2.5,2.5-2.5h0c1.4,0,2.5,1.1,2.5,2.5V6z"/></g>
<g transform="translate(672,96) scale(4.12)"><path d="M5.5,6h-5V3c0-1.4,1.1-2.5,2.5-2.5h0c1.4,0,2.5,1.1,2.5,2.5V6z"/></g>
<g transform="translate(720,96) scale(4.12)"><circle cx="3" cy="3" r="2.5"/></g>
<g transform="translate(312,120) scale(4.12)"><rect x="0.5" width="5" height="6"/></g>
<g transform="translate(360,120) scale(4.12)"><rect x="0.5" width="5" height="6"/></g>
<g transform="translate(384,120) scale(4.12)"><rect x="0.5" width="5" height="6"/></g>
<g transform="translate(432,120) scale(4.12)"><rect x="0.5" width="5" height="6"/></g>
<g transform="translate(456,120) scale(4.12)"><path d="M3,5.5L3,5.5C1.6,5.5,0.5,4.4,0.5,3V0h5v3C5.5,4.4,4.4,5.5,3,5.5z"/></g>
<g transform="translate(480,120) scale(4.12)"><path d="M3,5.5L3,5.5C1.6,5.5,0.5,4.4,0.5,3V0h5v3C5.5,4.4,4.4,5.5,3,5.5z"/></g>
<g transform="translate(504,120) scale(4.12)"><path d="M3,5.5L3,5.5C1.6,5.5,0.5,4.4,0.5,3V0h5v3C5.5,4.4,4.4,5.5,3,5.5z"/></g>
<g transform="translate(576,120) scale(4.12)"><circle cx="3" cy="3" r="2.5"/></g>
<g transform="translate(624,120) scale(4.12)"><rect x="0.5" width="5" height="6"/></g>
<g transform="translate(648,120) scale(4.12)"><circle cx="3" cy="3" r="2.5"/></g>
<g transform="translate(672,120) scale(4.12)"><path d="M3,5.5L3,5.5C1.6,5.5,0.5,4.4,0.5,3V0h5v3C5.5,4.4,4.4,5.5,3,5.5z"/></g>
<g transform="translate(240,144) scale(4.12)"><path d="M5.5,6h-5V3c0-1.4,1.1-2.5,2.5-2.5h0c1.4,0,2.5,1.1,2.5,2.5V6z"/></g>
<g transform="translate(288,144) scale(4.12)"><path d="M5.5,6h-5V3c0-1.4,1.1-2.5,2.5-2.5h0c1.4,0,2.5,1.1,2.5,2.5V6z"/></g>
<g transform="translate(312,144) scale(4.12)"><rect x="0.5" width="5" height="6"/></g>
<g transform="translate(336,144) scale(4.12)"><circle cx="3" cy="3" r="2.5"/></g>
<g transform="translate(360,144) scale(4.12)"><path d="M3,5.5L3,5.5C1.6,5.5,0.5,4.4,0.5,3V0h5v3C5.5,4.4,4.4,5.5,3,5.5z"/></g>
<g transform="translate(384,144) scale(4.12)"><rect x="0.5" width="5" height="6"/></g>
<g transform="translate(432,144) scale(4.12)"><path d="M3,5.5L3,5.5C1.6,5.5,0.5,4.4,0.5,3V0h5v3C5.5,4.4,4.4,5.5,3,5.5z"/></g>
<g transform="translate(600,144) scale(4.12)"><circle cx="3" cy="3" r="2.5"/></g>
<g transform="translate(624,144) scale(4.12)"><path d="M3,5.5L3,5.5C1.6,5.5,0.5,4.4,0.5,3V0h5v3C5.5,4.4,4.4,5.5,3,5.5z"/></g>
<g transform="translate(720,144) scale(4.12)"><path d="M5.5,6h-5V3c0-1.4,1.1-2.5,2.5-2.5h0c1.4,0,2.5,1.1,2.5,2.5V6z"/></g>
<g transform="translate(240,168) scale(4.12)"><rect x="0.5" width="5" height="6"/></g>
<g transform="translate(288,168) scale(4.12)"><rect x="0.5" width="5" height="6"/></g>
<g transform="translate(312,168) scale(4.12)"><path d="M3,5.5L3,5.5C1.6,5.5,0.5,4.4,0.5,3V0h5v3C5.5,4.4,4.4,5.5,3,5.5z"/></g>
<g transform="translate(384,168) scale(4.12)"><rect x="0.5" width="5" height="6"/></g>
<g transform="translate(504,168) scale(4.12)"><circle cx="3" cy="3" r="2.5"/></g>
<g transform="translate(528,168) scale(4.12)"><path d="M5.5,6h-5V3c0-1.4,1.1-2.5,2.5-2.5h0c1.4,0,2.5,1.1,2.5,2.5V6z"/></g>
<g transform="translate(552,168) scale(4.12)"><circle cx="3" cy="3" r="2.5"/></g>
<g transform="translate(576,168) scale(4.12)"><path d="M5.5,6h-5V3c0-1.4,1.1-2.5,2.5-2.5h0c1.4,0,2.5,1.1,2.5,2.5V6z"/></g>
<g transform="translate(672,168) scale(4.12)"><path d="M5.5,6h-5V3c0-1.4,1.1-2.5,2.5-2.5h0c1.4,0,2.5,1.1,2.5,2.5V6z"/></g>
<g transform="translate(696,168) scale(4.12)"><circle cx="3" cy="3" r="2.5"/></g>
<g transform="translate(720,168) scale(4.12)"><rect x="0.5" width="5" height="6"/></g>
<g transform="translate(240,192) scale(4.12)"><path d="M3,5.5L3,5.5C1.6,5.5,0.5,4.4,0.5,3V0h5v3C5.5,4.4,4.4,5.5,3,5.5z"/></g>
<g transform="translate(288,192) scale(4.12)"><path d="M3,5.5L3,5.5C1.6,5.5,0.5,4.4,0.5,3V0h5v3C5.5,4.4,4.4,5.5,3,5.5z"/></g>
<g transform="translate(336,192) scale(4.12)"><circle cx="3" cy="3" r="2.5"/></g>
<g transform="translate(384,192) scale(4.12)"><path d="M3,5.5L3,5.5C1.6,5.5,0.5,4.4,0.5,3V0h5v3C5.5,4.4,4.4,5.5,3,5.5z"/></g>
<g transform="translate(432,192) scale(4.12)"><circle cx="3" cy="3" r="2.5"/></g>
<g transform="translate(480,192) scale(4.12)"><circle cx="3" cy="3" r="2.5"/></g>
<g transform="translate(528,192) scale(4.12)"><rect x="0.5" width="5" height="6"/></g>
<g transform="translate(576,192) scale(4.12)"><path d="M3,5.5L3,5.5C1.6,5.5,0.5,4.4,0.5,3V0h5v3C5.5,4.4,4.4,5.5,3,5.5z"/></g>
<g transform="translate(624,192) scale(4.12)"><circle cx="3" cy="3" r="2.5"/></g>
<g transform="translate(672,192) scale(4.12)"><path d="M3,5.5L3,5.5C1.6,5.5,0.5,4.4,0.5,3V0h5v3C5.5,4.4,4.4,5.5,3,5.5z"/></g>
<g transform="translate(720,192) scale(4.12)"><rect x="0.5" width="5" height="6"/></g>
<g transform="translate(264,216) scale(4.12)"><circle cx="3" cy="3" r="2.5"/></g>
<g transform="translate(312,216) scale(4.12)"><path d="M5.5,6h-5V3c0-1.4,1.1-2.5,2.5-2.5h0c1.4,0,2.5,1.1,2.5,2.5V6z"/></g>
<g transform="translate(408,216) scale(4.12)"><path d="M5.5,6h-5V3c0-1.4,1.1-2.5,2.5-2.5h0c1.4,0,2.5,1.1,2.5,2.5V6z"/></g>
<g transform="translate(528,216) scale(4.12)"><rect x="0.5" width="5" height="6"/></g>
<g transform="translate(552,216) scale(4.12)"><circle cx="3" cy="3" r="2.5"/></g>
<g transform="translate(600,216) scale(4.12)"><circle cx="3" cy="3" r="2.5"/></g>
<g transform="translate(720,216) scale(4.12)"><rect x="0.5" width="5" height="6"/></g>
<g transform="translate(72,240) scale(4.12)"><path d="M5.5,6h-5V3c0-1.4,1.1-2.5,2.5-2.5h0c1.4,0,2.5,1.1,2.5,2.5V6z"/></g>
<g transform="translate(96,240) scale(4.12)"><path d="M5.5,6h-5V3c0-1.4,1.1-2.5,2.5-2.5h0c1.4,0,2.5,1.1,2.5,2.5V6z"/></g>
<g transform="translate(120,240) scale(4.12)"><circle cx="3" cy="3" r="2.5"/></g>
<g transform="translate(144,240) scale(4.12)"><path d="M5.5,6h-5V3c0-1.4,1.1-2.5,2.5-2.5h0c1.4,0,2.5,1.1,2.5,2.5V6z"/></g>
<g transform="translate(168,240) scale(4.12)"><circle cx="3" cy="3" r="2.5"/></g>
<g transform="translate(192,240) scale(4.12)"><circle cx="3" cy="3" r="2.5"/></g>
<g transform="translate(216,240) scale(4.12)"><path d="M5.5,6h-5V3c0-1.4,1.1-2.5,2.5-2.5h0c1.4,0,2.5,1.1,2.5,2.5V6z"/></g>
<g transform="translate(312,240) scale(4.12)"><path d="M3,5.5L3,5.5C1.6,5.5,0.5,4.4,0.5,3V0h5v3C5.5,4.4,4.4,5.5,3,5.5z"/></g>
<g transform="translate(336,240) scale(4.12)"><path d="M5.5,6h-5V3c0-1.4,1.1-2.5,2.5-2.5h0c1.4,0,2.5,1.1,2.5,2.5V6z"/></g>
<g transform="translate(360,240) scale(4.12)"><path d="M5.5,6h-5V3c0-1.4,1.1-2.5,2.5-2.5h0c1.4,0,2.5,1.1,2.5,2.5V6z"/></g>
<g transform="translate(384,240) scale(4.12)"><circle cx="3" cy="3" r="2.5"/></g>
<g transform="translate(408,240) scale(4.12)"><rect x="0.5" width="5" height="6"/></g>
<g transform="translate(432,240) scale(4.12)"><circle cx="3" cy="3" r="2.5"/></g>
<g transform="translate(456,240) scale(4.12)"><path d="M5.5,6h-5V3c0-1.4,1.1-2.5,2.5-2.5h0c1.4,0,2.5,1.1,2.5,2.5V6z"/></g>
<g transform="translate(528,240) scale(4.12)"><rect x="0.5" width="5" height="6"/></g>
<g transform="translate(576,240) scale(4.12)"><path d="M5.5,6h-5V3c0-1.4,1.1-2.5,2.5-2.5h0c1.4,0,2.5,1.1,2.5,2.5V6z"/></g>
<g transform="translate(624,240) scale(4.12)"><circle cx="3" cy="3" r="2.5"/></g>
<g transform="translate(648,240) scale(4.12)"><circle cx="3" cy="3" r="2.5"/></g>
<g transform="translate(672,240) scale(4.12)"><circle cx="3" cy="3" r="2.5"/></g>
<g transform="translate(720,240) scale(4.12)"><rect x="0.5" width="5" height="6"/></g>
<g transform="translate(792,240) scale(4.12)"><path d="M5.5,6h-5V3c0-1.4,1.1-2.5,2.5-2.5h0c1.4,0,2.5,1.1,2.5,2.5V6z"/></g>
<g transform="translate(816,240) scale(4.12)"><circle cx="3" cy="3" r="2.5"/></g>
<g transform="translate(912,240) scale(4.12)"><circle cx="3" cy="3" r="2.5"/></g>
<g transform="translate(72,264) scale(4.12)"><rect x="0.5" width="5" height="6"/></g>
<g transform="translate(96,264) scale(4.12)"><rect x="0.5" width="5" height="6"/></g>
<g transform="translate(144,264) scale(4.12)"><rect x="0.5" width="5" height="6"/></g>
<g transform="translate(216,264) scale(4.12)"><rect x="0.5" width="5" height="6"/></g>
<g transform="translate(264,264) scale(4.12)"><circle cx="3" cy="3" r="2.5"/></g>
<g transform="translate(336,264) scale(4.12)"><rect x="0.5" width="5" height="6"/></g>
<g transform="translate(360,264) scale(4.12)"><path d="M3,5.5L3,5.5C1.6,5.5,0.5,4.4,0.5,3V0h5v3C5.5,4.4,4.4,5.5,3,5.5z"/></g>
<g transform="translate(408,264) scale(4.12)"><path d="M3,5.5L3,5.5C1.6,5.5,0.5,4.4,0.5,3V0h5v3C5.5,4.4,4.4,5.5,3,5.5z"/></g>
<g transform="translate(456,264) scale(4.12)"><rect x="0.5" width="5" height="6"/></g>
<g transform="translate(480,264) scale(4.12)"><path d="M5.5,6h-5V3c0-1.4,1.1-2.5,2.5-2.5h0c1.4,0,2.5,1.1,2.5,2.5V6z"/></g>
<g transform="translate(528,264) scale(4.12)"><path d="M3,5.5L3,5.5C1.6,5.5,0.5,4.4,0.5,3V0h5v3C5.5,4.4,4.4,5.5,3,5.5z"/></g>
<g transform="translate(576,264) scale(4.12)"><rect x="0.5" width="5" height="6"/></g>
<g transform="translate(600,264) scale(4.12)"><circle cx="3" cy="3" r="2.5"/></g>
<g transform="translate(720,264) scale(4.12)"><path d="M3,5.5L3,5.5C1.6,5.5,0.5,4.4,0.5,3V0h5v3C5.5,4.4,4.4,5.5,3,5.5z"/></g>
<g transform="translate(792,264) scale(4.12)"><rect x="0.5" width="5" height="6"/></g>
<g transform="translate(840,264) scale(4.12)"><circle cx="3" cy="3" r="2.5"/></g>
<g transform="translate(48,288) scale(4.12)"><circle cx="3" cy="3" r="2.5"/></g>
<g transform="translate(72,288) scale(4.12)"><path d="M3,5.5L3,5.5C1.6,5.5,0.5,4.4,0.5,3V0h5v3C5.5,4.4,4.4,5.5,3,5.5z"/></g>
<g transform="translate(96,288) scale(4.12)"><path d="M3,5.5L3,5.5C1.6,5.5,0.5,4.4,0.5,3V0h5v3C5.5,4.4,4.4,5.5,3,5.5z"/></g>
<g transform="translate(144,288) scale(4.12)"><path d="M3,5.5L3,5.5C1.6,5.5,0.5,4.4,0.5,3V0h5v3C5.5,4.4,4.4,5.5,3,5.5z"/></g>
<g transform="translate(168,288) scale(4.12)"><path d="M5.5,6h-5V3c0-1.4,1.1-2.5,2.5-2.5h0c1.4,0,2.5,1.1,2.5,2.5V6z"/></g>
<g transform="translate(192,288) scale(4.12)"><circle cx="3" cy="3" r="2.5"/></g>
<g transform="translate(216,288) scale(4.12)"><rect x="0.5" width="5" height="6"/></g>
<g transform="translate(240,288) scale(4.12)"><path d="M5.5,6h-5V3c0-1.4,1.1-2.5,2.5-2.5h0c1.4,0,2.5,1.1,2.5,2.5V6z"/></g>
<g transform="translate(336,288) scale(4.12)"><path d="M3,5.5L3,5.5C1.6,5.5,0.5,4.4,0.5,3V0h5v3C5.5,4.4,4.4,5.5,3,5.5z"/></g>
<g transform="translate(384,288) scale(4.12)"><circle cx="3" cy="3" r="2.5"/></g>
<g transform="translate(456,288) scale(4.12)"><rect x="0.5" width="5" height="6"/></g>
<g transform="translate(480,288) scale(4.12)"><path d="M3,5.5L3,5.5C1.6,5.5,0.5,4.4,0.5,3V0h5v3C5.5,4.4,4.4,5.5,3,5.5z"/></g>
<g transform="translate(576,288) scale(4.12)"><rect x="0.5" width="5" height="6"/></g>
<g transform="translate(696,288) scale(4.12)"><path d="M5.5,6h-5V3c0-1.4,1.1-2.5,2.5-2.5h0c1.4,0,2.5,1.1,2.5,2.5V6z"/></g>
<g transform="translate(768,288) scale(4.12)"><path d="M5.5,6h-5V3c0-1.4,1.1-2.5,2.5-2.5h0c1.4,0,2.5,1.1,2.5,2.5V6z"/></g>
<g transform="translate(792,288) scale(4.12)"><rect x="0.5" width="5" height="6"/></g>
<g transform="translate(816,288) scale(4.12)"><path d="M5.5,6h-5V3c0-1.4,1.1-2.5,2.5-2.5h0c1.4,0,2.5,1.1,2.5,2.5V6z"/></g>
<g transform="translate(864,288) scale(4.12)"><circle cx="3" cy="3" r="2.5"/></g>
<g transform="translate(888,288) scale(4.12)"><path d="M5.5,6h-5V3c0-1.4,1.1-2.5,2.5-2.5h0c1.4,0,2.5,1.1,2.5,2.5V6z"/></g>
<g transform="translate(912,288) scale(4.12)"><circle cx="3" cy="3" r="2.5"/></g>
<g transform="translate(120,312) scale(4.12)"><circle cx="3" cy="3" r="2.5"/></g>
<g transform="translate(168,312) scale(4.12)"><rect x="0.5" width="5" height="6"/></g>
<g transform="translate(216,312) scale(4.12)"><rect x="0.5" width="5" height="6"/></g>
<g transform="translate(240,312) scale(4.12)"><path d="M3,5.5L3,5.5C1.6,5.5,0.5,4.4,0.5,3V0h5v3C5.5,4.4,4.4,5.5,3,5.5z"/></g>
<g transform="translate(264,312) scale(4.12)"><circle cx="3" cy="3" r="2.5"/></g>
<g transform="translate(360,312) scale(4.12)"><circle cx="3" cy="3" r="2.5"/></g>
<g transform="translate(432,312) scale(4.12)"><path d="M5.5,6h-5V3c0-1.4,1.1-2.5,2.5-2.5h0c1.4,0,2.5,1.1,2.5,2.5V6z"/></g>
<g transform="translate(456,312) scale(4.12)"><rect x="0.5" width="5" height="6"/></g>
<g transform="translate(504,312) scale(4.12)"><path d="M5.5,6h-5V3c0-1.4,1.1-2.5,2.5-2.5h0c1.4,0,2.5,1.1,2.5,2.5V6z"/></g>
<g transform="translate(528,312) scale(4.12)"><circle cx="3" cy="3" r="2.5"/></g>
<g transform="translate(552,312) scale(4.12)"><path d="M5.5,6h-5V3c0-1.4,1.1-2.5,2.5-2.5h0c1.4,0,2.5,1.1,2.5,2.5V6z"/></g>
<g transform="translate(576,312) scale(4.12)"><rect x="0.5" width="5" height="6"/></g>
<g transform="translate(624,312) scale(4.12)"><path d="M5.5,6h-5V3c0-1.4,1.1-2.5,2.5-2.5h0c1.4,0,2.5,1.1,2.5,2.5V6z"/></g>
<g transform="translate(672,312) scale(4.12)"><path d="M5.5,6h-5V3c0-1.4,1.1-2.5,2.5-2.5h0c1.4,0,2.5,1.1,2.5,2.5V6z"/></g>
<g transform="translate(696,312) scale(4.12)"><path d="M3,5.5L3,5.5C1.6,5.5,0.5,4.4,0.5,3V0h5v3C5.5,4.4,4.4,5.5,3,5.5z"/></g>
<g transform="translate(768,312) scale(4.12)"><rect x="0.5" width="5" height="6"/></g>
<g transform="translate(792,312) scale(4.12)"><rect x="0.5" width="5" height="6"/></g>
<g transform="translate(816,312) scale(4.12)"><rect x="0.5" width="5" height="6"/></g>
<g transform="translate(888,312) scale(4.12)"><path d="M3,5.5L3,5.5C1.6,5.5,0.5,4.4,0.5,3V0h5v3C5.5,4.4,4.4,5.5,3,5.5z"/></g>
<g transform="translate(48,336) scale(4.12)"><path d="M5.5,6h-5V3c0-1.4,1.1-2.5,2.5-2.5h0c1.4,0,2.5,1.1,2.5,2.5V6z"/></g>
<g transform="translate(144,336) scale(4.12)"><circle cx="3" cy="3" r="2.5"/></g>
<g transform="translate(168,336) scale(4.12)"><path d="M3,5.5L3,5.5C1.6,5.5,0.5,4.4,0.5,3V0h5v3C5.5,4.4,4.4,5.5,3,5.5z"/></g>
<g transform="translate(192,336) scale(4.12)"><circle cx="3" cy="3" r="2.5"/></g>
<g transform="translate(216,336) scale(4.12)"><rect x="0.5" width="5" height="6"/></g>
<g transform="translate(312,336) scale(4.12)"><circle cx="3" cy="3" r="2.5"/></g>
<g transform="translate(432,336) scale(4.12)"><path d="M3,5.5L3,5.5C1.6,5.5,0.5,4.4,0.5,3V0h5v3C5.5,4.4,4.4,5.5,3,5.5z"/></g>
<g transform="translate(456,336) scale(4.12)"><path d="M3,5.5L3,5.5C1.6,5.5,0.5,4.4,0.5,3V0h5v3C5.5,4.4,4.4,5.5,3,5.5z"/></g>
<g transform="translate(504,336) scale(4.12)"><path d="M3,5.5L3,5.5C1.6,5.5,0.5,4.4,0.5,3V0h5v3C5.5,4.4,4.4,5.5,3,5.5z"/></g>
<g transform="translate(552,336) scale(4.12)"><path d="M3,5.5L3,5.5C1.6,5.5,0.5,4.4,0.5,3V0h5v3C5.5,4.4,4.4,5.5,3,5.5z"/></g>
<g transform="translate(576,336) scale(4.12)"><rect x="0.5" width="5" height="6"/></g>
<g transform="translate(600,336) scale(4.12)"><path d="M5.5,6h-5V3c0-1.4,1.1-2.5,2.5-2.5h0c1.4,0,2.5,1.1,2.5,2.5V6z"/></g>
<g transform="translate(624,336) scale(4.12)"><path d="M3,5.5L3,5.5C1.6,5.5,0.5,4.4,0.5,3V0h5v3C5.5,4.4,4.4,5.5,3,5.5z"/></g>
<g transform="translate(648,336) scale(4.12)"><circle cx="3" cy="3" r="2.5"/></g>
<g transform="translate(672,336) scale(4.12)"><rect x="0.5" width="5" height="6"/></g>
<g transform="translate(768,336) scale(4.12)"><path d="M3,5.5L3,5.5C1.6,5.5,0.5,4.4,0.5,3V0h5v3C5.5,4.4,4.4,5.5,3,5.5z"/></g>
<g transform="translate(792,336) scale(4.12)"><rect x="0.5" width="5" height="6"/></g>
<g transform="translate(816,336) scale(4.12)"><path d="M3,5.5L3,5.5C1.6,5.5,0.5,4.4,0.5,3V0h5v3C5.5,4.4,4.4,5.5,3,5.5z"/></g>
<g transform="translate(864,336) scale(4.12)"><path d="M5.5,6h-5V3c0-1.4,1.1-2.5,2.5-2.5h0c1.4,0,2.5,1.1,2.5,2.5V6z"/></g>
<g transform="translate(912,336) scale(4.12)"><circle cx="3" cy="3" r="2.5"/></g>
<g transform="translate(48,360) scale(4.12)"><rect x="0.5" width="5" height="6"/></g>
<g transform="translate(72,360) scale(4.12)"><circle cx="3" cy="3" r="2.5"/></g>
<g transform="translate(120,360) scale(4.12)"><circle cx="3" cy="3" r="2.5"/></g>
<g transform="translate(216,360) scale(4.12)"><path d="M3,5.5L3,5.5C1.6,5.5,0.5,4.4,0.5,3V0h5v3C5.5,4.4,4.4,5.5,3,5.5z"/></g>
<g transform="translate(240,360) scale(4.12)"><circle cx="3" cy="3" r="2.5"/></g>
<g transform="translate(288,360) scale(4.12)"><circle cx="3" cy="3" r="2.5"/></g>
<g transform="translate(360,360) scale(4.12)"><path d="M5.5,6h-5V3c0-1.4,1.1-2.5,2.5-2.5h0c1.4,0,2.5,1.1,2.5,2.5V6z"/></g>
<g transform="translate(384,360) scale(4.12)"><path d="M5.5,6h-5V3c0-1.4,1.1-2.5,2.5-2.5h0c1.4,0,2.5,1.1,2.5,2.5V6z"/></g>
<g transform="translate(576,360) scale(4.12)"><rect x="0.5" width="5" height="6"/></g>
<g transform="translate(600,360) scale(4.12)"><path d="M3,5.5L3,5.5C1.6,5.5,0.5,4.4,0.5,3V0h5v3C5.5,4.4,4.4,5.5,3,5.5z"/></g>
<g transform="translate(672,360) scale(4.12)"><rect x="0.5" width="5" height="6"/></g>
<g transform="translate(720,360) scale(4.12)"><path d="M5.5,6h-5V3c0-1.4,1.1-2.5,2.5-2.5h0c1.4,0,2.5,1.1,2.5,2.5V6z"/></g>
<g transform="translate(744,360) scale(4.12)"><path d="M5.5,6h-5V3c0-1.4,1.1-2.5,2.5-2.5h0c1.4,0,2.5,1.1,2.5,2.5V6z"/></g>
<g transform="translate(792,360) scale(4.12)"><rect x="0.5" width="5" height="6"/></g>
<g transform="translate(840,360) scale(4.12)"><path d="M5.5,6h-5V3c0-1.4,1.1-2.5,2.5-2.5h0c1.4,0,2.5,1.1,2.5,2.5V6z"/></g>
<g transform="translate(864,360) scale(4.12)"><path d="M3,5.5L3,5.5C1.6,5.5,0.5,4.4,0.5,3V0h5v3C5.5,4.4,4.4,5.5,3,5.5z"/></g>
<g transform="translate(48,384) scale(4.12)"><rect x="0.5" width="5" height="6"/></g>
<g transform="translate(96,384) scale(4.12)"><circle cx="3" cy="3" r="2.5"/></g>
<g transform="translate(192,384) scale(4.12)"><circle cx="3" cy="3" r="2.5"/></g>
<g transform="translate(264,384) scale(4.12)"><path d="M5.5,6h-5V3c0-1.4,1.1-2.5,2.5-2.5h0c1.4,0,2.5,1.1,2.5,2.5V6z"/></g>
<g transform="translate(312,384) scale(4.12)"><circle cx="3" cy="3" r="2.5"/></g>
<g transform="translate(360,384) scale(4.12)"><path d="M3,5.5L3,5.5C1.6,5.5,0.5,4.4,0.5,3V0h5v3C5.5,4.4,4.4,5.5,3,5.5z"/></g>
<g transform="translate(384,384) scale(4.12)"><rect x="0.5" width="5" height="6"/></g>
<g transform="translate(408,384) scale(4.12)"><circle cx="3" cy="3" r="2.5"/></g>
<g transform="translate(456,384) scale(4.12)"><path d="M5.5,6h-5V3c0-1.4,1.1-2.5,2.5-2.5h0c1.4,0,2.5,1.1,2.5,2.5V6z"/></g>
<g transform="translate(480,384) scale(4.12)"><path d="M5.5,6h-5V3c0-1.4,1.1-2.5,2.5-2.5h0c1.4,0,2.5,1.1,2.5,2.5V6z"/></g>
<g transform="translate(528,384) scale(4.12)"><circle cx="3" cy="3" r="2.5"/></g>
<g transform="translate(576,384) scale(4.12)"><path d="M3,5.5L3,5.5C1.6,5.5,0.5,4.4,0.5,3V0h5v3C5.5,4.4,4.4,5.5,3,5.5z"/></g>
<g transform="translate(648,384) scale(4.12)"><circle cx="3" cy="3" r="2.5"/></g>
<g transform="translate(672,384) scale(4.12)"><path d="M3,5.5L3,5.5C1.6,5.5,0.5,4.4,0.5,3V0h5v3C5.5,4.4,4.4,5.5,3,5.5z"/></g>
<g transform="translate(696,384) scale(4.12)"><circle cx="3" cy="3" r="2.5"/></g>
<g transform="translate(720,384) scale(4.12)"><rect x="0.5" width="5" height="6"/></g>
<g transform="translate(744,384) scale(4.12)"><path d="M3,5.5L3,5.5C1.6,5.5,0.5,4.4,0.5,3V0h5v3C5.5,4.4,4.4,5.5,3,5.5z"/></g>
<g transform="translate(792,384) scale(4.12)"><rect x="0.5" width="5" height="6"/></g>
<g transform="translate(840,384) scale(4.12)"><path d="M3,5.5L3,5.5C1.6,5.5,0.5,4.4,0.5,3V0h5v3C5.5,4.4,4.4,5.5,3,5.5z"/></g>
<g transform="translate(888,384) scale(4.12)"><circle cx="3" cy="3" r="2.5"/></g>
<g transform="translate(912,384) scale(4.12)"><circle cx="3" cy="3" r="2.5"/></g>
<g transform="translate(48,408) scale(4.12)"><path d="M3,5.5L3,5.5C1.6,5.5,0.5,4.4,0.5,3V0h5v3C5.5,4.4,4.4,5.5,3,5.5z"/></g>
<g transform="translate(72,408) scale(4.12)"><path d="M5.5,6h-5V3c0-1.4,1.1-2.5,2.5-2.5h0c1.4,0,2.5,1.1,2.5,2.5V6z"/></g>
<g transform="translate(144,408) scale(4.12)"><circle cx="3" cy="3" r="2.5"/></g>
<g transform="translate(264,408) scale(4.12)"><path d="M3,5.5L3,5.5C1.6,5.5,0.5,4.4,0.5,3V0h5v3C5.5,4.4,4.4,5.5,3,5.5z"/></g>
<g transform="translate(288,408) scale(4.12)"><circle cx="3" cy="3" r="2.5"/></g>
<g transform="translate(384,408) scale(4.12)"><rect x="0.5" width="5" height="6"/></g>
<g transform="translate(456,408) scale(4.12)"><path d="M3,5.5L3,5.5C1.6,5.5,0.5,4.4,0.5,3V0h5v3C5.5,4.4,4.4,5.5,3,5.5z"/></g>
<g transform="translate(480,408) scale(4.12)"><rect x="0.5" width="5" height="6"/></g>
<g transform="translate(504,408) scale(4.12)"><path d="M5.5,6h-5V3c0-1.4,1.1-2.5,2.5-2.5h0c1.4,0,2.5,1.1,2.5,2.5V6z"/></g>
<g transform="translate(624,408) scale(4.12)"><path d="M5.5,6h-5V3c0-1.4,1.1-2.5,2.5-2.5h0c1.4,0,2.5,1.1,2.5,2.5V6z"/></g>
<g transform="translate(720,408) scale(4.12)"><path d="M3,5.5L3,5.5C1.6,5.5,0.5,4.4,0.5,3V0h5v3C5.5,4.4,4.4,5.5,3,5.5z"/></g>
<g transform="translate(768,408) scale(4.12)"><path d="M5.5,6h-5V3c0-1.4,1.1-2.5,2.5-2.5h0c1.4,0,2.5,1.1,2.5,2.5V6z"/></g>
<g transform="translate(792,408) scale(4.12)"><path d="M3,5.5L3,5.5C1.6,5.5,0.5,4.4,0.5,3V0h5v3C5.5,4.4,4.4,5.5,3,5.5z"/></g>
<g transform="translate(72,432) scale(4.12)"><rect x="0.5" width="5" height="6"/></g>
<g transform="translate(96,432) scale(4.12)"><path d="M5.5,6h-5V3c0-1.4,1.1-2.5,2.5-2.5h0c1.4,0,2.5,1.1,2.5,2.5V6z"/></g>
<g transform="translate(192,432) scale(4.12)"><circle cx="3" cy="3" r="2.5"/></g>
<g transform="translate(216,432) scale(4.12)"><circle cx="3" cy="3" r="2.5"/></g>
<g transform="translate(312,432) scale(4.12)"><path d="M5.5,6h-5V3c0-1.4,1.1-2.5,2.5-2.5h0c1.4,0,2.5,1.1,2.5,2.5V6z"/></g>
<g transform="translate(384,432) scale(4.12)"><rect x="0.5" width="5" height="6"/></g>
<g transform="translate(480,432) scale(4.12)"><path d="M3,5.5L3,5.5C1.6,5.5,0.5,4.4,0.5,3V0h5v3C5.5,4.4,4.4,5.5,3,5.5z"/></g>
<g transform="translate(504,432) scale(4.12)"><rect x="0.5" width="5" height="6"/></g>
<g transform="translate(552,432) scale(4.12)"><circle cx="3" cy="3" r="2.5"/></g>
<g transform="translate(576,432) scale(4.12)"><circle cx="3" cy="3" r="2.5"/></g>
<g transform="translate(624,432) scale(4.12)"><path d="M3,5.5L3,5.5C1.6,5.5,0.5,4.4,0.5,3V0h5v3C5.5,4.4,4.4,5.5,3,5.5z"/></g>
<g transform="translate(648,432) scale(4.12)"><path d="M5.5,6h-5V3c0-1.4,1.1-2.5,2.5-2.5h0c1.4,0,2.5,1.1,2.5,2.5V6z"/></g>
<g transform="translate(672,432) scale(4.12)"><circle cx="3" cy="3" r="2.5"/></g>
<g transform="translate(696,432) scale(4.12)"><circle cx="3" cy="3" r="2.5"/></g>
<g transform="translate(744,432) scale(4.12)"><circle cx="3" cy="3" r="2.5"/></g>
<g transform="translate(768,432) scale(4.12)"><path d="M3,5.5L3,5.5C1.6,5.5,0.5,4.4,0.5,3V0h5v3C5.5,4.4,4.4,5.5,3,5.5z"/></g>
<g transform="translate(816,432) scale(4.12)"><circle cx="3" cy="3" r="2.5"/></g>
<g transform="translate(864,432) scale(4.12)"><circle cx="3" cy="3" r="2.5"/></g>
<g transform="translate(888,432) scale(4.12)"><circle cx="3" cy="3" r="2.5"/></g>
<g transform="translate(48,456) scale(4.12)"><circle cx="3" cy="3" r="2.5"/></g>
<g transform="translate(72,456) scale(4.12)"><path d="M3,5.5L3,5.5C1.6,5.5,0.5,4.4,0.5,3V0h5v3C5.5,4.4,4.4,5.5,3,5.5z"/></g>
<g transform="translate(96,456) scale(4.12)"><path d="M3,5.5L3,5.5C1.6,5.5,0.5,4.4,0.5,3V0h5v3C5.5,4.4,4.4,5.5,3,5.5z"/></g>
<g transform="translate(144,456) scale(4.12)"><path d="M5.5,6h-5V3c0-1.4,1.1-2.5,2.5-2.5h0c1.4,0,2.5,1.1,2.5,2.5V6z"/></g>
<g transform="translate(288,456) scale(4.12)"><circle cx="3" cy="3" r="2.5"/></g>
<g transform="translate(312,456) scale(4.12)"><rect x="0.5" width="5" height="6"/></g>
<g transform="translate(336,456) scale(4.12)"><path d="M5.5,6h-5V3c0-1.4,1.1-2.5,2.5-2.5h0c1.4,0,2.5,1.1,2.5,2.5V6z"/></g>
<g transform="translate(384,456) scale(4.12)"><rect x="0.5" width="5" height="6"/></g>
<g transform="translate(408,456) scale(4.12)"><circle cx="3" cy="3" r="2.5"/></g>
<g transform="translate(432,456) scale(4.12)"><circle cx="3" cy="3" r="2.5"/></g>
<g transform="translate(504,456) scale(4.12)"><path d="M3,5.5L3,5.5C1.6,5.5,0.5,4.4,0.5,3V0h5v3C5.5,4.4,4.4,5.5,3,5.5z"/></g>
<g transform="translate(528,456) scale(4.12)"><path d="M5.5,6h-5V3c0-1.4,1.1-2.5,2.5-2.5h0c1.4,0,2.5,1.1,2.5,2.5V6z"/></g>
<g transform="translate(648,456) scale(4.12)"><path d="M3,5.5L3,5.5C1.6,5.5,0.5,4.4,0.5,3V0h5v3C5.5,4.4,4.4,5.5,3,5.5z"/></g>
<g transform="translate(792,456) scale(4.12)"><path d="M5.5,6h-5V3c0-1.4,1.1-2.5,2.5-2.5h0c1.4,0,2.5,1.1,2.5,2.5V6z"/></g>
<g transform="translate(120,480) scale(4.12)"><path d="M5.5,6h-5V3c0-1.4,1.1-2.5,2.5-2.5h0c1.4,0,2.5,1.1,2.5,2.5V6z"/></g>
<g transform="translate(144,480) scale(4.12)"><rect x="0.5" width="5" height="6"/></g>
<g transform="translate(168,480) scale(4.12)"><circle cx="3" cy="3" r="2.5"/></g>
<g transform="translate(192,480) scale(4.12)"><circle cx="3" cy="3" r="2.5"/></g>
<g transform="translate(240,480) scale(4.12)"><circle cx="3" cy="3" r="2.5"/></g>
<g transform="translate(312,480) scale(4.12)"><rect x="0.5" width="5" height="6"/></g>
<g transform="translate(336,480) scale(4.12)"><path d="M3,5.5L3,5.5C1.6,5.5,0.5,4.4,0.5,3V0h5v3C5.5,4.4,4.4,5.5,3,5.5z"/></g>
<g transform="translate(384,480) scale(4.12)"><rect x="0.5" width="5" height="6"/></g>
<g transform="translate(456,480) scale(4.12)"><path d="M5.5,6h-5V3c0-1.4,1.1-2.5,2.5-2.5h0c1.4,0,2.5,1.1,2.5,2.5V6z"/></g>
<g transform="translate(528,480) scale(4.12)"><path d="M3,5.5L3,5.5C1.6,5.5,0.5,4.4,0.5,3V0h5v3C5.5,4.4,4.4,5.5,3,5.5z"/></g>
<g transform="translate(576,480) scale(4.12)"><path d="M5.5,6h-5V3c0-1.4,1.1-2.5,2.5-2.5h0c1.4,0,2.5,1.1,2.5,2.5V6z"/></g>
<g transform="translate(600,480) scale(4.12)"><path d="M5.5,6h-5V3c0-1.4,1.1-2.5,2.5-2.5h0c1.4,0,2.5,1.1,2.5,2.5V6z"/></g>
<g transform="translate(624,480) scale(4.12)"><circle cx="3" cy="3" r="2.5"/></g>
<g transform="translate(672,480) scale(4.12)"><circle cx="3" cy="3" r="2.5"/></g>
<g transform="translate(696,480) scale(4.12)"><path d="M5.5,6h-5V3c0-1.4,1.1-2.5,2.5-2.5h0c1.4,0,2.5,1.1,2.5,2.5V6z"/></g>
<g transform="translate(720,480) scale(4.12)"><circle cx="3" cy="3" r="2.5"/></g>
<g transform="translate(768,480) scale(4.12)"><circle cx="3" cy="3" r="2.5"/></g>
<g transform="translate(792,480) scale(4.12)"><rect x="0.5" width="5" height="6"/></g>
<g transform="translate(864,480) scale(4.12)"><circle cx="3" cy="3" r="2.5"/></g>
<g transform="translate(888,480) scale(4.12)"><path d="M5.5,6h-5V3c0-1.4,1.1-2.5,2.5-2.5h0c1.4,0,2.5,1.1,2.5,2.5V6z"/></g>
<g transform="translate(912,480) scale(4.12)"><circle cx="3" cy="3" r="2.5"/></g>
<g transform="translate(72,504) scale(4.12)"><circle cx="3" cy="3" r="2.5"/></g>
<g transform="translate(96,504) scale(4.12)"><path d="M5.5,6h-5V3c0-1.4,1.1-2.5,2.5-2.5h0c1.4,0,2.5,1.1,2.5,2.5V6z"/></g>
<g transform="translate(120,504) scale(4.12)"><path d="M3,5.5L3,5.5C1.6,5.5,0.5,4.4,0.5,3V0h5v3C5.5,4.4,4.4,5.5,3,5.5z"/></g>
<g transform="translate(144,504) scale(4.12)"><path d="M3,5.5L3,5.5C1.6,5.5,0.5,4.4,0.5,3V0h5v3C5.5,4.4,4.4,5.5,3,5.5z"/></g>
<g transform="translate(264,504) scale(4.12)"><circle cx="3" cy="3" r="2.5"/></g>
<g transform="translate(288,504) scale(4.12)"><circle cx="3" cy="3" r="2.5"/></g>
<g transform="translate(312,504) scale(4.12)"><rect x="0.5" width="5" height="6"/></g>
<g transform="translate(360,504) scale(4.12)"><circle cx="3" cy="3" r="2.5"/></g>
<g transform="translate(384,504) scale(4.12)"><rect x="0.5" width="5" height="6"/></g>
<g transform="translate(408,504) scale(4.12)"><circle cx="3" cy="3" r="2.5"/></g>
<g transform="translate(456,504) scale(4.12)"><rect x="0.5" width="5" height="6"/></g>
<g transform="translate(480,504) scale(4.12)"><circle cx="3" cy="3" r="2.5"/></g>
<g transform="translate(504,504) scale(4.12)"><circle cx="3" cy="3" r="2.5"/></g>
<g transform="translate(552,504) scale(4.12)"><circle cx="3" cy="3" r="2.5"/></g>
<g transform="translate(576,504) scale(4.12)"><rect x="0.5" width="5" height="6"/></g>
<g transform="translate(600,504) scale(4.12)"><rect x="0.5" width="5" height="6"/></g>
<g transform="translate(696,504) scale(4.12)"><path d="M3,5.5L3,5.5C1.6,5.5,0.5,4.4,0.5,3V0h5v3C5.5,4.4,4.4,5.5,3,5.5z"/></g>
<g transform="translate(744,504) scale(4.12)"><circle cx="3" cy="3" r="2.5"/></g>
<g transform="translate(792,504) scale(4.12)"><rect x="0.5" width="5" height="6"/></g>
<g transform="translate(888,504) scale(4.12)"><rect x="0.5" width="5" height="6"/></g>
<g transform="translate(48,528) scale(4.12)"><path d="M5.5,6h-5V3c0-1.4,1.1-2.5,2.5-2.5h0c1.4,0,2.5,1.1,2.5,2.5V6z"/></g>
<g transform="translate(96,528) scale(4.12)"><rect x="0.5" width="5" height="6"/></g>
<g transform="translate(192,528) scale(4.12)"><circle cx="3" cy="3" r="2.5"/></g>
<g transform="translate(312,528) scale(4.12)"><rect x="0.5" width="5" height="6"/></g>
<g transform="translate(384,528) scale(4.12)"><path d="M3,5.5L3,5.5C1.6,5.5,0.5,4.4,0.5,3V0h5v3C5.5,4.4,4.4,5.5,3,5.5z"/></g>
<g transform="translate(456,528) scale(4.12)"><path d="M3,5.5L3,5.5C1.6,5.5,0.5,4.4,0.5,3V0h5v3C5.5,4.4,4.4,5.5,3,5.5z"/></g>
<g transform="translate(576,528) scale(4.12)"><path d="M3,5.5L3,5.5C1.6,5.5,0.5,4.4,0.5,3V0h5v3C5.5,4.4,4.4,5.5,3,5.5z"/></g>
<g transform="translate(600,528) scale(4.12)"><rect x="0.5" width="5" height="6"/></g>
<g transform="translate(624,528) scale(4.12)"><circle cx="3" cy="3" r="2.5"/></g>
<g transform="translate(648,528) scale(4.12)"><path d="M5.5,6h-5V3c0-1.4,1.1-2.5,2.5-2.5h0c1.4,0,2.5,1.1,2.5,2.5V6z"/></g>
<g transform="translate(672,528) scale(4.12)"><path d="M5.5,6h-5V3c0-1.4,1.1-2.5,2.5-2.5h0c1.4,0,2.5,1.1,2.5,2.5V6z"/></g>
<g transform="translate(768,528) scale(4.12)"><circle cx="3" cy="3" r="2.5"/></g>
<g transform="translate(792,528) scale(4.12)"><rect x="0.5" width="5" height="6"/></g>
<g transform="translate(816,528) scale(4.12)"><circle cx="3" cy="3" r="2.5"/></g>
<g transform="translate(840,528) scale(4.12)"><path d="M5.5,6h-5V3c0-1.4,1.1-2.5,2.5-2.5h0c1.4,0,2.5,1.1,2.5,2.5V6z"/></g>
<g transform="translate(864,528) scale(4.12)"><path d="M5.5,6h-5V3c0-1.4,1.1-2.5,2.5-2.5h0c1.4,0,2.5,1.1,2.5,2.5V6z"/></g>
<g transform="translate(888,528) scale(4.12)"><rect x="0.5" width="5" height="6"/></g>
<g transform="translate(912,528) scale(4.12)"><circle cx="3" cy="3" r="2.5"/></g>
<g transform="translate(48,552) scale(4.12)"><path d="M3,5.5L3,5.5C1.6,5.5,0.5,4.4,0.5,3V0h5v3C5.5,4.4,4.4,5.5,3,5.5z"/></g>
<g transform="translate(96,552) scale(4.12)"><rect x="0.5" width="5" height="6"/></g>
<g transform="translate(216,552) scale(4.12)"><path d="M5.5,6h-5V3c0-1.4,1.1-2.5,2.5-2.5h0c1.4,0,2.5,1.1,2.5,2.5V6z"/></g>
<g transform="translate(264,552) scale(4.12)"><circle cx="3" cy="3" r="2.5"/></g>
<g transform="translate(312,552) scale(4.12)"><rect x="0.5" width="5" height="6"/></g>
<g transform="translate(360,552) scale(4.12)"><circle cx="3" cy="3" r="2.5"/></g>
<g transform="translate(408,552) scale(4.12)"><circle cx="3" cy="3" r="2.5"/></g>
<g transform="translate(504,552) scale(4.12)"><path d="M5.5,6h-5V3c0-1.4,1.1-2.5,2.5-2.5h0c1.4,0,2.5,1.1,2.5,2.5V6z"/></g>
<g transform="translate(600,552) scale(4.12)"><path d="M3,5.5L3,5.5C1.6,5.5,0.5,4.4,0.5,3V0h5v3C5.5,4.4,4.4,5.5,3,5.5z"/></g>
<g transform="translate(648,552) scale(4.12)"><path d="M3,5.5L3,5.5C1.6,5.5,0.5,4.4,0.5,3V0h5v3C5.5,4.4,4.4,5.5,3,5.5z"/></g>
<g transform="translate(672,552) scale(4.12)"><rect x="0.5" width="5" height="6"/></g>
<g transform="translate(792,552) scale(4.12)"><path d="M3,5.5L3,5.5C1.6,5.5,0.5,4.4,0.5,3V0h5v3C5.5,4.4,4.4,5.5,3,5.5z"/></g>
<g transform="translate(840,552) scale(4.12)"><path d="M3,5.5L3,5.5C1.6,5.5,0.5,4.4,0.5,3V0h5v3C5.5,4.4,4.4,5.5,3,5.5z"/></g>
<g transform="translate(864,552) scale(4.12)"><path d="M3,5.5L3,5.5C1.6,5.5,0.5,4.4,0.5,3V0h5v3C5.5,4.4,4.4,5.5,3,5.5z"/></g>
<g transform="translate(888,552) scale(4.12)"><rect x="0.5" width="5" height="6"/></g>
<g transform="translate(72,576) scale(4.12)"><path d="M5.5,6h-5V3c0-1.4,1.1-2.5,2.5-2.5h0c1.4,0,2.5,1.1,2.5,2.5V6z"/></g>
<g transform="translate(96,576) scale(4.12)"><rect x="0.5" width="5" height="6"/></g>
<g transform="translate(120,576) scale(4.12)"><circle cx="3" cy="3" r="2.5"/></g>
<g transform="translate(168,576) scale(4.12)"><circle cx="3" cy="3" r="2.5"/></g>
<g transform="translate(192,576) scale(4.12)"><circle cx="3" cy="3" r="2.5"/></g>
<g transform="translate(216,576) scale(4.12)"><rect x="0.5" width="5" height="6"/></g>
<g transform="translate(288,576) scale(4.12)"><circle cx="3" cy="3" r="2.5"/></g>
<g transform="translate(312,576) scale(4.12)"><path d="M3,5.5L3,5.5C1.6,5.5,0.5,4.4,0.5,3V0h5v3C5.5,4.4,4.4,5.5,3,5.5z"/></g>
<g transform="translate(336,576) scale(4.12)"><circle cx="3" cy="3" r="2.5"/></g>
<g transform="translate(432,576) scale(4.12)"><path d="M5.5,6h-5V3c0-1.4,1.1-2.5,2.5-2.5h0c1.4,0,2.5,1.1,2.5,2.5V6z"/></g>
<g transform="translate(456,576) scale(4.12)"><path d="M5.5,6h-5V3c0-1.4,1.1-2.5,2.5-2.5h0c1.4,0,2.5,1.1,2.5,2.5V6z"/></g>
<g transform="translate(480,576) scale(4.12)"><path d="M5.5,6h-5V3c0-1.4,1.1-2.5,2.5-2.5h0c1.4,0,2.5,1.1,2.5,2.5V6z"/></g>
<g transform="translate(504,576) scale(4.12)"><rect x="0.5" width="5" height="6"/></g>
<g transform="translate(528,576) scale(4.12)"><circle cx="3" cy="3" r="2.5"/></g>
<g transform="translate(552,576) scale(4.12)"><path d="M5.5,6h-5V3c0-1.4,1.1-2.5,2.5-2.5h0c1.4,0,2.5,1.1,2.5,2.5V6z"/></g>
<g transform="translate(672,576) scale(4.12)"><rect x="0.5" width="5" height="6"/></g>
<g transform="translate(696,576) scale(4.12)"><circle cx="3" cy="3" r="2.5"/></g>
<g transform="translate(720,576) scale(4.12)"><path d="M5.5,6h-5V3c0-1.4,1.1-2.5,2.5-2.5h0c1.4,0,2.5,1.1,2.5,2.5V6z"/></g>
<g transform="translate(744,576) scale(4.12)"><circle cx="3" cy="3" r="2.5"/></g>
<g transform="translate(888,576) scale(4.12)"><rect x="0.5" width="5" height="6"/></g>
<g transform="translate(912,576) scale(4.12)"><path d="M5.5,6h-5V3c0-1.4,1.1-2.5,2.5-2.5h0c1.4,0,2.5,1.1,2.5,2.5V6z"/></g>
<g transform="translate(48,600) scale(4.12)"><circle cx="3" cy="3" r="2.5"/></g>
<g transform="translate(72,600) scale(4.12)"><path d="M3,5.5L3,5.5C1.6,5.5,0.5,4.4,0.5,3V0h5v3C5.5,4.4,4.4,5.5,3,5.5z"/></g>
<g transform="translate(96,600) scale(4.12)"><path d="M3,5.5L3,5.5C1.6,5.5,0.5,4.4,0.5,3V0h5v3C5.5,4.4,4.4,5.5,3,5.5z"/></g>
<g transform="translate(144,600) scale(4.12)"><circle cx="3" cy="3" r="2.5"/></g>
<g transform="translate(216,600) scale(4.12)"><path d="M3,5.5L3,5.5C1.6,5.5,0.5,4.4,0.5,3V0h5v3C5.5,4.4,4.4,5.5,3,5.5z"/></g>
<g transform="translate(264,600) scale(4.12)"><path d="M5.5,6h-5V3c0-1.4,1.1-2.5,2.5-2.5h0c1.4,0,2.5,1.1,2.5,2.5V6z"/></g>
<g transform="translate(360,600) scale(4.12)"><circle cx="3" cy="3" r="2.5"/></g>
<g transform="translate(408,600) scale(4.12)"><circle cx="3" cy="3" r="2.5"/></g>
<g transform="translate(432,600) scale(4.12)"><rect x="0.5" width="5" height="6"/></g>
<g transform="translate(456,600) scale(4.12)"><rect x="0.5" width="5" height="6"/></g>
<g transform="translate(480,600) scale(4.12)"><rect x="0.5" width="5" height="6"/></g>
<g transform="translate(504,600) scale(4.12)"><path d="M3,5.5L3,5.5C1.6,5.5,0.5,4.4,0.5,3V0h5v3C5.5,4.4,4.4,5.5,3,5.5z"/></g>
<g transform="translate(552,600) scale(4.12)"><path d="M3,5.5L3,5.5C1.6,5.5,0.5,4.4,0.5,3V0h5v3C5.5,4.4,4.4,5.5,3,5.5z"/></g>
<g transform="translate(576,600) scale(4.12)"><circle cx="3" cy="3" r="2.5"/></g>
<g transform="translate(672,600) scale(4.12)"><rect x="0.5" width="5" height="6"/></g>
<g transform="translate(720,600) scale(4.12)"><path d="M3,5.5L3,5.5C1.6,5.5,0.5,4.4,0.5,3V0h5v3C5.5,4.4,4.4,5.5,3,5.5z"/></g>
<g transform="translate(792,600) scale(4.12)"><circle cx="3" cy="3" r="2.5"/></g>
<g transform="translate(888,600) scale(4.12)"><rect x="0.5" width="5" height="6"/></g>
<g transform="translate(912,600) scale(4.12)"><rect x="0.5" width="5" height="6"/></g>
<g transform="translate(168,624) scale(4.12)"><circle cx="3" cy="3" r="2.5"/></g>
<g transform="translate(192,624) scale(4.12)"><circle cx="3" cy="3" r="2.5"/></g>
<g transform="translate(240,624) scale(4.12)"><path d="M5.5,6h-5V3c0-1.4,1.1-2.5,2.5-2.5h0c1.4,0,2.5,1.1,2.5,2.5V6z"/></g>
<g transform="translate(264,624) scale(4.12)"><path d="M3,5.5L3,5.5C1.6,5.5,0.5,4.4,0.5,3V0h5v3C5.5,4.4,4.4,5.5,3,5.5z"/></g>
<g transform="translate(288,624) scale(4.12)"><path d="M5.5,6h-5V3c0-1.4,1.1-2.5,2.5-2.5h0c1.4,0,2.5,1.1,2.5,2.5V6z"/></g>
<g transform="translate(384,624) scale(4.12)"><circle cx="3" cy="3" r="2.5"/></g>
<g transform="translate(432,624) scale(4.12)"><rect x="0.5" width="5" height="6"/></g>
<g transform="translate(456,624) scale(4.12)"><rect x="0.5" width="5" height="6"/></g>
<g transform="translate(480,624) scale(4.12)"><path d="M3,5.5L3,5.5C1.6,5.5,0.5,4.4,0.5,3V0h5v3C5.5,4.4,4.4,5.5,3,5.5z"/></g>
<g transform="translate(624,624) scale(4.12)"><circle cx="3" cy="3" r="2.5"/></g>
<g transform="translate(648,624) scale(4.12)"><circle cx="3" cy="3" r="2.5"/></g>
<g transform="translate(672,624) scale(4.12)"><path d="M3,5.5L3,5.5C1.6,5.5,0.5,4.4,0.5,3V0h5v3C5.5,4.4,4.4,5.5,3,5.5z"/></g>
<g transform="translate(768,624) scale(4.12)"><circle cx="3" cy="3" r="2.5"/></g>
<g transform="translate(816,624) scale(4.12)"><circle cx="3" cy="3" r="2.5"/></g>
<g transform="translate(864,624) scale(4.12)"><circle cx="3" cy="3" r="2.5"/></g>
<g transform="translate(888,624) scale(4.12)"><rect x="0.5" width="5" height="6"/></g>
<g transform="translate(912,624) scale(4.12)"><path d="M3,5.5L3,5.5C1.6,5.5,0.5,4.4,0.5,3V0h5v3C5.5,4.4,4.4,5.5,3,5.5z"/></g>
<g transform="translate(48,648) scale(4.12)"><path d="M5.5,6h-5V3c0-1.4,1.1-2.5,2.5-2.5h0c1.4,0,2.5,1.1,2.5,2.5V6z"/></g>
<g transform="translate(72,648) scale(4.12)"><circle cx="3" cy="3" r="2.5"/></g>
<g transform="translate(120,648) scale(4.12)"><path d="M5.5,6h-5V3c0-1.4,1.1-2.5,2.5-2.5h0c1.4,0,2.5,1.1,2.5,2.5V6z"/></g>
<g transform="translate(144,648) scale(4.12)"><circle cx="3" cy="3" r="2.5"/></g>
<g transform="translate(240,648) scale(4.12)"><path d="M3,5.5L3,5.5C1.6,5.5,0.5,4.4,0.5,3V0h5v3C5.5,4.4,4.4,5.5,3,5.5z"/></g>
<g transform="translate(288,648) scale(4.12)"><path d="M3,5.5L3,5.5C1.6,5.5,0.5,4.4,0.5,3V0h5v3C5.5,4.4,4.4,5.5,3,5.5z"/></g>
<g transform="translate(312,648) scale(4.12)"><circle cx="3" cy="3" r="2.5"/></g>
<g transform="translate(336,648) scale(4.12)"><circle cx="3" cy="3" r="2.5"/></g>
<g transform="translate(360,648) scale(4.12)"><path d="M5.5,6h-5V3c0-1.4,1.1-2.5,2.5-2.5h0c1.4,0,2.5,1.1,2.5,2.5V6z"/></g>
<g transform="translate(432,648) scale(4.12)"><rect x="0.5" width="5" height="6"/></g>
<g transform="translate(456,648) scale(4.12)"><path d="M3,5.5L3,5.5C1.6,5.5,0.5,4.4,0.5,3V0h5v3C5.5,4.4,4.4,5.5,3,5.5z"/></g>
<g transform="translate(552,648) scale(4.12)"><path d="M5.5,6h-5V3c0-1.4,1.1-2.5,2.5-2.5h0c1.4,0,2.5,1.1,2.5,2.5V6z"/></g>
<g transform="translate(600,648) scale(4.12)"><circle cx="3" cy="3" r="2.5"/></g>
<g transform="translate(720,648) scale(4.12)"><circle cx="3" cy="3" r="2.5"/></g>
<g transform="translate(792,648) scale(4.12)"><path d="M5.5,6h-5V3c0-1.4,1.1-2.5,2.5-2.5h0c1.4,0,2.5,1.1,2.5,2.5V6z"/></g>
<g transform="translate(888,648) scale(4.12)"><rect x="0.5" width="5" height="6"/></g>
<g transform="translate(48,672) scale(4.12)"><rect x="0.5" width="5" height="6"/></g>
<g transform="translate(96,672) scale(4.12)"><path d="M5.5,6h-5V3c0-1.4,1.1-2.5,2.5-2.5h0c1.4,0,2.5,1.1,2.5,2.5V6z"/></g>
<g transform="translate(120,672) scale(4.12)"><path d="M3,5.5L3,5.5C1.6,5.5,0.5,4.4,0.5,3V0h5v3C5.5,4.4,4.4,5.5,3,5.5z"/></g>
<g transform="translate(192,672) scale(4.12)"><circle cx="3" cy="3" r="2.5"/></g>
<g transform="translate(264,672) scale(4.12)"><circle cx="3" cy="3" r="2.5"/></g>
<g transform="translate(360,672) scale(4.12)"><rect x="0.5" width="5" height="6"/></g>
<g transform="translate(384,672) scale(4.12)"><circle cx="3" cy="3" r="2.5"/></g>
<g transform="translate(408,672) scale(4.12)"><path d="M5.5,6h-5V3c0-1.4,1.1-2.5,2.5-2.5h0c1.4,0,2.5,1.1,2.5,2.5V6z"/></g>
<g transform="translate(432,672) scale(4.12)"><path d="M3,5.5L3,5.5C1.6,5.5,0.5,4.4,0.5,3V0h5v3C5.5,4.4,4.4,5.5,3,5.5z"/></g>
<g transform="translate(528,672) scale(4.12)"><circle cx="3" cy="3" r="2.5"/></g>
<g transform="translate(552,672) scale(4.12)"><rect x="0.5" width="5" height="6"/></g>
<g transform="translate(696,672) scale(4.12)"><circle cx="3" cy="3" r="2.5"/></g>
<g transform="translate(792,672) scale(4.12)"><path d="M3,5.5L3,5.5C1.6,5.5,0.5,4.4,0.5,3V0h5v3C5.5,4.4,4.4,5.5,3,5.5z"/></g>
<g transform="translate(840,672) scale(4.12)"><circle cx="3" cy="3" r="2.5"/></g>
<g transform="translate(888,672) scale(4.12)"><rect x="0.5" width="5" height="6"/></g>
<g transform="translate(912,672) scale(4.12)"><circle cx="3" cy="3" r="2.5"/></g>
<g transform="translate(48,696) scale(4.12)"><rect x="0.5" width="5" height="6"/></g>
<g transform="translate(96,696) scale(4.12)"><rect x="0.5" width="5" height="6"/></g>
<g transform="translate(336,696) scale(4.12)"><path d="M5.5,6h-5V3c0-1.4,1.1-2.5,2.5-2.5h0c1.4,0,2.5,1.1,2.5,2.5V6z"/></g>
<g transform="translate(360,696) scale(4.12)"><path d="M3,5.5L3,5.5C1.6,5.5,0.5,4.4,0.5,3V0h5v3C5.5,4.4,4.4,5.5,3,5.5z"/></g>
<g transform="translate(408,696) scale(4.12)"><path d="M3,5.5L3,5.5C1.6,5.5,0.5,4.4,0.5,3V0h5v3C5.5,4.4,4.4,5.5,3,5.5z"/></g>
<g transform="translate(456,696) scale(4.12)"><circle cx="3" cy="3" r="2.5"/></g>
<g transform="translate(480,696) scale(4.12)"><circle cx="3" cy="3" r="2.5"/></g>
<g transform="translate(504,696) scale(4.12)"><circle cx="3" cy="3" r="2.5"/></g>
<g transform="translate(552,696) scale(4.12)"><path d="M3,5.5L3,5.5C1.6,5.5,0.5,4.4,0.5,3V0h5v3C5.5,4.4,4.4,5.5,3,5.5z"/></g>
<g transform="translate(576,696) scale(4.12)"><path d="M5.5,6h-5V3c0-1.4,1.1-2.5,2.5-2.5h0c1.4,0,2.5,1.1,2.5,2.5V6z"/></g>
<g transform="translate(720,696) scale(4.12)"><path d="M5.5,6h-5V3c0-1.4,1.1-2.5,2.5-2.5h0c1.4,0,2.5,1.1,2.5,2.5V6z"/></g>
<g transform="translate(816,696) scale(4.12)"><path d="M5.5,6h-5V3c0-1.4,1.1-2.5,2.5-2.5h0c1.4,0,2.5,1.1,2.5,2.5V6z"/></g>
<g transform="translate(888,696) scale(4.12)"><rect x="0.5" width="5" height="6"/></g>
<g transform="translate(48,720) scale(4.12)"><path d="M3,5.5L3,5.5C1.6,5.5,0.5,4.4,0.5,3V0h5v3C5.5,4.4,4.4,5.5,3,5.5z"/></g>
<g transform="translate(96,720) scale(4.12)"><path d="M3,5.5L3,5.5C1.6,5.5,0.5,4.4,0.5,3V0h5v3C5.5,4.4,4.4,5.5,3,5.5z"/></g>
<g transform="translate(120,720) scale(4.12)"><circle cx="3" cy="3" r="2.5"/></g>
<g transform="translate(144,720) scale(4.12)"><circle cx="3" cy="3" r="2.5"/></g>
<g transform="translate(168,720) scale(4.12)"><circle cx="3" cy="3" r="2.5"/></g>
<g transform="translate(192,720) scale(4.12)"><circle cx="3" cy="3" r="2.5"/></g>
<g transform="translate(240,720) scale(4.12)"><path d="M5.5,6h-5V3c0-1.4,1.1-2.5,2.5-2.5h0c1.4,0,2.5,1.1,2.5,2.5V6z"/></g>
<g transform="translate(288,720) scale(4.12)"><circle cx="3" cy="3" r="2.5"/></g>
<g transform="translate(312,720) scale(4.12)"><circle cx="3" cy="3" r="2.5"/></g>
<g transform="translate(336,720) scale(4.12)"><rect x="0.5" width="5" height="6"/></g>
<g transform="translate(384,720) scale(4.12)"><circle cx="3" cy="3" r="2.5"/></g>
<g transform="translate(432,720) scale(4.12)"><circle cx="3" cy="3" r="2.5"/></g>
<g transform="translate(576,720) scale(4.12)"><rect x="0.5" width="5" height="6"/></g>
<g transform="translate(600,720) scale(4.12)"><path d="M5.5,6h-5V3c0-1.4,1.1-2.5,2.5-2.5h0c1.4,0,2.5,1.1,2.5,2.5V6z"/></g>
<g transform="translate(624,720) scale(4.12)"><circle cx="3" cy="3" r="2.5"/></g>
<g transform="translate(648,720) scale(4.12)"><circle cx="3" cy="3" r="2.5"/></g>
<g transform="translate(672,720) scale(4.12)"><circle cx="3" cy="3" r="2.5"/></g>
<g transform="translate(720,720) scale(4.12)"><rect x="0.5" width="5" height="6"/></g>
<g transform="translate(744,720) scale(4.12)"><circle cx="3" cy="3" r="2.5"/></g>
<g transform="translate(768,720) scale(4.12)"><circle cx="3" cy="3" r="2.5"/></g>
<g transform="translate(792,720) scale(4.12)"><circle cx="3" cy="3" r="2.5"/></g>
<g transform="translate(816,720) scale(4.12)"><rect x="0.5" width="5" height="6"/></g>
<g transform="translate(840,720) scale(4.12)"><circle cx="3" cy="3" r="2.5"/></g>
<g transform="translate(864,720) scale(4.12)"><circle cx="3" cy="3" r="2.5"/></g>
<g transform="translate(888,720) scale(4.12)"><path d="M3,5.5L3,5.5C1.6,5.5,0.5,4.4,0.5,3V0h5v3C5.5,4.4,4.4,5.5,3,5.5z"/></g>
<g transform="translate(240,744) scale(4.12)"><rect x="0.5" width="5" height="6"/></g>
<g transform="translate(336,744) scale(4.12)"><path d="M3,5.5L3,5.5C1.6,5.5,0.5,4.4,0.5,3V0h5v3C5.5,4.4,4.4,5.5,3,5.5z"/></g>
<g transform="translate(456,744) scale(4.12)"><circle cx="3" cy="3" r="2.5"/></g>
<g transform="translate(504,744) scale(4.12)"><path d="M5.5,6h-5V3c0-1.4,1.1-2.5,2.5-2.5h0c1.4,0,2.5,1.1,2.5,2.5V6z"/></g>
<g transform="translate(552,744) scale(4.12)"><path d="M5.5,6h-5V3c0-1.4,1.1-2.5,2.5-2.5h0c1.4,0,2.5,1.1,2.5,2.5V6z"/></g>
<g transform="translate(576,744) scale(4.12)"><path d="M3,5.5L3,5.5C1.6,5.5,0.5,4.4,0.5,3V0h5v3C5.5,4.4,4.4,5.5,3,5.5z"/></g>
<g transform="translate(600,744) scale(4.12)"><path d="M3,5.5L3,5.5C1.6,5.5,0.5,4.4,0.5,3V0h5v3C5.5,4.4,4.4,5.5,3,5.5z"/></g>
<g transform="translate(720,744) scale(4.12)"><rect x="0.5" width="5" height="6"/></g>
<g transform="translate(816,744) scale(4.12)"><rect x="0.5" width="5" height="6"/></g>
<g transform="translate(240,768) scale(4.12)"><rect x="0.5" width="5" height="6"/></g>
<g transform="translate(264,768) scale(4.12)"><circle cx="3" cy="3" r="2.5"/></g>
<g transform="translate(312,768) scale(4.12)"><circle cx="3" cy="3" r="2.5"/></g>
<g transform="translate(408,768) scale(4.12)"><circle cx="3" cy="3" r="2.5"/></g>
<g transform="translate(432,768) scale(4.12)"><path d="M5.5,6h-5V3c0-1.4,1.1-2.5,2.5-2.5h0c1.4,0,2.5,1.1,2.5,2.5V6z"/></g>
<g transform="translate(480,768) scale(4.12)"><path d="M5.5,6h-5V3c0-1.4,1.1-2.5,2.5-2.5h0c1.4,0,2.5,1.1,2.5,2.5V6z"/></g>
<g transform="translate(504,768) scale(4.12)"><rect x="0.5" width="5" height="6"/></g>
<g transform="translate(528,768) scale(4.12)"><circle cx="3" cy="3" r="2.5"/></g>
<g transform="translate(552,768) scale(4.12)"><rect x="0.5" width="5" height="6"/></g>
<g transform="translate(624,768) scale(4.12)"><path d="M5.5,6h-5V3c0-1.4,1.1-2.5,2.5-2.5h0c1.4,0,2.5,1.1,2.5,2.5V6z"/></g>
<g transform="translate(696,768) scale(4.12)"><circle cx="3" cy="3" r="2.5"/></g>
<g transform="translate(720,768) scale(4.12)"><rect x="0.5" width="5" height="6"/></g>
<g transform="translate(768,768) scale(4.12)"><circle cx="3" cy="3" r="2.5"/></g>
<g transform="translate(816,768) scale(4.12)"><rect x="0.5" width="5" height="6"/></g>
<g transform="translate(840,768) scale(4.12)"><circle cx="3" cy="3" r="2.5"/></g>
<g transform="translate(912,768) scale(4.12)"><circle cx="3" cy="3" r="2.5"/></g>
<g transform="translate(240,792) scale(4.12)"><rect x="0.5" width="5" height="6"/></g>
<g transform="translate(288,792) scale(4.12)"><circle cx="3" cy="3" r="2.5"/></g>
<g transform="translate(432,792) scale(4.12)"><rect x="0.5" width="5" height="6"/></g>
<g transform="translate(456,792) scale(4.12)"><path d="M5.5,6h-5V3c0-1.4,1.1-2.5,2.5-2.5h0c1.4,0,2.5,1.1,2.5,2.5V6z"/></g>
<g transform="translate(480,792) scale(4.12)"><path d="M3,5.5L3,5.5C1.6,5.5,0.5,4.4,0.5,3V0h5v3C5.5,4.4,4.4,5.5,3,5.5z"/></g>
<g transform="translate(504,792) scale(4.12)"><rect x="0.5" width="5" height="6"/></g>
<g transform="translate(552,792) scale(4.12)"><rect x="0.5" width="5" height="6"/></g>
<g transform="translate(576,792) scale(4.12)"><circle cx="3" cy="3" r="2.5"/></g>
<g transform="translate(624,792) scale(4.12)"><rect x="0.5" width="5" height="6"/></g>
<g transform="translate(672,792) scale(4.12)"><path d="M5.5,6h-5V3c0-1.4,1.1-2.5,2.5-2.5h0c1.4,0,2.5,1.1,2.5,2.5V6z"/></g>
<g transform="translate(720,792) scale(4.12)"><rect x="0.5" width="5" height="6"/></g>
<g transform="translate(816,792) scale(4.12)"><rect x="0.5" width="5" height="6"/></g>
<g transform="translate(240,816) scale(4.12)"><rect x="0.5" width="5" height="6"/></g>
<g transform="translate(264,816) scale(4.12)"><circle cx="3" cy="3" r="2.5"/></g>
<g transform="translate(312,816) scale(4.12)"><circle cx="3" cy="3" r="2.5"/></g>
<g transform="translate(432,816) scale(4.12)"><rect x="0.5" width="5" height="6"/></g>
<g transform="translate(456,816) scale(4.12)"><path d="M3,5.5L3,5.5C1.6,5.5,0.5,4.4,0.5,3V0h5v3C5.5,4.4,4.4,5.5,3,5.5z"/></g>
<g transform="translate(504,816) scale(4.12)"><path d="M3,5.5L3,5.5C1.6,5.5,0.5,4.4,0.5,3V0h5v3C5.5,4.4,4.4,5.5,3,5.5z"/></g>
<g transform="translate(552,816) scale(4.12)"><rect x="0.5" width="5" height="6"/></g>
<g transform="translate(600,816) scale(4.12)"><circle cx="3" cy="3" r="2.5"/></g>
<g transform="translate(624,816) scale(4.12)"><rect x="0.5" width="5" height="6"/></g>
<g transform="translate(648,816) scale(4.12)"><circle cx="3" cy="3" r="2.5"/></g>
<g transform="translate(672,816) scale(4.12)"><path d="M3,5.5L3,5.5C1.6,5.5,0.5,4.4,0.5,3V0h5v3C5.5,4.4,4.4,5.5,3,5.5z"/></g>
<g transform="translate(696,816) scale(4.12)"><circle cx="3" cy="3" r="2.5"/></g>
<g transform="translate(720,816) scale(4.12)"><rect x="0.5" width="5" height="6"/></g>
<g transform="translate(744,816) scale(4.12)"><circle cx="3" cy="3" r="2.5"/></g>
<g transform="translate(768,816) scale(4.12)"><path d="M5.5,6h-5V3c0-1.4,1.1-2.5,2.5-2.5h0c1.4,0,2.5,1.1,2.5,2.5V6z"/></g>
<g transform="translate(792,816) scale(4.12)"><circle cx="3" cy="3" r="2.5"/></g>
<g transform="translate(816,816) scale(4.12)"><rect x="0.5" width="5" height="6"/></g>
<g transform="translate(864,816) scale(4.12)"><path d="M5.5,6h-5V3c0-1.4,1.1-2.5,2.5-2.5h0c1.4,0,2.5,1.1,2.5,2.5V6z"/></g>
<g transform="translate(888,816) scale(4.12)"><path d="M5.5,6h-5V3c0-1.4,1.1-2.5,2.5-2.5h0c1.4,0,2.5,1.1,2.5,2.5V6z"/></g>
<g transform="translate(240,840) scale(4.12)"><rect x="0.5" width="5" height="6"/></g>
<g transform="translate(336,840) scale(4.12)"><path d="M5.5,6h-5V3c0-1.4,1.1-2.5,2.5-2.5h0c1.4,0,2.5,1.1,2.5,2.5V6z"/></g>
<g transform="translate(360,840) scale(4.12)"><path d="M5.5,6h-5V3c0-1.4,1.1-2.5,2.5-2.5h0c1.4,0,2.5,1.1,2.5,2.5V6z"/></g>
<g transform="translate(384,840) scale(4.12)"><path d="M5.5,6h-5V3c0-1.4,1.1-2.5,2.5-2.5h0c1.4,0,2.5,1.1,2.5,2.5V6z"/></g>
<g transform="translate(432,840) scale(4.12)"><path d="M3,5.5L3,5.5C1.6,5.5,0.5,4.4,0.5,3V0h5v3C5.5,4.4,4.4,5.5,3,5.5z"/></g>
<g transform="translate(480,840) scale(4.12)"><path d="M5.5,6h-5V3c0-1.4,1.1-2.5,2.5-2.5h0c1.4,0,2.5,1.1,2.5,2.5V6z"/></g>
<g transform="translate(528,840) scale(4.12)"><circle cx="3" cy="3" r="2.5"/></g>
<g transform="translate(552,840) scale(4.12)"><rect x="0.5" width="5" height="6"/></g>
<g transform="translate(576,840) scale(4.12)"><path d="M5.5,6h-5V3c0-1.4,1.1-2.5,2.5-2.5h0c1.4,0,2.5,1.1,2.5,2.5V6z"/></g>
<g transform="translate(624,840) scale(4.12)"><rect x="0.5" width="5" height="6"/></g>
<g transform="translate(720,840) scale(4.12)"><rect x="0.5" width="5" height="6"/></g>
<g transform="translate(768,840) scale(4.12)"><path d="M3,5.5L3,5.5C1.6,5.5,0.5,4.4,0.5,3V0h5v3C5.5,4.4,4.4,5.5,3,5.5z"/></g>
<g transform="translate(816,840) scale(4.12)"><path d="M3,5.5L3,5.5C1.6,5.5,0.5,4.4,0.5,3V0h5v3C5.5,4.4,4.4,5.5,3,5.5z"/></g>
<g transform="translate(864,840) scale(4.12)"><rect x="0.5" width="5" height="6"/></g>
<g transform="translate(888,840) scale(4.12)"><path d="M3,5.5L3,5.5C1.6,5.5,0.5,4.4,0.5,3V0h5v3C5.5,4.4,4.4,5.5,3,5.5z"/></g>
<g transform="translate(240,864) scale(4.12)"><rect x="0.5" width="5" height="6"/></g>
<g transform="translate(288,864) scale(4.12)"><path d="M5.5,6h-5V3c0-1.4,1.1-2.5,2.5-2.5h0c1.4,0,2.5,1.1,2.5,2.5V6z"/></g>
<g transform="translate(312,864) scale(4.12)"><path d="M5.5,6h-5V3c0-1.4,1.1-2.5,2.5-2.5h0c1.4,0,2.5,1.1,2.5,2.5V6z"/></g>
<g transform="translate(336,864) scale(4.12)"><path d="M3,5.5L3,5.5C1.6,5.5,0.5,4.4,0.5,3V0h5v3C5.5,4.4,4.4,5.5,3,5.5z"/></g>
<g transform="translate(360,864) scale(4.12)"><path d="M3,5.5L3,5.5C1.6,5.5,0.5,4.4,0.5,3V0h5v3C5.5,4.4,4.4,5.5,3,5.5z"/></g>
<g transform="translate(384,864) scale(4.12)"><path d="M3,5.5L3,5.5C1.6,5.5,0.5,4.4,0.5,3V0h5v3C5.5,4.4,4.4,5.5,3,5.5z"/></g>
<g transform="translate(408,864) scale(4.12)"><path d="M5.5,6h-5V3c0-1.4,1.1-2.5,2.5-2.5h0c1.4,0,2.5,1.1,2.5,2.5V6z"/></g>
<g transform="translate(480,864) scale(4.12)"><rect x="0.5" width="5" height="6"/></g>
<g transform="translate(504,864) scale(4.12)"><path d="M5.5,6h-5V3c0-1.4,1.1-2.5,2.5-2.5h0c1.4,0,2.5,1.1,2.5,2.5V6z"/></g>
<g transform="translate(552,864) scale(4.12)"><rect x="0.5" width="5" height="6"/></g>
<g transform="translate(576,864) scale(4.12)"><rect x="0.5" width="5" height="6"/></g>
<g transform="translate(624,864) scale(4.12)"><path d="M3,5.5L3,5.5C1.6,5.5,0.5,4.4,0.5,3V0h5v3C5.5,4.4,4.4,5.5,3,5.5z"/></g>
<g transform="translate(648,864) scale(4.12)"><circle cx="3" cy="3" r="2.5"/></g>
<g transform="translate(672,864) scale(4.12)"><path d="M5.5,6h-5V3c0-1.4,1.1-2.5,2.5-2.5h0c1.4,0,2.5,1.1,2.5,2.5V6z"/></g>
<g transform="translate(720,864) scale(4.12)"><rect x="0.5" width="5" height="6"/></g>
<g transform="translate(792,864) scale(4.12)"><circle cx="3" cy="3" r="2.5"/></g>
<g transform="translate(864,864) scale(4.12)"><path d="M3,5.5L3,5.5C1.6,5.5,0.5,4.4,0.5,3V0h5v3C5.5,4.4,4.4,5.5,3,5.5z"/></g>
<g transform="translate(912,864) scale(4.12)"><path d="M5.5,6h-5V3c0-1.4,1.1-2.5,2.5-2.5h0c1.4,0,2.5,1.1,2.5,2.5V6z"/></g>
<g transform="translate(240,888) scale(4.12)"><path d="M3,5.5L3,5.5C1.6,5.5,0.5,4.4,0.5,3V0h5v3C5.5,4.4,4.4,5.5,3,5.5z"/></g>
<g transform="translate(264,888) scale(4.12)"><path d="M5.5,6h-5V3c0-1.4,1.1-2.5,2.5-2.5h0c1.4,0,2.5,1.1,2.5,2.5V6z"/></g>
<g transform="translate(288,888) scale(4.12)"><path d="M3,5.5L3,5.5C1.6,5.5,0.5,4.4,0.5,3V0h5v3C5.5,4.4,4.4,5.5,3,5.5z"/></g>
<g transform="translate(312,888) scale(4.12)"><rect x="0.5" width="5" height="6"/></g>
<g transform="translate(408,888) scale(4.12)"><path d="M3,5.5L3,5.5C1.6,5.5,0.5,4.4,0.5,3V0h5v3C5.5,4.4,4.4,5.5,3,5.5z"/></g>
<g transform="translate(456,888) scale(4.12)"><path d="M5.5,6h-5V3c0-1.4,1.1-2.5,2.5-2.5h0c1.4,0,2.5,1.1,2.5,2.5V6z"/></g>
<g transform="translate(480,888) scale(4.12)"><path d="M3,5.5L3,5.5C1.6,5.5,0.5,4.4,0.5,3V0h5v3C5.5,4.4,4.4,5.5,3,5.5z"/></g>
<g transform="translate(504,888) scale(4.12)"><rect x="0.5" width="5" height="6"/></g>
<g transform="translate(528,888) scale(4.12)"><circle cx="3" cy="3" r="2.5"/></g>
<g transform="translate(552,888) scale(4.12)"><path d="M3,5.5L3,5.5C1.6,5.5,0.5,4.4,0.5,3V0h5v3C5.5,4.4,4.4,5.5,3,5.5z"/></g>
<g transform="translate(576,888) scale(4.12)"><rect x="0.5" width="5" height="6"/></g>
<g transform="translate(672,888) scale(4.12)"><rect x="0.5" width="5" height="6"/></g>
<g transform="translate(696,888) scale(4.12)"><circle cx="3" cy="3" r="2.5"/></g>
<g transform="translate(720,888) scale(4.12)"><path d="M3,5.5L3,5.5C1.6,5.5,0.5,4.4,0.5,3V0h5v3C5.5,4.4,4.4,5.5,3,5.5z"/></g>
<g transform="translate(744,888) scale(4.12)"><circle cx="3" cy="3" r="2.5"/></g>
<g transform="translate(768,888) scale(4.12)"><path d="M5.5,6h-5V3c0-1.4,1.1-2.5,2.5-2.5h0c1.4,0,2.5,1.1,2.5,2.5V6z"/></g>
<g transform="translate(912,888) scale(4.12)"><rect x="0.5" width="5" height="6"/></g>
<g transform="translate(264,912) scale(4.12)"><path d="M3,5.5L3,5.5C1.6,5.5,0.5,4.4,0.5,3V0h5v3C5.5,4.4,4.4,5.5,3,5.5z"/></g>
<g transform="translate(312,912) scale(4.12)"><path d="M3,5.5L3,5.5C1.6,5.5,0.5,4.4,0.5,3V0h5v3C5.5,4.4,4.4,5.5,3,5.5z"/></g>
<g transform="translate(336,912) scale(4.12)"><circle cx="3" cy="3" r="2.5"/></g>
<g transform="translate(432,912) scale(4.12)"><circle cx="3" cy="3" r="2.5"/></g>
<g transform="translate(456,912) scale(4.12)"><path d="M3,5.5L3,5.5C1.6,5.5,0.5,4.4,0.5,3V0h5v3C5.5,4.4,4.4,5.5,3,5.5z"/></g>
<g transform="translate(504,912) scale(4.12)"><path d="M3,5.5L3,5.5C1.6,5.5,0.5,4.4,0.5,3V0h5v3C5.5,4.4,4.4,5.5,3,5.5z"/></g>
<g transform="translate(576,912) scale(4.12)"><path d="M3,5.5L3,5.5C1.6,5.5,0.5,4.4,0.5,3V0h5v3C5.5,4.4,4.4,5.5,3,5.5z"/></g>
<g transform="translate(600,912) scale(4.12)"><circle cx="3" cy="3" r="2.5"/></g>
<g transform="translate(624,912) scale(4.12)"><circle cx="3" cy="3" r="2.5"/></g>
<g transform="translate(648,912) scale(4.12)"><circle cx="3" cy="3" r="2.5"/></g>
<g transform="translate(672,912) scale(4.12)"><path d="M3,5.5L3,5.5C1.6,5.5,0.5,4.4,0.5,3V0h5v3C5.5,4.4,4.4,5.5,3,5.5z"/></g>
<g transform="translate(768,912) scale(4.12)"><path d="M3,5.5L3,5.5C1.6,5.5,0.5,4.4,0.5,3V0h5v3C5.5,4.4,4.4,5.5,3,5.5z"/></g>
<g transform="translate(792,912) scale(4.12)"><circle cx="3" cy="3" r="2.5"/></g>
<g transform="translate(840,912) scale(4.12)"><circle cx="3" cy="3" r="2.5"/></g>
<g transform="translate(864,912) scale(4.12)"><circle cx="3" cy="3" r="2.5"/></g>
<g transform="translate(888,912) scale(4.12)"><circle cx="3" cy="3" r="2.5"/></g>
<g transform="translate(912,912) scale(4.12)"><path d="M3,5.5L3,5.5C1.6,5.5,0.5,4.4,0.5,3V0h5v3C5.5,4.4,4.4,5.5,3,5.5z"/></g>
<g transform="translate(48,48)"><g transform="scale(12)"><path d="M0,0l0,14h14V0H0z M7,12L7,12c-2.8,0-5-2.2-5-5v0c0-2.8,2.2-5,5-5h0c2.8,0,5,2.2,5,5v0C12,9.8,9.8,12,7,12z"/></g></g>
<g transform="translate(768,48)"><g transform="scale(12)"><path d="M0,0l0,14h14V0H0z M7,12L7,12c-2.8,0-5-2.2-5-5v0c0-2.8,2.2-5,5-5h0c2.8,0,5,2.2,5,5v0C12,9.8,9.8,12,7,12z"/></g></g>
<g transform="translate(48,768)"><g transform="scale(12)"><path d="M0,0l0,14h14V0H0z M7,12L7,12c-2.8,0-5-2.2-5-5v0c0-2.8,2.2-5,5-5h0c2.8,0,5,2.2,5,5v0C12,9.8,9.8,12,7,12z"/></g></g>
<g transform="translate(96,96)"><g transform="scale(12)"><path d="M6,1.8C5.9,1,5.3,0.4,4.5,0.3C3.9,0.2,3.4,0.5,3,0.9C2.6,0.5,2.1,0.3,1.6,0.3C0.8,0.4,0.1,1,0,1.8 C0,2.3,0.1,2.7,0.3,3l0,0l0,0c0.1,0.1,0.2,0.2,0.3,0.3l1.9,2.2c0.3,0.3,0.7,0.3,0.9,0l1.8-1.9c0.1-0.1,0.3-0.3,0.4-0.5 C5.9,2.8,6.1,2.3,6,1.8z"/></g></g>
<g transform="translate(816,96)"><g transform="scale(12)"><path d="M6,1.8C5.9,1,5.3,0.4,4.5,0.3C3.9,0.2,3.4,0.5,3,0.9C2.6,0.5,2.1,0.3,1.6,0.3C0.8,0.4,0.1,1,0,1.8 C0,2.3,0.1,2.7,0.3,3l0,0l0,0c0.1,0.1,0.2,0.2,0.3,0.3l1.9,2.2c0.3,0.3,0.7,0.3,0.9,0l1.8-1.9c0.1-0.1,0.3-0.3,0.4-0.5 C5.9,2.8,6.1,2.3,6,1.8z"/></g></g>
<g transform="translate(96,816)"><g transform="scale(12)"><path d="M6,1.8C5.9,1,5.3,0.4,4.5,0.3C3.9,0.2,3.4,0.5,3,0.9C2.6,0.5,2.1,0.3,1.6,0.3C0.8,0.4,0.1,1,0,1.8 C0,2.3,0.1,2.7,0.3,3l0,0l0,0c0.1,0.1,0.2,0.2,0.3,0.3l1.9,2.2c0.3,0.3,0.7,0.3,0.9,0l1.8-1.9c0.1-0.1,0.3-0.3,0.4-0.5 C5.9,2.8,6.1,2.3,6,1.8z"/></g></g>
</g></g></mask></defs><rect width="984" height="984" fill="#ffffff" x="0" y="0"/><rect x="0" y="0" width="984" height="984" mask="url(#qrmask)" fill="url(#pattern-gradient)"/></svg>
